%TF.GenerationSoftware,KiCad,Pcbnew,10.0.4-10.0.4~ubuntu24.04.1*%
%TF.CreationDate,2026-06-26T13:50:28-06:00*%
%TF.ProjectId,robot-buddy-reflex,726f626f-742d-4627-9564-64792d726566,rev?*%
%TF.SameCoordinates,Original*%
%TF.FileFunction,Paste,Top*%
%TF.FilePolarity,Positive*%
%FSLAX46Y46*%
G04 Gerber Fmt 4.6, Leading zero omitted, Abs format (unit mm)*
G04 Created by KiCad (PCBNEW 10.0.4-10.0.4~ubuntu24.04.1) date 2026-06-26 13:50:28*
%MOMM*%
%LPD*%
G01*
G04 APERTURE LIST*
G04 Aperture macros list*
%AMRoundRect*
0 Rectangle with rounded corners*
0 $1 Rounding radius*
0 $2 $3 $4 $5 $6 $7 $8 $9 X,Y pos of 4 corners*
0 Add a 4 corners polygon primitive as box body*
4,1,4,$2,$3,$4,$5,$6,$7,$8,$9,$2,$3,0*
0 Add four circle primitives for the rounded corners*
1,1,$1+$1,$2,$3*
1,1,$1+$1,$4,$5*
1,1,$1+$1,$6,$7*
1,1,$1+$1,$8,$9*
0 Add four rect primitives between the rounded corners*
20,1,$1+$1,$2,$3,$4,$5,0*
20,1,$1+$1,$4,$5,$6,$7,0*
20,1,$1+$1,$6,$7,$8,$9,0*
20,1,$1+$1,$8,$9,$2,$3,0*%
G04 Aperture macros list end*
%ADD10RoundRect,0.135000X-0.135000X-0.185000X0.135000X-0.185000X0.135000X0.185000X-0.135000X0.185000X0*%
%ADD11R,2.760000X1.500000*%
%ADD12R,1.300000X1.300000*%
%ADD13RoundRect,0.140000X-0.140000X-0.170000X0.140000X-0.170000X0.140000X0.170000X-0.140000X0.170000X0*%
%ADD14RoundRect,0.150000X-0.150000X-0.625000X0.150000X-0.625000X0.150000X0.625000X-0.150000X0.625000X0*%
%ADD15RoundRect,0.250000X-0.350000X-0.650000X0.350000X-0.650000X0.350000X0.650000X-0.350000X0.650000X0*%
G04 APERTURE END LIST*
D10*
%TO.C,R9*%
X6500000Y-25510000D03*
X6500000Y-24490000D03*
%TD*%
%TO.C,R1*%
X30000000Y-33510000D03*
X30000000Y-32490000D03*
%TD*%
D11*
%TO.C,U1*%
X10380000Y-17590000D03*
X10380000Y-20130000D03*
X10380000Y-22670000D03*
X10380000Y-25210000D03*
X10380000Y-27750000D03*
X10380000Y-30290000D03*
X10380000Y-32830000D03*
X10380000Y-35370000D03*
X10380000Y-37910000D03*
D12*
X13870000Y-30840000D03*
X13870000Y-32430000D03*
X13870000Y-34020000D03*
X13870000Y-35610000D03*
X22220000Y-30840000D03*
X22220000Y-32430000D03*
X22220000Y-34020000D03*
X22220000Y-35610000D03*
D11*
X25620000Y-17590000D03*
X25620000Y-20130000D03*
X25620000Y-22670000D03*
X25620000Y-25210000D03*
X25620000Y-27750000D03*
X25620000Y-30290000D03*
X25620000Y-32830000D03*
X25620000Y-35370000D03*
X25620000Y-37910000D03*
%TD*%
D13*
%TO.C,C1*%
X30000000Y-23980000D03*
X30000000Y-23020000D03*
%TD*%
D10*
%TO.C,R3*%
X30000000Y-26510000D03*
X30000000Y-25490000D03*
%TD*%
%TO.C,R4*%
X30000000Y-21510000D03*
X30000000Y-20490000D03*
%TD*%
D13*
%TO.C,C4*%
X30000000Y-38980000D03*
X30000000Y-38020000D03*
%TD*%
D10*
%TO.C,R7*%
X6500000Y-37510000D03*
X6500000Y-36490000D03*
%TD*%
D14*
%TO.C,J5*%
X11500000Y-57325000D03*
X12500000Y-57325000D03*
X13500000Y-57325000D03*
X14500000Y-57325000D03*
D15*
X10200000Y-54800000D03*
X15800000Y-54800000D03*
%TD*%
D10*
%TO.C,R2*%
X30000000Y-36010000D03*
X30000000Y-34990000D03*
%TD*%
D13*
%TO.C,C5*%
X30000000Y-41980000D03*
X30000000Y-41020000D03*
%TD*%
D10*
%TO.C,R8*%
X6500000Y-22510000D03*
X6500000Y-21490000D03*
%TD*%
%TO.C,R5*%
X6500000Y-31510000D03*
X6500000Y-30490000D03*
%TD*%
D13*
%TO.C,C2*%
X6500000Y-28480000D03*
X6500000Y-27520000D03*
%TD*%
D10*
%TO.C,R6*%
X6500000Y-34510000D03*
X6500000Y-33490000D03*
%TD*%
M02*
