%TF.GenerationSoftware,KiCad,Pcbnew,10.0.4-10.0.4~ubuntu24.04.1*%
%TF.CreationDate,2026-06-26T14:02:44-06:00*%
%TF.ProjectId,robot-buddy-reflex,726f626f-742d-4627-9564-64792d726566,rev?*%
%TF.SameCoordinates,Original*%
%TF.FileFunction,Legend,Bot*%
%TF.FilePolarity,Positive*%
%FSLAX46Y46*%
G04 Gerber Fmt 4.6, Leading zero omitted, Abs format (unit mm)*
G04 Created by KiCad (PCBNEW 10.0.4-10.0.4~ubuntu24.04.1) date 2026-06-26 14:02:44*
%MOMM*%
%LPD*%
G01*
G04 APERTURE LIST*
G04 Aperture macros list*
%AMRoundRect*
0 Rectangle with rounded corners*
0 $1 Rounding radius*
0 $2 $3 $4 $5 $6 $7 $8 $9 X,Y pos of 4 corners*
0 Add a 4 corners polygon primitive as box body*
4,1,4,$2,$3,$4,$5,$6,$7,$8,$9,$2,$3,0*
0 Add four circle primitives for the rounded corners*
1,1,$1+$1,$2,$3*
1,1,$1+$1,$4,$5*
1,1,$1+$1,$6,$7*
1,1,$1+$1,$8,$9*
0 Add four rect primitives between the rounded corners*
20,1,$1+$1,$2,$3,$4,$5,0*
20,1,$1+$1,$4,$5,$6,$7,0*
20,1,$1+$1,$6,$7,$8,$9,0*
20,1,$1+$1,$8,$9,$2,$3,0*%
G04 Aperture macros list end*
%ADD10RoundRect,0.250000X-0.600000X-0.725000X0.600000X-0.725000X0.600000X0.725000X-0.600000X0.725000X0*%
%ADD11O,1.700000X1.950000*%
%ADD12C,3.200000*%
%ADD13RoundRect,0.250000X-0.600000X-0.750000X0.600000X-0.750000X0.600000X0.750000X-0.600000X0.750000X0*%
%ADD14O,1.700000X2.000000*%
%ADD15RoundRect,0.250000X-0.750000X-0.750000X0.750000X-0.750000X0.750000X0.750000X-0.750000X0.750000X0*%
%ADD16C,2.000000*%
%ADD17R,1.700000X1.700000*%
%ADD18C,1.700000*%
G04 APERTURE END LIST*
%LPC*%
D10*
%TO.C,J6*%
X5000000Y-3000000D03*
D11*
X7500000Y-3000000D03*
X10000000Y-3000000D03*
X12500000Y-3000000D03*
%TD*%
D12*
%TO.C,MH3*%
X4000000Y-56000000D03*
%TD*%
%TO.C,MH2*%
X55000000Y-11000000D03*
%TD*%
D13*
%TO.C,J7*%
X22000000Y-3000000D03*
D14*
X24500000Y-3000000D03*
%TD*%
D15*
%TO.C,C3*%
X46000000Y-50000000D03*
D16*
X51000000Y-50000000D03*
%TD*%
D10*
%TO.C,J2*%
X62150000Y-42000000D03*
D11*
X62150000Y-39500000D03*
X62150000Y-37000000D03*
X62150000Y-34500000D03*
X62150000Y-32000000D03*
X62150000Y-29500000D03*
%TD*%
D17*
%TO.C,U2*%
X38380000Y-19110000D03*
D18*
X38380000Y-21650000D03*
X38380000Y-24190000D03*
X38380000Y-26730000D03*
X38380000Y-29270000D03*
X38380000Y-31810000D03*
X38380000Y-34350000D03*
X38380000Y-36890000D03*
X53620000Y-19110000D03*
X53620000Y-21650000D03*
X53620000Y-24190000D03*
X53620000Y-26730000D03*
X53620000Y-29270000D03*
X53620000Y-31810000D03*
X53620000Y-34350000D03*
X53620000Y-36890000D03*
%TD*%
D10*
%TO.C,J9*%
X1500000Y-34000000D03*
D11*
X1500000Y-36500000D03*
X1500000Y-39000000D03*
X1500000Y-41500000D03*
%TD*%
D13*
%TO.C,J8*%
X1500000Y-20000000D03*
D14*
X1500000Y-22500000D03*
%TD*%
D12*
%TO.C,MH4*%
X55000000Y-56000000D03*
%TD*%
%TO.C,MH1*%
X4000000Y-11000000D03*
%TD*%
D10*
%TO.C,J1*%
X62150000Y-17000000D03*
D11*
X62150000Y-14500000D03*
X62150000Y-12000000D03*
X62150000Y-9500000D03*
X62150000Y-7000000D03*
X62150000Y-4500000D03*
%TD*%
%LPD*%
M02*
