%TF.GenerationSoftware,KiCad,Pcbnew,10.0.4-10.0.4~ubuntu24.04.1*%
%TF.CreationDate,2026-06-26T14:02:44-06:00*%
%TF.ProjectId,robot-buddy-reflex,726f626f-742d-4627-9564-64792d726566,rev?*%
%TF.SameCoordinates,Original*%
%TF.FileFunction,Legend,Top*%
%TF.FilePolarity,Positive*%
%FSLAX46Y46*%
G04 Gerber Fmt 4.6, Leading zero omitted, Abs format (unit mm)*
G04 Created by KiCad (PCBNEW 10.0.4-10.0.4~ubuntu24.04.1) date 2026-06-26 14:02:44*
%MOMM*%
%LPD*%
G01*
G04 APERTURE LIST*
G04 Aperture macros list*
%AMRoundRect*
0 Rectangle with rounded corners*
0 $1 Rounding radius*
0 $2 $3 $4 $5 $6 $7 $8 $9 X,Y pos of 4 corners*
0 Add a 4 corners polygon primitive as box body*
4,1,4,$2,$3,$4,$5,$6,$7,$8,$9,$2,$3,0*
0 Add four circle primitives for the rounded corners*
1,1,$1+$1,$2,$3*
1,1,$1+$1,$4,$5*
1,1,$1+$1,$6,$7*
1,1,$1+$1,$8,$9*
0 Add four rect primitives between the rounded corners*
20,1,$1+$1,$2,$3,$4,$5,0*
20,1,$1+$1,$4,$5,$6,$7,0*
20,1,$1+$1,$6,$7,$8,$9,0*
20,1,$1+$1,$8,$9,$2,$3,0*%
G04 Aperture macros list end*
%ADD10C,0.100000*%
%ADD11C,0.120000*%
%ADD12C,0.200000*%
%ADD13RoundRect,0.250000X-0.600000X-0.725000X0.600000X-0.725000X0.600000X0.725000X-0.600000X0.725000X0*%
%ADD14O,1.700000X1.950000*%
%ADD15C,3.200000*%
%ADD16RoundRect,0.250000X-0.600000X-0.750000X0.600000X-0.750000X0.600000X0.750000X-0.600000X0.750000X0*%
%ADD17O,1.700000X2.000000*%
%ADD18RoundRect,0.250000X-0.750000X-0.750000X0.750000X-0.750000X0.750000X0.750000X-0.750000X0.750000X0*%
%ADD19C,2.000000*%
%ADD20RoundRect,0.135000X-0.135000X-0.185000X0.135000X-0.185000X0.135000X0.185000X-0.135000X0.185000X0*%
%ADD21R,2.760000X1.500000*%
%ADD22R,1.300000X1.300000*%
%ADD23RoundRect,0.140000X-0.140000X-0.170000X0.140000X-0.170000X0.140000X0.170000X-0.140000X0.170000X0*%
%ADD24R,1.700000X1.700000*%
%ADD25C,1.700000*%
%ADD26RoundRect,0.150000X-0.150000X-0.625000X0.150000X-0.625000X0.150000X0.625000X-0.150000X0.625000X0*%
%ADD27RoundRect,0.250000X-0.350000X-0.650000X0.350000X-0.650000X0.350000X0.650000X-0.350000X0.650000X0*%
G04 APERTURE END LIST*
D10*
X4766666Y-1064895D02*
X4766666Y-1636323D01*
X4766666Y-1636323D02*
X4733333Y-1750609D01*
X4733333Y-1750609D02*
X4666666Y-1826800D01*
X4666666Y-1826800D02*
X4566666Y-1864895D01*
X4566666Y-1864895D02*
X4500000Y-1864895D01*
X5399999Y-1064895D02*
X5266666Y-1064895D01*
X5266666Y-1064895D02*
X5199999Y-1102990D01*
X5199999Y-1102990D02*
X5166666Y-1141085D01*
X5166666Y-1141085D02*
X5099999Y-1255371D01*
X5099999Y-1255371D02*
X5066666Y-1407752D01*
X5066666Y-1407752D02*
X5066666Y-1712514D01*
X5066666Y-1712514D02*
X5099999Y-1788704D01*
X5099999Y-1788704D02*
X5133333Y-1826800D01*
X5133333Y-1826800D02*
X5199999Y-1864895D01*
X5199999Y-1864895D02*
X5333333Y-1864895D01*
X5333333Y-1864895D02*
X5399999Y-1826800D01*
X5399999Y-1826800D02*
X5433333Y-1788704D01*
X5433333Y-1788704D02*
X5466666Y-1712514D01*
X5466666Y-1712514D02*
X5466666Y-1522038D01*
X5466666Y-1522038D02*
X5433333Y-1445847D01*
X5433333Y-1445847D02*
X5399999Y-1407752D01*
X5399999Y-1407752D02*
X5333333Y-1369657D01*
X5333333Y-1369657D02*
X5199999Y-1369657D01*
X5199999Y-1369657D02*
X5133333Y-1407752D01*
X5133333Y-1407752D02*
X5099999Y-1445847D01*
X5099999Y-1445847D02*
X5066666Y-1522038D01*
X3066666Y-54864895D02*
X3066666Y-54064895D01*
X3066666Y-54064895D02*
X3300000Y-54636323D01*
X3300000Y-54636323D02*
X3533333Y-54064895D01*
X3533333Y-54064895D02*
X3533333Y-54864895D01*
X3866666Y-54864895D02*
X3866666Y-54064895D01*
X3866666Y-54445847D02*
X4266666Y-54445847D01*
X4266666Y-54864895D02*
X4266666Y-54064895D01*
X4533333Y-54064895D02*
X4966666Y-54064895D01*
X4966666Y-54064895D02*
X4733333Y-54369657D01*
X4733333Y-54369657D02*
X4833333Y-54369657D01*
X4833333Y-54369657D02*
X4899999Y-54407752D01*
X4899999Y-54407752D02*
X4933333Y-54445847D01*
X4933333Y-54445847D02*
X4966666Y-54522038D01*
X4966666Y-54522038D02*
X4966666Y-54712514D01*
X4966666Y-54712514D02*
X4933333Y-54788704D01*
X4933333Y-54788704D02*
X4899999Y-54826800D01*
X4899999Y-54826800D02*
X4833333Y-54864895D01*
X4833333Y-54864895D02*
X4633333Y-54864895D01*
X4633333Y-54864895D02*
X4566666Y-54826800D01*
X4566666Y-54826800D02*
X4533333Y-54788704D01*
X54066666Y-9864895D02*
X54066666Y-9064895D01*
X54066666Y-9064895D02*
X54300000Y-9636323D01*
X54300000Y-9636323D02*
X54533333Y-9064895D01*
X54533333Y-9064895D02*
X54533333Y-9864895D01*
X54866666Y-9864895D02*
X54866666Y-9064895D01*
X54866666Y-9445847D02*
X55266666Y-9445847D01*
X55266666Y-9864895D02*
X55266666Y-9064895D01*
X55566666Y-9141085D02*
X55599999Y-9102990D01*
X55599999Y-9102990D02*
X55666666Y-9064895D01*
X55666666Y-9064895D02*
X55833333Y-9064895D01*
X55833333Y-9064895D02*
X55899999Y-9102990D01*
X55899999Y-9102990D02*
X55933333Y-9141085D01*
X55933333Y-9141085D02*
X55966666Y-9217276D01*
X55966666Y-9217276D02*
X55966666Y-9293466D01*
X55966666Y-9293466D02*
X55933333Y-9407752D01*
X55933333Y-9407752D02*
X55533333Y-9864895D01*
X55533333Y-9864895D02*
X55966666Y-9864895D01*
X21766666Y-1064895D02*
X21766666Y-1636323D01*
X21766666Y-1636323D02*
X21733333Y-1750609D01*
X21733333Y-1750609D02*
X21666666Y-1826800D01*
X21666666Y-1826800D02*
X21566666Y-1864895D01*
X21566666Y-1864895D02*
X21500000Y-1864895D01*
X22033333Y-1064895D02*
X22499999Y-1064895D01*
X22499999Y-1064895D02*
X22199999Y-1864895D01*
X45883333Y-48788704D02*
X45850000Y-48826800D01*
X45850000Y-48826800D02*
X45750000Y-48864895D01*
X45750000Y-48864895D02*
X45683333Y-48864895D01*
X45683333Y-48864895D02*
X45583333Y-48826800D01*
X45583333Y-48826800D02*
X45516667Y-48750609D01*
X45516667Y-48750609D02*
X45483333Y-48674419D01*
X45483333Y-48674419D02*
X45450000Y-48522038D01*
X45450000Y-48522038D02*
X45450000Y-48407752D01*
X45450000Y-48407752D02*
X45483333Y-48255371D01*
X45483333Y-48255371D02*
X45516667Y-48179180D01*
X45516667Y-48179180D02*
X45583333Y-48102990D01*
X45583333Y-48102990D02*
X45683333Y-48064895D01*
X45683333Y-48064895D02*
X45750000Y-48064895D01*
X45750000Y-48064895D02*
X45850000Y-48102990D01*
X45850000Y-48102990D02*
X45883333Y-48141085D01*
X46116667Y-48064895D02*
X46550000Y-48064895D01*
X46550000Y-48064895D02*
X46316667Y-48369657D01*
X46316667Y-48369657D02*
X46416667Y-48369657D01*
X46416667Y-48369657D02*
X46483333Y-48407752D01*
X46483333Y-48407752D02*
X46516667Y-48445847D01*
X46516667Y-48445847D02*
X46550000Y-48522038D01*
X46550000Y-48522038D02*
X46550000Y-48712514D01*
X46550000Y-48712514D02*
X46516667Y-48788704D01*
X46516667Y-48788704D02*
X46483333Y-48826800D01*
X46483333Y-48826800D02*
X46416667Y-48864895D01*
X46416667Y-48864895D02*
X46216667Y-48864895D01*
X46216667Y-48864895D02*
X46150000Y-48826800D01*
X46150000Y-48826800D02*
X46116667Y-48788704D01*
X6383333Y-23864895D02*
X6150000Y-23483942D01*
X5983333Y-23864895D02*
X5983333Y-23064895D01*
X5983333Y-23064895D02*
X6250000Y-23064895D01*
X6250000Y-23064895D02*
X6316667Y-23102990D01*
X6316667Y-23102990D02*
X6350000Y-23141085D01*
X6350000Y-23141085D02*
X6383333Y-23217276D01*
X6383333Y-23217276D02*
X6383333Y-23331561D01*
X6383333Y-23331561D02*
X6350000Y-23407752D01*
X6350000Y-23407752D02*
X6316667Y-23445847D01*
X6316667Y-23445847D02*
X6250000Y-23483942D01*
X6250000Y-23483942D02*
X5983333Y-23483942D01*
X6716667Y-23864895D02*
X6850000Y-23864895D01*
X6850000Y-23864895D02*
X6916667Y-23826800D01*
X6916667Y-23826800D02*
X6950000Y-23788704D01*
X6950000Y-23788704D02*
X7016667Y-23674419D01*
X7016667Y-23674419D02*
X7050000Y-23522038D01*
X7050000Y-23522038D02*
X7050000Y-23217276D01*
X7050000Y-23217276D02*
X7016667Y-23141085D01*
X7016667Y-23141085D02*
X6983333Y-23102990D01*
X6983333Y-23102990D02*
X6916667Y-23064895D01*
X6916667Y-23064895D02*
X6783333Y-23064895D01*
X6783333Y-23064895D02*
X6716667Y-23102990D01*
X6716667Y-23102990D02*
X6683333Y-23141085D01*
X6683333Y-23141085D02*
X6650000Y-23217276D01*
X6650000Y-23217276D02*
X6650000Y-23407752D01*
X6650000Y-23407752D02*
X6683333Y-23483942D01*
X6683333Y-23483942D02*
X6716667Y-23522038D01*
X6716667Y-23522038D02*
X6783333Y-23560133D01*
X6783333Y-23560133D02*
X6916667Y-23560133D01*
X6916667Y-23560133D02*
X6983333Y-23522038D01*
X6983333Y-23522038D02*
X7016667Y-23483942D01*
X7016667Y-23483942D02*
X7050000Y-23407752D01*
X29883333Y-31864895D02*
X29650000Y-31483942D01*
X29483333Y-31864895D02*
X29483333Y-31064895D01*
X29483333Y-31064895D02*
X29750000Y-31064895D01*
X29750000Y-31064895D02*
X29816667Y-31102990D01*
X29816667Y-31102990D02*
X29850000Y-31141085D01*
X29850000Y-31141085D02*
X29883333Y-31217276D01*
X29883333Y-31217276D02*
X29883333Y-31331561D01*
X29883333Y-31331561D02*
X29850000Y-31407752D01*
X29850000Y-31407752D02*
X29816667Y-31445847D01*
X29816667Y-31445847D02*
X29750000Y-31483942D01*
X29750000Y-31483942D02*
X29483333Y-31483942D01*
X30550000Y-31864895D02*
X30150000Y-31864895D01*
X30350000Y-31864895D02*
X30350000Y-31064895D01*
X30350000Y-31064895D02*
X30283333Y-31179180D01*
X30283333Y-31179180D02*
X30216667Y-31255371D01*
X30216667Y-31255371D02*
X30150000Y-31293466D01*
X61916666Y-40064895D02*
X61916666Y-40636323D01*
X61916666Y-40636323D02*
X61883333Y-40750609D01*
X61883333Y-40750609D02*
X61816666Y-40826800D01*
X61816666Y-40826800D02*
X61716666Y-40864895D01*
X61716666Y-40864895D02*
X61650000Y-40864895D01*
X62216666Y-40141085D02*
X62249999Y-40102990D01*
X62249999Y-40102990D02*
X62316666Y-40064895D01*
X62316666Y-40064895D02*
X62483333Y-40064895D01*
X62483333Y-40064895D02*
X62549999Y-40102990D01*
X62549999Y-40102990D02*
X62583333Y-40141085D01*
X62583333Y-40141085D02*
X62616666Y-40217276D01*
X62616666Y-40217276D02*
X62616666Y-40293466D01*
X62616666Y-40293466D02*
X62583333Y-40407752D01*
X62583333Y-40407752D02*
X62183333Y-40864895D01*
X62183333Y-40864895D02*
X62616666Y-40864895D01*
X8466666Y-14064895D02*
X8466666Y-14712514D01*
X8466666Y-14712514D02*
X8500000Y-14788704D01*
X8500000Y-14788704D02*
X8533333Y-14826800D01*
X8533333Y-14826800D02*
X8600000Y-14864895D01*
X8600000Y-14864895D02*
X8733333Y-14864895D01*
X8733333Y-14864895D02*
X8800000Y-14826800D01*
X8800000Y-14826800D02*
X8833333Y-14788704D01*
X8833333Y-14788704D02*
X8866666Y-14712514D01*
X8866666Y-14712514D02*
X8866666Y-14064895D01*
X9566666Y-14864895D02*
X9166666Y-14864895D01*
X9366666Y-14864895D02*
X9366666Y-14064895D01*
X9366666Y-14064895D02*
X9299999Y-14179180D01*
X9299999Y-14179180D02*
X9233333Y-14255371D01*
X9233333Y-14255371D02*
X9166666Y-14293466D01*
X29883333Y-22288704D02*
X29850000Y-22326800D01*
X29850000Y-22326800D02*
X29750000Y-22364895D01*
X29750000Y-22364895D02*
X29683333Y-22364895D01*
X29683333Y-22364895D02*
X29583333Y-22326800D01*
X29583333Y-22326800D02*
X29516667Y-22250609D01*
X29516667Y-22250609D02*
X29483333Y-22174419D01*
X29483333Y-22174419D02*
X29450000Y-22022038D01*
X29450000Y-22022038D02*
X29450000Y-21907752D01*
X29450000Y-21907752D02*
X29483333Y-21755371D01*
X29483333Y-21755371D02*
X29516667Y-21679180D01*
X29516667Y-21679180D02*
X29583333Y-21602990D01*
X29583333Y-21602990D02*
X29683333Y-21564895D01*
X29683333Y-21564895D02*
X29750000Y-21564895D01*
X29750000Y-21564895D02*
X29850000Y-21602990D01*
X29850000Y-21602990D02*
X29883333Y-21641085D01*
X30550000Y-22364895D02*
X30150000Y-22364895D01*
X30350000Y-22364895D02*
X30350000Y-21564895D01*
X30350000Y-21564895D02*
X30283333Y-21679180D01*
X30283333Y-21679180D02*
X30216667Y-21755371D01*
X30216667Y-21755371D02*
X30150000Y-21793466D01*
X29883333Y-24864895D02*
X29650000Y-24483942D01*
X29483333Y-24864895D02*
X29483333Y-24064895D01*
X29483333Y-24064895D02*
X29750000Y-24064895D01*
X29750000Y-24064895D02*
X29816667Y-24102990D01*
X29816667Y-24102990D02*
X29850000Y-24141085D01*
X29850000Y-24141085D02*
X29883333Y-24217276D01*
X29883333Y-24217276D02*
X29883333Y-24331561D01*
X29883333Y-24331561D02*
X29850000Y-24407752D01*
X29850000Y-24407752D02*
X29816667Y-24445847D01*
X29816667Y-24445847D02*
X29750000Y-24483942D01*
X29750000Y-24483942D02*
X29483333Y-24483942D01*
X30116667Y-24064895D02*
X30550000Y-24064895D01*
X30550000Y-24064895D02*
X30316667Y-24369657D01*
X30316667Y-24369657D02*
X30416667Y-24369657D01*
X30416667Y-24369657D02*
X30483333Y-24407752D01*
X30483333Y-24407752D02*
X30516667Y-24445847D01*
X30516667Y-24445847D02*
X30550000Y-24522038D01*
X30550000Y-24522038D02*
X30550000Y-24712514D01*
X30550000Y-24712514D02*
X30516667Y-24788704D01*
X30516667Y-24788704D02*
X30483333Y-24826800D01*
X30483333Y-24826800D02*
X30416667Y-24864895D01*
X30416667Y-24864895D02*
X30216667Y-24864895D01*
X30216667Y-24864895D02*
X30150000Y-24826800D01*
X30150000Y-24826800D02*
X30116667Y-24788704D01*
X45466666Y-26064895D02*
X45466666Y-26712514D01*
X45466666Y-26712514D02*
X45500000Y-26788704D01*
X45500000Y-26788704D02*
X45533333Y-26826800D01*
X45533333Y-26826800D02*
X45600000Y-26864895D01*
X45600000Y-26864895D02*
X45733333Y-26864895D01*
X45733333Y-26864895D02*
X45800000Y-26826800D01*
X45800000Y-26826800D02*
X45833333Y-26788704D01*
X45833333Y-26788704D02*
X45866666Y-26712514D01*
X45866666Y-26712514D02*
X45866666Y-26064895D01*
X46166666Y-26141085D02*
X46199999Y-26102990D01*
X46199999Y-26102990D02*
X46266666Y-26064895D01*
X46266666Y-26064895D02*
X46433333Y-26064895D01*
X46433333Y-26064895D02*
X46499999Y-26102990D01*
X46499999Y-26102990D02*
X46533333Y-26141085D01*
X46533333Y-26141085D02*
X46566666Y-26217276D01*
X46566666Y-26217276D02*
X46566666Y-26293466D01*
X46566666Y-26293466D02*
X46533333Y-26407752D01*
X46533333Y-26407752D02*
X46133333Y-26864895D01*
X46133333Y-26864895D02*
X46566666Y-26864895D01*
X30238020Y-19474895D02*
X30238020Y-18674895D01*
X30238020Y-18674895D02*
X30542782Y-18674895D01*
X30542782Y-18674895D02*
X30618972Y-18712990D01*
X30618972Y-18712990D02*
X30657067Y-18751085D01*
X30657067Y-18751085D02*
X30695163Y-18827276D01*
X30695163Y-18827276D02*
X30695163Y-18941561D01*
X30695163Y-18941561D02*
X30657067Y-19017752D01*
X30657067Y-19017752D02*
X30618972Y-19055847D01*
X30618972Y-19055847D02*
X30542782Y-19093942D01*
X30542782Y-19093942D02*
X30238020Y-19093942D01*
X31038020Y-19474895D02*
X31038020Y-18941561D01*
X31038020Y-18674895D02*
X30999924Y-18712990D01*
X30999924Y-18712990D02*
X31038020Y-18751085D01*
X31038020Y-18751085D02*
X31076115Y-18712990D01*
X31076115Y-18712990D02*
X31038020Y-18674895D01*
X31038020Y-18674895D02*
X31038020Y-18751085D01*
X31418972Y-18941561D02*
X31418972Y-19474895D01*
X31418972Y-19017752D02*
X31457067Y-18979657D01*
X31457067Y-18979657D02*
X31533257Y-18941561D01*
X31533257Y-18941561D02*
X31647543Y-18941561D01*
X31647543Y-18941561D02*
X31723734Y-18979657D01*
X31723734Y-18979657D02*
X31761829Y-19055847D01*
X31761829Y-19055847D02*
X31761829Y-19474895D01*
X33171353Y-19474895D02*
X32714210Y-19474895D01*
X32942782Y-19474895D02*
X32942782Y-18674895D01*
X32942782Y-18674895D02*
X32866591Y-18789180D01*
X32866591Y-18789180D02*
X32790401Y-18865371D01*
X32790401Y-18865371D02*
X32714210Y-18903466D01*
X34352306Y-19779657D02*
X34314211Y-19741561D01*
X34314211Y-19741561D02*
X34238020Y-19627276D01*
X34238020Y-19627276D02*
X34199925Y-19551085D01*
X34199925Y-19551085D02*
X34161830Y-19436800D01*
X34161830Y-19436800D02*
X34123735Y-19246323D01*
X34123735Y-19246323D02*
X34123735Y-19093942D01*
X34123735Y-19093942D02*
X34161830Y-18903466D01*
X34161830Y-18903466D02*
X34199925Y-18789180D01*
X34199925Y-18789180D02*
X34238020Y-18712990D01*
X34238020Y-18712990D02*
X34314211Y-18598704D01*
X34314211Y-18598704D02*
X34352306Y-18560609D01*
X34657068Y-19474895D02*
X34657068Y-18674895D01*
X34657068Y-18674895D02*
X34961830Y-18674895D01*
X34961830Y-18674895D02*
X35038020Y-18712990D01*
X35038020Y-18712990D02*
X35076115Y-18751085D01*
X35076115Y-18751085D02*
X35114211Y-18827276D01*
X35114211Y-18827276D02*
X35114211Y-18941561D01*
X35114211Y-18941561D02*
X35076115Y-19017752D01*
X35076115Y-19017752D02*
X35038020Y-19055847D01*
X35038020Y-19055847D02*
X34961830Y-19093942D01*
X34961830Y-19093942D02*
X34657068Y-19093942D01*
X35380877Y-18674895D02*
X35571353Y-19474895D01*
X35571353Y-19474895D02*
X35723734Y-18903466D01*
X35723734Y-18903466D02*
X35876115Y-19474895D01*
X35876115Y-19474895D02*
X36066592Y-18674895D01*
X36371354Y-19474895D02*
X36371354Y-18674895D01*
X36371354Y-18674895D02*
X36638020Y-19246323D01*
X36638020Y-19246323D02*
X36904687Y-18674895D01*
X36904687Y-18674895D02*
X36904687Y-19474895D01*
X37247544Y-19246323D02*
X37628497Y-19246323D01*
X37171354Y-19474895D02*
X37438021Y-18674895D01*
X37438021Y-18674895D02*
X37704687Y-19474895D01*
X37895163Y-19779657D02*
X37933258Y-19741561D01*
X37933258Y-19741561D02*
X38009449Y-19627276D01*
X38009449Y-19627276D02*
X38047544Y-19551085D01*
X38047544Y-19551085D02*
X38085639Y-19436800D01*
X38085639Y-19436800D02*
X38123735Y-19246323D01*
X38123735Y-19246323D02*
X38123735Y-19093942D01*
X38123735Y-19093942D02*
X38085639Y-18903466D01*
X38085639Y-18903466D02*
X38047544Y-18789180D01*
X38047544Y-18789180D02*
X38009449Y-18712990D01*
X38009449Y-18712990D02*
X37933258Y-18598704D01*
X37933258Y-18598704D02*
X37895163Y-18560609D01*
X53876265Y-19474895D02*
X53876265Y-18674895D01*
X53876265Y-18674895D02*
X54181027Y-18674895D01*
X54181027Y-18674895D02*
X54257217Y-18712990D01*
X54257217Y-18712990D02*
X54295312Y-18751085D01*
X54295312Y-18751085D02*
X54333408Y-18827276D01*
X54333408Y-18827276D02*
X54333408Y-18941561D01*
X54333408Y-18941561D02*
X54295312Y-19017752D01*
X54295312Y-19017752D02*
X54257217Y-19055847D01*
X54257217Y-19055847D02*
X54181027Y-19093942D01*
X54181027Y-19093942D02*
X53876265Y-19093942D01*
X54676265Y-19474895D02*
X54676265Y-18941561D01*
X54676265Y-18674895D02*
X54638169Y-18712990D01*
X54638169Y-18712990D02*
X54676265Y-18751085D01*
X54676265Y-18751085D02*
X54714360Y-18712990D01*
X54714360Y-18712990D02*
X54676265Y-18674895D01*
X54676265Y-18674895D02*
X54676265Y-18751085D01*
X55057217Y-18941561D02*
X55057217Y-19474895D01*
X55057217Y-19017752D02*
X55095312Y-18979657D01*
X55095312Y-18979657D02*
X55171502Y-18941561D01*
X55171502Y-18941561D02*
X55285788Y-18941561D01*
X55285788Y-18941561D02*
X55361979Y-18979657D01*
X55361979Y-18979657D02*
X55400074Y-19055847D01*
X55400074Y-19055847D02*
X55400074Y-19474895D01*
X56428646Y-19474895D02*
X56581027Y-19474895D01*
X56581027Y-19474895D02*
X56657217Y-19436800D01*
X56657217Y-19436800D02*
X56695313Y-19398704D01*
X56695313Y-19398704D02*
X56771503Y-19284419D01*
X56771503Y-19284419D02*
X56809598Y-19132038D01*
X56809598Y-19132038D02*
X56809598Y-18827276D01*
X56809598Y-18827276D02*
X56771503Y-18751085D01*
X56771503Y-18751085D02*
X56733408Y-18712990D01*
X56733408Y-18712990D02*
X56657217Y-18674895D01*
X56657217Y-18674895D02*
X56504836Y-18674895D01*
X56504836Y-18674895D02*
X56428646Y-18712990D01*
X56428646Y-18712990D02*
X56390551Y-18751085D01*
X56390551Y-18751085D02*
X56352455Y-18827276D01*
X56352455Y-18827276D02*
X56352455Y-19017752D01*
X56352455Y-19017752D02*
X56390551Y-19093942D01*
X56390551Y-19093942D02*
X56428646Y-19132038D01*
X56428646Y-19132038D02*
X56504836Y-19170133D01*
X56504836Y-19170133D02*
X56657217Y-19170133D01*
X56657217Y-19170133D02*
X56733408Y-19132038D01*
X56733408Y-19132038D02*
X56771503Y-19093942D01*
X56771503Y-19093942D02*
X56809598Y-19017752D01*
X57990551Y-19779657D02*
X57952456Y-19741561D01*
X57952456Y-19741561D02*
X57876265Y-19627276D01*
X57876265Y-19627276D02*
X57838170Y-19551085D01*
X57838170Y-19551085D02*
X57800075Y-19436800D01*
X57800075Y-19436800D02*
X57761980Y-19246323D01*
X57761980Y-19246323D02*
X57761980Y-19093942D01*
X57761980Y-19093942D02*
X57800075Y-18903466D01*
X57800075Y-18903466D02*
X57838170Y-18789180D01*
X57838170Y-18789180D02*
X57876265Y-18712990D01*
X57876265Y-18712990D02*
X57952456Y-18598704D01*
X57952456Y-18598704D02*
X57990551Y-18560609D01*
X58181027Y-18674895D02*
X58447694Y-19474895D01*
X58447694Y-19474895D02*
X58714360Y-18674895D01*
X58981027Y-19474895D02*
X58981027Y-18674895D01*
X58981027Y-18674895D02*
X59247693Y-19246323D01*
X59247693Y-19246323D02*
X59514360Y-18674895D01*
X59514360Y-18674895D02*
X59514360Y-19474895D01*
X59819122Y-19779657D02*
X59857217Y-19741561D01*
X59857217Y-19741561D02*
X59933408Y-19627276D01*
X59933408Y-19627276D02*
X59971503Y-19551085D01*
X59971503Y-19551085D02*
X60009598Y-19436800D01*
X60009598Y-19436800D02*
X60047694Y-19246323D01*
X60047694Y-19246323D02*
X60047694Y-19093942D01*
X60047694Y-19093942D02*
X60009598Y-18903466D01*
X60009598Y-18903466D02*
X59971503Y-18789180D01*
X59971503Y-18789180D02*
X59933408Y-18712990D01*
X59933408Y-18712990D02*
X59857217Y-18598704D01*
X59857217Y-18598704D02*
X59819122Y-18560609D01*
X29883333Y-19864895D02*
X29650000Y-19483942D01*
X29483333Y-19864895D02*
X29483333Y-19064895D01*
X29483333Y-19064895D02*
X29750000Y-19064895D01*
X29750000Y-19064895D02*
X29816667Y-19102990D01*
X29816667Y-19102990D02*
X29850000Y-19141085D01*
X29850000Y-19141085D02*
X29883333Y-19217276D01*
X29883333Y-19217276D02*
X29883333Y-19331561D01*
X29883333Y-19331561D02*
X29850000Y-19407752D01*
X29850000Y-19407752D02*
X29816667Y-19445847D01*
X29816667Y-19445847D02*
X29750000Y-19483942D01*
X29750000Y-19483942D02*
X29483333Y-19483942D01*
X30483333Y-19331561D02*
X30483333Y-19864895D01*
X30316667Y-19026800D02*
X30150000Y-19598228D01*
X30150000Y-19598228D02*
X30583333Y-19598228D01*
X1266666Y-32064895D02*
X1266666Y-32636323D01*
X1266666Y-32636323D02*
X1233333Y-32750609D01*
X1233333Y-32750609D02*
X1166666Y-32826800D01*
X1166666Y-32826800D02*
X1066666Y-32864895D01*
X1066666Y-32864895D02*
X1000000Y-32864895D01*
X1633333Y-32864895D02*
X1766666Y-32864895D01*
X1766666Y-32864895D02*
X1833333Y-32826800D01*
X1833333Y-32826800D02*
X1866666Y-32788704D01*
X1866666Y-32788704D02*
X1933333Y-32674419D01*
X1933333Y-32674419D02*
X1966666Y-32522038D01*
X1966666Y-32522038D02*
X1966666Y-32217276D01*
X1966666Y-32217276D02*
X1933333Y-32141085D01*
X1933333Y-32141085D02*
X1899999Y-32102990D01*
X1899999Y-32102990D02*
X1833333Y-32064895D01*
X1833333Y-32064895D02*
X1699999Y-32064895D01*
X1699999Y-32064895D02*
X1633333Y-32102990D01*
X1633333Y-32102990D02*
X1599999Y-32141085D01*
X1599999Y-32141085D02*
X1566666Y-32217276D01*
X1566666Y-32217276D02*
X1566666Y-32407752D01*
X1566666Y-32407752D02*
X1599999Y-32483942D01*
X1599999Y-32483942D02*
X1633333Y-32522038D01*
X1633333Y-32522038D02*
X1699999Y-32560133D01*
X1699999Y-32560133D02*
X1833333Y-32560133D01*
X1833333Y-32560133D02*
X1899999Y-32522038D01*
X1899999Y-32522038D02*
X1933333Y-32483942D01*
X1933333Y-32483942D02*
X1966666Y-32407752D01*
X1266666Y-18064895D02*
X1266666Y-18636323D01*
X1266666Y-18636323D02*
X1233333Y-18750609D01*
X1233333Y-18750609D02*
X1166666Y-18826800D01*
X1166666Y-18826800D02*
X1066666Y-18864895D01*
X1066666Y-18864895D02*
X1000000Y-18864895D01*
X1699999Y-18407752D02*
X1633333Y-18369657D01*
X1633333Y-18369657D02*
X1599999Y-18331561D01*
X1599999Y-18331561D02*
X1566666Y-18255371D01*
X1566666Y-18255371D02*
X1566666Y-18217276D01*
X1566666Y-18217276D02*
X1599999Y-18141085D01*
X1599999Y-18141085D02*
X1633333Y-18102990D01*
X1633333Y-18102990D02*
X1699999Y-18064895D01*
X1699999Y-18064895D02*
X1833333Y-18064895D01*
X1833333Y-18064895D02*
X1899999Y-18102990D01*
X1899999Y-18102990D02*
X1933333Y-18141085D01*
X1933333Y-18141085D02*
X1966666Y-18217276D01*
X1966666Y-18217276D02*
X1966666Y-18255371D01*
X1966666Y-18255371D02*
X1933333Y-18331561D01*
X1933333Y-18331561D02*
X1899999Y-18369657D01*
X1899999Y-18369657D02*
X1833333Y-18407752D01*
X1833333Y-18407752D02*
X1699999Y-18407752D01*
X1699999Y-18407752D02*
X1633333Y-18445847D01*
X1633333Y-18445847D02*
X1599999Y-18483942D01*
X1599999Y-18483942D02*
X1566666Y-18560133D01*
X1566666Y-18560133D02*
X1566666Y-18712514D01*
X1566666Y-18712514D02*
X1599999Y-18788704D01*
X1599999Y-18788704D02*
X1633333Y-18826800D01*
X1633333Y-18826800D02*
X1699999Y-18864895D01*
X1699999Y-18864895D02*
X1833333Y-18864895D01*
X1833333Y-18864895D02*
X1899999Y-18826800D01*
X1899999Y-18826800D02*
X1933333Y-18788704D01*
X1933333Y-18788704D02*
X1966666Y-18712514D01*
X1966666Y-18712514D02*
X1966666Y-18560133D01*
X1966666Y-18560133D02*
X1933333Y-18483942D01*
X1933333Y-18483942D02*
X1899999Y-18445847D01*
X1899999Y-18445847D02*
X1833333Y-18407752D01*
X54066666Y-54864895D02*
X54066666Y-54064895D01*
X54066666Y-54064895D02*
X54300000Y-54636323D01*
X54300000Y-54636323D02*
X54533333Y-54064895D01*
X54533333Y-54064895D02*
X54533333Y-54864895D01*
X54866666Y-54864895D02*
X54866666Y-54064895D01*
X54866666Y-54445847D02*
X55266666Y-54445847D01*
X55266666Y-54864895D02*
X55266666Y-54064895D01*
X55899999Y-54331561D02*
X55899999Y-54864895D01*
X55733333Y-54026800D02*
X55566666Y-54598228D01*
X55566666Y-54598228D02*
X55999999Y-54598228D01*
X29883333Y-37388704D02*
X29850000Y-37426800D01*
X29850000Y-37426800D02*
X29750000Y-37464895D01*
X29750000Y-37464895D02*
X29683333Y-37464895D01*
X29683333Y-37464895D02*
X29583333Y-37426800D01*
X29583333Y-37426800D02*
X29516667Y-37350609D01*
X29516667Y-37350609D02*
X29483333Y-37274419D01*
X29483333Y-37274419D02*
X29450000Y-37122038D01*
X29450000Y-37122038D02*
X29450000Y-37007752D01*
X29450000Y-37007752D02*
X29483333Y-36855371D01*
X29483333Y-36855371D02*
X29516667Y-36779180D01*
X29516667Y-36779180D02*
X29583333Y-36702990D01*
X29583333Y-36702990D02*
X29683333Y-36664895D01*
X29683333Y-36664895D02*
X29750000Y-36664895D01*
X29750000Y-36664895D02*
X29850000Y-36702990D01*
X29850000Y-36702990D02*
X29883333Y-36741085D01*
X30483333Y-36931561D02*
X30483333Y-37464895D01*
X30316667Y-36626800D02*
X30150000Y-37198228D01*
X30150000Y-37198228D02*
X30583333Y-37198228D01*
X6383333Y-35864895D02*
X6150000Y-35483942D01*
X5983333Y-35864895D02*
X5983333Y-35064895D01*
X5983333Y-35064895D02*
X6250000Y-35064895D01*
X6250000Y-35064895D02*
X6316667Y-35102990D01*
X6316667Y-35102990D02*
X6350000Y-35141085D01*
X6350000Y-35141085D02*
X6383333Y-35217276D01*
X6383333Y-35217276D02*
X6383333Y-35331561D01*
X6383333Y-35331561D02*
X6350000Y-35407752D01*
X6350000Y-35407752D02*
X6316667Y-35445847D01*
X6316667Y-35445847D02*
X6250000Y-35483942D01*
X6250000Y-35483942D02*
X5983333Y-35483942D01*
X6616667Y-35064895D02*
X7083333Y-35064895D01*
X7083333Y-35064895D02*
X6783333Y-35864895D01*
X3066666Y-9864895D02*
X3066666Y-9064895D01*
X3066666Y-9064895D02*
X3300000Y-9636323D01*
X3300000Y-9636323D02*
X3533333Y-9064895D01*
X3533333Y-9064895D02*
X3533333Y-9864895D01*
X3866666Y-9864895D02*
X3866666Y-9064895D01*
X3866666Y-9445847D02*
X4266666Y-9445847D01*
X4266666Y-9864895D02*
X4266666Y-9064895D01*
X4966666Y-9864895D02*
X4566666Y-9864895D01*
X4766666Y-9864895D02*
X4766666Y-9064895D01*
X4766666Y-9064895D02*
X4699999Y-9179180D01*
X4699999Y-9179180D02*
X4633333Y-9255371D01*
X4633333Y-9255371D02*
X4566666Y-9293466D01*
X12766666Y-54064895D02*
X12766666Y-54636323D01*
X12766666Y-54636323D02*
X12733333Y-54750609D01*
X12733333Y-54750609D02*
X12666666Y-54826800D01*
X12666666Y-54826800D02*
X12566666Y-54864895D01*
X12566666Y-54864895D02*
X12500000Y-54864895D01*
X13433333Y-54064895D02*
X13099999Y-54064895D01*
X13099999Y-54064895D02*
X13066666Y-54445847D01*
X13066666Y-54445847D02*
X13099999Y-54407752D01*
X13099999Y-54407752D02*
X13166666Y-54369657D01*
X13166666Y-54369657D02*
X13333333Y-54369657D01*
X13333333Y-54369657D02*
X13399999Y-54407752D01*
X13399999Y-54407752D02*
X13433333Y-54445847D01*
X13433333Y-54445847D02*
X13466666Y-54522038D01*
X13466666Y-54522038D02*
X13466666Y-54712514D01*
X13466666Y-54712514D02*
X13433333Y-54788704D01*
X13433333Y-54788704D02*
X13399999Y-54826800D01*
X13399999Y-54826800D02*
X13333333Y-54864895D01*
X13333333Y-54864895D02*
X13166666Y-54864895D01*
X13166666Y-54864895D02*
X13099999Y-54826800D01*
X13099999Y-54826800D02*
X13066666Y-54788704D01*
X29883333Y-34364895D02*
X29650000Y-33983942D01*
X29483333Y-34364895D02*
X29483333Y-33564895D01*
X29483333Y-33564895D02*
X29750000Y-33564895D01*
X29750000Y-33564895D02*
X29816667Y-33602990D01*
X29816667Y-33602990D02*
X29850000Y-33641085D01*
X29850000Y-33641085D02*
X29883333Y-33717276D01*
X29883333Y-33717276D02*
X29883333Y-33831561D01*
X29883333Y-33831561D02*
X29850000Y-33907752D01*
X29850000Y-33907752D02*
X29816667Y-33945847D01*
X29816667Y-33945847D02*
X29750000Y-33983942D01*
X29750000Y-33983942D02*
X29483333Y-33983942D01*
X30150000Y-33641085D02*
X30183333Y-33602990D01*
X30183333Y-33602990D02*
X30250000Y-33564895D01*
X30250000Y-33564895D02*
X30416667Y-33564895D01*
X30416667Y-33564895D02*
X30483333Y-33602990D01*
X30483333Y-33602990D02*
X30516667Y-33641085D01*
X30516667Y-33641085D02*
X30550000Y-33717276D01*
X30550000Y-33717276D02*
X30550000Y-33793466D01*
X30550000Y-33793466D02*
X30516667Y-33907752D01*
X30516667Y-33907752D02*
X30116667Y-34364895D01*
X30116667Y-34364895D02*
X30550000Y-34364895D01*
X61916666Y-15064895D02*
X61916666Y-15636323D01*
X61916666Y-15636323D02*
X61883333Y-15750609D01*
X61883333Y-15750609D02*
X61816666Y-15826800D01*
X61816666Y-15826800D02*
X61716666Y-15864895D01*
X61716666Y-15864895D02*
X61650000Y-15864895D01*
X62616666Y-15864895D02*
X62216666Y-15864895D01*
X62416666Y-15864895D02*
X62416666Y-15064895D01*
X62416666Y-15064895D02*
X62349999Y-15179180D01*
X62349999Y-15179180D02*
X62283333Y-15255371D01*
X62283333Y-15255371D02*
X62216666Y-15293466D01*
X29883333Y-40288704D02*
X29850000Y-40326800D01*
X29850000Y-40326800D02*
X29750000Y-40364895D01*
X29750000Y-40364895D02*
X29683333Y-40364895D01*
X29683333Y-40364895D02*
X29583333Y-40326800D01*
X29583333Y-40326800D02*
X29516667Y-40250609D01*
X29516667Y-40250609D02*
X29483333Y-40174419D01*
X29483333Y-40174419D02*
X29450000Y-40022038D01*
X29450000Y-40022038D02*
X29450000Y-39907752D01*
X29450000Y-39907752D02*
X29483333Y-39755371D01*
X29483333Y-39755371D02*
X29516667Y-39679180D01*
X29516667Y-39679180D02*
X29583333Y-39602990D01*
X29583333Y-39602990D02*
X29683333Y-39564895D01*
X29683333Y-39564895D02*
X29750000Y-39564895D01*
X29750000Y-39564895D02*
X29850000Y-39602990D01*
X29850000Y-39602990D02*
X29883333Y-39641085D01*
X30516667Y-39564895D02*
X30183333Y-39564895D01*
X30183333Y-39564895D02*
X30150000Y-39945847D01*
X30150000Y-39945847D02*
X30183333Y-39907752D01*
X30183333Y-39907752D02*
X30250000Y-39869657D01*
X30250000Y-39869657D02*
X30416667Y-39869657D01*
X30416667Y-39869657D02*
X30483333Y-39907752D01*
X30483333Y-39907752D02*
X30516667Y-39945847D01*
X30516667Y-39945847D02*
X30550000Y-40022038D01*
X30550000Y-40022038D02*
X30550000Y-40212514D01*
X30550000Y-40212514D02*
X30516667Y-40288704D01*
X30516667Y-40288704D02*
X30483333Y-40326800D01*
X30483333Y-40326800D02*
X30416667Y-40364895D01*
X30416667Y-40364895D02*
X30250000Y-40364895D01*
X30250000Y-40364895D02*
X30183333Y-40326800D01*
X30183333Y-40326800D02*
X30150000Y-40288704D01*
X6383333Y-20864895D02*
X6150000Y-20483942D01*
X5983333Y-20864895D02*
X5983333Y-20064895D01*
X5983333Y-20064895D02*
X6250000Y-20064895D01*
X6250000Y-20064895D02*
X6316667Y-20102990D01*
X6316667Y-20102990D02*
X6350000Y-20141085D01*
X6350000Y-20141085D02*
X6383333Y-20217276D01*
X6383333Y-20217276D02*
X6383333Y-20331561D01*
X6383333Y-20331561D02*
X6350000Y-20407752D01*
X6350000Y-20407752D02*
X6316667Y-20445847D01*
X6316667Y-20445847D02*
X6250000Y-20483942D01*
X6250000Y-20483942D02*
X5983333Y-20483942D01*
X6783333Y-20407752D02*
X6716667Y-20369657D01*
X6716667Y-20369657D02*
X6683333Y-20331561D01*
X6683333Y-20331561D02*
X6650000Y-20255371D01*
X6650000Y-20255371D02*
X6650000Y-20217276D01*
X6650000Y-20217276D02*
X6683333Y-20141085D01*
X6683333Y-20141085D02*
X6716667Y-20102990D01*
X6716667Y-20102990D02*
X6783333Y-20064895D01*
X6783333Y-20064895D02*
X6916667Y-20064895D01*
X6916667Y-20064895D02*
X6983333Y-20102990D01*
X6983333Y-20102990D02*
X7016667Y-20141085D01*
X7016667Y-20141085D02*
X7050000Y-20217276D01*
X7050000Y-20217276D02*
X7050000Y-20255371D01*
X7050000Y-20255371D02*
X7016667Y-20331561D01*
X7016667Y-20331561D02*
X6983333Y-20369657D01*
X6983333Y-20369657D02*
X6916667Y-20407752D01*
X6916667Y-20407752D02*
X6783333Y-20407752D01*
X6783333Y-20407752D02*
X6716667Y-20445847D01*
X6716667Y-20445847D02*
X6683333Y-20483942D01*
X6683333Y-20483942D02*
X6650000Y-20560133D01*
X6650000Y-20560133D02*
X6650000Y-20712514D01*
X6650000Y-20712514D02*
X6683333Y-20788704D01*
X6683333Y-20788704D02*
X6716667Y-20826800D01*
X6716667Y-20826800D02*
X6783333Y-20864895D01*
X6783333Y-20864895D02*
X6916667Y-20864895D01*
X6916667Y-20864895D02*
X6983333Y-20826800D01*
X6983333Y-20826800D02*
X7016667Y-20788704D01*
X7016667Y-20788704D02*
X7050000Y-20712514D01*
X7050000Y-20712514D02*
X7050000Y-20560133D01*
X7050000Y-20560133D02*
X7016667Y-20483942D01*
X7016667Y-20483942D02*
X6983333Y-20445847D01*
X6983333Y-20445847D02*
X6916667Y-20407752D01*
X6383333Y-29864895D02*
X6150000Y-29483942D01*
X5983333Y-29864895D02*
X5983333Y-29064895D01*
X5983333Y-29064895D02*
X6250000Y-29064895D01*
X6250000Y-29064895D02*
X6316667Y-29102990D01*
X6316667Y-29102990D02*
X6350000Y-29141085D01*
X6350000Y-29141085D02*
X6383333Y-29217276D01*
X6383333Y-29217276D02*
X6383333Y-29331561D01*
X6383333Y-29331561D02*
X6350000Y-29407752D01*
X6350000Y-29407752D02*
X6316667Y-29445847D01*
X6316667Y-29445847D02*
X6250000Y-29483942D01*
X6250000Y-29483942D02*
X5983333Y-29483942D01*
X7016667Y-29064895D02*
X6683333Y-29064895D01*
X6683333Y-29064895D02*
X6650000Y-29445847D01*
X6650000Y-29445847D02*
X6683333Y-29407752D01*
X6683333Y-29407752D02*
X6750000Y-29369657D01*
X6750000Y-29369657D02*
X6916667Y-29369657D01*
X6916667Y-29369657D02*
X6983333Y-29407752D01*
X6983333Y-29407752D02*
X7016667Y-29445847D01*
X7016667Y-29445847D02*
X7050000Y-29522038D01*
X7050000Y-29522038D02*
X7050000Y-29712514D01*
X7050000Y-29712514D02*
X7016667Y-29788704D01*
X7016667Y-29788704D02*
X6983333Y-29826800D01*
X6983333Y-29826800D02*
X6916667Y-29864895D01*
X6916667Y-29864895D02*
X6750000Y-29864895D01*
X6750000Y-29864895D02*
X6683333Y-29826800D01*
X6683333Y-29826800D02*
X6650000Y-29788704D01*
X6383333Y-26788704D02*
X6350000Y-26826800D01*
X6350000Y-26826800D02*
X6250000Y-26864895D01*
X6250000Y-26864895D02*
X6183333Y-26864895D01*
X6183333Y-26864895D02*
X6083333Y-26826800D01*
X6083333Y-26826800D02*
X6016667Y-26750609D01*
X6016667Y-26750609D02*
X5983333Y-26674419D01*
X5983333Y-26674419D02*
X5950000Y-26522038D01*
X5950000Y-26522038D02*
X5950000Y-26407752D01*
X5950000Y-26407752D02*
X5983333Y-26255371D01*
X5983333Y-26255371D02*
X6016667Y-26179180D01*
X6016667Y-26179180D02*
X6083333Y-26102990D01*
X6083333Y-26102990D02*
X6183333Y-26064895D01*
X6183333Y-26064895D02*
X6250000Y-26064895D01*
X6250000Y-26064895D02*
X6350000Y-26102990D01*
X6350000Y-26102990D02*
X6383333Y-26141085D01*
X6650000Y-26141085D02*
X6683333Y-26102990D01*
X6683333Y-26102990D02*
X6750000Y-26064895D01*
X6750000Y-26064895D02*
X6916667Y-26064895D01*
X6916667Y-26064895D02*
X6983333Y-26102990D01*
X6983333Y-26102990D02*
X7016667Y-26141085D01*
X7016667Y-26141085D02*
X7050000Y-26217276D01*
X7050000Y-26217276D02*
X7050000Y-26293466D01*
X7050000Y-26293466D02*
X7016667Y-26407752D01*
X7016667Y-26407752D02*
X6616667Y-26864895D01*
X6616667Y-26864895D02*
X7050000Y-26864895D01*
X6483333Y-32864895D02*
X6250000Y-32483942D01*
X6083333Y-32864895D02*
X6083333Y-32064895D01*
X6083333Y-32064895D02*
X6350000Y-32064895D01*
X6350000Y-32064895D02*
X6416667Y-32102990D01*
X6416667Y-32102990D02*
X6450000Y-32141085D01*
X6450000Y-32141085D02*
X6483333Y-32217276D01*
X6483333Y-32217276D02*
X6483333Y-32331561D01*
X6483333Y-32331561D02*
X6450000Y-32407752D01*
X6450000Y-32407752D02*
X6416667Y-32445847D01*
X6416667Y-32445847D02*
X6350000Y-32483942D01*
X6350000Y-32483942D02*
X6083333Y-32483942D01*
X7083333Y-32064895D02*
X6950000Y-32064895D01*
X6950000Y-32064895D02*
X6883333Y-32102990D01*
X6883333Y-32102990D02*
X6850000Y-32141085D01*
X6850000Y-32141085D02*
X6783333Y-32255371D01*
X6783333Y-32255371D02*
X6750000Y-32407752D01*
X6750000Y-32407752D02*
X6750000Y-32712514D01*
X6750000Y-32712514D02*
X6783333Y-32788704D01*
X6783333Y-32788704D02*
X6816667Y-32826800D01*
X6816667Y-32826800D02*
X6883333Y-32864895D01*
X6883333Y-32864895D02*
X7016667Y-32864895D01*
X7016667Y-32864895D02*
X7083333Y-32826800D01*
X7083333Y-32826800D02*
X7116667Y-32788704D01*
X7116667Y-32788704D02*
X7150000Y-32712514D01*
X7150000Y-32712514D02*
X7150000Y-32522038D01*
X7150000Y-32522038D02*
X7116667Y-32445847D01*
X7116667Y-32445847D02*
X7083333Y-32407752D01*
X7083333Y-32407752D02*
X7016667Y-32369657D01*
X7016667Y-32369657D02*
X6883333Y-32369657D01*
X6883333Y-32369657D02*
X6816667Y-32407752D01*
X6816667Y-32407752D02*
X6783333Y-32445847D01*
X6783333Y-32445847D02*
X6750000Y-32522038D01*
%TO.C,J6*%
D11*
X2150000Y-250000D02*
X2150000Y-1500000D01*
X2450000Y-2800000D02*
X3200000Y-2800000D01*
X3200000Y-2800000D02*
X3200000Y-5750000D01*
X3200000Y-5750000D02*
X8750000Y-5750000D01*
X3400000Y-250000D02*
X2150000Y-250000D01*
X14300000Y-2800000D02*
X14300000Y-5750000D01*
X14300000Y-5750000D02*
X8750000Y-5750000D01*
X15050000Y-2800000D02*
X14300000Y-2800000D01*
X2440000Y-540000D02*
X15060000Y-540000D01*
X15060000Y-6510000D01*
X2440000Y-6510000D01*
X2440000Y-540000D01*
X2450000Y-550000D02*
X4250000Y-550000D01*
X4250000Y-1300000D01*
X2450000Y-1300000D01*
X2450000Y-550000D01*
X5750000Y-550000D02*
X11750000Y-550000D01*
X11750000Y-1300000D01*
X5750000Y-1300000D01*
X5750000Y-550000D01*
X13250000Y-550000D02*
X15050000Y-550000D01*
X15050000Y-1300000D01*
X13250000Y-1300000D01*
X13250000Y-550000D01*
%TO.C,J7*%
X19150000Y-250000D02*
X19150000Y-1500000D01*
X19450000Y-2800000D02*
X20200000Y-2800000D01*
X20200000Y-2800000D02*
X20200000Y-5750000D01*
X20200000Y-5750000D02*
X23250000Y-5750000D01*
X20400000Y-250000D02*
X19150000Y-250000D01*
X26300000Y-2800000D02*
X26300000Y-5750000D01*
X26300000Y-5750000D02*
X23250000Y-5750000D01*
X27050000Y-2800000D02*
X26300000Y-2800000D01*
X19440000Y-540000D02*
X27060000Y-540000D01*
X27060000Y-6510000D01*
X19440000Y-6510000D01*
X19440000Y-540000D01*
X19450000Y-550000D02*
X21250000Y-550000D01*
X21250000Y-1300000D01*
X19450000Y-1300000D01*
X19450000Y-550000D01*
X22750000Y-550000D02*
X23750000Y-550000D01*
X23750000Y-1300000D01*
X22750000Y-1300000D01*
X22750000Y-550000D01*
X25250000Y-550000D02*
X27050000Y-550000D01*
X27050000Y-1300000D01*
X25250000Y-1300000D01*
X25250000Y-550000D01*
%TO.C,C3*%
X43020354Y-47125000D02*
X44020354Y-47125000D01*
X43520354Y-46625000D02*
X43520354Y-47625000D01*
X48500000Y-44920000D02*
X48500000Y-55080000D01*
X48540000Y-44920000D02*
X48540000Y-55080000D01*
X48580000Y-44921000D02*
X48580000Y-55079000D01*
X48620000Y-44921000D02*
X48620000Y-55079000D01*
X48660000Y-44923000D02*
X48660000Y-55077000D01*
X48700000Y-44924000D02*
X48700000Y-55076000D01*
X48740000Y-44926000D02*
X48740000Y-55074000D01*
X48780000Y-44928000D02*
X48780000Y-55072000D01*
X48820000Y-44930000D02*
X48820000Y-55070000D01*
X48860000Y-44933000D02*
X48860000Y-55067000D01*
X48900000Y-44936000D02*
X48900000Y-55064000D01*
X48940000Y-44939000D02*
X48940000Y-55061000D01*
X48980000Y-44943000D02*
X48980000Y-55057000D01*
X49020000Y-44946000D02*
X49020000Y-55054000D01*
X49060000Y-44951000D02*
X49060000Y-55049000D01*
X49100000Y-44955000D02*
X49100000Y-55045000D01*
X49140000Y-44960000D02*
X49140000Y-55040000D01*
X49180000Y-44965000D02*
X49180000Y-55035000D01*
X49220000Y-44971000D02*
X49220000Y-55029000D01*
X49260000Y-44977000D02*
X49260000Y-55023000D01*
X49300000Y-44983000D02*
X49300000Y-55017000D01*
X49340000Y-44989000D02*
X49340000Y-55011000D01*
X49380000Y-44996000D02*
X49380000Y-55004000D01*
X49420000Y-45003000D02*
X49420000Y-54997000D01*
X49460000Y-45011000D02*
X49460000Y-54989000D01*
X49500000Y-45019000D02*
X49500000Y-54981000D01*
X49540000Y-45027000D02*
X49540000Y-54973000D01*
X49580000Y-45035000D02*
X49580000Y-54965000D01*
X49620000Y-45044000D02*
X49620000Y-54956000D01*
X49660000Y-45053000D02*
X49660000Y-54947000D01*
X49700000Y-45063000D02*
X49700000Y-54937000D01*
X49740000Y-45072000D02*
X49740000Y-54928000D01*
X49780000Y-45083000D02*
X49780000Y-48760000D01*
X49780000Y-51240000D02*
X49780000Y-54917000D01*
X49820000Y-45093000D02*
X49820000Y-48760000D01*
X49820000Y-51240000D02*
X49820000Y-54907000D01*
X49860000Y-45104000D02*
X49860000Y-48760000D01*
X49860000Y-51240000D02*
X49860000Y-54896000D01*
X49900000Y-45115000D02*
X49900000Y-48760000D01*
X49900000Y-51240000D02*
X49900000Y-54885000D01*
X49940000Y-45127000D02*
X49940000Y-48760000D01*
X49940000Y-51240000D02*
X49940000Y-54873000D01*
X49980000Y-45139000D02*
X49980000Y-48760000D01*
X49980000Y-51240000D02*
X49980000Y-54861000D01*
X50020000Y-45151000D02*
X50020000Y-48760000D01*
X50020000Y-51240000D02*
X50020000Y-54849000D01*
X50060000Y-45163000D02*
X50060000Y-48760000D01*
X50060000Y-51240000D02*
X50060000Y-54837000D01*
X50100000Y-45176000D02*
X50100000Y-48760000D01*
X50100000Y-51240000D02*
X50100000Y-54824000D01*
X50140000Y-45190000D02*
X50140000Y-48760000D01*
X50140000Y-51240000D02*
X50140000Y-54810000D01*
X50180000Y-45203000D02*
X50180000Y-48760000D01*
X50180000Y-51240000D02*
X50180000Y-54797000D01*
X50220000Y-45218000D02*
X50220000Y-48760000D01*
X50220000Y-51240000D02*
X50220000Y-54782000D01*
X50260000Y-45232000D02*
X50260000Y-48760000D01*
X50260000Y-51240000D02*
X50260000Y-54768000D01*
X50300000Y-45247000D02*
X50300000Y-48760000D01*
X50300000Y-51240000D02*
X50300000Y-54753000D01*
X50340000Y-45262000D02*
X50340000Y-48760000D01*
X50340000Y-51240000D02*
X50340000Y-54738000D01*
X50380000Y-45278000D02*
X50380000Y-48760000D01*
X50380000Y-51240000D02*
X50380000Y-54722000D01*
X50420000Y-45294000D02*
X50420000Y-48760000D01*
X50420000Y-51240000D02*
X50420000Y-54706000D01*
X50460000Y-45310000D02*
X50460000Y-48760000D01*
X50460000Y-51240000D02*
X50460000Y-54690000D01*
X50500000Y-45327000D02*
X50500000Y-48760000D01*
X50500000Y-51240000D02*
X50500000Y-54673000D01*
X50540000Y-45344000D02*
X50540000Y-48760000D01*
X50540000Y-51240000D02*
X50540000Y-54656000D01*
X50580000Y-45362000D02*
X50580000Y-48760000D01*
X50580000Y-51240000D02*
X50580000Y-54638000D01*
X50620000Y-45380000D02*
X50620000Y-48760000D01*
X50620000Y-51240000D02*
X50620000Y-54620000D01*
X50660000Y-45398000D02*
X50660000Y-48760000D01*
X50660000Y-51240000D02*
X50660000Y-54602000D01*
X50700000Y-45417000D02*
X50700000Y-48760000D01*
X50700000Y-51240000D02*
X50700000Y-54583000D01*
X50740000Y-45436000D02*
X50740000Y-48760000D01*
X50740000Y-51240000D02*
X50740000Y-54564000D01*
X50780000Y-45456000D02*
X50780000Y-48760000D01*
X50780000Y-51240000D02*
X50780000Y-54544000D01*
X50820000Y-45476000D02*
X50820000Y-48760000D01*
X50820000Y-51240000D02*
X50820000Y-54524000D01*
X50860000Y-45496000D02*
X50860000Y-48760000D01*
X50860000Y-51240000D02*
X50860000Y-54504000D01*
X50900000Y-45517000D02*
X50900000Y-48760000D01*
X50900000Y-51240000D02*
X50900000Y-54483000D01*
X50940000Y-45539000D02*
X50940000Y-48760000D01*
X50940000Y-51240000D02*
X50940000Y-54461000D01*
X50980000Y-45561000D02*
X50980000Y-48760000D01*
X50980000Y-51240000D02*
X50980000Y-54439000D01*
X51020000Y-45583000D02*
X51020000Y-48760000D01*
X51020000Y-51240000D02*
X51020000Y-54417000D01*
X51060000Y-45606000D02*
X51060000Y-48760000D01*
X51060000Y-51240000D02*
X51060000Y-54394000D01*
X51100000Y-45629000D02*
X51100000Y-48760000D01*
X51100000Y-51240000D02*
X51100000Y-54371000D01*
X51140000Y-45653000D02*
X51140000Y-48760000D01*
X51140000Y-51240000D02*
X51140000Y-54347000D01*
X51180000Y-45677000D02*
X51180000Y-48760000D01*
X51180000Y-51240000D02*
X51180000Y-54323000D01*
X51220000Y-45702000D02*
X51220000Y-48760000D01*
X51220000Y-51240000D02*
X51220000Y-54298000D01*
X51260000Y-45728000D02*
X51260000Y-48760000D01*
X51260000Y-51240000D02*
X51260000Y-54272000D01*
X51300000Y-45753000D02*
X51300000Y-48760000D01*
X51300000Y-51240000D02*
X51300000Y-54247000D01*
X51340000Y-45780000D02*
X51340000Y-48760000D01*
X51340000Y-51240000D02*
X51340000Y-54220000D01*
X51380000Y-45807000D02*
X51380000Y-48760000D01*
X51380000Y-51240000D02*
X51380000Y-54193000D01*
X51420000Y-45834000D02*
X51420000Y-48760000D01*
X51420000Y-51240000D02*
X51420000Y-54166000D01*
X51460000Y-45862000D02*
X51460000Y-48760000D01*
X51460000Y-51240000D02*
X51460000Y-54138000D01*
X51500000Y-45891000D02*
X51500000Y-48760000D01*
X51500000Y-51240000D02*
X51500000Y-54109000D01*
X51540000Y-45920000D02*
X51540000Y-48760000D01*
X51540000Y-51240000D02*
X51540000Y-54080000D01*
X51580000Y-45950000D02*
X51580000Y-48760000D01*
X51580000Y-51240000D02*
X51580000Y-54050000D01*
X51620000Y-45980000D02*
X51620000Y-48760000D01*
X51620000Y-51240000D02*
X51620000Y-54020000D01*
X51660000Y-46012000D02*
X51660000Y-48760000D01*
X51660000Y-51240000D02*
X51660000Y-53988000D01*
X51700000Y-46043000D02*
X51700000Y-48760000D01*
X51700000Y-51240000D02*
X51700000Y-53957000D01*
X51740000Y-46076000D02*
X51740000Y-48760000D01*
X51740000Y-51240000D02*
X51740000Y-53924000D01*
X51780000Y-46109000D02*
X51780000Y-48760000D01*
X51780000Y-51240000D02*
X51780000Y-53891000D01*
X51820000Y-46142000D02*
X51820000Y-48760000D01*
X51820000Y-51240000D02*
X51820000Y-53858000D01*
X51860000Y-46177000D02*
X51860000Y-48760000D01*
X51860000Y-51240000D02*
X51860000Y-53823000D01*
X51900000Y-46212000D02*
X51900000Y-48760000D01*
X51900000Y-51240000D02*
X51900000Y-53788000D01*
X51940000Y-46248000D02*
X51940000Y-48760000D01*
X51940000Y-51240000D02*
X51940000Y-53752000D01*
X51980000Y-46284000D02*
X51980000Y-48760000D01*
X51980000Y-51240000D02*
X51980000Y-53716000D01*
X52020000Y-46322000D02*
X52020000Y-48760000D01*
X52020000Y-51240000D02*
X52020000Y-53678000D01*
X52060000Y-46360000D02*
X52060000Y-48760000D01*
X52060000Y-51240000D02*
X52060000Y-53640000D01*
X52100000Y-46399000D02*
X52100000Y-48760000D01*
X52100000Y-51240000D02*
X52100000Y-53601000D01*
X52140000Y-46439000D02*
X52140000Y-48760000D01*
X52140000Y-51240000D02*
X52140000Y-53561000D01*
X52180000Y-46480000D02*
X52180000Y-48760000D01*
X52180000Y-51240000D02*
X52180000Y-53520000D01*
X52220000Y-46522000D02*
X52220000Y-48760000D01*
X52220000Y-51240000D02*
X52220000Y-53478000D01*
X52260000Y-46565000D02*
X52260000Y-53435000D01*
X52300000Y-46609000D02*
X52300000Y-53391000D01*
X52340000Y-46653000D02*
X52340000Y-53347000D01*
X52380000Y-46699000D02*
X52380000Y-53301000D01*
X52420000Y-46746000D02*
X52420000Y-53254000D01*
X52460000Y-46795000D02*
X52460000Y-53205000D01*
X52500000Y-46844000D02*
X52500000Y-53156000D01*
X52540000Y-46895000D02*
X52540000Y-53105000D01*
X52580000Y-46947000D02*
X52580000Y-53053000D01*
X52620000Y-47000000D02*
X52620000Y-53000000D01*
X52660000Y-47055000D02*
X52660000Y-52945000D01*
X52700000Y-47112000D02*
X52700000Y-52888000D01*
X52740000Y-47170000D02*
X52740000Y-52830000D01*
X52780000Y-47230000D02*
X52780000Y-52770000D01*
X52820000Y-47292000D02*
X52820000Y-52708000D01*
X52860000Y-47356000D02*
X52860000Y-52644000D01*
X52900000Y-47422000D02*
X52900000Y-52578000D01*
X52940000Y-47490000D02*
X52940000Y-52510000D01*
X52980000Y-47561000D02*
X52980000Y-52439000D01*
X53020000Y-47635000D02*
X53020000Y-52365000D01*
X53060000Y-47712000D02*
X53060000Y-52288000D01*
X53100000Y-47792000D02*
X53100000Y-52208000D01*
X53140000Y-47876000D02*
X53140000Y-52124000D01*
X53180000Y-47963000D02*
X53180000Y-52037000D01*
X53220000Y-48056000D02*
X53220000Y-51944000D01*
X53260000Y-48154000D02*
X53260000Y-51846000D01*
X53300000Y-48258000D02*
X53300000Y-51742000D01*
X53340000Y-48370000D02*
X53340000Y-51630000D01*
X53380000Y-48491000D02*
X53380000Y-51509000D01*
X53420000Y-48623000D02*
X53420000Y-51377000D01*
X53460000Y-48770000D02*
X53460000Y-51230000D01*
X53500000Y-48938000D02*
X53500000Y-51062000D01*
X53540000Y-49138000D02*
X53540000Y-50862000D01*
X53580000Y-49401000D02*
X53580000Y-50599000D01*
X53620000Y-50000000D02*
G75*
G02*
X43380000Y-50000000I-5120000J0D01*
G01*
X43380000Y-50000000D02*
G75*
G02*
X53620000Y-50000000I5120000J0D01*
G01*
%TO.C,R9*%
X6120000Y-25153641D02*
X6120000Y-24846359D01*
X6880000Y-25153641D02*
X6880000Y-24846359D01*
%TO.C,R1*%
X29620000Y-33153641D02*
X29620000Y-32846359D01*
X30380000Y-33153641D02*
X30380000Y-32846359D01*
%TO.C,J2*%
X59400000Y-43600000D02*
X59400000Y-44850000D01*
X59400000Y-44850000D02*
X60650000Y-44850000D01*
X61950000Y-26950000D02*
X61950000Y-27700000D01*
X61950000Y-27700000D02*
X64900000Y-27700000D01*
X61950000Y-43800000D02*
X64900000Y-43800000D01*
X61950000Y-44550000D02*
X61950000Y-43800000D01*
X64900000Y-27700000D02*
X64900000Y-35750000D01*
X64900000Y-43800000D02*
X64900000Y-35750000D01*
X59690000Y-26940000D02*
X65660000Y-26940000D01*
X65660000Y-44560000D01*
X59690000Y-44560000D01*
X59690000Y-26940000D01*
X59700000Y-26950000D02*
X60450000Y-26950000D01*
X60450000Y-28750000D01*
X59700000Y-28750000D01*
X59700000Y-26950000D01*
X59700000Y-30250000D02*
X60450000Y-30250000D01*
X60450000Y-41250000D01*
X59700000Y-41250000D01*
X59700000Y-30250000D01*
X59700000Y-42750000D02*
X60450000Y-42750000D01*
X60450000Y-44550000D01*
X59700000Y-44550000D01*
X59700000Y-42750000D01*
%TO.C,U1*%
X10900000Y-15800000D02*
X25100000Y-15800000D01*
X10900000Y-39700000D02*
X25100000Y-39700000D01*
X9500000Y-16200000D02*
X9200000Y-16900000D01*
X9800000Y-16900000D01*
X9500000Y-16200000D01*
G36*
X9800000Y-16900000D02*
G01*
X9200000Y-16900000D01*
X9500000Y-16200000D01*
X9800000Y-16900000D01*
G37*
%TO.C,C1*%
X29640000Y-23607836D02*
X29640000Y-23392164D01*
X30360000Y-23607836D02*
X30360000Y-23392164D01*
%TO.C,R3*%
X29620000Y-26153641D02*
X29620000Y-25846359D01*
X30380000Y-26153641D02*
X30380000Y-25846359D01*
%TO.C,U2*%
D12*
X42000000Y-16500000D02*
X50000000Y-16500000D01*
D11*
X34500000Y-16500000D02*
X57500000Y-16500000D01*
X57500000Y-39500000D01*
X34500000Y-39500000D01*
X34500000Y-16500000D01*
%TO.C,R4*%
X29620000Y-21153641D02*
X29620000Y-20846359D01*
X30380000Y-21153641D02*
X30380000Y-20846359D01*
%TO.C,J9*%
X-1250000Y-32200000D02*
X-1250000Y-37750000D01*
X-1250000Y-43300000D02*
X-1250000Y-37750000D01*
X1700000Y-31450000D02*
X1700000Y-32200000D01*
X1700000Y-32200000D02*
X-1250000Y-32200000D01*
X1700000Y-43300000D02*
X-1250000Y-43300000D01*
X1700000Y-44050000D02*
X1700000Y-43300000D01*
X4250000Y-31150000D02*
X3000000Y-31150000D01*
X4250000Y-32400000D02*
X4250000Y-31150000D01*
X3200000Y-31450000D02*
X3950000Y-31450000D01*
X3950000Y-33250000D01*
X3200000Y-33250000D01*
X3200000Y-31450000D01*
X3200000Y-34750000D02*
X3950000Y-34750000D01*
X3950000Y-40750000D01*
X3200000Y-40750000D01*
X3200000Y-34750000D01*
X3200000Y-42250000D02*
X3950000Y-42250000D01*
X3950000Y-44050000D01*
X3200000Y-44050000D01*
X3200000Y-42250000D01*
X-2010000Y-31440000D02*
X3960000Y-31440000D01*
X3960000Y-44060000D01*
X-2010000Y-44060000D01*
X-2010000Y-31440000D01*
%TO.C,J8*%
X-1250000Y-18200000D02*
X-1250000Y-21250000D01*
X-1250000Y-24300000D02*
X-1250000Y-21250000D01*
X1700000Y-17450000D02*
X1700000Y-18200000D01*
X1700000Y-18200000D02*
X-1250000Y-18200000D01*
X1700000Y-24300000D02*
X-1250000Y-24300000D01*
X1700000Y-25050000D02*
X1700000Y-24300000D01*
X4250000Y-17150000D02*
X3000000Y-17150000D01*
X4250000Y-18400000D02*
X4250000Y-17150000D01*
X3200000Y-17450000D02*
X3950000Y-17450000D01*
X3950000Y-19250000D01*
X3200000Y-19250000D01*
X3200000Y-17450000D01*
X3200000Y-20750000D02*
X3950000Y-20750000D01*
X3950000Y-21750000D01*
X3200000Y-21750000D01*
X3200000Y-20750000D01*
X3200000Y-23250000D02*
X3950000Y-23250000D01*
X3950000Y-25050000D01*
X3200000Y-25050000D01*
X3200000Y-23250000D01*
X-2010000Y-17440000D02*
X3960000Y-17440000D01*
X3960000Y-25060000D01*
X-2010000Y-25060000D01*
X-2010000Y-17440000D01*
%TO.C,C4*%
X29640000Y-38707836D02*
X29640000Y-38492164D01*
X30360000Y-38707836D02*
X30360000Y-38492164D01*
%TO.C,R7*%
X6120000Y-37153641D02*
X6120000Y-36846359D01*
X6880000Y-37153641D02*
X6880000Y-36846359D01*
%TO.C,J5*%
X9890000Y-55960000D02*
X9890000Y-57110000D01*
X9890000Y-57110000D02*
X10940000Y-57110000D01*
X10940000Y-57110000D02*
X10940000Y-58100000D01*
X11060000Y-53990000D02*
X14940000Y-53990000D01*
X16110000Y-55960000D02*
X16110000Y-57110000D01*
X16110000Y-57110000D02*
X15060000Y-57110000D01*
%TO.C,R2*%
X29620000Y-35653641D02*
X29620000Y-35346359D01*
X30380000Y-35653641D02*
X30380000Y-35346359D01*
%TO.C,J1*%
X59400000Y-18600000D02*
X59400000Y-19850000D01*
X59400000Y-19850000D02*
X60650000Y-19850000D01*
X61950000Y-1950000D02*
X61950000Y-2700000D01*
X61950000Y-2700000D02*
X64900000Y-2700000D01*
X61950000Y-18800000D02*
X64900000Y-18800000D01*
X61950000Y-19550000D02*
X61950000Y-18800000D01*
X64900000Y-2700000D02*
X64900000Y-10750000D01*
X64900000Y-18800000D02*
X64900000Y-10750000D01*
X59690000Y-1940000D02*
X65660000Y-1940000D01*
X65660000Y-19560000D01*
X59690000Y-19560000D01*
X59690000Y-1940000D01*
X59700000Y-1950000D02*
X60450000Y-1950000D01*
X60450000Y-3750000D01*
X59700000Y-3750000D01*
X59700000Y-1950000D01*
X59700000Y-5250000D02*
X60450000Y-5250000D01*
X60450000Y-16250000D01*
X59700000Y-16250000D01*
X59700000Y-5250000D01*
X59700000Y-17750000D02*
X60450000Y-17750000D01*
X60450000Y-19550000D01*
X59700000Y-19550000D01*
X59700000Y-17750000D01*
%TO.C,C5*%
X29640000Y-41607836D02*
X29640000Y-41392164D01*
X30360000Y-41607836D02*
X30360000Y-41392164D01*
%TO.C,R8*%
X6120000Y-22153641D02*
X6120000Y-21846359D01*
X6880000Y-22153641D02*
X6880000Y-21846359D01*
%TO.C,R5*%
X6120000Y-31153641D02*
X6120000Y-30846359D01*
X6880000Y-31153641D02*
X6880000Y-30846359D01*
%TO.C,C2*%
X6140000Y-28107836D02*
X6140000Y-27892164D01*
X6860000Y-28107836D02*
X6860000Y-27892164D01*
%TO.C,R6*%
X6220000Y-34153641D02*
X6220000Y-33846359D01*
X6980000Y-34153641D02*
X6980000Y-33846359D01*
%TD*%
%LPC*%
D13*
%TO.C,J6*%
X5000000Y-3000000D03*
D14*
X7500000Y-3000000D03*
X10000000Y-3000000D03*
X12500000Y-3000000D03*
%TD*%
D15*
%TO.C,MH3*%
X4000000Y-56000000D03*
%TD*%
%TO.C,MH2*%
X55000000Y-11000000D03*
%TD*%
D16*
%TO.C,J7*%
X22000000Y-3000000D03*
D17*
X24500000Y-3000000D03*
%TD*%
D18*
%TO.C,C3*%
X46000000Y-50000000D03*
D19*
X51000000Y-50000000D03*
%TD*%
D20*
%TO.C,R9*%
X6500000Y-25510000D03*
X6500000Y-24490000D03*
%TD*%
%TO.C,R1*%
X30000000Y-33510000D03*
X30000000Y-32490000D03*
%TD*%
D13*
%TO.C,J2*%
X62150000Y-42000000D03*
D14*
X62150000Y-39500000D03*
X62150000Y-37000000D03*
X62150000Y-34500000D03*
X62150000Y-32000000D03*
X62150000Y-29500000D03*
%TD*%
D21*
%TO.C,U1*%
X10380000Y-17590000D03*
X10380000Y-20130000D03*
X10380000Y-22670000D03*
X10380000Y-25210000D03*
X10380000Y-27750000D03*
X10380000Y-30290000D03*
X10380000Y-32830000D03*
X10380000Y-35370000D03*
X10380000Y-37910000D03*
D22*
X13870000Y-30840000D03*
X13870000Y-32430000D03*
X13870000Y-34020000D03*
X13870000Y-35610000D03*
X22220000Y-30840000D03*
X22220000Y-32430000D03*
X22220000Y-34020000D03*
X22220000Y-35610000D03*
D21*
X25620000Y-17590000D03*
X25620000Y-20130000D03*
X25620000Y-22670000D03*
X25620000Y-25210000D03*
X25620000Y-27750000D03*
X25620000Y-30290000D03*
X25620000Y-32830000D03*
X25620000Y-35370000D03*
X25620000Y-37910000D03*
%TD*%
D23*
%TO.C,C1*%
X30000000Y-23980000D03*
X30000000Y-23020000D03*
%TD*%
D20*
%TO.C,R3*%
X30000000Y-26510000D03*
X30000000Y-25490000D03*
%TD*%
D24*
%TO.C,U2*%
X38380000Y-19110000D03*
D25*
X38380000Y-21650000D03*
X38380000Y-24190000D03*
X38380000Y-26730000D03*
X38380000Y-29270000D03*
X38380000Y-31810000D03*
X38380000Y-34350000D03*
X38380000Y-36890000D03*
X53620000Y-19110000D03*
X53620000Y-21650000D03*
X53620000Y-24190000D03*
X53620000Y-26730000D03*
X53620000Y-29270000D03*
X53620000Y-31810000D03*
X53620000Y-34350000D03*
X53620000Y-36890000D03*
%TD*%
D20*
%TO.C,R4*%
X30000000Y-21510000D03*
X30000000Y-20490000D03*
%TD*%
D13*
%TO.C,J9*%
X1500000Y-34000000D03*
D14*
X1500000Y-36500000D03*
X1500000Y-39000000D03*
X1500000Y-41500000D03*
%TD*%
D16*
%TO.C,J8*%
X1500000Y-20000000D03*
D17*
X1500000Y-22500000D03*
%TD*%
D15*
%TO.C,MH4*%
X55000000Y-56000000D03*
%TD*%
D23*
%TO.C,C4*%
X30000000Y-39080000D03*
X30000000Y-38120000D03*
%TD*%
D20*
%TO.C,R7*%
X6500000Y-37510000D03*
X6500000Y-36490000D03*
%TD*%
D15*
%TO.C,MH1*%
X4000000Y-11000000D03*
%TD*%
D26*
%TO.C,J5*%
X11500000Y-57325000D03*
X12500000Y-57325000D03*
X13500000Y-57325000D03*
X14500000Y-57325000D03*
D27*
X10200000Y-54800000D03*
X15800000Y-54800000D03*
%TD*%
D20*
%TO.C,R2*%
X30000000Y-36010000D03*
X30000000Y-34990000D03*
%TD*%
D13*
%TO.C,J1*%
X62150000Y-17000000D03*
D14*
X62150000Y-14500000D03*
X62150000Y-12000000D03*
X62150000Y-9500000D03*
X62150000Y-7000000D03*
X62150000Y-4500000D03*
%TD*%
D23*
%TO.C,C5*%
X30000000Y-41980000D03*
X30000000Y-41020000D03*
%TD*%
D20*
%TO.C,R8*%
X6500000Y-22510000D03*
X6500000Y-21490000D03*
%TD*%
%TO.C,R5*%
X6500000Y-31510000D03*
X6500000Y-30490000D03*
%TD*%
D23*
%TO.C,C2*%
X6500000Y-28480000D03*
X6500000Y-27520000D03*
%TD*%
D20*
%TO.C,R6*%
X6600000Y-34510000D03*
X6600000Y-33490000D03*
%TD*%
%LPD*%
M02*
