%TF.GenerationSoftware,KiCad,Pcbnew,10.0.4-10.0.4~ubuntu24.04.1*%
%TF.CreationDate,2026-06-30T16:25:02-06:00*%
%TF.ProjectId,robot-buddy-reflex,726f626f-742d-4627-9564-64792d726566,rev?*%
%TF.SameCoordinates,Original*%
%TF.FileFunction,Legend,Top*%
%TF.FilePolarity,Positive*%
%FSLAX46Y46*%
G04 Gerber Fmt 4.6, Leading zero omitted, Abs format (unit mm)*
G04 Created by KiCad (PCBNEW 10.0.4-10.0.4~ubuntu24.04.1) date 2026-06-30 16:25:02*
%MOMM*%
%LPD*%
G01*
G04 APERTURE LIST*
%ADD10C,0.100000*%
%ADD11C,0.120000*%
%ADD12C,0.200000*%
G04 APERTURE END LIST*
D10*
X29883333Y-22251966D02*
X29850000Y-22285300D01*
X29850000Y-22285300D02*
X29750000Y-22318633D01*
X29750000Y-22318633D02*
X29683333Y-22318633D01*
X29683333Y-22318633D02*
X29583333Y-22285300D01*
X29583333Y-22285300D02*
X29516667Y-22218633D01*
X29516667Y-22218633D02*
X29483333Y-22151966D01*
X29483333Y-22151966D02*
X29450000Y-22018633D01*
X29450000Y-22018633D02*
X29450000Y-21918633D01*
X29450000Y-21918633D02*
X29483333Y-21785300D01*
X29483333Y-21785300D02*
X29516667Y-21718633D01*
X29516667Y-21718633D02*
X29583333Y-21651966D01*
X29583333Y-21651966D02*
X29683333Y-21618633D01*
X29683333Y-21618633D02*
X29750000Y-21618633D01*
X29750000Y-21618633D02*
X29850000Y-21651966D01*
X29850000Y-21651966D02*
X29883333Y-21685300D01*
X30550000Y-22318633D02*
X30150000Y-22318633D01*
X30350000Y-22318633D02*
X30350000Y-21618633D01*
X30350000Y-21618633D02*
X30283333Y-21718633D01*
X30283333Y-21718633D02*
X30216667Y-21785300D01*
X30216667Y-21785300D02*
X30150000Y-21818633D01*
X54066666Y-9818633D02*
X54066666Y-9118633D01*
X54066666Y-9118633D02*
X54300000Y-9618633D01*
X54300000Y-9618633D02*
X54533333Y-9118633D01*
X54533333Y-9118633D02*
X54533333Y-9818633D01*
X54866666Y-9818633D02*
X54866666Y-9118633D01*
X54866666Y-9451966D02*
X55266666Y-9451966D01*
X55266666Y-9818633D02*
X55266666Y-9118633D01*
X55566666Y-9185300D02*
X55599999Y-9151966D01*
X55599999Y-9151966D02*
X55666666Y-9118633D01*
X55666666Y-9118633D02*
X55833333Y-9118633D01*
X55833333Y-9118633D02*
X55899999Y-9151966D01*
X55899999Y-9151966D02*
X55933333Y-9185300D01*
X55933333Y-9185300D02*
X55966666Y-9251966D01*
X55966666Y-9251966D02*
X55966666Y-9318633D01*
X55966666Y-9318633D02*
X55933333Y-9418633D01*
X55933333Y-9418633D02*
X55533333Y-9818633D01*
X55533333Y-9818633D02*
X55966666Y-9818633D01*
X61916666Y-15118633D02*
X61916666Y-15618633D01*
X61916666Y-15618633D02*
X61883333Y-15718633D01*
X61883333Y-15718633D02*
X61816666Y-15785300D01*
X61816666Y-15785300D02*
X61716666Y-15818633D01*
X61716666Y-15818633D02*
X61650000Y-15818633D01*
X62616666Y-15818633D02*
X62216666Y-15818633D01*
X62416666Y-15818633D02*
X62416666Y-15118633D01*
X62416666Y-15118633D02*
X62349999Y-15218633D01*
X62349999Y-15218633D02*
X62283333Y-15285300D01*
X62283333Y-15285300D02*
X62216666Y-15318633D01*
X6383333Y-26751966D02*
X6350000Y-26785300D01*
X6350000Y-26785300D02*
X6250000Y-26818633D01*
X6250000Y-26818633D02*
X6183333Y-26818633D01*
X6183333Y-26818633D02*
X6083333Y-26785300D01*
X6083333Y-26785300D02*
X6016667Y-26718633D01*
X6016667Y-26718633D02*
X5983333Y-26651966D01*
X5983333Y-26651966D02*
X5950000Y-26518633D01*
X5950000Y-26518633D02*
X5950000Y-26418633D01*
X5950000Y-26418633D02*
X5983333Y-26285300D01*
X5983333Y-26285300D02*
X6016667Y-26218633D01*
X6016667Y-26218633D02*
X6083333Y-26151966D01*
X6083333Y-26151966D02*
X6183333Y-26118633D01*
X6183333Y-26118633D02*
X6250000Y-26118633D01*
X6250000Y-26118633D02*
X6350000Y-26151966D01*
X6350000Y-26151966D02*
X6383333Y-26185300D01*
X6650000Y-26185300D02*
X6683333Y-26151966D01*
X6683333Y-26151966D02*
X6750000Y-26118633D01*
X6750000Y-26118633D02*
X6916667Y-26118633D01*
X6916667Y-26118633D02*
X6983333Y-26151966D01*
X6983333Y-26151966D02*
X7016667Y-26185300D01*
X7016667Y-26185300D02*
X7050000Y-26251966D01*
X7050000Y-26251966D02*
X7050000Y-26318633D01*
X7050000Y-26318633D02*
X7016667Y-26418633D01*
X7016667Y-26418633D02*
X6616667Y-26818633D01*
X6616667Y-26818633D02*
X7050000Y-26818633D01*
X29883333Y-37251966D02*
X29850000Y-37285300D01*
X29850000Y-37285300D02*
X29750000Y-37318633D01*
X29750000Y-37318633D02*
X29683333Y-37318633D01*
X29683333Y-37318633D02*
X29583333Y-37285300D01*
X29583333Y-37285300D02*
X29516667Y-37218633D01*
X29516667Y-37218633D02*
X29483333Y-37151966D01*
X29483333Y-37151966D02*
X29450000Y-37018633D01*
X29450000Y-37018633D02*
X29450000Y-36918633D01*
X29450000Y-36918633D02*
X29483333Y-36785300D01*
X29483333Y-36785300D02*
X29516667Y-36718633D01*
X29516667Y-36718633D02*
X29583333Y-36651966D01*
X29583333Y-36651966D02*
X29683333Y-36618633D01*
X29683333Y-36618633D02*
X29750000Y-36618633D01*
X29750000Y-36618633D02*
X29850000Y-36651966D01*
X29850000Y-36651966D02*
X29883333Y-36685300D01*
X30483333Y-36851966D02*
X30483333Y-37318633D01*
X30316667Y-36585300D02*
X30150000Y-37085300D01*
X30150000Y-37085300D02*
X30583333Y-37085300D01*
X4766666Y-1118633D02*
X4766666Y-1618633D01*
X4766666Y-1618633D02*
X4733333Y-1718633D01*
X4733333Y-1718633D02*
X4666666Y-1785300D01*
X4666666Y-1785300D02*
X4566666Y-1818633D01*
X4566666Y-1818633D02*
X4500000Y-1818633D01*
X5399999Y-1118633D02*
X5266666Y-1118633D01*
X5266666Y-1118633D02*
X5199999Y-1151966D01*
X5199999Y-1151966D02*
X5166666Y-1185300D01*
X5166666Y-1185300D02*
X5099999Y-1285300D01*
X5099999Y-1285300D02*
X5066666Y-1418633D01*
X5066666Y-1418633D02*
X5066666Y-1685300D01*
X5066666Y-1685300D02*
X5099999Y-1751966D01*
X5099999Y-1751966D02*
X5133333Y-1785300D01*
X5133333Y-1785300D02*
X5199999Y-1818633D01*
X5199999Y-1818633D02*
X5333333Y-1818633D01*
X5333333Y-1818633D02*
X5399999Y-1785300D01*
X5399999Y-1785300D02*
X5433333Y-1751966D01*
X5433333Y-1751966D02*
X5466666Y-1685300D01*
X5466666Y-1685300D02*
X5466666Y-1518633D01*
X5466666Y-1518633D02*
X5433333Y-1451966D01*
X5433333Y-1451966D02*
X5399999Y-1418633D01*
X5399999Y-1418633D02*
X5333333Y-1385300D01*
X5333333Y-1385300D02*
X5199999Y-1385300D01*
X5199999Y-1385300D02*
X5133333Y-1418633D01*
X5133333Y-1418633D02*
X5099999Y-1451966D01*
X5099999Y-1451966D02*
X5066666Y-1518633D01*
X24549999Y-50818633D02*
X24316666Y-50485300D01*
X24149999Y-50818633D02*
X24149999Y-50118633D01*
X24149999Y-50118633D02*
X24416666Y-50118633D01*
X24416666Y-50118633D02*
X24483333Y-50151966D01*
X24483333Y-50151966D02*
X24516666Y-50185300D01*
X24516666Y-50185300D02*
X24549999Y-50251966D01*
X24549999Y-50251966D02*
X24549999Y-50351966D01*
X24549999Y-50351966D02*
X24516666Y-50418633D01*
X24516666Y-50418633D02*
X24483333Y-50451966D01*
X24483333Y-50451966D02*
X24416666Y-50485300D01*
X24416666Y-50485300D02*
X24149999Y-50485300D01*
X25216666Y-50818633D02*
X24816666Y-50818633D01*
X25016666Y-50818633D02*
X25016666Y-50118633D01*
X25016666Y-50118633D02*
X24949999Y-50218633D01*
X24949999Y-50218633D02*
X24883333Y-50285300D01*
X24883333Y-50285300D02*
X24816666Y-50318633D01*
X25650000Y-50118633D02*
X25716666Y-50118633D01*
X25716666Y-50118633D02*
X25783333Y-50151966D01*
X25783333Y-50151966D02*
X25816666Y-50185300D01*
X25816666Y-50185300D02*
X25850000Y-50251966D01*
X25850000Y-50251966D02*
X25883333Y-50385300D01*
X25883333Y-50385300D02*
X25883333Y-50551966D01*
X25883333Y-50551966D02*
X25850000Y-50685300D01*
X25850000Y-50685300D02*
X25816666Y-50751966D01*
X25816666Y-50751966D02*
X25783333Y-50785300D01*
X25783333Y-50785300D02*
X25716666Y-50818633D01*
X25716666Y-50818633D02*
X25650000Y-50818633D01*
X25650000Y-50818633D02*
X25583333Y-50785300D01*
X25583333Y-50785300D02*
X25550000Y-50751966D01*
X25550000Y-50751966D02*
X25516666Y-50685300D01*
X25516666Y-50685300D02*
X25483333Y-50551966D01*
X25483333Y-50551966D02*
X25483333Y-50385300D01*
X25483333Y-50385300D02*
X25516666Y-50251966D01*
X25516666Y-50251966D02*
X25550000Y-50185300D01*
X25550000Y-50185300D02*
X25583333Y-50151966D01*
X25583333Y-50151966D02*
X25650000Y-50118633D01*
X37883333Y-48751966D02*
X37850000Y-48785300D01*
X37850000Y-48785300D02*
X37750000Y-48818633D01*
X37750000Y-48818633D02*
X37683333Y-48818633D01*
X37683333Y-48818633D02*
X37583333Y-48785300D01*
X37583333Y-48785300D02*
X37516667Y-48718633D01*
X37516667Y-48718633D02*
X37483333Y-48651966D01*
X37483333Y-48651966D02*
X37450000Y-48518633D01*
X37450000Y-48518633D02*
X37450000Y-48418633D01*
X37450000Y-48418633D02*
X37483333Y-48285300D01*
X37483333Y-48285300D02*
X37516667Y-48218633D01*
X37516667Y-48218633D02*
X37583333Y-48151966D01*
X37583333Y-48151966D02*
X37683333Y-48118633D01*
X37683333Y-48118633D02*
X37750000Y-48118633D01*
X37750000Y-48118633D02*
X37850000Y-48151966D01*
X37850000Y-48151966D02*
X37883333Y-48185300D01*
X38483333Y-48118633D02*
X38350000Y-48118633D01*
X38350000Y-48118633D02*
X38283333Y-48151966D01*
X38283333Y-48151966D02*
X38250000Y-48185300D01*
X38250000Y-48185300D02*
X38183333Y-48285300D01*
X38183333Y-48285300D02*
X38150000Y-48418633D01*
X38150000Y-48418633D02*
X38150000Y-48685300D01*
X38150000Y-48685300D02*
X38183333Y-48751966D01*
X38183333Y-48751966D02*
X38216667Y-48785300D01*
X38216667Y-48785300D02*
X38283333Y-48818633D01*
X38283333Y-48818633D02*
X38416667Y-48818633D01*
X38416667Y-48818633D02*
X38483333Y-48785300D01*
X38483333Y-48785300D02*
X38516667Y-48751966D01*
X38516667Y-48751966D02*
X38550000Y-48685300D01*
X38550000Y-48685300D02*
X38550000Y-48518633D01*
X38550000Y-48518633D02*
X38516667Y-48451966D01*
X38516667Y-48451966D02*
X38483333Y-48418633D01*
X38483333Y-48418633D02*
X38416667Y-48385300D01*
X38416667Y-48385300D02*
X38283333Y-48385300D01*
X38283333Y-48385300D02*
X38216667Y-48418633D01*
X38216667Y-48418633D02*
X38183333Y-48451966D01*
X38183333Y-48451966D02*
X38150000Y-48518633D01*
X24433333Y-55118633D02*
X24433333Y-55618633D01*
X24433333Y-55618633D02*
X24400000Y-55718633D01*
X24400000Y-55718633D02*
X24333333Y-55785300D01*
X24333333Y-55785300D02*
X24233333Y-55818633D01*
X24233333Y-55818633D02*
X24166667Y-55818633D01*
X25133333Y-55818633D02*
X24733333Y-55818633D01*
X24933333Y-55818633D02*
X24933333Y-55118633D01*
X24933333Y-55118633D02*
X24866666Y-55218633D01*
X24866666Y-55218633D02*
X24800000Y-55285300D01*
X24800000Y-55285300D02*
X24733333Y-55318633D01*
X25566667Y-55118633D02*
X25633333Y-55118633D01*
X25633333Y-55118633D02*
X25700000Y-55151966D01*
X25700000Y-55151966D02*
X25733333Y-55185300D01*
X25733333Y-55185300D02*
X25766667Y-55251966D01*
X25766667Y-55251966D02*
X25800000Y-55385300D01*
X25800000Y-55385300D02*
X25800000Y-55551966D01*
X25800000Y-55551966D02*
X25766667Y-55685300D01*
X25766667Y-55685300D02*
X25733333Y-55751966D01*
X25733333Y-55751966D02*
X25700000Y-55785300D01*
X25700000Y-55785300D02*
X25633333Y-55818633D01*
X25633333Y-55818633D02*
X25566667Y-55818633D01*
X25566667Y-55818633D02*
X25500000Y-55785300D01*
X25500000Y-55785300D02*
X25466667Y-55751966D01*
X25466667Y-55751966D02*
X25433333Y-55685300D01*
X25433333Y-55685300D02*
X25400000Y-55551966D01*
X25400000Y-55551966D02*
X25400000Y-55385300D01*
X25400000Y-55385300D02*
X25433333Y-55251966D01*
X25433333Y-55251966D02*
X25466667Y-55185300D01*
X25466667Y-55185300D02*
X25500000Y-55151966D01*
X25500000Y-55151966D02*
X25566667Y-55118633D01*
X6383333Y-20818633D02*
X6150000Y-20485300D01*
X5983333Y-20818633D02*
X5983333Y-20118633D01*
X5983333Y-20118633D02*
X6250000Y-20118633D01*
X6250000Y-20118633D02*
X6316667Y-20151966D01*
X6316667Y-20151966D02*
X6350000Y-20185300D01*
X6350000Y-20185300D02*
X6383333Y-20251966D01*
X6383333Y-20251966D02*
X6383333Y-20351966D01*
X6383333Y-20351966D02*
X6350000Y-20418633D01*
X6350000Y-20418633D02*
X6316667Y-20451966D01*
X6316667Y-20451966D02*
X6250000Y-20485300D01*
X6250000Y-20485300D02*
X5983333Y-20485300D01*
X6783333Y-20418633D02*
X6716667Y-20385300D01*
X6716667Y-20385300D02*
X6683333Y-20351966D01*
X6683333Y-20351966D02*
X6650000Y-20285300D01*
X6650000Y-20285300D02*
X6650000Y-20251966D01*
X6650000Y-20251966D02*
X6683333Y-20185300D01*
X6683333Y-20185300D02*
X6716667Y-20151966D01*
X6716667Y-20151966D02*
X6783333Y-20118633D01*
X6783333Y-20118633D02*
X6916667Y-20118633D01*
X6916667Y-20118633D02*
X6983333Y-20151966D01*
X6983333Y-20151966D02*
X7016667Y-20185300D01*
X7016667Y-20185300D02*
X7050000Y-20251966D01*
X7050000Y-20251966D02*
X7050000Y-20285300D01*
X7050000Y-20285300D02*
X7016667Y-20351966D01*
X7016667Y-20351966D02*
X6983333Y-20385300D01*
X6983333Y-20385300D02*
X6916667Y-20418633D01*
X6916667Y-20418633D02*
X6783333Y-20418633D01*
X6783333Y-20418633D02*
X6716667Y-20451966D01*
X6716667Y-20451966D02*
X6683333Y-20485300D01*
X6683333Y-20485300D02*
X6650000Y-20551966D01*
X6650000Y-20551966D02*
X6650000Y-20685300D01*
X6650000Y-20685300D02*
X6683333Y-20751966D01*
X6683333Y-20751966D02*
X6716667Y-20785300D01*
X6716667Y-20785300D02*
X6783333Y-20818633D01*
X6783333Y-20818633D02*
X6916667Y-20818633D01*
X6916667Y-20818633D02*
X6983333Y-20785300D01*
X6983333Y-20785300D02*
X7016667Y-20751966D01*
X7016667Y-20751966D02*
X7050000Y-20685300D01*
X7050000Y-20685300D02*
X7050000Y-20551966D01*
X7050000Y-20551966D02*
X7016667Y-20485300D01*
X7016667Y-20485300D02*
X6983333Y-20451966D01*
X6983333Y-20451966D02*
X6916667Y-20418633D01*
X3066666Y-9818633D02*
X3066666Y-9118633D01*
X3066666Y-9118633D02*
X3300000Y-9618633D01*
X3300000Y-9618633D02*
X3533333Y-9118633D01*
X3533333Y-9118633D02*
X3533333Y-9818633D01*
X3866666Y-9818633D02*
X3866666Y-9118633D01*
X3866666Y-9451966D02*
X4266666Y-9451966D01*
X4266666Y-9818633D02*
X4266666Y-9118633D01*
X4966666Y-9818633D02*
X4566666Y-9818633D01*
X4766666Y-9818633D02*
X4766666Y-9118633D01*
X4766666Y-9118633D02*
X4699999Y-9218633D01*
X4699999Y-9218633D02*
X4633333Y-9285300D01*
X4633333Y-9285300D02*
X4566666Y-9318633D01*
X6383333Y-32818633D02*
X6150000Y-32485300D01*
X5983333Y-32818633D02*
X5983333Y-32118633D01*
X5983333Y-32118633D02*
X6250000Y-32118633D01*
X6250000Y-32118633D02*
X6316667Y-32151966D01*
X6316667Y-32151966D02*
X6350000Y-32185300D01*
X6350000Y-32185300D02*
X6383333Y-32251966D01*
X6383333Y-32251966D02*
X6383333Y-32351966D01*
X6383333Y-32351966D02*
X6350000Y-32418633D01*
X6350000Y-32418633D02*
X6316667Y-32451966D01*
X6316667Y-32451966D02*
X6250000Y-32485300D01*
X6250000Y-32485300D02*
X5983333Y-32485300D01*
X6983333Y-32118633D02*
X6850000Y-32118633D01*
X6850000Y-32118633D02*
X6783333Y-32151966D01*
X6783333Y-32151966D02*
X6750000Y-32185300D01*
X6750000Y-32185300D02*
X6683333Y-32285300D01*
X6683333Y-32285300D02*
X6650000Y-32418633D01*
X6650000Y-32418633D02*
X6650000Y-32685300D01*
X6650000Y-32685300D02*
X6683333Y-32751966D01*
X6683333Y-32751966D02*
X6716667Y-32785300D01*
X6716667Y-32785300D02*
X6783333Y-32818633D01*
X6783333Y-32818633D02*
X6916667Y-32818633D01*
X6916667Y-32818633D02*
X6983333Y-32785300D01*
X6983333Y-32785300D02*
X7016667Y-32751966D01*
X7016667Y-32751966D02*
X7050000Y-32685300D01*
X7050000Y-32685300D02*
X7050000Y-32518633D01*
X7050000Y-32518633D02*
X7016667Y-32451966D01*
X7016667Y-32451966D02*
X6983333Y-32418633D01*
X6983333Y-32418633D02*
X6916667Y-32385300D01*
X6916667Y-32385300D02*
X6783333Y-32385300D01*
X6783333Y-32385300D02*
X6716667Y-32418633D01*
X6716667Y-32418633D02*
X6683333Y-32451966D01*
X6683333Y-32451966D02*
X6650000Y-32518633D01*
X54066666Y-54818633D02*
X54066666Y-54118633D01*
X54066666Y-54118633D02*
X54300000Y-54618633D01*
X54300000Y-54618633D02*
X54533333Y-54118633D01*
X54533333Y-54118633D02*
X54533333Y-54818633D01*
X54866666Y-54818633D02*
X54866666Y-54118633D01*
X54866666Y-54451966D02*
X55266666Y-54451966D01*
X55266666Y-54818633D02*
X55266666Y-54118633D01*
X55899999Y-54351966D02*
X55899999Y-54818633D01*
X55733333Y-54085300D02*
X55566666Y-54585300D01*
X55566666Y-54585300D02*
X55999999Y-54585300D01*
X45466666Y-26118633D02*
X45466666Y-26685300D01*
X45466666Y-26685300D02*
X45500000Y-26751966D01*
X45500000Y-26751966D02*
X45533333Y-26785300D01*
X45533333Y-26785300D02*
X45600000Y-26818633D01*
X45600000Y-26818633D02*
X45733333Y-26818633D01*
X45733333Y-26818633D02*
X45800000Y-26785300D01*
X45800000Y-26785300D02*
X45833333Y-26751966D01*
X45833333Y-26751966D02*
X45866666Y-26685300D01*
X45866666Y-26685300D02*
X45866666Y-26118633D01*
X46166666Y-26185300D02*
X46199999Y-26151966D01*
X46199999Y-26151966D02*
X46266666Y-26118633D01*
X46266666Y-26118633D02*
X46433333Y-26118633D01*
X46433333Y-26118633D02*
X46499999Y-26151966D01*
X46499999Y-26151966D02*
X46533333Y-26185300D01*
X46533333Y-26185300D02*
X46566666Y-26251966D01*
X46566666Y-26251966D02*
X46566666Y-26318633D01*
X46566666Y-26318633D02*
X46533333Y-26418633D01*
X46533333Y-26418633D02*
X46133333Y-26818633D01*
X46133333Y-26818633D02*
X46566666Y-26818633D01*
X32257068Y-19382371D02*
X32257068Y-18782371D01*
X32257068Y-18782371D02*
X32485639Y-18782371D01*
X32485639Y-18782371D02*
X32542782Y-18810942D01*
X32542782Y-18810942D02*
X32571353Y-18839514D01*
X32571353Y-18839514D02*
X32599925Y-18896657D01*
X32599925Y-18896657D02*
X32599925Y-18982371D01*
X32599925Y-18982371D02*
X32571353Y-19039514D01*
X32571353Y-19039514D02*
X32542782Y-19068085D01*
X32542782Y-19068085D02*
X32485639Y-19096657D01*
X32485639Y-19096657D02*
X32257068Y-19096657D01*
X32857068Y-19382371D02*
X32857068Y-18982371D01*
X32857068Y-18782371D02*
X32828496Y-18810942D01*
X32828496Y-18810942D02*
X32857068Y-18839514D01*
X32857068Y-18839514D02*
X32885639Y-18810942D01*
X32885639Y-18810942D02*
X32857068Y-18782371D01*
X32857068Y-18782371D02*
X32857068Y-18839514D01*
X33142782Y-18982371D02*
X33142782Y-19382371D01*
X33142782Y-19039514D02*
X33171353Y-19010942D01*
X33171353Y-19010942D02*
X33228496Y-18982371D01*
X33228496Y-18982371D02*
X33314210Y-18982371D01*
X33314210Y-18982371D02*
X33371353Y-19010942D01*
X33371353Y-19010942D02*
X33399925Y-19068085D01*
X33399925Y-19068085D02*
X33399925Y-19382371D01*
X34457067Y-19382371D02*
X34114210Y-19382371D01*
X34285639Y-19382371D02*
X34285639Y-18782371D01*
X34285639Y-18782371D02*
X34228496Y-18868085D01*
X34228496Y-18868085D02*
X34171353Y-18925228D01*
X34171353Y-18925228D02*
X34114210Y-18953800D01*
X35342782Y-19610942D02*
X35314211Y-19582371D01*
X35314211Y-19582371D02*
X35257068Y-19496657D01*
X35257068Y-19496657D02*
X35228497Y-19439514D01*
X35228497Y-19439514D02*
X35199925Y-19353800D01*
X35199925Y-19353800D02*
X35171354Y-19210942D01*
X35171354Y-19210942D02*
X35171354Y-19096657D01*
X35171354Y-19096657D02*
X35199925Y-18953800D01*
X35199925Y-18953800D02*
X35228497Y-18868085D01*
X35228497Y-18868085D02*
X35257068Y-18810942D01*
X35257068Y-18810942D02*
X35314211Y-18725228D01*
X35314211Y-18725228D02*
X35342782Y-18696657D01*
X35571354Y-19382371D02*
X35571354Y-18782371D01*
X35571354Y-18782371D02*
X35799925Y-18782371D01*
X35799925Y-18782371D02*
X35857068Y-18810942D01*
X35857068Y-18810942D02*
X35885639Y-18839514D01*
X35885639Y-18839514D02*
X35914211Y-18896657D01*
X35914211Y-18896657D02*
X35914211Y-18982371D01*
X35914211Y-18982371D02*
X35885639Y-19039514D01*
X35885639Y-19039514D02*
X35857068Y-19068085D01*
X35857068Y-19068085D02*
X35799925Y-19096657D01*
X35799925Y-19096657D02*
X35571354Y-19096657D01*
X36114211Y-18782371D02*
X36257068Y-19382371D01*
X36257068Y-19382371D02*
X36371354Y-18953800D01*
X36371354Y-18953800D02*
X36485639Y-19382371D01*
X36485639Y-19382371D02*
X36628497Y-18782371D01*
X36857068Y-19382371D02*
X36857068Y-18782371D01*
X36857068Y-18782371D02*
X37057068Y-19210942D01*
X37057068Y-19210942D02*
X37257068Y-18782371D01*
X37257068Y-18782371D02*
X37257068Y-19382371D01*
X37514210Y-19210942D02*
X37799925Y-19210942D01*
X37457067Y-19382371D02*
X37657067Y-18782371D01*
X37657067Y-18782371D02*
X37857067Y-19382371D01*
X37999925Y-19610942D02*
X38028496Y-19582371D01*
X38028496Y-19582371D02*
X38085639Y-19496657D01*
X38085639Y-19496657D02*
X38114211Y-19439514D01*
X38114211Y-19439514D02*
X38142782Y-19353800D01*
X38142782Y-19353800D02*
X38171353Y-19210942D01*
X38171353Y-19210942D02*
X38171353Y-19096657D01*
X38171353Y-19096657D02*
X38142782Y-18953800D01*
X38142782Y-18953800D02*
X38114211Y-18868085D01*
X38114211Y-18868085D02*
X38085639Y-18810942D01*
X38085639Y-18810942D02*
X38028496Y-18725228D01*
X38028496Y-18725228D02*
X37999925Y-18696657D01*
X53828646Y-19382371D02*
X53828646Y-18782371D01*
X53828646Y-18782371D02*
X54057217Y-18782371D01*
X54057217Y-18782371D02*
X54114360Y-18810942D01*
X54114360Y-18810942D02*
X54142931Y-18839514D01*
X54142931Y-18839514D02*
X54171503Y-18896657D01*
X54171503Y-18896657D02*
X54171503Y-18982371D01*
X54171503Y-18982371D02*
X54142931Y-19039514D01*
X54142931Y-19039514D02*
X54114360Y-19068085D01*
X54114360Y-19068085D02*
X54057217Y-19096657D01*
X54057217Y-19096657D02*
X53828646Y-19096657D01*
X54428646Y-19382371D02*
X54428646Y-18982371D01*
X54428646Y-18782371D02*
X54400074Y-18810942D01*
X54400074Y-18810942D02*
X54428646Y-18839514D01*
X54428646Y-18839514D02*
X54457217Y-18810942D01*
X54457217Y-18810942D02*
X54428646Y-18782371D01*
X54428646Y-18782371D02*
X54428646Y-18839514D01*
X54714360Y-18982371D02*
X54714360Y-19382371D01*
X54714360Y-19039514D02*
X54742931Y-19010942D01*
X54742931Y-19010942D02*
X54800074Y-18982371D01*
X54800074Y-18982371D02*
X54885788Y-18982371D01*
X54885788Y-18982371D02*
X54942931Y-19010942D01*
X54942931Y-19010942D02*
X54971503Y-19068085D01*
X54971503Y-19068085D02*
X54971503Y-19382371D01*
X55742931Y-19382371D02*
X55857217Y-19382371D01*
X55857217Y-19382371D02*
X55914360Y-19353800D01*
X55914360Y-19353800D02*
X55942931Y-19325228D01*
X55942931Y-19325228D02*
X56000074Y-19239514D01*
X56000074Y-19239514D02*
X56028645Y-19125228D01*
X56028645Y-19125228D02*
X56028645Y-18896657D01*
X56028645Y-18896657D02*
X56000074Y-18839514D01*
X56000074Y-18839514D02*
X55971503Y-18810942D01*
X55971503Y-18810942D02*
X55914360Y-18782371D01*
X55914360Y-18782371D02*
X55800074Y-18782371D01*
X55800074Y-18782371D02*
X55742931Y-18810942D01*
X55742931Y-18810942D02*
X55714360Y-18839514D01*
X55714360Y-18839514D02*
X55685788Y-18896657D01*
X55685788Y-18896657D02*
X55685788Y-19039514D01*
X55685788Y-19039514D02*
X55714360Y-19096657D01*
X55714360Y-19096657D02*
X55742931Y-19125228D01*
X55742931Y-19125228D02*
X55800074Y-19153800D01*
X55800074Y-19153800D02*
X55914360Y-19153800D01*
X55914360Y-19153800D02*
X55971503Y-19125228D01*
X55971503Y-19125228D02*
X56000074Y-19096657D01*
X56000074Y-19096657D02*
X56028645Y-19039514D01*
X56914360Y-19610942D02*
X56885789Y-19582371D01*
X56885789Y-19582371D02*
X56828646Y-19496657D01*
X56828646Y-19496657D02*
X56800075Y-19439514D01*
X56800075Y-19439514D02*
X56771503Y-19353800D01*
X56771503Y-19353800D02*
X56742932Y-19210942D01*
X56742932Y-19210942D02*
X56742932Y-19096657D01*
X56742932Y-19096657D02*
X56771503Y-18953800D01*
X56771503Y-18953800D02*
X56800075Y-18868085D01*
X56800075Y-18868085D02*
X56828646Y-18810942D01*
X56828646Y-18810942D02*
X56885789Y-18725228D01*
X56885789Y-18725228D02*
X56914360Y-18696657D01*
X57057217Y-18782371D02*
X57257217Y-19382371D01*
X57257217Y-19382371D02*
X57457217Y-18782371D01*
X57657218Y-19382371D02*
X57657218Y-18782371D01*
X57657218Y-18782371D02*
X57857218Y-19210942D01*
X57857218Y-19210942D02*
X58057218Y-18782371D01*
X58057218Y-18782371D02*
X58057218Y-19382371D01*
X58285789Y-19610942D02*
X58314360Y-19582371D01*
X58314360Y-19582371D02*
X58371503Y-19496657D01*
X58371503Y-19496657D02*
X58400075Y-19439514D01*
X58400075Y-19439514D02*
X58428646Y-19353800D01*
X58428646Y-19353800D02*
X58457217Y-19210942D01*
X58457217Y-19210942D02*
X58457217Y-19096657D01*
X58457217Y-19096657D02*
X58428646Y-18953800D01*
X58428646Y-18953800D02*
X58400075Y-18868085D01*
X58400075Y-18868085D02*
X58371503Y-18810942D01*
X58371503Y-18810942D02*
X58314360Y-18725228D01*
X58314360Y-18725228D02*
X58285789Y-18696657D01*
X12766666Y-54118633D02*
X12766666Y-54618633D01*
X12766666Y-54618633D02*
X12733333Y-54718633D01*
X12733333Y-54718633D02*
X12666666Y-54785300D01*
X12666666Y-54785300D02*
X12566666Y-54818633D01*
X12566666Y-54818633D02*
X12500000Y-54818633D01*
X13433333Y-54118633D02*
X13099999Y-54118633D01*
X13099999Y-54118633D02*
X13066666Y-54451966D01*
X13066666Y-54451966D02*
X13099999Y-54418633D01*
X13099999Y-54418633D02*
X13166666Y-54385300D01*
X13166666Y-54385300D02*
X13333333Y-54385300D01*
X13333333Y-54385300D02*
X13399999Y-54418633D01*
X13399999Y-54418633D02*
X13433333Y-54451966D01*
X13433333Y-54451966D02*
X13466666Y-54518633D01*
X13466666Y-54518633D02*
X13466666Y-54685300D01*
X13466666Y-54685300D02*
X13433333Y-54751966D01*
X13433333Y-54751966D02*
X13399999Y-54785300D01*
X13399999Y-54785300D02*
X13333333Y-54818633D01*
X13333333Y-54818633D02*
X13166666Y-54818633D01*
X13166666Y-54818633D02*
X13099999Y-54785300D01*
X13099999Y-54785300D02*
X13066666Y-54751966D01*
X1266666Y-18118633D02*
X1266666Y-18618633D01*
X1266666Y-18618633D02*
X1233333Y-18718633D01*
X1233333Y-18718633D02*
X1166666Y-18785300D01*
X1166666Y-18785300D02*
X1066666Y-18818633D01*
X1066666Y-18818633D02*
X1000000Y-18818633D01*
X1699999Y-18418633D02*
X1633333Y-18385300D01*
X1633333Y-18385300D02*
X1599999Y-18351966D01*
X1599999Y-18351966D02*
X1566666Y-18285300D01*
X1566666Y-18285300D02*
X1566666Y-18251966D01*
X1566666Y-18251966D02*
X1599999Y-18185300D01*
X1599999Y-18185300D02*
X1633333Y-18151966D01*
X1633333Y-18151966D02*
X1699999Y-18118633D01*
X1699999Y-18118633D02*
X1833333Y-18118633D01*
X1833333Y-18118633D02*
X1899999Y-18151966D01*
X1899999Y-18151966D02*
X1933333Y-18185300D01*
X1933333Y-18185300D02*
X1966666Y-18251966D01*
X1966666Y-18251966D02*
X1966666Y-18285300D01*
X1966666Y-18285300D02*
X1933333Y-18351966D01*
X1933333Y-18351966D02*
X1899999Y-18385300D01*
X1899999Y-18385300D02*
X1833333Y-18418633D01*
X1833333Y-18418633D02*
X1699999Y-18418633D01*
X1699999Y-18418633D02*
X1633333Y-18451966D01*
X1633333Y-18451966D02*
X1599999Y-18485300D01*
X1599999Y-18485300D02*
X1566666Y-18551966D01*
X1566666Y-18551966D02*
X1566666Y-18685300D01*
X1566666Y-18685300D02*
X1599999Y-18751966D01*
X1599999Y-18751966D02*
X1633333Y-18785300D01*
X1633333Y-18785300D02*
X1699999Y-18818633D01*
X1699999Y-18818633D02*
X1833333Y-18818633D01*
X1833333Y-18818633D02*
X1899999Y-18785300D01*
X1899999Y-18785300D02*
X1933333Y-18751966D01*
X1933333Y-18751966D02*
X1966666Y-18685300D01*
X1966666Y-18685300D02*
X1966666Y-18551966D01*
X1966666Y-18551966D02*
X1933333Y-18485300D01*
X1933333Y-18485300D02*
X1899999Y-18451966D01*
X1899999Y-18451966D02*
X1833333Y-18418633D01*
X29883333Y-19818633D02*
X29650000Y-19485300D01*
X29483333Y-19818633D02*
X29483333Y-19118633D01*
X29483333Y-19118633D02*
X29750000Y-19118633D01*
X29750000Y-19118633D02*
X29816667Y-19151966D01*
X29816667Y-19151966D02*
X29850000Y-19185300D01*
X29850000Y-19185300D02*
X29883333Y-19251966D01*
X29883333Y-19251966D02*
X29883333Y-19351966D01*
X29883333Y-19351966D02*
X29850000Y-19418633D01*
X29850000Y-19418633D02*
X29816667Y-19451966D01*
X29816667Y-19451966D02*
X29750000Y-19485300D01*
X29750000Y-19485300D02*
X29483333Y-19485300D01*
X30483333Y-19351966D02*
X30483333Y-19818633D01*
X30316667Y-19085300D02*
X30150000Y-19585300D01*
X30150000Y-19585300D02*
X30583333Y-19585300D01*
X3066666Y-54818633D02*
X3066666Y-54118633D01*
X3066666Y-54118633D02*
X3300000Y-54618633D01*
X3300000Y-54618633D02*
X3533333Y-54118633D01*
X3533333Y-54118633D02*
X3533333Y-54818633D01*
X3866666Y-54818633D02*
X3866666Y-54118633D01*
X3866666Y-54451966D02*
X4266666Y-54451966D01*
X4266666Y-54818633D02*
X4266666Y-54118633D01*
X4533333Y-54118633D02*
X4966666Y-54118633D01*
X4966666Y-54118633D02*
X4733333Y-54385300D01*
X4733333Y-54385300D02*
X4833333Y-54385300D01*
X4833333Y-54385300D02*
X4899999Y-54418633D01*
X4899999Y-54418633D02*
X4933333Y-54451966D01*
X4933333Y-54451966D02*
X4966666Y-54518633D01*
X4966666Y-54518633D02*
X4966666Y-54685300D01*
X4966666Y-54685300D02*
X4933333Y-54751966D01*
X4933333Y-54751966D02*
X4899999Y-54785300D01*
X4899999Y-54785300D02*
X4833333Y-54818633D01*
X4833333Y-54818633D02*
X4633333Y-54818633D01*
X4633333Y-54818633D02*
X4566666Y-54785300D01*
X4566666Y-54785300D02*
X4533333Y-54751966D01*
X29883333Y-40251966D02*
X29850000Y-40285300D01*
X29850000Y-40285300D02*
X29750000Y-40318633D01*
X29750000Y-40318633D02*
X29683333Y-40318633D01*
X29683333Y-40318633D02*
X29583333Y-40285300D01*
X29583333Y-40285300D02*
X29516667Y-40218633D01*
X29516667Y-40218633D02*
X29483333Y-40151966D01*
X29483333Y-40151966D02*
X29450000Y-40018633D01*
X29450000Y-40018633D02*
X29450000Y-39918633D01*
X29450000Y-39918633D02*
X29483333Y-39785300D01*
X29483333Y-39785300D02*
X29516667Y-39718633D01*
X29516667Y-39718633D02*
X29583333Y-39651966D01*
X29583333Y-39651966D02*
X29683333Y-39618633D01*
X29683333Y-39618633D02*
X29750000Y-39618633D01*
X29750000Y-39618633D02*
X29850000Y-39651966D01*
X29850000Y-39651966D02*
X29883333Y-39685300D01*
X30516667Y-39618633D02*
X30183333Y-39618633D01*
X30183333Y-39618633D02*
X30150000Y-39951966D01*
X30150000Y-39951966D02*
X30183333Y-39918633D01*
X30183333Y-39918633D02*
X30250000Y-39885300D01*
X30250000Y-39885300D02*
X30416667Y-39885300D01*
X30416667Y-39885300D02*
X30483333Y-39918633D01*
X30483333Y-39918633D02*
X30516667Y-39951966D01*
X30516667Y-39951966D02*
X30550000Y-40018633D01*
X30550000Y-40018633D02*
X30550000Y-40185300D01*
X30550000Y-40185300D02*
X30516667Y-40251966D01*
X30516667Y-40251966D02*
X30483333Y-40285300D01*
X30483333Y-40285300D02*
X30416667Y-40318633D01*
X30416667Y-40318633D02*
X30250000Y-40318633D01*
X30250000Y-40318633D02*
X30183333Y-40285300D01*
X30183333Y-40285300D02*
X30150000Y-40251966D01*
X28549999Y-50818633D02*
X28316666Y-50485300D01*
X28149999Y-50818633D02*
X28149999Y-50118633D01*
X28149999Y-50118633D02*
X28416666Y-50118633D01*
X28416666Y-50118633D02*
X28483333Y-50151966D01*
X28483333Y-50151966D02*
X28516666Y-50185300D01*
X28516666Y-50185300D02*
X28549999Y-50251966D01*
X28549999Y-50251966D02*
X28549999Y-50351966D01*
X28549999Y-50351966D02*
X28516666Y-50418633D01*
X28516666Y-50418633D02*
X28483333Y-50451966D01*
X28483333Y-50451966D02*
X28416666Y-50485300D01*
X28416666Y-50485300D02*
X28149999Y-50485300D01*
X29216666Y-50818633D02*
X28816666Y-50818633D01*
X29016666Y-50818633D02*
X29016666Y-50118633D01*
X29016666Y-50118633D02*
X28949999Y-50218633D01*
X28949999Y-50218633D02*
X28883333Y-50285300D01*
X28883333Y-50285300D02*
X28816666Y-50318633D01*
X29883333Y-50818633D02*
X29483333Y-50818633D01*
X29683333Y-50818633D02*
X29683333Y-50118633D01*
X29683333Y-50118633D02*
X29616666Y-50218633D01*
X29616666Y-50218633D02*
X29550000Y-50285300D01*
X29550000Y-50285300D02*
X29483333Y-50318633D01*
X6383333Y-35818633D02*
X6150000Y-35485300D01*
X5983333Y-35818633D02*
X5983333Y-35118633D01*
X5983333Y-35118633D02*
X6250000Y-35118633D01*
X6250000Y-35118633D02*
X6316667Y-35151966D01*
X6316667Y-35151966D02*
X6350000Y-35185300D01*
X6350000Y-35185300D02*
X6383333Y-35251966D01*
X6383333Y-35251966D02*
X6383333Y-35351966D01*
X6383333Y-35351966D02*
X6350000Y-35418633D01*
X6350000Y-35418633D02*
X6316667Y-35451966D01*
X6316667Y-35451966D02*
X6250000Y-35485300D01*
X6250000Y-35485300D02*
X5983333Y-35485300D01*
X6616667Y-35118633D02*
X7083333Y-35118633D01*
X7083333Y-35118633D02*
X6783333Y-35818633D01*
X28466666Y-44118633D02*
X28466666Y-44685300D01*
X28466666Y-44685300D02*
X28500000Y-44751966D01*
X28500000Y-44751966D02*
X28533333Y-44785300D01*
X28533333Y-44785300D02*
X28600000Y-44818633D01*
X28600000Y-44818633D02*
X28733333Y-44818633D01*
X28733333Y-44818633D02*
X28800000Y-44785300D01*
X28800000Y-44785300D02*
X28833333Y-44751966D01*
X28833333Y-44751966D02*
X28866666Y-44685300D01*
X28866666Y-44685300D02*
X28866666Y-44118633D01*
X29133333Y-44118633D02*
X29566666Y-44118633D01*
X29566666Y-44118633D02*
X29333333Y-44385300D01*
X29333333Y-44385300D02*
X29433333Y-44385300D01*
X29433333Y-44385300D02*
X29499999Y-44418633D01*
X29499999Y-44418633D02*
X29533333Y-44451966D01*
X29533333Y-44451966D02*
X29566666Y-44518633D01*
X29566666Y-44518633D02*
X29566666Y-44685300D01*
X29566666Y-44685300D02*
X29533333Y-44751966D01*
X29533333Y-44751966D02*
X29499999Y-44785300D01*
X29499999Y-44785300D02*
X29433333Y-44818633D01*
X29433333Y-44818633D02*
X29233333Y-44818633D01*
X29233333Y-44818633D02*
X29166666Y-44785300D01*
X29166666Y-44785300D02*
X29133333Y-44751966D01*
X21766666Y-1118633D02*
X21766666Y-1618633D01*
X21766666Y-1618633D02*
X21733333Y-1718633D01*
X21733333Y-1718633D02*
X21666666Y-1785300D01*
X21666666Y-1785300D02*
X21566666Y-1818633D01*
X21566666Y-1818633D02*
X21500000Y-1818633D01*
X22033333Y-1118633D02*
X22499999Y-1118633D01*
X22499999Y-1118633D02*
X22199999Y-1818633D01*
X45883333Y-48751966D02*
X45850000Y-48785300D01*
X45850000Y-48785300D02*
X45750000Y-48818633D01*
X45750000Y-48818633D02*
X45683333Y-48818633D01*
X45683333Y-48818633D02*
X45583333Y-48785300D01*
X45583333Y-48785300D02*
X45516667Y-48718633D01*
X45516667Y-48718633D02*
X45483333Y-48651966D01*
X45483333Y-48651966D02*
X45450000Y-48518633D01*
X45450000Y-48518633D02*
X45450000Y-48418633D01*
X45450000Y-48418633D02*
X45483333Y-48285300D01*
X45483333Y-48285300D02*
X45516667Y-48218633D01*
X45516667Y-48218633D02*
X45583333Y-48151966D01*
X45583333Y-48151966D02*
X45683333Y-48118633D01*
X45683333Y-48118633D02*
X45750000Y-48118633D01*
X45750000Y-48118633D02*
X45850000Y-48151966D01*
X45850000Y-48151966D02*
X45883333Y-48185300D01*
X46116667Y-48118633D02*
X46550000Y-48118633D01*
X46550000Y-48118633D02*
X46316667Y-48385300D01*
X46316667Y-48385300D02*
X46416667Y-48385300D01*
X46416667Y-48385300D02*
X46483333Y-48418633D01*
X46483333Y-48418633D02*
X46516667Y-48451966D01*
X46516667Y-48451966D02*
X46550000Y-48518633D01*
X46550000Y-48518633D02*
X46550000Y-48685300D01*
X46550000Y-48685300D02*
X46516667Y-48751966D01*
X46516667Y-48751966D02*
X46483333Y-48785300D01*
X46483333Y-48785300D02*
X46416667Y-48818633D01*
X46416667Y-48818633D02*
X46216667Y-48818633D01*
X46216667Y-48818633D02*
X46150000Y-48785300D01*
X46150000Y-48785300D02*
X46116667Y-48751966D01*
X8466666Y-14118633D02*
X8466666Y-14685300D01*
X8466666Y-14685300D02*
X8500000Y-14751966D01*
X8500000Y-14751966D02*
X8533333Y-14785300D01*
X8533333Y-14785300D02*
X8600000Y-14818633D01*
X8600000Y-14818633D02*
X8733333Y-14818633D01*
X8733333Y-14818633D02*
X8800000Y-14785300D01*
X8800000Y-14785300D02*
X8833333Y-14751966D01*
X8833333Y-14751966D02*
X8866666Y-14685300D01*
X8866666Y-14685300D02*
X8866666Y-14118633D01*
X9566666Y-14818633D02*
X9166666Y-14818633D01*
X9366666Y-14818633D02*
X9366666Y-14118633D01*
X9366666Y-14118633D02*
X9299999Y-14218633D01*
X9299999Y-14218633D02*
X9233333Y-14285300D01*
X9233333Y-14285300D02*
X9166666Y-14318633D01*
X29883333Y-31818633D02*
X29650000Y-31485300D01*
X29483333Y-31818633D02*
X29483333Y-31118633D01*
X29483333Y-31118633D02*
X29750000Y-31118633D01*
X29750000Y-31118633D02*
X29816667Y-31151966D01*
X29816667Y-31151966D02*
X29850000Y-31185300D01*
X29850000Y-31185300D02*
X29883333Y-31251966D01*
X29883333Y-31251966D02*
X29883333Y-31351966D01*
X29883333Y-31351966D02*
X29850000Y-31418633D01*
X29850000Y-31418633D02*
X29816667Y-31451966D01*
X29816667Y-31451966D02*
X29750000Y-31485300D01*
X29750000Y-31485300D02*
X29483333Y-31485300D01*
X30550000Y-31818633D02*
X30150000Y-31818633D01*
X30350000Y-31818633D02*
X30350000Y-31118633D01*
X30350000Y-31118633D02*
X30283333Y-31218633D01*
X30283333Y-31218633D02*
X30216667Y-31285300D01*
X30216667Y-31285300D02*
X30150000Y-31318633D01*
X29883333Y-34318633D02*
X29650000Y-33985300D01*
X29483333Y-34318633D02*
X29483333Y-33618633D01*
X29483333Y-33618633D02*
X29750000Y-33618633D01*
X29750000Y-33618633D02*
X29816667Y-33651966D01*
X29816667Y-33651966D02*
X29850000Y-33685300D01*
X29850000Y-33685300D02*
X29883333Y-33751966D01*
X29883333Y-33751966D02*
X29883333Y-33851966D01*
X29883333Y-33851966D02*
X29850000Y-33918633D01*
X29850000Y-33918633D02*
X29816667Y-33951966D01*
X29816667Y-33951966D02*
X29750000Y-33985300D01*
X29750000Y-33985300D02*
X29483333Y-33985300D01*
X30150000Y-33685300D02*
X30183333Y-33651966D01*
X30183333Y-33651966D02*
X30250000Y-33618633D01*
X30250000Y-33618633D02*
X30416667Y-33618633D01*
X30416667Y-33618633D02*
X30483333Y-33651966D01*
X30483333Y-33651966D02*
X30516667Y-33685300D01*
X30516667Y-33685300D02*
X30550000Y-33751966D01*
X30550000Y-33751966D02*
X30550000Y-33818633D01*
X30550000Y-33818633D02*
X30516667Y-33918633D01*
X30516667Y-33918633D02*
X30116667Y-34318633D01*
X30116667Y-34318633D02*
X30550000Y-34318633D01*
X61916666Y-40118633D02*
X61916666Y-40618633D01*
X61916666Y-40618633D02*
X61883333Y-40718633D01*
X61883333Y-40718633D02*
X61816666Y-40785300D01*
X61816666Y-40785300D02*
X61716666Y-40818633D01*
X61716666Y-40818633D02*
X61650000Y-40818633D01*
X62216666Y-40185300D02*
X62249999Y-40151966D01*
X62249999Y-40151966D02*
X62316666Y-40118633D01*
X62316666Y-40118633D02*
X62483333Y-40118633D01*
X62483333Y-40118633D02*
X62549999Y-40151966D01*
X62549999Y-40151966D02*
X62583333Y-40185300D01*
X62583333Y-40185300D02*
X62616666Y-40251966D01*
X62616666Y-40251966D02*
X62616666Y-40318633D01*
X62616666Y-40318633D02*
X62583333Y-40418633D01*
X62583333Y-40418633D02*
X62183333Y-40818633D01*
X62183333Y-40818633D02*
X62616666Y-40818633D01*
X29883333Y-24818633D02*
X29650000Y-24485300D01*
X29483333Y-24818633D02*
X29483333Y-24118633D01*
X29483333Y-24118633D02*
X29750000Y-24118633D01*
X29750000Y-24118633D02*
X29816667Y-24151966D01*
X29816667Y-24151966D02*
X29850000Y-24185300D01*
X29850000Y-24185300D02*
X29883333Y-24251966D01*
X29883333Y-24251966D02*
X29883333Y-24351966D01*
X29883333Y-24351966D02*
X29850000Y-24418633D01*
X29850000Y-24418633D02*
X29816667Y-24451966D01*
X29816667Y-24451966D02*
X29750000Y-24485300D01*
X29750000Y-24485300D02*
X29483333Y-24485300D01*
X30116667Y-24118633D02*
X30550000Y-24118633D01*
X30550000Y-24118633D02*
X30316667Y-24385300D01*
X30316667Y-24385300D02*
X30416667Y-24385300D01*
X30416667Y-24385300D02*
X30483333Y-24418633D01*
X30483333Y-24418633D02*
X30516667Y-24451966D01*
X30516667Y-24451966D02*
X30550000Y-24518633D01*
X30550000Y-24518633D02*
X30550000Y-24685300D01*
X30550000Y-24685300D02*
X30516667Y-24751966D01*
X30516667Y-24751966D02*
X30483333Y-24785300D01*
X30483333Y-24785300D02*
X30416667Y-24818633D01*
X30416667Y-24818633D02*
X30216667Y-24818633D01*
X30216667Y-24818633D02*
X30150000Y-24785300D01*
X30150000Y-24785300D02*
X30116667Y-24751966D01*
X34433333Y-55118633D02*
X34433333Y-55618633D01*
X34433333Y-55618633D02*
X34400000Y-55718633D01*
X34400000Y-55718633D02*
X34333333Y-55785300D01*
X34333333Y-55785300D02*
X34233333Y-55818633D01*
X34233333Y-55818633D02*
X34166667Y-55818633D01*
X35133333Y-55818633D02*
X34733333Y-55818633D01*
X34933333Y-55818633D02*
X34933333Y-55118633D01*
X34933333Y-55118633D02*
X34866666Y-55218633D01*
X34866666Y-55218633D02*
X34800000Y-55285300D01*
X34800000Y-55285300D02*
X34733333Y-55318633D01*
X35800000Y-55818633D02*
X35400000Y-55818633D01*
X35600000Y-55818633D02*
X35600000Y-55118633D01*
X35600000Y-55118633D02*
X35533333Y-55218633D01*
X35533333Y-55218633D02*
X35466667Y-55285300D01*
X35466667Y-55285300D02*
X35400000Y-55318633D01*
X1266666Y-32118633D02*
X1266666Y-32618633D01*
X1266666Y-32618633D02*
X1233333Y-32718633D01*
X1233333Y-32718633D02*
X1166666Y-32785300D01*
X1166666Y-32785300D02*
X1066666Y-32818633D01*
X1066666Y-32818633D02*
X1000000Y-32818633D01*
X1633333Y-32818633D02*
X1766666Y-32818633D01*
X1766666Y-32818633D02*
X1833333Y-32785300D01*
X1833333Y-32785300D02*
X1866666Y-32751966D01*
X1866666Y-32751966D02*
X1933333Y-32651966D01*
X1933333Y-32651966D02*
X1966666Y-32518633D01*
X1966666Y-32518633D02*
X1966666Y-32251966D01*
X1966666Y-32251966D02*
X1933333Y-32185300D01*
X1933333Y-32185300D02*
X1899999Y-32151966D01*
X1899999Y-32151966D02*
X1833333Y-32118633D01*
X1833333Y-32118633D02*
X1699999Y-32118633D01*
X1699999Y-32118633D02*
X1633333Y-32151966D01*
X1633333Y-32151966D02*
X1599999Y-32185300D01*
X1599999Y-32185300D02*
X1566666Y-32251966D01*
X1566666Y-32251966D02*
X1566666Y-32418633D01*
X1566666Y-32418633D02*
X1599999Y-32485300D01*
X1599999Y-32485300D02*
X1633333Y-32518633D01*
X1633333Y-32518633D02*
X1699999Y-32551966D01*
X1699999Y-32551966D02*
X1833333Y-32551966D01*
X1833333Y-32551966D02*
X1899999Y-32518633D01*
X1899999Y-32518633D02*
X1933333Y-32485300D01*
X1933333Y-32485300D02*
X1966666Y-32418633D01*
X32883333Y-50751966D02*
X32850000Y-50785300D01*
X32850000Y-50785300D02*
X32750000Y-50818633D01*
X32750000Y-50818633D02*
X32683333Y-50818633D01*
X32683333Y-50818633D02*
X32583333Y-50785300D01*
X32583333Y-50785300D02*
X32516667Y-50718633D01*
X32516667Y-50718633D02*
X32483333Y-50651966D01*
X32483333Y-50651966D02*
X32450000Y-50518633D01*
X32450000Y-50518633D02*
X32450000Y-50418633D01*
X32450000Y-50418633D02*
X32483333Y-50285300D01*
X32483333Y-50285300D02*
X32516667Y-50218633D01*
X32516667Y-50218633D02*
X32583333Y-50151966D01*
X32583333Y-50151966D02*
X32683333Y-50118633D01*
X32683333Y-50118633D02*
X32750000Y-50118633D01*
X32750000Y-50118633D02*
X32850000Y-50151966D01*
X32850000Y-50151966D02*
X32883333Y-50185300D01*
X33116667Y-50118633D02*
X33583333Y-50118633D01*
X33583333Y-50118633D02*
X33283333Y-50818633D01*
X6383333Y-29818633D02*
X6150000Y-29485300D01*
X5983333Y-29818633D02*
X5983333Y-29118633D01*
X5983333Y-29118633D02*
X6250000Y-29118633D01*
X6250000Y-29118633D02*
X6316667Y-29151966D01*
X6316667Y-29151966D02*
X6350000Y-29185300D01*
X6350000Y-29185300D02*
X6383333Y-29251966D01*
X6383333Y-29251966D02*
X6383333Y-29351966D01*
X6383333Y-29351966D02*
X6350000Y-29418633D01*
X6350000Y-29418633D02*
X6316667Y-29451966D01*
X6316667Y-29451966D02*
X6250000Y-29485300D01*
X6250000Y-29485300D02*
X5983333Y-29485300D01*
X7016667Y-29118633D02*
X6683333Y-29118633D01*
X6683333Y-29118633D02*
X6650000Y-29451966D01*
X6650000Y-29451966D02*
X6683333Y-29418633D01*
X6683333Y-29418633D02*
X6750000Y-29385300D01*
X6750000Y-29385300D02*
X6916667Y-29385300D01*
X6916667Y-29385300D02*
X6983333Y-29418633D01*
X6983333Y-29418633D02*
X7016667Y-29451966D01*
X7016667Y-29451966D02*
X7050000Y-29518633D01*
X7050000Y-29518633D02*
X7050000Y-29685300D01*
X7050000Y-29685300D02*
X7016667Y-29751966D01*
X7016667Y-29751966D02*
X6983333Y-29785300D01*
X6983333Y-29785300D02*
X6916667Y-29818633D01*
X6916667Y-29818633D02*
X6750000Y-29818633D01*
X6750000Y-29818633D02*
X6683333Y-29785300D01*
X6683333Y-29785300D02*
X6650000Y-29751966D01*
X6383333Y-23818633D02*
X6150000Y-23485300D01*
X5983333Y-23818633D02*
X5983333Y-23118633D01*
X5983333Y-23118633D02*
X6250000Y-23118633D01*
X6250000Y-23118633D02*
X6316667Y-23151966D01*
X6316667Y-23151966D02*
X6350000Y-23185300D01*
X6350000Y-23185300D02*
X6383333Y-23251966D01*
X6383333Y-23251966D02*
X6383333Y-23351966D01*
X6383333Y-23351966D02*
X6350000Y-23418633D01*
X6350000Y-23418633D02*
X6316667Y-23451966D01*
X6316667Y-23451966D02*
X6250000Y-23485300D01*
X6250000Y-23485300D02*
X5983333Y-23485300D01*
X6716667Y-23818633D02*
X6850000Y-23818633D01*
X6850000Y-23818633D02*
X6916667Y-23785300D01*
X6916667Y-23785300D02*
X6950000Y-23751966D01*
X6950000Y-23751966D02*
X7016667Y-23651966D01*
X7016667Y-23651966D02*
X7050000Y-23518633D01*
X7050000Y-23518633D02*
X7050000Y-23251966D01*
X7050000Y-23251966D02*
X7016667Y-23185300D01*
X7016667Y-23185300D02*
X6983333Y-23151966D01*
X6983333Y-23151966D02*
X6916667Y-23118633D01*
X6916667Y-23118633D02*
X6783333Y-23118633D01*
X6783333Y-23118633D02*
X6716667Y-23151966D01*
X6716667Y-23151966D02*
X6683333Y-23185300D01*
X6683333Y-23185300D02*
X6650000Y-23251966D01*
X6650000Y-23251966D02*
X6650000Y-23418633D01*
X6650000Y-23418633D02*
X6683333Y-23485300D01*
X6683333Y-23485300D02*
X6716667Y-23518633D01*
X6716667Y-23518633D02*
X6783333Y-23551966D01*
X6783333Y-23551966D02*
X6916667Y-23551966D01*
X6916667Y-23551966D02*
X6983333Y-23518633D01*
X6983333Y-23518633D02*
X7016667Y-23485300D01*
X7016667Y-23485300D02*
X7050000Y-23418633D01*
%TO.C,C1*%
D11*
X29640000Y-23607836D02*
X29640000Y-23392164D01*
X30360000Y-23607836D02*
X30360000Y-23392164D01*
%TO.C,J1*%
X59400000Y-18600000D02*
X59400000Y-19850000D01*
X59400000Y-19850000D02*
X60650000Y-19850000D01*
X61950000Y-1950000D02*
X61950000Y-2700000D01*
X61950000Y-2700000D02*
X64900000Y-2700000D01*
X61950000Y-18800000D02*
X64900000Y-18800000D01*
X61950000Y-19550000D02*
X61950000Y-18800000D01*
X64900000Y-2700000D02*
X64900000Y-10750000D01*
X64900000Y-18800000D02*
X64900000Y-10750000D01*
X59690000Y-1940000D02*
X65660000Y-1940000D01*
X65660000Y-19560000D01*
X59690000Y-19560000D01*
X59690000Y-1940000D01*
X59700000Y-1950000D02*
X60450000Y-1950000D01*
X60450000Y-3750000D01*
X59700000Y-3750000D01*
X59700000Y-1950000D01*
X59700000Y-5250000D02*
X60450000Y-5250000D01*
X60450000Y-16250000D01*
X59700000Y-16250000D01*
X59700000Y-5250000D01*
X59700000Y-17750000D02*
X60450000Y-17750000D01*
X60450000Y-19550000D01*
X59700000Y-19550000D01*
X59700000Y-17750000D01*
%TO.C,C2*%
X6140000Y-28107836D02*
X6140000Y-27892164D01*
X6860000Y-28107836D02*
X6860000Y-27892164D01*
%TO.C,C4*%
X29640000Y-38607836D02*
X29640000Y-38392164D01*
X30360000Y-38607836D02*
X30360000Y-38392164D01*
%TO.C,J6*%
X3620000Y-4380000D02*
X3620000Y-3000000D01*
X5000000Y-4380000D02*
X3620000Y-4380000D01*
X6270000Y-1620000D02*
X14000000Y-1620000D01*
X6270000Y-4380000D02*
X6270000Y-1620000D01*
X6270000Y-4380000D02*
X14000000Y-4380000D01*
X14000000Y-4380000D02*
X14000000Y-1620000D01*
%TO.C,R10*%
X24620000Y-52153641D02*
X24620000Y-51846359D01*
X25380000Y-52153641D02*
X25380000Y-51846359D01*
%TO.C,C6*%
X36195225Y-48525000D02*
X36695225Y-48525000D01*
X36445225Y-48275000D02*
X36445225Y-48775000D01*
X39000000Y-47420000D02*
X39000000Y-48960000D01*
X39000000Y-51040000D02*
X39000000Y-52580000D01*
X39040000Y-47420000D02*
X39040000Y-48960000D01*
X39040000Y-51040000D02*
X39040000Y-52580000D01*
X39080000Y-47421000D02*
X39080000Y-48960000D01*
X39080000Y-51040000D02*
X39080000Y-52579000D01*
X39120000Y-47423000D02*
X39120000Y-48960000D01*
X39120000Y-51040000D02*
X39120000Y-52577000D01*
X39160000Y-47425000D02*
X39160000Y-48960000D01*
X39160000Y-51040000D02*
X39160000Y-52575000D01*
X39200000Y-47428000D02*
X39200000Y-48960000D01*
X39200000Y-51040000D02*
X39200000Y-52572000D01*
X39240000Y-47431000D02*
X39240000Y-48960000D01*
X39240000Y-51040000D02*
X39240000Y-52569000D01*
X39280000Y-47435000D02*
X39280000Y-48960000D01*
X39280000Y-51040000D02*
X39280000Y-52565000D01*
X39320000Y-47440000D02*
X39320000Y-48960000D01*
X39320000Y-51040000D02*
X39320000Y-52560000D01*
X39360000Y-47445000D02*
X39360000Y-48960000D01*
X39360000Y-51040000D02*
X39360000Y-52555000D01*
X39400000Y-47451000D02*
X39400000Y-48960000D01*
X39400000Y-51040000D02*
X39400000Y-52549000D01*
X39440000Y-47457000D02*
X39440000Y-48960000D01*
X39440000Y-51040000D02*
X39440000Y-52543000D01*
X39480000Y-47464000D02*
X39480000Y-48960000D01*
X39480000Y-51040000D02*
X39480000Y-52536000D01*
X39520000Y-47472000D02*
X39520000Y-48960000D01*
X39520000Y-51040000D02*
X39520000Y-52528000D01*
X39560000Y-47481000D02*
X39560000Y-48960000D01*
X39560000Y-51040000D02*
X39560000Y-52519000D01*
X39600000Y-47490000D02*
X39600000Y-48960000D01*
X39600000Y-51040000D02*
X39600000Y-52510000D01*
X39640000Y-47499000D02*
X39640000Y-48960000D01*
X39640000Y-51040000D02*
X39640000Y-52501000D01*
X39680000Y-47510000D02*
X39680000Y-48960000D01*
X39680000Y-51040000D02*
X39680000Y-52490000D01*
X39720000Y-47521000D02*
X39720000Y-48960000D01*
X39720000Y-51040000D02*
X39720000Y-52479000D01*
X39760000Y-47533000D02*
X39760000Y-48960000D01*
X39760000Y-51040000D02*
X39760000Y-52467000D01*
X39800000Y-47545000D02*
X39800000Y-48960000D01*
X39800000Y-51040000D02*
X39800000Y-52455000D01*
X39840000Y-47558000D02*
X39840000Y-48960000D01*
X39840000Y-51040000D02*
X39840000Y-52442000D01*
X39880000Y-47572000D02*
X39880000Y-48960000D01*
X39880000Y-51040000D02*
X39880000Y-52428000D01*
X39920000Y-47587000D02*
X39920000Y-48960000D01*
X39920000Y-51040000D02*
X39920000Y-52413000D01*
X39960000Y-47602000D02*
X39960000Y-48960000D01*
X39960000Y-51040000D02*
X39960000Y-52398000D01*
X40000000Y-47618000D02*
X40000000Y-48960000D01*
X40000000Y-51040000D02*
X40000000Y-52382000D01*
X40040000Y-47635000D02*
X40040000Y-48960000D01*
X40040000Y-51040000D02*
X40040000Y-52365000D01*
X40080000Y-47653000D02*
X40080000Y-48960000D01*
X40080000Y-51040000D02*
X40080000Y-52347000D01*
X40120000Y-47671000D02*
X40120000Y-48960000D01*
X40120000Y-51040000D02*
X40120000Y-52329000D01*
X40160000Y-47691000D02*
X40160000Y-48960000D01*
X40160000Y-51040000D02*
X40160000Y-52309000D01*
X40200000Y-47711000D02*
X40200000Y-48960000D01*
X40200000Y-51040000D02*
X40200000Y-52289000D01*
X40240000Y-47732000D02*
X40240000Y-48960000D01*
X40240000Y-51040000D02*
X40240000Y-52268000D01*
X40280000Y-47754000D02*
X40280000Y-48960000D01*
X40280000Y-51040000D02*
X40280000Y-52246000D01*
X40320000Y-47777000D02*
X40320000Y-48960000D01*
X40320000Y-51040000D02*
X40320000Y-52223000D01*
X40360000Y-47801000D02*
X40360000Y-48960000D01*
X40360000Y-51040000D02*
X40360000Y-52199000D01*
X40400000Y-47825000D02*
X40400000Y-48960000D01*
X40400000Y-51040000D02*
X40400000Y-52175000D01*
X40440000Y-47851000D02*
X40440000Y-48960000D01*
X40440000Y-51040000D02*
X40440000Y-52149000D01*
X40480000Y-47878000D02*
X40480000Y-48960000D01*
X40480000Y-51040000D02*
X40480000Y-52122000D01*
X40520000Y-47906000D02*
X40520000Y-48960000D01*
X40520000Y-51040000D02*
X40520000Y-52094000D01*
X40560000Y-47935000D02*
X40560000Y-48960000D01*
X40560000Y-51040000D02*
X40560000Y-52065000D01*
X40600000Y-47965000D02*
X40600000Y-48960000D01*
X40600000Y-51040000D02*
X40600000Y-52035000D01*
X40640000Y-47997000D02*
X40640000Y-48960000D01*
X40640000Y-51040000D02*
X40640000Y-52003000D01*
X40680000Y-48030000D02*
X40680000Y-48960000D01*
X40680000Y-51040000D02*
X40680000Y-51970000D01*
X40720000Y-48064000D02*
X40720000Y-48960000D01*
X40720000Y-51040000D02*
X40720000Y-51936000D01*
X40760000Y-48099000D02*
X40760000Y-48960000D01*
X40760000Y-51040000D02*
X40760000Y-51901000D01*
X40800000Y-48136000D02*
X40800000Y-48960000D01*
X40800000Y-51040000D02*
X40800000Y-51864000D01*
X40840000Y-48175000D02*
X40840000Y-48960000D01*
X40840000Y-51040000D02*
X40840000Y-51825000D01*
X40880000Y-48215000D02*
X40880000Y-48960000D01*
X40880000Y-51040000D02*
X40880000Y-51785000D01*
X40920000Y-48257000D02*
X40920000Y-48960000D01*
X40920000Y-51040000D02*
X40920000Y-51743000D01*
X40960000Y-48301000D02*
X40960000Y-48960000D01*
X40960000Y-51040000D02*
X40960000Y-51699000D01*
X41000000Y-48348000D02*
X41000000Y-48960000D01*
X41000000Y-51040000D02*
X41000000Y-51652000D01*
X41040000Y-48396000D02*
X41040000Y-51604000D01*
X41080000Y-48447000D02*
X41080000Y-51553000D01*
X41120000Y-48501000D02*
X41120000Y-51499000D01*
X41160000Y-48557000D02*
X41160000Y-51443000D01*
X41200000Y-48617000D02*
X41200000Y-51383000D01*
X41240000Y-48681000D02*
X41240000Y-51319000D01*
X41280000Y-48749000D02*
X41280000Y-51251000D01*
X41320000Y-48823000D02*
X41320000Y-51177000D01*
X41360000Y-48902000D02*
X41360000Y-51098000D01*
X41400000Y-48989000D02*
X41400000Y-51011000D01*
X41440000Y-49086000D02*
X41440000Y-50914000D01*
X41480000Y-49195000D02*
X41480000Y-50805000D01*
X41520000Y-49323000D02*
X41520000Y-50677000D01*
X41560000Y-49483000D02*
X41560000Y-50517000D01*
X41600000Y-49717000D02*
X41600000Y-50283000D01*
X41620000Y-50000000D02*
G75*
G02*
X36380000Y-50000000I-2620000J0D01*
G01*
X36380000Y-50000000D02*
G75*
G02*
X41620000Y-50000000I2620000J0D01*
G01*
%TO.C,J10*%
X22150000Y-54250000D02*
X22150000Y-55500000D01*
X22450000Y-56800000D02*
X23200000Y-56800000D01*
X23200000Y-56800000D02*
X23200000Y-59750000D01*
X23200000Y-59750000D02*
X26250000Y-59750000D01*
X23400000Y-54250000D02*
X22150000Y-54250000D01*
X29300000Y-56800000D02*
X29300000Y-59750000D01*
X29300000Y-59750000D02*
X26250000Y-59750000D01*
X30050000Y-56800000D02*
X29300000Y-56800000D01*
X22440000Y-54540000D02*
X30060000Y-54540000D01*
X30060000Y-60510000D01*
X22440000Y-60510000D01*
X22440000Y-54540000D01*
X22450000Y-54550000D02*
X24250000Y-54550000D01*
X24250000Y-55300000D01*
X22450000Y-55300000D01*
X22450000Y-54550000D01*
X25750000Y-54550000D02*
X26750000Y-54550000D01*
X26750000Y-55300000D01*
X25750000Y-55300000D01*
X25750000Y-54550000D01*
X28250000Y-54550000D02*
X30050000Y-54550000D01*
X30050000Y-55300000D01*
X28250000Y-55300000D01*
X28250000Y-54550000D01*
%TO.C,R8*%
X6120000Y-22153641D02*
X6120000Y-21846359D01*
X6880000Y-22153641D02*
X6880000Y-21846359D01*
%TO.C,R6*%
X6120000Y-34153641D02*
X6120000Y-33846359D01*
X6880000Y-34153641D02*
X6880000Y-33846359D01*
%TO.C,U2*%
D12*
X42000000Y-16500000D02*
X50000000Y-16500000D01*
D11*
X34500000Y-16500000D02*
X57500000Y-16500000D01*
X57500000Y-39500000D01*
X34500000Y-39500000D01*
X34500000Y-16500000D01*
%TO.C,J5*%
X9890000Y-55960000D02*
X9890000Y-57110000D01*
X9890000Y-57110000D02*
X10940000Y-57110000D01*
X10940000Y-57110000D02*
X10940000Y-58100000D01*
X11060000Y-53990000D02*
X14940000Y-53990000D01*
X16110000Y-55960000D02*
X16110000Y-57110000D01*
X16110000Y-57110000D02*
X15060000Y-57110000D01*
%TO.C,J8*%
X-1250000Y-18200000D02*
X-1250000Y-21250000D01*
X-1250000Y-24300000D02*
X-1250000Y-21250000D01*
X1700000Y-17450000D02*
X1700000Y-18200000D01*
X1700000Y-18200000D02*
X-1250000Y-18200000D01*
X1700000Y-24300000D02*
X-1250000Y-24300000D01*
X1700000Y-25050000D02*
X1700000Y-24300000D01*
X4250000Y-17150000D02*
X3000000Y-17150000D01*
X4250000Y-18400000D02*
X4250000Y-17150000D01*
X3200000Y-17450000D02*
X3950000Y-17450000D01*
X3950000Y-19250000D01*
X3200000Y-19250000D01*
X3200000Y-17450000D01*
X3200000Y-20750000D02*
X3950000Y-20750000D01*
X3950000Y-21750000D01*
X3200000Y-21750000D01*
X3200000Y-20750000D01*
X3200000Y-23250000D02*
X3950000Y-23250000D01*
X3950000Y-25050000D01*
X3200000Y-25050000D01*
X3200000Y-23250000D01*
X-2010000Y-17440000D02*
X3960000Y-17440000D01*
X3960000Y-25060000D01*
X-2010000Y-25060000D01*
X-2010000Y-17440000D01*
%TO.C,R4*%
X29620000Y-21153641D02*
X29620000Y-20846359D01*
X30380000Y-21153641D02*
X30380000Y-20846359D01*
%TO.C,C5*%
X29640000Y-41607836D02*
X29640000Y-41392164D01*
X30360000Y-41607836D02*
X30360000Y-41392164D01*
%TO.C,R11*%
X28620000Y-52153641D02*
X28620000Y-51846359D01*
X29380000Y-52153641D02*
X29380000Y-51846359D01*
%TO.C,R7*%
X6120000Y-37153641D02*
X6120000Y-36846359D01*
X6880000Y-37153641D02*
X6880000Y-36846359D01*
%TO.C,U3*%
X28090000Y-44440000D02*
X29910000Y-44440000D01*
X28090000Y-44490000D02*
X28090000Y-44440000D01*
X28090000Y-47560000D02*
X28090000Y-47510000D01*
X29910000Y-44440000D02*
X29910000Y-44490000D01*
X29910000Y-45610000D02*
X29910000Y-46390000D01*
X29910000Y-47510000D02*
X29910000Y-47560000D01*
X29910000Y-47560000D02*
X28090000Y-47560000D01*
X27550000Y-44490000D02*
X27310000Y-44160000D01*
X27790000Y-44160000D01*
X27550000Y-44490000D01*
G36*
X27550000Y-44490000D02*
G01*
X27310000Y-44160000D01*
X27790000Y-44160000D01*
X27550000Y-44490000D01*
G37*
%TO.C,J7*%
X19150000Y-250000D02*
X19150000Y-1500000D01*
X19450000Y-2800000D02*
X20200000Y-2800000D01*
X20200000Y-2800000D02*
X20200000Y-5750000D01*
X20200000Y-5750000D02*
X23250000Y-5750000D01*
X20400000Y-250000D02*
X19150000Y-250000D01*
X26300000Y-2800000D02*
X26300000Y-5750000D01*
X26300000Y-5750000D02*
X23250000Y-5750000D01*
X27050000Y-2800000D02*
X26300000Y-2800000D01*
X19440000Y-540000D02*
X27060000Y-540000D01*
X27060000Y-6510000D01*
X19440000Y-6510000D01*
X19440000Y-540000D01*
X19450000Y-550000D02*
X21250000Y-550000D01*
X21250000Y-1300000D01*
X19450000Y-1300000D01*
X19450000Y-550000D01*
X22750000Y-550000D02*
X23750000Y-550000D01*
X23750000Y-1300000D01*
X22750000Y-1300000D01*
X22750000Y-550000D01*
X25250000Y-550000D02*
X27050000Y-550000D01*
X27050000Y-1300000D01*
X25250000Y-1300000D01*
X25250000Y-550000D01*
%TO.C,C3*%
X43020354Y-47125000D02*
X44020354Y-47125000D01*
X43520354Y-46625000D02*
X43520354Y-47625000D01*
X48500000Y-44920000D02*
X48500000Y-55080000D01*
X48540000Y-44920000D02*
X48540000Y-55080000D01*
X48580000Y-44921000D02*
X48580000Y-55079000D01*
X48620000Y-44921000D02*
X48620000Y-55079000D01*
X48660000Y-44923000D02*
X48660000Y-55077000D01*
X48700000Y-44924000D02*
X48700000Y-55076000D01*
X48740000Y-44926000D02*
X48740000Y-55074000D01*
X48780000Y-44928000D02*
X48780000Y-55072000D01*
X48820000Y-44930000D02*
X48820000Y-55070000D01*
X48860000Y-44933000D02*
X48860000Y-55067000D01*
X48900000Y-44936000D02*
X48900000Y-55064000D01*
X48940000Y-44939000D02*
X48940000Y-55061000D01*
X48980000Y-44943000D02*
X48980000Y-55057000D01*
X49020000Y-44946000D02*
X49020000Y-55054000D01*
X49060000Y-44951000D02*
X49060000Y-55049000D01*
X49100000Y-44955000D02*
X49100000Y-55045000D01*
X49140000Y-44960000D02*
X49140000Y-55040000D01*
X49180000Y-44965000D02*
X49180000Y-55035000D01*
X49220000Y-44971000D02*
X49220000Y-55029000D01*
X49260000Y-44977000D02*
X49260000Y-55023000D01*
X49300000Y-44983000D02*
X49300000Y-55017000D01*
X49340000Y-44989000D02*
X49340000Y-55011000D01*
X49380000Y-44996000D02*
X49380000Y-55004000D01*
X49420000Y-45003000D02*
X49420000Y-54997000D01*
X49460000Y-45011000D02*
X49460000Y-54989000D01*
X49500000Y-45019000D02*
X49500000Y-54981000D01*
X49540000Y-45027000D02*
X49540000Y-54973000D01*
X49580000Y-45035000D02*
X49580000Y-54965000D01*
X49620000Y-45044000D02*
X49620000Y-54956000D01*
X49660000Y-45053000D02*
X49660000Y-54947000D01*
X49700000Y-45063000D02*
X49700000Y-54937000D01*
X49740000Y-45072000D02*
X49740000Y-54928000D01*
X49780000Y-45083000D02*
X49780000Y-48760000D01*
X49780000Y-51240000D02*
X49780000Y-54917000D01*
X49820000Y-45093000D02*
X49820000Y-48760000D01*
X49820000Y-51240000D02*
X49820000Y-54907000D01*
X49860000Y-45104000D02*
X49860000Y-48760000D01*
X49860000Y-51240000D02*
X49860000Y-54896000D01*
X49900000Y-45115000D02*
X49900000Y-48760000D01*
X49900000Y-51240000D02*
X49900000Y-54885000D01*
X49940000Y-45127000D02*
X49940000Y-48760000D01*
X49940000Y-51240000D02*
X49940000Y-54873000D01*
X49980000Y-45139000D02*
X49980000Y-48760000D01*
X49980000Y-51240000D02*
X49980000Y-54861000D01*
X50020000Y-45151000D02*
X50020000Y-48760000D01*
X50020000Y-51240000D02*
X50020000Y-54849000D01*
X50060000Y-45163000D02*
X50060000Y-48760000D01*
X50060000Y-51240000D02*
X50060000Y-54837000D01*
X50100000Y-45176000D02*
X50100000Y-48760000D01*
X50100000Y-51240000D02*
X50100000Y-54824000D01*
X50140000Y-45190000D02*
X50140000Y-48760000D01*
X50140000Y-51240000D02*
X50140000Y-54810000D01*
X50180000Y-45203000D02*
X50180000Y-48760000D01*
X50180000Y-51240000D02*
X50180000Y-54797000D01*
X50220000Y-45218000D02*
X50220000Y-48760000D01*
X50220000Y-51240000D02*
X50220000Y-54782000D01*
X50260000Y-45232000D02*
X50260000Y-48760000D01*
X50260000Y-51240000D02*
X50260000Y-54768000D01*
X50300000Y-45247000D02*
X50300000Y-48760000D01*
X50300000Y-51240000D02*
X50300000Y-54753000D01*
X50340000Y-45262000D02*
X50340000Y-48760000D01*
X50340000Y-51240000D02*
X50340000Y-54738000D01*
X50380000Y-45278000D02*
X50380000Y-48760000D01*
X50380000Y-51240000D02*
X50380000Y-54722000D01*
X50420000Y-45294000D02*
X50420000Y-48760000D01*
X50420000Y-51240000D02*
X50420000Y-54706000D01*
X50460000Y-45310000D02*
X50460000Y-48760000D01*
X50460000Y-51240000D02*
X50460000Y-54690000D01*
X50500000Y-45327000D02*
X50500000Y-48760000D01*
X50500000Y-51240000D02*
X50500000Y-54673000D01*
X50540000Y-45344000D02*
X50540000Y-48760000D01*
X50540000Y-51240000D02*
X50540000Y-54656000D01*
X50580000Y-45362000D02*
X50580000Y-48760000D01*
X50580000Y-51240000D02*
X50580000Y-54638000D01*
X50620000Y-45380000D02*
X50620000Y-48760000D01*
X50620000Y-51240000D02*
X50620000Y-54620000D01*
X50660000Y-45398000D02*
X50660000Y-48760000D01*
X50660000Y-51240000D02*
X50660000Y-54602000D01*
X50700000Y-45417000D02*
X50700000Y-48760000D01*
X50700000Y-51240000D02*
X50700000Y-54583000D01*
X50740000Y-45436000D02*
X50740000Y-48760000D01*
X50740000Y-51240000D02*
X50740000Y-54564000D01*
X50780000Y-45456000D02*
X50780000Y-48760000D01*
X50780000Y-51240000D02*
X50780000Y-54544000D01*
X50820000Y-45476000D02*
X50820000Y-48760000D01*
X50820000Y-51240000D02*
X50820000Y-54524000D01*
X50860000Y-45496000D02*
X50860000Y-48760000D01*
X50860000Y-51240000D02*
X50860000Y-54504000D01*
X50900000Y-45517000D02*
X50900000Y-48760000D01*
X50900000Y-51240000D02*
X50900000Y-54483000D01*
X50940000Y-45539000D02*
X50940000Y-48760000D01*
X50940000Y-51240000D02*
X50940000Y-54461000D01*
X50980000Y-45561000D02*
X50980000Y-48760000D01*
X50980000Y-51240000D02*
X50980000Y-54439000D01*
X51020000Y-45583000D02*
X51020000Y-48760000D01*
X51020000Y-51240000D02*
X51020000Y-54417000D01*
X51060000Y-45606000D02*
X51060000Y-48760000D01*
X51060000Y-51240000D02*
X51060000Y-54394000D01*
X51100000Y-45629000D02*
X51100000Y-48760000D01*
X51100000Y-51240000D02*
X51100000Y-54371000D01*
X51140000Y-45653000D02*
X51140000Y-48760000D01*
X51140000Y-51240000D02*
X51140000Y-54347000D01*
X51180000Y-45677000D02*
X51180000Y-48760000D01*
X51180000Y-51240000D02*
X51180000Y-54323000D01*
X51220000Y-45702000D02*
X51220000Y-48760000D01*
X51220000Y-51240000D02*
X51220000Y-54298000D01*
X51260000Y-45728000D02*
X51260000Y-48760000D01*
X51260000Y-51240000D02*
X51260000Y-54272000D01*
X51300000Y-45753000D02*
X51300000Y-48760000D01*
X51300000Y-51240000D02*
X51300000Y-54247000D01*
X51340000Y-45780000D02*
X51340000Y-48760000D01*
X51340000Y-51240000D02*
X51340000Y-54220000D01*
X51380000Y-45807000D02*
X51380000Y-48760000D01*
X51380000Y-51240000D02*
X51380000Y-54193000D01*
X51420000Y-45834000D02*
X51420000Y-48760000D01*
X51420000Y-51240000D02*
X51420000Y-54166000D01*
X51460000Y-45862000D02*
X51460000Y-48760000D01*
X51460000Y-51240000D02*
X51460000Y-54138000D01*
X51500000Y-45891000D02*
X51500000Y-48760000D01*
X51500000Y-51240000D02*
X51500000Y-54109000D01*
X51540000Y-45920000D02*
X51540000Y-48760000D01*
X51540000Y-51240000D02*
X51540000Y-54080000D01*
X51580000Y-45950000D02*
X51580000Y-48760000D01*
X51580000Y-51240000D02*
X51580000Y-54050000D01*
X51620000Y-45980000D02*
X51620000Y-48760000D01*
X51620000Y-51240000D02*
X51620000Y-54020000D01*
X51660000Y-46012000D02*
X51660000Y-48760000D01*
X51660000Y-51240000D02*
X51660000Y-53988000D01*
X51700000Y-46043000D02*
X51700000Y-48760000D01*
X51700000Y-51240000D02*
X51700000Y-53957000D01*
X51740000Y-46076000D02*
X51740000Y-48760000D01*
X51740000Y-51240000D02*
X51740000Y-53924000D01*
X51780000Y-46109000D02*
X51780000Y-48760000D01*
X51780000Y-51240000D02*
X51780000Y-53891000D01*
X51820000Y-46142000D02*
X51820000Y-48760000D01*
X51820000Y-51240000D02*
X51820000Y-53858000D01*
X51860000Y-46177000D02*
X51860000Y-48760000D01*
X51860000Y-51240000D02*
X51860000Y-53823000D01*
X51900000Y-46212000D02*
X51900000Y-48760000D01*
X51900000Y-51240000D02*
X51900000Y-53788000D01*
X51940000Y-46248000D02*
X51940000Y-48760000D01*
X51940000Y-51240000D02*
X51940000Y-53752000D01*
X51980000Y-46284000D02*
X51980000Y-48760000D01*
X51980000Y-51240000D02*
X51980000Y-53716000D01*
X52020000Y-46322000D02*
X52020000Y-48760000D01*
X52020000Y-51240000D02*
X52020000Y-53678000D01*
X52060000Y-46360000D02*
X52060000Y-48760000D01*
X52060000Y-51240000D02*
X52060000Y-53640000D01*
X52100000Y-46399000D02*
X52100000Y-48760000D01*
X52100000Y-51240000D02*
X52100000Y-53601000D01*
X52140000Y-46439000D02*
X52140000Y-48760000D01*
X52140000Y-51240000D02*
X52140000Y-53561000D01*
X52180000Y-46480000D02*
X52180000Y-48760000D01*
X52180000Y-51240000D02*
X52180000Y-53520000D01*
X52220000Y-46522000D02*
X52220000Y-48760000D01*
X52220000Y-51240000D02*
X52220000Y-53478000D01*
X52260000Y-46565000D02*
X52260000Y-53435000D01*
X52300000Y-46609000D02*
X52300000Y-53391000D01*
X52340000Y-46653000D02*
X52340000Y-53347000D01*
X52380000Y-46699000D02*
X52380000Y-53301000D01*
X52420000Y-46746000D02*
X52420000Y-53254000D01*
X52460000Y-46795000D02*
X52460000Y-53205000D01*
X52500000Y-46844000D02*
X52500000Y-53156000D01*
X52540000Y-46895000D02*
X52540000Y-53105000D01*
X52580000Y-46947000D02*
X52580000Y-53053000D01*
X52620000Y-47000000D02*
X52620000Y-53000000D01*
X52660000Y-47055000D02*
X52660000Y-52945000D01*
X52700000Y-47112000D02*
X52700000Y-52888000D01*
X52740000Y-47170000D02*
X52740000Y-52830000D01*
X52780000Y-47230000D02*
X52780000Y-52770000D01*
X52820000Y-47292000D02*
X52820000Y-52708000D01*
X52860000Y-47356000D02*
X52860000Y-52644000D01*
X52900000Y-47422000D02*
X52900000Y-52578000D01*
X52940000Y-47490000D02*
X52940000Y-52510000D01*
X52980000Y-47561000D02*
X52980000Y-52439000D01*
X53020000Y-47635000D02*
X53020000Y-52365000D01*
X53060000Y-47712000D02*
X53060000Y-52288000D01*
X53100000Y-47792000D02*
X53100000Y-52208000D01*
X53140000Y-47876000D02*
X53140000Y-52124000D01*
X53180000Y-47963000D02*
X53180000Y-52037000D01*
X53220000Y-48056000D02*
X53220000Y-51944000D01*
X53260000Y-48154000D02*
X53260000Y-51846000D01*
X53300000Y-48258000D02*
X53300000Y-51742000D01*
X53340000Y-48370000D02*
X53340000Y-51630000D01*
X53380000Y-48491000D02*
X53380000Y-51509000D01*
X53420000Y-48623000D02*
X53420000Y-51377000D01*
X53460000Y-48770000D02*
X53460000Y-51230000D01*
X53500000Y-48938000D02*
X53500000Y-51062000D01*
X53540000Y-49138000D02*
X53540000Y-50862000D01*
X53580000Y-49401000D02*
X53580000Y-50599000D01*
X53620000Y-50000000D02*
G75*
G02*
X43380000Y-50000000I-5120000J0D01*
G01*
X43380000Y-50000000D02*
G75*
G02*
X53620000Y-50000000I5120000J0D01*
G01*
%TO.C,U1*%
X10900000Y-15800000D02*
X25100000Y-15800000D01*
X10900000Y-39700000D02*
X25100000Y-39700000D01*
X9500000Y-16200000D02*
X9200000Y-16900000D01*
X9800000Y-16900000D01*
X9500000Y-16200000D01*
G36*
X9800000Y-16900000D02*
G01*
X9200000Y-16900000D01*
X9500000Y-16200000D01*
X9800000Y-16900000D01*
G37*
%TO.C,R1*%
X29620000Y-33153641D02*
X29620000Y-32846359D01*
X30380000Y-33153641D02*
X30380000Y-32846359D01*
%TO.C,R2*%
X29620000Y-35653641D02*
X29620000Y-35346359D01*
X30380000Y-35653641D02*
X30380000Y-35346359D01*
%TO.C,J2*%
X59400000Y-43600000D02*
X59400000Y-44850000D01*
X59400000Y-44850000D02*
X60650000Y-44850000D01*
X61950000Y-26950000D02*
X61950000Y-27700000D01*
X61950000Y-27700000D02*
X64900000Y-27700000D01*
X61950000Y-43800000D02*
X64900000Y-43800000D01*
X61950000Y-44550000D02*
X61950000Y-43800000D01*
X64900000Y-27700000D02*
X64900000Y-35750000D01*
X64900000Y-43800000D02*
X64900000Y-35750000D01*
X59690000Y-26940000D02*
X65660000Y-26940000D01*
X65660000Y-44560000D01*
X59690000Y-44560000D01*
X59690000Y-26940000D01*
X59700000Y-26950000D02*
X60450000Y-26950000D01*
X60450000Y-28750000D01*
X59700000Y-28750000D01*
X59700000Y-26950000D01*
X59700000Y-30250000D02*
X60450000Y-30250000D01*
X60450000Y-41250000D01*
X59700000Y-41250000D01*
X59700000Y-30250000D01*
X59700000Y-42750000D02*
X60450000Y-42750000D01*
X60450000Y-44550000D01*
X59700000Y-44550000D01*
X59700000Y-42750000D01*
%TO.C,R3*%
X29620000Y-26153641D02*
X29620000Y-25846359D01*
X30380000Y-26153641D02*
X30380000Y-25846359D01*
%TO.C,J11*%
X32150000Y-54250000D02*
X32150000Y-55500000D01*
X32450000Y-56800000D02*
X33200000Y-56800000D01*
X33200000Y-56800000D02*
X33200000Y-59750000D01*
X33200000Y-59750000D02*
X37500000Y-59750000D01*
X33400000Y-54250000D02*
X32150000Y-54250000D01*
X41800000Y-56800000D02*
X41800000Y-59750000D01*
X41800000Y-59750000D02*
X37500000Y-59750000D01*
X42550000Y-56800000D02*
X41800000Y-56800000D01*
X32440000Y-54540000D02*
X42560000Y-54540000D01*
X42560000Y-60510000D01*
X32440000Y-60510000D01*
X32440000Y-54540000D01*
X32450000Y-54550000D02*
X34250000Y-54550000D01*
X34250000Y-55300000D01*
X32450000Y-55300000D01*
X32450000Y-54550000D01*
X35750000Y-54550000D02*
X39250000Y-54550000D01*
X39250000Y-55300000D01*
X35750000Y-55300000D01*
X35750000Y-54550000D01*
X40750000Y-54550000D02*
X42550000Y-54550000D01*
X42550000Y-55300000D01*
X40750000Y-55300000D01*
X40750000Y-54550000D01*
%TO.C,J9*%
X-1250000Y-32200000D02*
X-1250000Y-37750000D01*
X-1250000Y-43300000D02*
X-1250000Y-37750000D01*
X1700000Y-31450000D02*
X1700000Y-32200000D01*
X1700000Y-32200000D02*
X-1250000Y-32200000D01*
X1700000Y-43300000D02*
X-1250000Y-43300000D01*
X1700000Y-44050000D02*
X1700000Y-43300000D01*
X4250000Y-31150000D02*
X3000000Y-31150000D01*
X4250000Y-32400000D02*
X4250000Y-31150000D01*
X3200000Y-31450000D02*
X3950000Y-31450000D01*
X3950000Y-33250000D01*
X3200000Y-33250000D01*
X3200000Y-31450000D01*
X3200000Y-34750000D02*
X3950000Y-34750000D01*
X3950000Y-40750000D01*
X3200000Y-40750000D01*
X3200000Y-34750000D01*
X3200000Y-42250000D02*
X3950000Y-42250000D01*
X3950000Y-44050000D01*
X3200000Y-44050000D01*
X3200000Y-42250000D01*
X-2010000Y-31440000D02*
X3960000Y-31440000D01*
X3960000Y-44060000D01*
X-2010000Y-44060000D01*
X-2010000Y-31440000D01*
%TO.C,C7*%
X32640000Y-52107836D02*
X32640000Y-51892164D01*
X33360000Y-52107836D02*
X33360000Y-51892164D01*
%TO.C,R5*%
X6120000Y-31153641D02*
X6120000Y-30846359D01*
X6880000Y-31153641D02*
X6880000Y-30846359D01*
%TO.C,R9*%
X6120000Y-25153641D02*
X6120000Y-24846359D01*
X6880000Y-25153641D02*
X6880000Y-24846359D01*
%TD*%
M02*
