%TF.GenerationSoftware,KiCad,Pcbnew,10.0.4-10.0.4~ubuntu24.04.1*%
%TF.CreationDate,2026-06-26T13:50:28-06:00*%
%TF.ProjectId,robot-buddy-reflex,726f626f-742d-4627-9564-64792d726566,rev?*%
%TF.SameCoordinates,Original*%
%TF.FileFunction,Copper,L3,Inr*%
%TF.FilePolarity,Positive*%
%FSLAX46Y46*%
G04 Gerber Fmt 4.6, Leading zero omitted, Abs format (unit mm)*
G04 Created by KiCad (PCBNEW 10.0.4-10.0.4~ubuntu24.04.1) date 2026-06-26 13:50:28*
%MOMM*%
%LPD*%
G01*
G04 APERTURE LIST*
G04 Aperture macros list*
%AMRoundRect*
0 Rectangle with rounded corners*
0 $1 Rounding radius*
0 $2 $3 $4 $5 $6 $7 $8 $9 X,Y pos of 4 corners*
0 Add a 4 corners polygon primitive as box body*
4,1,4,$2,$3,$4,$5,$6,$7,$8,$9,$2,$3,0*
0 Add four circle primitives for the rounded corners*
1,1,$1+$1,$2,$3*
1,1,$1+$1,$4,$5*
1,1,$1+$1,$6,$7*
1,1,$1+$1,$8,$9*
0 Add four rect primitives between the rounded corners*
20,1,$1+$1,$2,$3,$4,$5,0*
20,1,$1+$1,$4,$5,$6,$7,0*
20,1,$1+$1,$6,$7,$8,$9,0*
20,1,$1+$1,$8,$9,$2,$3,0*%
G04 Aperture macros list end*
%TA.AperFunction,ComponentPad*%
%ADD10RoundRect,0.250000X-0.750000X-0.750000X0.750000X-0.750000X0.750000X0.750000X-0.750000X0.750000X0*%
%TD*%
%TA.AperFunction,ComponentPad*%
%ADD11R,1.700000X1.700000*%
%TD*%
%TA.AperFunction,ComponentPad*%
%ADD12C,1.700000*%
%TD*%
%TA.AperFunction,ComponentPad*%
%ADD13RoundRect,0.250000X-0.600000X-0.750000X0.600000X-0.750000X0.600000X0.750000X-0.600000X0.750000X0*%
%TD*%
%TA.AperFunction,ViaPad*%
%ADD14C,0.600000*%
%TD*%
%TA.AperFunction,ViaPad*%
%ADD15C,0.800000*%
%TD*%
G04 APERTURE END LIST*
D10*
%TO.N,+BATT*%
%TO.C,C3*%
X46000000Y-50000000D03*
%TD*%
D11*
%TO.N,/PWMA*%
%TO.C,U2*%
X38380000Y-19110000D03*
D12*
%TO.N,/AIN2*%
X38380000Y-21650000D03*
%TO.N,/AIN1*%
X38380000Y-24190000D03*
%TO.N,/STBY*%
X38380000Y-26730000D03*
%TO.N,/BIN1*%
X38380000Y-29270000D03*
%TO.N,/BIN2*%
X38380000Y-31810000D03*
%TO.N,/PWMB*%
X38380000Y-34350000D03*
%TO.N,GND*%
X38380000Y-36890000D03*
%TO.N,+BATT*%
X53620000Y-19110000D03*
%TO.N,+3V3*%
X53620000Y-21650000D03*
%TO.N,/AO1*%
X53620000Y-24190000D03*
%TO.N,/AO2*%
X53620000Y-26730000D03*
%TO.N,GND*%
X53620000Y-29270000D03*
%TO.N,/BO2*%
X53620000Y-31810000D03*
%TO.N,/BO1*%
X53620000Y-34350000D03*
%TO.N,+BATT*%
X53620000Y-36890000D03*
%TD*%
D13*
%TO.N,+BATT*%
%TO.C,J8*%
X1500000Y-20000000D03*
%TD*%
D14*
%TO.N,/TRIG*%
X7943400Y-29494400D03*
%TO.N,/ECHO_IN*%
X8046500Y-32089700D03*
D15*
%TO.N,GND*%
X30984600Y-35090700D03*
X30978500Y-38020000D03*
D14*
X29100000Y-23020000D03*
D15*
X30977900Y-32409000D03*
X10535100Y-58289900D03*
X8353200Y-21254400D03*
X29063500Y-41020000D03*
X30975300Y-25490000D03*
X5552200Y-24266200D03*
X7246800Y-32743200D03*
X7448800Y-27132900D03*
D14*
%TO.N,/ESTOP*%
X29000000Y-20490000D03*
X22104200Y-22043600D03*
D15*
%TO.N,+BATT*%
X54271300Y-16749100D03*
D14*
%TO.N,/PWMA*%
X33982600Y-27370500D03*
X33982600Y-33080400D03*
%TO.N,/ENC_RA*%
X60237000Y-30529000D03*
%TO.N,+3V3*%
X28268500Y-21055600D03*
D15*
X28632700Y-38833800D03*
D14*
%TO.N,/AIN1*%
X33982600Y-36650700D03*
%TO.N,/SCL*%
X16241400Y-56467100D03*
X19164100Y-35733000D03*
%TO.N,/SDA*%
X20202700Y-35742400D03*
X19164100Y-55799900D03*
%TO.N,/ENC_LB*%
X51103000Y-29999600D03*
%TO.N,/ENC_LA*%
X27509300Y-32784900D03*
X28055200Y-9932700D03*
%TO.N,/STBY*%
X37521900Y-32893200D03*
%TO.N,/AIN2*%
X29128100Y-36653700D03*
%TD*%
%TA.AperFunction,Conductor*%
%TO.N,+BATT*%
G36*
X64442539Y-520185D02*
G01*
X64488294Y-572989D01*
X64499500Y-624500D01*
X64499500Y-59375500D01*
X64479815Y-59442539D01*
X64427011Y-59488294D01*
X64375500Y-59499500D01*
X624500Y-59499500D01*
X557461Y-59479815D01*
X511706Y-59427011D01*
X500500Y-59375500D01*
X500500Y-58353971D01*
X9884599Y-58353971D01*
X9909597Y-58479638D01*
X9909599Y-58479644D01*
X9958633Y-58598024D01*
X9958638Y-58598033D01*
X10029823Y-58704568D01*
X10029826Y-58704572D01*
X10120427Y-58795173D01*
X10120431Y-58795176D01*
X10226966Y-58866361D01*
X10226972Y-58866364D01*
X10226973Y-58866365D01*
X10345356Y-58915401D01*
X10345360Y-58915401D01*
X10345361Y-58915402D01*
X10471028Y-58940400D01*
X10471031Y-58940400D01*
X10599171Y-58940400D01*
X10683715Y-58923582D01*
X10724844Y-58915401D01*
X10843227Y-58866365D01*
X10949769Y-58795176D01*
X11040376Y-58704569D01*
X11111565Y-58598027D01*
X11160601Y-58479644D01*
X11185600Y-58353969D01*
X11185600Y-58225831D01*
X11185600Y-58225828D01*
X11160602Y-58100161D01*
X11160601Y-58100160D01*
X11160601Y-58100156D01*
X11111565Y-57981773D01*
X11111564Y-57981772D01*
X11111561Y-57981766D01*
X11040376Y-57875231D01*
X11040373Y-57875227D01*
X10949772Y-57784626D01*
X10949768Y-57784623D01*
X10843233Y-57713438D01*
X10843224Y-57713433D01*
X10724844Y-57664399D01*
X10724838Y-57664397D01*
X10599171Y-57639400D01*
X10599169Y-57639400D01*
X10471031Y-57639400D01*
X10471029Y-57639400D01*
X10345361Y-57664397D01*
X10345355Y-57664399D01*
X10226975Y-57713433D01*
X10226966Y-57713438D01*
X10120431Y-57784623D01*
X10120427Y-57784626D01*
X10029826Y-57875227D01*
X10029823Y-57875231D01*
X9958638Y-57981766D01*
X9958633Y-57981775D01*
X9909599Y-58100155D01*
X9909597Y-58100161D01*
X9884600Y-58225828D01*
X9884600Y-58225831D01*
X9884600Y-58353969D01*
X9884600Y-58353971D01*
X9884599Y-58353971D01*
X500500Y-58353971D01*
X500500Y-55878711D01*
X2149500Y-55878711D01*
X2149500Y-56121288D01*
X2179662Y-56350400D01*
X2181162Y-56361789D01*
X2189961Y-56394627D01*
X2243947Y-56596104D01*
X2330523Y-56805117D01*
X2336776Y-56820212D01*
X2458064Y-57030289D01*
X2458066Y-57030292D01*
X2458067Y-57030293D01*
X2605733Y-57222736D01*
X2605739Y-57222743D01*
X2777256Y-57394260D01*
X2777262Y-57394265D01*
X2969711Y-57541936D01*
X3179788Y-57663224D01*
X3403900Y-57756054D01*
X3638211Y-57818838D01*
X3818586Y-57842584D01*
X3878711Y-57850500D01*
X3878712Y-57850500D01*
X4121289Y-57850500D01*
X4169388Y-57844167D01*
X4361789Y-57818838D01*
X4596100Y-57756054D01*
X4820212Y-57663224D01*
X5030289Y-57541936D01*
X5222738Y-57394265D01*
X5394265Y-57222738D01*
X5541936Y-57030289D01*
X5663224Y-56820212D01*
X5756054Y-56596100D01*
X5810040Y-56394625D01*
X15690900Y-56394625D01*
X15690900Y-56539575D01*
X15728416Y-56679585D01*
X15728417Y-56679588D01*
X15800888Y-56805111D01*
X15800890Y-56805113D01*
X15800891Y-56805115D01*
X15903385Y-56907609D01*
X15903386Y-56907610D01*
X15903388Y-56907611D01*
X16028911Y-56980082D01*
X16028912Y-56980082D01*
X16028915Y-56980084D01*
X16168925Y-57017600D01*
X16168928Y-57017600D01*
X16313872Y-57017600D01*
X16313875Y-57017600D01*
X16453885Y-56980084D01*
X16579415Y-56907609D01*
X16681909Y-56805115D01*
X16754384Y-56679585D01*
X16791900Y-56539575D01*
X16791900Y-56394625D01*
X16754384Y-56254615D01*
X16746183Y-56240411D01*
X16681911Y-56129088D01*
X16681906Y-56129082D01*
X16579417Y-56026593D01*
X16579411Y-56026588D01*
X16453888Y-55954117D01*
X16453889Y-55954117D01*
X16442406Y-55951040D01*
X16313875Y-55916600D01*
X16168925Y-55916600D01*
X16040393Y-55951040D01*
X16028911Y-55954117D01*
X15903388Y-56026588D01*
X15903382Y-56026593D01*
X15800893Y-56129082D01*
X15800888Y-56129088D01*
X15728417Y-56254611D01*
X15728416Y-56254615D01*
X15690900Y-56394625D01*
X5810040Y-56394625D01*
X5818838Y-56361789D01*
X5850500Y-56121288D01*
X5850500Y-55878712D01*
X5830583Y-55727425D01*
X18613600Y-55727425D01*
X18613600Y-55872375D01*
X18635503Y-55954116D01*
X18651117Y-56012388D01*
X18723588Y-56137911D01*
X18723590Y-56137913D01*
X18723591Y-56137915D01*
X18826085Y-56240409D01*
X18826086Y-56240410D01*
X18826088Y-56240411D01*
X18951611Y-56312882D01*
X18951612Y-56312882D01*
X18951615Y-56312884D01*
X19091625Y-56350400D01*
X19091628Y-56350400D01*
X19236572Y-56350400D01*
X19236575Y-56350400D01*
X19376585Y-56312884D01*
X19502115Y-56240409D01*
X19604609Y-56137915D01*
X19677084Y-56012385D01*
X19712902Y-55878711D01*
X53149500Y-55878711D01*
X53149500Y-56121288D01*
X53179662Y-56350400D01*
X53181162Y-56361789D01*
X53189961Y-56394627D01*
X53243947Y-56596104D01*
X53330523Y-56805117D01*
X53336776Y-56820212D01*
X53458064Y-57030289D01*
X53458066Y-57030292D01*
X53458067Y-57030293D01*
X53605733Y-57222736D01*
X53605739Y-57222743D01*
X53777256Y-57394260D01*
X53777262Y-57394265D01*
X53969711Y-57541936D01*
X54179788Y-57663224D01*
X54403900Y-57756054D01*
X54638211Y-57818838D01*
X54818586Y-57842584D01*
X54878711Y-57850500D01*
X54878712Y-57850500D01*
X55121289Y-57850500D01*
X55169388Y-57844167D01*
X55361789Y-57818838D01*
X55596100Y-57756054D01*
X55820212Y-57663224D01*
X56030289Y-57541936D01*
X56222738Y-57394265D01*
X56394265Y-57222738D01*
X56541936Y-57030289D01*
X56663224Y-56820212D01*
X56756054Y-56596100D01*
X56818838Y-56361789D01*
X56850500Y-56121288D01*
X56850500Y-55878712D01*
X56818838Y-55638211D01*
X56756054Y-55403900D01*
X56663224Y-55179788D01*
X56541936Y-54969711D01*
X56394265Y-54777262D01*
X56394260Y-54777256D01*
X56222743Y-54605739D01*
X56222736Y-54605733D01*
X56030293Y-54458067D01*
X56030292Y-54458066D01*
X56030289Y-54458064D01*
X55820212Y-54336776D01*
X55820205Y-54336773D01*
X55596104Y-54243947D01*
X55361785Y-54181161D01*
X55121289Y-54149500D01*
X55121288Y-54149500D01*
X54878712Y-54149500D01*
X54878711Y-54149500D01*
X54638214Y-54181161D01*
X54403895Y-54243947D01*
X54179794Y-54336773D01*
X54179785Y-54336777D01*
X53969706Y-54458067D01*
X53777263Y-54605733D01*
X53777256Y-54605739D01*
X53605739Y-54777256D01*
X53605733Y-54777263D01*
X53458067Y-54969706D01*
X53336777Y-55179785D01*
X53336773Y-55179794D01*
X53243947Y-55403895D01*
X53181161Y-55638214D01*
X53149500Y-55878711D01*
X19712902Y-55878711D01*
X19714600Y-55872375D01*
X19714600Y-55727425D01*
X19677084Y-55587415D01*
X19604609Y-55461885D01*
X19502115Y-55359391D01*
X19502113Y-55359390D01*
X19502111Y-55359388D01*
X19376588Y-55286917D01*
X19376589Y-55286917D01*
X19365106Y-55283840D01*
X19236575Y-55249400D01*
X19091625Y-55249400D01*
X18963093Y-55283840D01*
X18951611Y-55286917D01*
X18826088Y-55359388D01*
X18826082Y-55359393D01*
X18723593Y-55461882D01*
X18723588Y-55461888D01*
X18651117Y-55587411D01*
X18651116Y-55587415D01*
X18613600Y-55727425D01*
X5830583Y-55727425D01*
X5818838Y-55638211D01*
X5756054Y-55403900D01*
X5663224Y-55179788D01*
X5541936Y-54969711D01*
X5394265Y-54777262D01*
X5394260Y-54777256D01*
X5222743Y-54605739D01*
X5222736Y-54605733D01*
X5030293Y-54458067D01*
X5030292Y-54458066D01*
X5030289Y-54458064D01*
X4820212Y-54336776D01*
X4820205Y-54336773D01*
X4596104Y-54243947D01*
X4361785Y-54181161D01*
X4121289Y-54149500D01*
X4121288Y-54149500D01*
X3878712Y-54149500D01*
X3878711Y-54149500D01*
X3638214Y-54181161D01*
X3403895Y-54243947D01*
X3179794Y-54336773D01*
X3179785Y-54336777D01*
X2969706Y-54458067D01*
X2777263Y-54605733D01*
X2777256Y-54605739D01*
X2605739Y-54777256D01*
X2605733Y-54777263D01*
X2458067Y-54969706D01*
X2336777Y-55179785D01*
X2336773Y-55179794D01*
X2243947Y-55403895D01*
X2181161Y-55638214D01*
X2149500Y-55878711D01*
X500500Y-55878711D01*
X500500Y-50073920D01*
X50249499Y-50073920D01*
X50278340Y-50218907D01*
X50278343Y-50218917D01*
X50334912Y-50355488D01*
X50334919Y-50355501D01*
X50417048Y-50478415D01*
X50417051Y-50478419D01*
X50521580Y-50582948D01*
X50521584Y-50582951D01*
X50644498Y-50665080D01*
X50644511Y-50665087D01*
X50781082Y-50721656D01*
X50781087Y-50721658D01*
X50781091Y-50721658D01*
X50781092Y-50721659D01*
X50926079Y-50750500D01*
X50926082Y-50750500D01*
X51073920Y-50750500D01*
X51171462Y-50731096D01*
X51218913Y-50721658D01*
X51355495Y-50665084D01*
X51478416Y-50582951D01*
X51582951Y-50478416D01*
X51665084Y-50355495D01*
X51721658Y-50218913D01*
X51750500Y-50073918D01*
X51750500Y-49926082D01*
X51750500Y-49926079D01*
X51721659Y-49781092D01*
X51721658Y-49781091D01*
X51721658Y-49781087D01*
X51721656Y-49781082D01*
X51665087Y-49644511D01*
X51665080Y-49644498D01*
X51582951Y-49521584D01*
X51582948Y-49521580D01*
X51478419Y-49417051D01*
X51478415Y-49417048D01*
X51355501Y-49334919D01*
X51355488Y-49334912D01*
X51218917Y-49278343D01*
X51218907Y-49278340D01*
X51073920Y-49249500D01*
X51073918Y-49249500D01*
X50926082Y-49249500D01*
X50926080Y-49249500D01*
X50781092Y-49278340D01*
X50781082Y-49278343D01*
X50644511Y-49334912D01*
X50644498Y-49334919D01*
X50521584Y-49417048D01*
X50521580Y-49417051D01*
X50417051Y-49521580D01*
X50417048Y-49521584D01*
X50334919Y-49644498D01*
X50334912Y-49644511D01*
X50278343Y-49781082D01*
X50278340Y-49781092D01*
X50249500Y-49926079D01*
X50249500Y-49926082D01*
X50249500Y-50073918D01*
X50249500Y-50073920D01*
X50249499Y-50073920D01*
X500500Y-50073920D01*
X500500Y-41571457D01*
X774499Y-41571457D01*
X802379Y-41711614D01*
X802381Y-41711620D01*
X857069Y-41843650D01*
X857074Y-41843659D01*
X936467Y-41962478D01*
X936470Y-41962482D01*
X1037517Y-42063529D01*
X1037521Y-42063532D01*
X1156340Y-42142925D01*
X1156346Y-42142928D01*
X1156347Y-42142929D01*
X1288380Y-42197619D01*
X1288384Y-42197619D01*
X1288385Y-42197620D01*
X1428542Y-42225500D01*
X1428545Y-42225500D01*
X1571457Y-42225500D01*
X1665751Y-42206742D01*
X1711620Y-42197619D01*
X1843653Y-42142929D01*
X1962479Y-42063532D01*
X2063532Y-41962479D01*
X2089500Y-41923615D01*
X61374500Y-41923615D01*
X61374500Y-42076384D01*
X61404300Y-42226197D01*
X61404302Y-42226205D01*
X61462759Y-42367334D01*
X61462764Y-42367343D01*
X61547629Y-42494351D01*
X61547632Y-42494355D01*
X61655644Y-42602367D01*
X61655648Y-42602370D01*
X61782656Y-42687235D01*
X61782662Y-42687238D01*
X61782663Y-42687239D01*
X61923795Y-42745698D01*
X62073615Y-42775499D01*
X62073619Y-42775500D01*
X62073620Y-42775500D01*
X62226381Y-42775500D01*
X62226382Y-42775499D01*
X62376205Y-42745698D01*
X62517337Y-42687239D01*
X62644352Y-42602370D01*
X62752370Y-42494352D01*
X62837239Y-42367337D01*
X62895698Y-42226205D01*
X62925500Y-42076380D01*
X62925500Y-41923620D01*
X62895698Y-41773795D01*
X62837239Y-41632663D01*
X62837238Y-41632662D01*
X62837235Y-41632656D01*
X62752370Y-41505648D01*
X62752367Y-41505644D01*
X62644355Y-41397632D01*
X62644351Y-41397629D01*
X62517343Y-41312764D01*
X62517334Y-41312759D01*
X62376205Y-41254302D01*
X62376197Y-41254300D01*
X62226384Y-41224500D01*
X62226380Y-41224500D01*
X62073620Y-41224500D01*
X62073615Y-41224500D01*
X61923802Y-41254300D01*
X61923794Y-41254302D01*
X61782665Y-41312759D01*
X61782656Y-41312764D01*
X61655648Y-41397629D01*
X61655644Y-41397632D01*
X61547632Y-41505644D01*
X61547629Y-41505648D01*
X61462764Y-41632656D01*
X61462759Y-41632665D01*
X61404302Y-41773794D01*
X61404300Y-41773802D01*
X61374500Y-41923615D01*
X2089500Y-41923615D01*
X2142929Y-41843653D01*
X2197619Y-41711620D01*
X2210771Y-41645500D01*
X2225500Y-41571457D01*
X2225500Y-41428542D01*
X2197620Y-41288385D01*
X2197619Y-41288384D01*
X2197619Y-41288380D01*
X2142929Y-41156347D01*
X2142928Y-41156346D01*
X2142925Y-41156340D01*
X2094636Y-41084071D01*
X28412999Y-41084071D01*
X28437997Y-41209738D01*
X28437999Y-41209744D01*
X28487033Y-41328124D01*
X28487038Y-41328133D01*
X28558223Y-41434668D01*
X28558226Y-41434672D01*
X28648827Y-41525273D01*
X28648831Y-41525276D01*
X28755366Y-41596461D01*
X28755372Y-41596464D01*
X28755373Y-41596465D01*
X28873756Y-41645501D01*
X28873760Y-41645501D01*
X28873761Y-41645502D01*
X28999428Y-41670500D01*
X28999431Y-41670500D01*
X29127571Y-41670500D01*
X29212115Y-41653682D01*
X29253244Y-41645501D01*
X29371627Y-41596465D01*
X29478169Y-41525276D01*
X29568776Y-41434669D01*
X29639965Y-41328127D01*
X29689001Y-41209744D01*
X29714000Y-41084069D01*
X29714000Y-40955931D01*
X29714000Y-40955928D01*
X29689002Y-40830261D01*
X29689001Y-40830260D01*
X29689001Y-40830256D01*
X29639965Y-40711873D01*
X29639964Y-40711872D01*
X29639961Y-40711866D01*
X29568776Y-40605331D01*
X29568773Y-40605327D01*
X29478172Y-40514726D01*
X29478168Y-40514723D01*
X29371633Y-40443538D01*
X29371624Y-40443533D01*
X29253244Y-40394499D01*
X29253238Y-40394497D01*
X29127571Y-40369500D01*
X29127569Y-40369500D01*
X28999431Y-40369500D01*
X28999429Y-40369500D01*
X28873761Y-40394497D01*
X28873755Y-40394499D01*
X28755375Y-40443533D01*
X28755366Y-40443538D01*
X28648831Y-40514723D01*
X28648827Y-40514726D01*
X28558226Y-40605327D01*
X28558223Y-40605331D01*
X28487038Y-40711866D01*
X28487033Y-40711875D01*
X28437999Y-40830255D01*
X28437997Y-40830261D01*
X28413000Y-40955928D01*
X28413000Y-40955931D01*
X28413000Y-41084069D01*
X28413000Y-41084071D01*
X28412999Y-41084071D01*
X2094636Y-41084071D01*
X2063532Y-41037520D01*
X1962482Y-40936470D01*
X1962478Y-40936467D01*
X1843659Y-40857074D01*
X1843650Y-40857069D01*
X1711620Y-40802381D01*
X1711614Y-40802379D01*
X1571457Y-40774500D01*
X1571455Y-40774500D01*
X1428545Y-40774500D01*
X1428543Y-40774500D01*
X1288385Y-40802379D01*
X1288379Y-40802381D01*
X1156349Y-40857069D01*
X1156340Y-40857074D01*
X1037521Y-40936467D01*
X1037517Y-40936470D01*
X936470Y-41037517D01*
X936468Y-41037520D01*
X857074Y-41156340D01*
X857069Y-41156349D01*
X802381Y-41288379D01*
X802379Y-41288385D01*
X774500Y-41428542D01*
X774500Y-41428545D01*
X774500Y-41571455D01*
X774500Y-41571457D01*
X774499Y-41571457D01*
X500500Y-41571457D01*
X500500Y-39071457D01*
X774499Y-39071457D01*
X802379Y-39211614D01*
X802381Y-39211620D01*
X857069Y-39343650D01*
X857074Y-39343659D01*
X936467Y-39462478D01*
X936470Y-39462482D01*
X1037517Y-39563529D01*
X1037521Y-39563532D01*
X1156340Y-39642925D01*
X1156346Y-39642928D01*
X1156347Y-39642929D01*
X1288380Y-39697619D01*
X1288384Y-39697619D01*
X1288385Y-39697620D01*
X1428542Y-39725500D01*
X1428545Y-39725500D01*
X1571457Y-39725500D01*
X1665751Y-39706742D01*
X1711620Y-39697619D01*
X1843653Y-39642929D01*
X1962479Y-39563532D01*
X2063532Y-39462479D01*
X2142929Y-39343653D01*
X2197619Y-39211620D01*
X2211483Y-39141924D01*
X2225500Y-39071457D01*
X2225500Y-38928542D01*
X2219399Y-38897871D01*
X27982199Y-38897871D01*
X28007197Y-39023538D01*
X28007199Y-39023544D01*
X28056233Y-39141924D01*
X28056238Y-39141933D01*
X28127423Y-39248468D01*
X28127426Y-39248472D01*
X28218027Y-39339073D01*
X28218031Y-39339076D01*
X28324566Y-39410261D01*
X28324572Y-39410264D01*
X28324573Y-39410265D01*
X28442956Y-39459301D01*
X28442960Y-39459301D01*
X28442961Y-39459302D01*
X28568628Y-39484300D01*
X28568631Y-39484300D01*
X28696771Y-39484300D01*
X28806452Y-39462482D01*
X28822444Y-39459301D01*
X28908597Y-39423615D01*
X61374500Y-39423615D01*
X61374500Y-39576384D01*
X61404300Y-39726197D01*
X61404302Y-39726205D01*
X61462759Y-39867334D01*
X61462764Y-39867343D01*
X61547629Y-39994351D01*
X61547632Y-39994355D01*
X61655644Y-40102367D01*
X61655648Y-40102370D01*
X61782656Y-40187235D01*
X61782662Y-40187238D01*
X61782663Y-40187239D01*
X61923795Y-40245698D01*
X62073615Y-40275499D01*
X62073619Y-40275500D01*
X62073620Y-40275500D01*
X62226381Y-40275500D01*
X62226382Y-40275499D01*
X62376205Y-40245698D01*
X62517337Y-40187239D01*
X62644352Y-40102370D01*
X62752370Y-39994352D01*
X62837239Y-39867337D01*
X62895698Y-39726205D01*
X62925500Y-39576380D01*
X62925500Y-39423620D01*
X62895698Y-39273795D01*
X62837239Y-39132663D01*
X62837238Y-39132662D01*
X62837235Y-39132656D01*
X62752370Y-39005648D01*
X62752367Y-39005644D01*
X62644355Y-38897632D01*
X62644351Y-38897629D01*
X62517343Y-38812764D01*
X62517334Y-38812759D01*
X62376205Y-38754302D01*
X62376197Y-38754300D01*
X62226384Y-38724500D01*
X62226380Y-38724500D01*
X62073620Y-38724500D01*
X62073615Y-38724500D01*
X61923802Y-38754300D01*
X61923794Y-38754302D01*
X61782665Y-38812759D01*
X61782656Y-38812764D01*
X61655648Y-38897629D01*
X61655644Y-38897632D01*
X61547632Y-39005644D01*
X61547629Y-39005648D01*
X61462764Y-39132656D01*
X61462759Y-39132665D01*
X61404302Y-39273794D01*
X61404300Y-39273802D01*
X61374500Y-39423615D01*
X28908597Y-39423615D01*
X28940827Y-39410265D01*
X29047369Y-39339076D01*
X29047372Y-39339073D01*
X29056599Y-39329847D01*
X29137973Y-39248472D01*
X29137976Y-39248469D01*
X29209165Y-39141927D01*
X29258201Y-39023544D01*
X29283200Y-38897869D01*
X29283200Y-38769731D01*
X29283200Y-38769728D01*
X29258202Y-38644061D01*
X29258201Y-38644060D01*
X29258201Y-38644056D01*
X29209165Y-38525673D01*
X29209164Y-38525672D01*
X29209161Y-38525666D01*
X29137976Y-38419131D01*
X29137973Y-38419127D01*
X29047372Y-38328526D01*
X29047368Y-38328523D01*
X28940833Y-38257338D01*
X28940824Y-38257333D01*
X28822444Y-38208299D01*
X28822438Y-38208297D01*
X28696771Y-38183300D01*
X28696769Y-38183300D01*
X28568631Y-38183300D01*
X28568629Y-38183300D01*
X28442961Y-38208297D01*
X28442955Y-38208299D01*
X28324575Y-38257333D01*
X28324566Y-38257338D01*
X28218031Y-38328523D01*
X28218027Y-38328526D01*
X28127426Y-38419127D01*
X28127423Y-38419131D01*
X28056238Y-38525666D01*
X28056233Y-38525675D01*
X28007199Y-38644055D01*
X28007197Y-38644061D01*
X27982200Y-38769728D01*
X27982200Y-38769731D01*
X27982200Y-38897869D01*
X27982200Y-38897871D01*
X27982199Y-38897871D01*
X2219399Y-38897871D01*
X2197620Y-38788384D01*
X2197619Y-38788382D01*
X2197619Y-38788380D01*
X2142929Y-38656347D01*
X2142928Y-38656346D01*
X2142925Y-38656340D01*
X2063532Y-38537521D01*
X2063529Y-38537517D01*
X1962482Y-38436470D01*
X1962478Y-38436467D01*
X1843659Y-38357074D01*
X1843650Y-38357069D01*
X1711620Y-38302381D01*
X1711614Y-38302379D01*
X1571457Y-38274500D01*
X1571455Y-38274500D01*
X1428545Y-38274500D01*
X1428543Y-38274500D01*
X1288385Y-38302379D01*
X1288379Y-38302381D01*
X1156349Y-38357069D01*
X1156340Y-38357074D01*
X1037521Y-38436467D01*
X1037517Y-38436470D01*
X936470Y-38537517D01*
X936467Y-38537521D01*
X857074Y-38656340D01*
X857069Y-38656349D01*
X802381Y-38788379D01*
X802379Y-38788385D01*
X774500Y-38928542D01*
X774500Y-38928545D01*
X774500Y-39071455D01*
X774500Y-39071457D01*
X774499Y-39071457D01*
X500500Y-39071457D01*
X500500Y-38084071D01*
X30327999Y-38084071D01*
X30352997Y-38209738D01*
X30352999Y-38209744D01*
X30402033Y-38328124D01*
X30402038Y-38328133D01*
X30473223Y-38434668D01*
X30473226Y-38434672D01*
X30563827Y-38525273D01*
X30563831Y-38525276D01*
X30670366Y-38596461D01*
X30670372Y-38596464D01*
X30670373Y-38596465D01*
X30788756Y-38645501D01*
X30788760Y-38645501D01*
X30788761Y-38645502D01*
X30914428Y-38670500D01*
X30914431Y-38670500D01*
X31042571Y-38670500D01*
X31127115Y-38653682D01*
X31168244Y-38645501D01*
X31286627Y-38596465D01*
X31393169Y-38525276D01*
X31483776Y-38434669D01*
X31554965Y-38328127D01*
X31604001Y-38209744D01*
X31629000Y-38084069D01*
X31629000Y-37955931D01*
X31629000Y-37955928D01*
X31604002Y-37830261D01*
X31604001Y-37830260D01*
X31604001Y-37830256D01*
X31554965Y-37711873D01*
X31554964Y-37711872D01*
X31554961Y-37711866D01*
X31483776Y-37605331D01*
X31483773Y-37605327D01*
X31393172Y-37514726D01*
X31393168Y-37514723D01*
X31286633Y-37443538D01*
X31286624Y-37443533D01*
X31168244Y-37394499D01*
X31168238Y-37394497D01*
X31042571Y-37369500D01*
X31042569Y-37369500D01*
X30914431Y-37369500D01*
X30914429Y-37369500D01*
X30788761Y-37394497D01*
X30788755Y-37394499D01*
X30670375Y-37443533D01*
X30670366Y-37443538D01*
X30563831Y-37514723D01*
X30563827Y-37514726D01*
X30473226Y-37605327D01*
X30473223Y-37605331D01*
X30402038Y-37711866D01*
X30402033Y-37711875D01*
X30352999Y-37830255D01*
X30352997Y-37830261D01*
X30328000Y-37955928D01*
X30328000Y-37955931D01*
X30328000Y-38084069D01*
X30328000Y-38084071D01*
X30327999Y-38084071D01*
X500500Y-38084071D01*
X500500Y-36571457D01*
X774499Y-36571457D01*
X802379Y-36711614D01*
X802381Y-36711620D01*
X857069Y-36843650D01*
X857074Y-36843659D01*
X936467Y-36962478D01*
X936470Y-36962482D01*
X1037517Y-37063529D01*
X1037521Y-37063532D01*
X1156340Y-37142925D01*
X1156349Y-37142930D01*
X1186258Y-37155318D01*
X1288380Y-37197619D01*
X1288384Y-37197619D01*
X1288385Y-37197620D01*
X1428542Y-37225500D01*
X1428545Y-37225500D01*
X1571457Y-37225500D01*
X1665751Y-37206742D01*
X1711620Y-37197619D01*
X1843653Y-37142929D01*
X1962479Y-37063532D01*
X2063532Y-36962479D01*
X2142929Y-36843653D01*
X2197619Y-36711620D01*
X2213397Y-36632299D01*
X2223557Y-36581225D01*
X28577600Y-36581225D01*
X28577600Y-36726175D01*
X28609080Y-36843659D01*
X28615117Y-36866188D01*
X28687588Y-36991711D01*
X28687590Y-36991713D01*
X28687591Y-36991715D01*
X28790085Y-37094209D01*
X28790086Y-37094210D01*
X28790088Y-37094211D01*
X28915611Y-37166682D01*
X28915612Y-37166682D01*
X28915615Y-37166684D01*
X29055625Y-37204200D01*
X29055628Y-37204200D01*
X29200572Y-37204200D01*
X29200575Y-37204200D01*
X29340585Y-37166684D01*
X29466115Y-37094209D01*
X29568609Y-36991715D01*
X29641084Y-36866185D01*
X29678600Y-36726175D01*
X29678600Y-36581225D01*
X29677796Y-36578225D01*
X33432100Y-36578225D01*
X33432100Y-36723175D01*
X33464384Y-36843659D01*
X33469617Y-36863188D01*
X33542088Y-36988711D01*
X33542090Y-36988713D01*
X33542091Y-36988715D01*
X33644585Y-37091209D01*
X33644586Y-37091210D01*
X33644588Y-37091211D01*
X33770111Y-37163682D01*
X33770112Y-37163682D01*
X33770115Y-37163684D01*
X33910125Y-37201200D01*
X33910128Y-37201200D01*
X34055072Y-37201200D01*
X34055075Y-37201200D01*
X34195085Y-37163684D01*
X34320615Y-37091209D01*
X34423109Y-36988715D01*
X34495584Y-36863185D01*
X34511606Y-36803389D01*
X37279500Y-36803389D01*
X37279500Y-36976611D01*
X37281892Y-36991711D01*
X37305841Y-37142925D01*
X37306598Y-37147701D01*
X37360127Y-37312445D01*
X37438768Y-37466788D01*
X37540586Y-37606928D01*
X37663072Y-37729414D01*
X37803212Y-37831232D01*
X37957555Y-37909873D01*
X38122299Y-37963402D01*
X38293389Y-37990500D01*
X38293390Y-37990500D01*
X38466610Y-37990500D01*
X38466611Y-37990500D01*
X38637701Y-37963402D01*
X38802445Y-37909873D01*
X38956788Y-37831232D01*
X39096928Y-37729414D01*
X39219414Y-37606928D01*
X39321232Y-37466788D01*
X39399873Y-37312445D01*
X39453402Y-37147701D01*
X39465478Y-37071457D01*
X61424499Y-37071457D01*
X61452379Y-37211614D01*
X61452381Y-37211620D01*
X61507069Y-37343650D01*
X61507074Y-37343659D01*
X61586467Y-37462478D01*
X61586470Y-37462482D01*
X61687517Y-37563529D01*
X61687521Y-37563532D01*
X61806340Y-37642925D01*
X61806346Y-37642928D01*
X61806347Y-37642929D01*
X61938380Y-37697619D01*
X61938384Y-37697619D01*
X61938385Y-37697620D01*
X62078542Y-37725500D01*
X62078545Y-37725500D01*
X62221457Y-37725500D01*
X62315751Y-37706742D01*
X62361620Y-37697619D01*
X62493653Y-37642929D01*
X62612479Y-37563532D01*
X62713532Y-37462479D01*
X62792929Y-37343653D01*
X62847619Y-37211620D01*
X62857155Y-37163682D01*
X62875500Y-37071457D01*
X62875500Y-36928542D01*
X62847620Y-36788385D01*
X62847619Y-36788384D01*
X62847619Y-36788380D01*
X62792929Y-36656347D01*
X62792928Y-36656346D01*
X62792925Y-36656340D01*
X62713532Y-36537521D01*
X62713529Y-36537517D01*
X62612482Y-36436470D01*
X62612478Y-36436467D01*
X62493659Y-36357074D01*
X62493650Y-36357069D01*
X62361620Y-36302381D01*
X62361614Y-36302379D01*
X62221457Y-36274500D01*
X62221455Y-36274500D01*
X62078545Y-36274500D01*
X62078543Y-36274500D01*
X61938385Y-36302379D01*
X61938379Y-36302381D01*
X61806349Y-36357069D01*
X61806340Y-36357074D01*
X61687521Y-36436467D01*
X61687517Y-36436470D01*
X61586470Y-36537517D01*
X61586467Y-36537521D01*
X61507074Y-36656340D01*
X61507069Y-36656349D01*
X61452381Y-36788379D01*
X61452379Y-36788385D01*
X61424500Y-36928542D01*
X61424500Y-36928545D01*
X61424500Y-37071455D01*
X61424500Y-37071457D01*
X61424499Y-37071457D01*
X39465478Y-37071457D01*
X39480500Y-36976611D01*
X39480500Y-36803389D01*
X39453402Y-36632299D01*
X39399873Y-36467555D01*
X39321232Y-36313212D01*
X39219414Y-36173072D01*
X39096928Y-36050586D01*
X38956788Y-35948768D01*
X38802445Y-35870127D01*
X38637701Y-35816598D01*
X38637699Y-35816597D01*
X38637698Y-35816597D01*
X38506271Y-35795781D01*
X38466611Y-35789500D01*
X38293389Y-35789500D01*
X38253728Y-35795781D01*
X38122302Y-35816597D01*
X37957552Y-35870128D01*
X37803211Y-35948768D01*
X37723256Y-36006859D01*
X37663072Y-36050586D01*
X37663070Y-36050588D01*
X37663069Y-36050588D01*
X37540588Y-36173069D01*
X37540588Y-36173070D01*
X37540586Y-36173072D01*
X37513616Y-36210193D01*
X37438768Y-36313211D01*
X37360128Y-36467552D01*
X37306597Y-36632302D01*
X37291730Y-36726172D01*
X37279500Y-36803389D01*
X34511606Y-36803389D01*
X34533100Y-36723175D01*
X34533100Y-36578225D01*
X34495584Y-36438215D01*
X34494575Y-36436468D01*
X34423111Y-36312688D01*
X34423106Y-36312682D01*
X34320617Y-36210193D01*
X34320611Y-36210188D01*
X34195088Y-36137717D01*
X34195089Y-36137717D01*
X34183606Y-36134640D01*
X34055075Y-36100200D01*
X33910125Y-36100200D01*
X33781593Y-36134640D01*
X33770111Y-36137717D01*
X33644588Y-36210188D01*
X33644582Y-36210193D01*
X33542093Y-36312682D01*
X33542088Y-36312688D01*
X33469617Y-36438211D01*
X33469616Y-36438215D01*
X33432100Y-36578225D01*
X29677796Y-36578225D01*
X29641084Y-36441215D01*
X29638344Y-36436470D01*
X29568611Y-36315688D01*
X29568606Y-36315682D01*
X29466117Y-36213193D01*
X29466111Y-36213188D01*
X29340588Y-36140717D01*
X29340589Y-36140717D01*
X29329106Y-36137640D01*
X29200575Y-36103200D01*
X29055625Y-36103200D01*
X28927093Y-36137640D01*
X28915611Y-36140717D01*
X28790088Y-36213188D01*
X28790082Y-36213193D01*
X28687593Y-36315682D01*
X28687588Y-36315688D01*
X28615117Y-36441211D01*
X28615116Y-36441215D01*
X28577600Y-36581225D01*
X2223557Y-36581225D01*
X2225500Y-36571457D01*
X2225500Y-36428542D01*
X2197620Y-36288385D01*
X2197619Y-36288384D01*
X2197619Y-36288380D01*
X2149856Y-36173070D01*
X2142930Y-36156349D01*
X2142925Y-36156340D01*
X2063532Y-36037521D01*
X2063529Y-36037517D01*
X1962482Y-35936470D01*
X1962478Y-35936467D01*
X1843659Y-35857074D01*
X1843650Y-35857069D01*
X1711620Y-35802381D01*
X1711614Y-35802379D01*
X1571457Y-35774500D01*
X1571455Y-35774500D01*
X1428545Y-35774500D01*
X1428543Y-35774500D01*
X1288385Y-35802379D01*
X1288379Y-35802381D01*
X1156349Y-35857069D01*
X1156340Y-35857074D01*
X1037521Y-35936467D01*
X1037517Y-35936470D01*
X936470Y-36037517D01*
X936467Y-36037521D01*
X857074Y-36156340D01*
X857069Y-36156349D01*
X802381Y-36288379D01*
X802379Y-36288385D01*
X774500Y-36428542D01*
X774500Y-36428545D01*
X774500Y-36571455D01*
X774500Y-36571457D01*
X774499Y-36571457D01*
X500500Y-36571457D01*
X500500Y-35660525D01*
X18613600Y-35660525D01*
X18613600Y-35805475D01*
X18651116Y-35945485D01*
X18651117Y-35945488D01*
X18723588Y-36071011D01*
X18723590Y-36071013D01*
X18723591Y-36071015D01*
X18826085Y-36173509D01*
X18826086Y-36173510D01*
X18826088Y-36173511D01*
X18951611Y-36245982D01*
X18951612Y-36245982D01*
X18951615Y-36245984D01*
X19091625Y-36283500D01*
X19091628Y-36283500D01*
X19236572Y-36283500D01*
X19236575Y-36283500D01*
X19376585Y-36245984D01*
X19502115Y-36173509D01*
X19591019Y-36084605D01*
X19652342Y-36051120D01*
X19722034Y-36056104D01*
X19766381Y-36084605D01*
X19864685Y-36182909D01*
X19864686Y-36182910D01*
X19864688Y-36182911D01*
X19990211Y-36255382D01*
X19990212Y-36255382D01*
X19990215Y-36255384D01*
X20130225Y-36292900D01*
X20130228Y-36292900D01*
X20275172Y-36292900D01*
X20275175Y-36292900D01*
X20415185Y-36255384D01*
X20540715Y-36182909D01*
X20643209Y-36080415D01*
X20715684Y-35954885D01*
X20753200Y-35814875D01*
X20753200Y-35669925D01*
X20715684Y-35529915D01*
X20701512Y-35505369D01*
X20643211Y-35404388D01*
X20643206Y-35404382D01*
X20540717Y-35301893D01*
X20540711Y-35301888D01*
X20415188Y-35229417D01*
X20415189Y-35229417D01*
X20400570Y-35225500D01*
X20275175Y-35191900D01*
X20130225Y-35191900D01*
X20004830Y-35225500D01*
X19990211Y-35229417D01*
X19864688Y-35301888D01*
X19864682Y-35301893D01*
X19775781Y-35390795D01*
X19714458Y-35424280D01*
X19644766Y-35419296D01*
X19600419Y-35390795D01*
X19502117Y-35292493D01*
X19502111Y-35292488D01*
X19376588Y-35220017D01*
X19376589Y-35220017D01*
X19365106Y-35216940D01*
X19236575Y-35182500D01*
X19091625Y-35182500D01*
X18963093Y-35216940D01*
X18951611Y-35220017D01*
X18826088Y-35292488D01*
X18826082Y-35292493D01*
X18723593Y-35394982D01*
X18723588Y-35394988D01*
X18651117Y-35520511D01*
X18651116Y-35520515D01*
X18613600Y-35660525D01*
X500500Y-35660525D01*
X500500Y-35154771D01*
X30334099Y-35154771D01*
X30359097Y-35280438D01*
X30359099Y-35280444D01*
X30408133Y-35398824D01*
X30408138Y-35398833D01*
X30479323Y-35505368D01*
X30479326Y-35505372D01*
X30569927Y-35595973D01*
X30569931Y-35595976D01*
X30676466Y-35667161D01*
X30676472Y-35667164D01*
X30676473Y-35667165D01*
X30794856Y-35716201D01*
X30794860Y-35716201D01*
X30794861Y-35716202D01*
X30920528Y-35741200D01*
X30920531Y-35741200D01*
X31048671Y-35741200D01*
X31133215Y-35724382D01*
X31174344Y-35716201D01*
X31292727Y-35667165D01*
X31399269Y-35595976D01*
X31489876Y-35505369D01*
X31561065Y-35398827D01*
X31610101Y-35280444D01*
X31626576Y-35197620D01*
X31635100Y-35154771D01*
X31635100Y-35026628D01*
X31610102Y-34900961D01*
X31610101Y-34900960D01*
X31610101Y-34900956D01*
X31561065Y-34782573D01*
X31561064Y-34782572D01*
X31561061Y-34782566D01*
X31489876Y-34676031D01*
X31489873Y-34676027D01*
X31399272Y-34585426D01*
X31399268Y-34585423D01*
X31292733Y-34514238D01*
X31292724Y-34514233D01*
X31174344Y-34465199D01*
X31174338Y-34465197D01*
X31048671Y-34440200D01*
X31048669Y-34440200D01*
X30920531Y-34440200D01*
X30920529Y-34440200D01*
X30794861Y-34465197D01*
X30794855Y-34465199D01*
X30676475Y-34514233D01*
X30676466Y-34514238D01*
X30569931Y-34585423D01*
X30569927Y-34585426D01*
X30479326Y-34676027D01*
X30479323Y-34676031D01*
X30408138Y-34782566D01*
X30408133Y-34782575D01*
X30359099Y-34900955D01*
X30359097Y-34900961D01*
X30334100Y-35026628D01*
X30334100Y-35026631D01*
X30334100Y-35154769D01*
X30334100Y-35154771D01*
X30334099Y-35154771D01*
X500500Y-35154771D01*
X500500Y-34071457D01*
X774499Y-34071457D01*
X802379Y-34211614D01*
X802381Y-34211620D01*
X857069Y-34343650D01*
X857074Y-34343659D01*
X936467Y-34462478D01*
X936470Y-34462482D01*
X1037517Y-34563529D01*
X1037521Y-34563532D01*
X1156340Y-34642925D01*
X1156346Y-34642928D01*
X1156347Y-34642929D01*
X1288380Y-34697619D01*
X1288384Y-34697619D01*
X1288385Y-34697620D01*
X1428542Y-34725500D01*
X1428545Y-34725500D01*
X1571457Y-34725500D01*
X1665751Y-34706742D01*
X1711620Y-34697619D01*
X1843653Y-34642929D01*
X1962479Y-34563532D01*
X2063532Y-34462479D01*
X2142929Y-34343653D01*
X2197619Y-34211620D01*
X2208615Y-34156340D01*
X2225500Y-34071457D01*
X2225500Y-33928542D01*
X2197620Y-33788385D01*
X2197619Y-33788384D01*
X2197619Y-33788380D01*
X2142929Y-33656347D01*
X2142928Y-33656346D01*
X2142925Y-33656340D01*
X2063532Y-33537521D01*
X2063529Y-33537517D01*
X1962482Y-33436470D01*
X1962478Y-33436467D01*
X1843659Y-33357074D01*
X1843650Y-33357069D01*
X1711620Y-33302381D01*
X1711614Y-33302379D01*
X1571457Y-33274500D01*
X1571455Y-33274500D01*
X1428545Y-33274500D01*
X1428543Y-33274500D01*
X1288385Y-33302379D01*
X1288379Y-33302381D01*
X1156349Y-33357069D01*
X1156340Y-33357074D01*
X1037521Y-33436467D01*
X1037517Y-33436470D01*
X936470Y-33537517D01*
X936467Y-33537521D01*
X857074Y-33656340D01*
X857069Y-33656349D01*
X802381Y-33788379D01*
X802379Y-33788385D01*
X774500Y-33928542D01*
X774500Y-33928545D01*
X774500Y-34071455D01*
X774500Y-34071457D01*
X774499Y-34071457D01*
X500500Y-34071457D01*
X500500Y-32807271D01*
X6596299Y-32807271D01*
X6621297Y-32932938D01*
X6621299Y-32932944D01*
X6670333Y-33051324D01*
X6670338Y-33051333D01*
X6741523Y-33157868D01*
X6741526Y-33157872D01*
X6832127Y-33248473D01*
X6832131Y-33248476D01*
X6938666Y-33319661D01*
X6938672Y-33319664D01*
X6938673Y-33319665D01*
X7057056Y-33368701D01*
X7057060Y-33368701D01*
X7057061Y-33368702D01*
X7182728Y-33393700D01*
X7182731Y-33393700D01*
X7310871Y-33393700D01*
X7395415Y-33376882D01*
X7436544Y-33368701D01*
X7554927Y-33319665D01*
X7661469Y-33248476D01*
X7752076Y-33157869D01*
X7823265Y-33051327D01*
X7872301Y-32932944D01*
X7883586Y-32876211D01*
X7897300Y-32807271D01*
X7897300Y-32764200D01*
X7912503Y-32712425D01*
X26958800Y-32712425D01*
X26958800Y-32857375D01*
X26993656Y-32987456D01*
X26996317Y-32997388D01*
X27068788Y-33122911D01*
X27068790Y-33122913D01*
X27068791Y-33122915D01*
X27171285Y-33225409D01*
X27171286Y-33225410D01*
X27171288Y-33225411D01*
X27296811Y-33297882D01*
X27296812Y-33297882D01*
X27296815Y-33297884D01*
X27436825Y-33335400D01*
X27436828Y-33335400D01*
X27581772Y-33335400D01*
X27581775Y-33335400D01*
X27721785Y-33297884D01*
X27847315Y-33225409D01*
X27949809Y-33122915D01*
X28022284Y-32997385D01*
X28059800Y-32857375D01*
X28059800Y-32712425D01*
X28022284Y-32572415D01*
X28019398Y-32567417D01*
X27964928Y-32473071D01*
X30327399Y-32473071D01*
X30352397Y-32598738D01*
X30352399Y-32598744D01*
X30401433Y-32717124D01*
X30401438Y-32717133D01*
X30472623Y-32823668D01*
X30472626Y-32823672D01*
X30563227Y-32914273D01*
X30563231Y-32914276D01*
X30669766Y-32985461D01*
X30669775Y-32985466D01*
X30696592Y-32996574D01*
X30788156Y-33034501D01*
X30788160Y-33034501D01*
X30788161Y-33034502D01*
X30913828Y-33059500D01*
X30913831Y-33059500D01*
X31041971Y-33059500D01*
X31126515Y-33042682D01*
X31167644Y-33034501D01*
X31231804Y-33007925D01*
X33432100Y-33007925D01*
X33432100Y-33152875D01*
X33467179Y-33283789D01*
X33469617Y-33292888D01*
X33542088Y-33418411D01*
X33542090Y-33418413D01*
X33542091Y-33418415D01*
X33644585Y-33520909D01*
X33644586Y-33520910D01*
X33644588Y-33520911D01*
X33770111Y-33593382D01*
X33770112Y-33593382D01*
X33770115Y-33593384D01*
X33910125Y-33630900D01*
X33910128Y-33630900D01*
X34055072Y-33630900D01*
X34055075Y-33630900D01*
X34195085Y-33593384D01*
X34320615Y-33520909D01*
X34423109Y-33418415D01*
X34495584Y-33292885D01*
X34533100Y-33152875D01*
X34533100Y-33007925D01*
X34495584Y-32867915D01*
X34495164Y-32867188D01*
X34468339Y-32820725D01*
X36971400Y-32820725D01*
X36971400Y-32965675D01*
X36996541Y-33059500D01*
X37008917Y-33105688D01*
X37081388Y-33231211D01*
X37081390Y-33231213D01*
X37081391Y-33231215D01*
X37183885Y-33333709D01*
X37183886Y-33333710D01*
X37183888Y-33333711D01*
X37309411Y-33406182D01*
X37309412Y-33406182D01*
X37309415Y-33406184D01*
X37449425Y-33443700D01*
X37449428Y-33443700D01*
X37451561Y-33443981D01*
X37453227Y-33444718D01*
X37457276Y-33445803D01*
X37457106Y-33446434D01*
X37515457Y-33472248D01*
X37553928Y-33530573D01*
X37554759Y-33600437D01*
X37535693Y-33639805D01*
X37438770Y-33773208D01*
X37360128Y-33927552D01*
X37306597Y-34092302D01*
X37296453Y-34156349D01*
X37279500Y-34263389D01*
X37279500Y-34436611D01*
X37280123Y-34440546D01*
X37303069Y-34585424D01*
X37306598Y-34607701D01*
X37360127Y-34772445D01*
X37438768Y-34926788D01*
X37540586Y-35066928D01*
X37663072Y-35189414D01*
X37803212Y-35291232D01*
X37957555Y-35369873D01*
X38122299Y-35423402D01*
X38293389Y-35450500D01*
X38293390Y-35450500D01*
X38466610Y-35450500D01*
X38466611Y-35450500D01*
X38637701Y-35423402D01*
X38802445Y-35369873D01*
X38956788Y-35291232D01*
X39096928Y-35189414D01*
X39219414Y-35066928D01*
X39321232Y-34926788D01*
X39399873Y-34772445D01*
X39453402Y-34607701D01*
X39480500Y-34436611D01*
X39480500Y-34263389D01*
X39453402Y-34092299D01*
X39399873Y-33927555D01*
X39321232Y-33773212D01*
X39219414Y-33633072D01*
X39096928Y-33510586D01*
X38956788Y-33408768D01*
X38802445Y-33330127D01*
X38637701Y-33276598D01*
X38637699Y-33276597D01*
X38637698Y-33276597D01*
X38506271Y-33255781D01*
X38466611Y-33249500D01*
X38293389Y-33249500D01*
X38181478Y-33267224D01*
X38171672Y-33268778D01*
X38137529Y-33264365D01*
X38103380Y-33260257D01*
X38102941Y-33259894D01*
X38102379Y-33259822D01*
X38076054Y-33237661D01*
X38049534Y-33215732D01*
X38049361Y-33215190D01*
X38048927Y-33214825D01*
X38038763Y-33181952D01*
X38028308Y-33149165D01*
X38028427Y-33148525D01*
X38028288Y-33148074D01*
X38032524Y-33114124D01*
X38034711Y-33105983D01*
X38034884Y-33105685D01*
X38066705Y-32986927D01*
X38084655Y-32957527D01*
X38103046Y-32927354D01*
X38103089Y-32927333D01*
X38103113Y-32927294D01*
X38134413Y-32912117D01*
X38165893Y-32896825D01*
X38165951Y-32896824D01*
X38165982Y-32896810D01*
X38166098Y-32896824D01*
X38205849Y-32896635D01*
X38293389Y-32910500D01*
X38293391Y-32910500D01*
X38466610Y-32910500D01*
X38466611Y-32910500D01*
X38637701Y-32883402D01*
X38802445Y-32829873D01*
X38956788Y-32751232D01*
X39096928Y-32649414D01*
X39219414Y-32526928D01*
X39321232Y-32386788D01*
X39399873Y-32232445D01*
X39453402Y-32067701D01*
X39480500Y-31896611D01*
X39480500Y-31723389D01*
X39479876Y-31719448D01*
X52469500Y-31719448D01*
X52469500Y-31900551D01*
X52497829Y-32079410D01*
X52553787Y-32251636D01*
X52553788Y-32251639D01*
X52609664Y-32361300D01*
X52622651Y-32386788D01*
X52636006Y-32412997D01*
X52742441Y-32559494D01*
X52742445Y-32559499D01*
X52870500Y-32687554D01*
X52870505Y-32687558D01*
X52958146Y-32751232D01*
X53017006Y-32793996D01*
X53122484Y-32847740D01*
X53178360Y-32876211D01*
X53178363Y-32876212D01*
X53241759Y-32896810D01*
X53350591Y-32932171D01*
X53423639Y-32943740D01*
X53510678Y-32957527D01*
X53573813Y-32987456D01*
X53610744Y-33046768D01*
X53609746Y-33116631D01*
X53571136Y-33174863D01*
X53510678Y-33202473D01*
X53350589Y-33227829D01*
X53178363Y-33283787D01*
X53178360Y-33283788D01*
X53017002Y-33366006D01*
X52870505Y-33472441D01*
X52870500Y-33472445D01*
X52742445Y-33600500D01*
X52742441Y-33600505D01*
X52636006Y-33747002D01*
X52553788Y-33908360D01*
X52553787Y-33908363D01*
X52497829Y-34080589D01*
X52469500Y-34259448D01*
X52469500Y-34440551D01*
X52497829Y-34619410D01*
X52553787Y-34791636D01*
X52553788Y-34791639D01*
X52609489Y-34900955D01*
X52622651Y-34926788D01*
X52636006Y-34952997D01*
X52742441Y-35099494D01*
X52742445Y-35099499D01*
X52870500Y-35227554D01*
X52870505Y-35227558D01*
X52972813Y-35301888D01*
X53017006Y-35333996D01*
X53122484Y-35387740D01*
X53178360Y-35416211D01*
X53178363Y-35416212D01*
X53264476Y-35444191D01*
X53350591Y-35472171D01*
X53433429Y-35485291D01*
X53529449Y-35500500D01*
X53529454Y-35500500D01*
X53710551Y-35500500D01*
X53797259Y-35486765D01*
X53889409Y-35472171D01*
X54061639Y-35416211D01*
X54222994Y-35333996D01*
X54369501Y-35227553D01*
X54497553Y-35099501D01*
X54603996Y-34952994D01*
X54686211Y-34791639D01*
X54742171Y-34619409D01*
X54749765Y-34571457D01*
X61424499Y-34571457D01*
X61452379Y-34711614D01*
X61452381Y-34711620D01*
X61507069Y-34843650D01*
X61507074Y-34843659D01*
X61586467Y-34962478D01*
X61586470Y-34962482D01*
X61687517Y-35063529D01*
X61687521Y-35063532D01*
X61806340Y-35142925D01*
X61806346Y-35142928D01*
X61806347Y-35142929D01*
X61938380Y-35197619D01*
X61938384Y-35197619D01*
X61938385Y-35197620D01*
X62078542Y-35225500D01*
X62078545Y-35225500D01*
X62221457Y-35225500D01*
X62315751Y-35206742D01*
X62361620Y-35197619D01*
X62493653Y-35142929D01*
X62612479Y-35063532D01*
X62713532Y-34962479D01*
X62792929Y-34843653D01*
X62847619Y-34711620D01*
X62872721Y-34585426D01*
X62875500Y-34571457D01*
X62875500Y-34428542D01*
X62847620Y-34288385D01*
X62847619Y-34288384D01*
X62847619Y-34288380D01*
X62792929Y-34156347D01*
X62792928Y-34156346D01*
X62792925Y-34156340D01*
X62713532Y-34037521D01*
X62713529Y-34037517D01*
X62612482Y-33936470D01*
X62612478Y-33936467D01*
X62493659Y-33857074D01*
X62493650Y-33857069D01*
X62361620Y-33802381D01*
X62361614Y-33802379D01*
X62221457Y-33774500D01*
X62221455Y-33774500D01*
X62078545Y-33774500D01*
X62078543Y-33774500D01*
X61938385Y-33802379D01*
X61938379Y-33802381D01*
X61806349Y-33857069D01*
X61806340Y-33857074D01*
X61687521Y-33936467D01*
X61687517Y-33936470D01*
X61586470Y-34037517D01*
X61586467Y-34037521D01*
X61507074Y-34156340D01*
X61507069Y-34156349D01*
X61452381Y-34288379D01*
X61452379Y-34288385D01*
X61424500Y-34428542D01*
X61424500Y-34428545D01*
X61424500Y-34571455D01*
X61424500Y-34571457D01*
X61424499Y-34571457D01*
X54749765Y-34571457D01*
X54756765Y-34527259D01*
X54770500Y-34440551D01*
X54770500Y-34259448D01*
X54754019Y-34155397D01*
X54742171Y-34080591D01*
X54695344Y-33936470D01*
X54686212Y-33908363D01*
X54686211Y-33908360D01*
X54632210Y-33802379D01*
X54603996Y-33747006D01*
X54590396Y-33728287D01*
X54497558Y-33600505D01*
X54497554Y-33600500D01*
X54369499Y-33472445D01*
X54369494Y-33472441D01*
X54222997Y-33366006D01*
X54222996Y-33366005D01*
X54222994Y-33366004D01*
X54152582Y-33330127D01*
X54061639Y-33283788D01*
X54061636Y-33283787D01*
X53889410Y-33227829D01*
X53729321Y-33202473D01*
X53666186Y-33172544D01*
X53629255Y-33113232D01*
X53630253Y-33043370D01*
X53668863Y-32985137D01*
X53729321Y-32957527D01*
X53799425Y-32946422D01*
X53889409Y-32932171D01*
X54061639Y-32876211D01*
X54222994Y-32793996D01*
X54369501Y-32687553D01*
X54497553Y-32559501D01*
X54603996Y-32412994D01*
X54686211Y-32251639D01*
X54742171Y-32079409D01*
X54743430Y-32071457D01*
X61424499Y-32071457D01*
X61452379Y-32211614D01*
X61452381Y-32211620D01*
X61507069Y-32343650D01*
X61507074Y-32343659D01*
X61586467Y-32462478D01*
X61586470Y-32462482D01*
X61687517Y-32563529D01*
X61687521Y-32563532D01*
X61806340Y-32642925D01*
X61806346Y-32642928D01*
X61806347Y-32642929D01*
X61938380Y-32697619D01*
X61938384Y-32697619D01*
X61938385Y-32697620D01*
X62078542Y-32725500D01*
X62078545Y-32725500D01*
X62221457Y-32725500D01*
X62315751Y-32706742D01*
X62361620Y-32697619D01*
X62493653Y-32642929D01*
X62612479Y-32563532D01*
X62713532Y-32462479D01*
X62792929Y-32343653D01*
X62847619Y-32211620D01*
X62861403Y-32142326D01*
X62875500Y-32071457D01*
X62875500Y-31928542D01*
X62847620Y-31788385D01*
X62847619Y-31788384D01*
X62847619Y-31788380D01*
X62792929Y-31656347D01*
X62792928Y-31656346D01*
X62792925Y-31656340D01*
X62713532Y-31537521D01*
X62713529Y-31537517D01*
X62612482Y-31436470D01*
X62612478Y-31436467D01*
X62493659Y-31357074D01*
X62493650Y-31357069D01*
X62361620Y-31302381D01*
X62361614Y-31302379D01*
X62221457Y-31274500D01*
X62221455Y-31274500D01*
X62078545Y-31274500D01*
X62078543Y-31274500D01*
X61938385Y-31302379D01*
X61938379Y-31302381D01*
X61806349Y-31357069D01*
X61806340Y-31357074D01*
X61687521Y-31436467D01*
X61687517Y-31436470D01*
X61586470Y-31537517D01*
X61586467Y-31537521D01*
X61507074Y-31656340D01*
X61507069Y-31656349D01*
X61452381Y-31788379D01*
X61452379Y-31788385D01*
X61424500Y-31928542D01*
X61424500Y-31928545D01*
X61424500Y-32071455D01*
X61424500Y-32071457D01*
X61424499Y-32071457D01*
X54743430Y-32071457D01*
X54761336Y-31958401D01*
X54770103Y-31903055D01*
X54770104Y-31903047D01*
X54770500Y-31900547D01*
X54770500Y-31719448D01*
X54754019Y-31615397D01*
X54742171Y-31540591D01*
X54708340Y-31436467D01*
X54686212Y-31368363D01*
X54686211Y-31368360D01*
X54638386Y-31274500D01*
X54603996Y-31207006D01*
X54521219Y-31093072D01*
X54497558Y-31060505D01*
X54497554Y-31060500D01*
X54369499Y-30932445D01*
X54369494Y-30932441D01*
X54222997Y-30826006D01*
X54222996Y-30826005D01*
X54222994Y-30826004D01*
X54152582Y-30790127D01*
X54061639Y-30743788D01*
X54061636Y-30743787D01*
X53889410Y-30687829D01*
X53710551Y-30659500D01*
X53710546Y-30659500D01*
X53529454Y-30659500D01*
X53529449Y-30659500D01*
X53350589Y-30687829D01*
X53178363Y-30743787D01*
X53178360Y-30743788D01*
X53017002Y-30826006D01*
X52870505Y-30932441D01*
X52870500Y-30932445D01*
X52742445Y-31060500D01*
X52742441Y-31060505D01*
X52636006Y-31207002D01*
X52553788Y-31368360D01*
X52553787Y-31368363D01*
X52497829Y-31540589D01*
X52469500Y-31719448D01*
X39479876Y-31719448D01*
X39453402Y-31552299D01*
X39399873Y-31387555D01*
X39321232Y-31233212D01*
X39219414Y-31093072D01*
X39096928Y-30970586D01*
X38956788Y-30868768D01*
X38802445Y-30790127D01*
X38637701Y-30736598D01*
X38637699Y-30736597D01*
X38637698Y-30736597D01*
X38506271Y-30715781D01*
X38466611Y-30709500D01*
X38293389Y-30709500D01*
X38253728Y-30715781D01*
X38122302Y-30736597D01*
X37957552Y-30790128D01*
X37803211Y-30868768D01*
X37723256Y-30926859D01*
X37663072Y-30970586D01*
X37663070Y-30970588D01*
X37663069Y-30970588D01*
X37540588Y-31093069D01*
X37540588Y-31093070D01*
X37540586Y-31093072D01*
X37496859Y-31153256D01*
X37438768Y-31233211D01*
X37360128Y-31387552D01*
X37306597Y-31552302D01*
X37290118Y-31656347D01*
X37279500Y-31723389D01*
X37279500Y-31896611D01*
X37280627Y-31903724D01*
X37306597Y-32067698D01*
X37361516Y-32236721D01*
X37363511Y-32306562D01*
X37327431Y-32366395D01*
X37305586Y-32382426D01*
X37183885Y-32452691D01*
X37183882Y-32452693D01*
X37081393Y-32555182D01*
X37081388Y-32555188D01*
X37008917Y-32680711D01*
X37008916Y-32680715D01*
X36971400Y-32820725D01*
X34468339Y-32820725D01*
X34423111Y-32742388D01*
X34423106Y-32742382D01*
X34320617Y-32639893D01*
X34320611Y-32639888D01*
X34195088Y-32567417D01*
X34195089Y-32567417D01*
X34165546Y-32559501D01*
X34055075Y-32529900D01*
X33910125Y-32529900D01*
X33799654Y-32559501D01*
X33770111Y-32567417D01*
X33644588Y-32639888D01*
X33644582Y-32639893D01*
X33542093Y-32742382D01*
X33542088Y-32742388D01*
X33469617Y-32867911D01*
X33469616Y-32867915D01*
X33432100Y-33007925D01*
X31231804Y-33007925D01*
X31286027Y-32985465D01*
X31392569Y-32914276D01*
X31392572Y-32914273D01*
X31394729Y-32912117D01*
X31483173Y-32823672D01*
X31483176Y-32823669D01*
X31554365Y-32717127D01*
X31603401Y-32598744D01*
X31612410Y-32553455D01*
X31628400Y-32473071D01*
X31628400Y-32344928D01*
X31603402Y-32219261D01*
X31603401Y-32219260D01*
X31603401Y-32219256D01*
X31554365Y-32100873D01*
X31554364Y-32100872D01*
X31554361Y-32100866D01*
X31483176Y-31994331D01*
X31483173Y-31994327D01*
X31392572Y-31903726D01*
X31392568Y-31903723D01*
X31286033Y-31832538D01*
X31286024Y-31832533D01*
X31167644Y-31783499D01*
X31167638Y-31783497D01*
X31041971Y-31758500D01*
X31041969Y-31758500D01*
X30913831Y-31758500D01*
X30913829Y-31758500D01*
X30788161Y-31783497D01*
X30788155Y-31783499D01*
X30669775Y-31832533D01*
X30669766Y-31832538D01*
X30563231Y-31903723D01*
X30563227Y-31903726D01*
X30472626Y-31994327D01*
X30472623Y-31994331D01*
X30401438Y-32100866D01*
X30401433Y-32100875D01*
X30352399Y-32219255D01*
X30352397Y-32219261D01*
X30327400Y-32344928D01*
X30327400Y-32344931D01*
X30327400Y-32473069D01*
X30327400Y-32473071D01*
X30327399Y-32473071D01*
X27964928Y-32473071D01*
X27949811Y-32446888D01*
X27949806Y-32446882D01*
X27847317Y-32344393D01*
X27847311Y-32344388D01*
X27721788Y-32271917D01*
X27721789Y-32271917D01*
X27710306Y-32268840D01*
X27581775Y-32234400D01*
X27436825Y-32234400D01*
X27308293Y-32268840D01*
X27296811Y-32271917D01*
X27171288Y-32344388D01*
X27171282Y-32344393D01*
X27068793Y-32446882D01*
X27068788Y-32446888D01*
X26996317Y-32572411D01*
X26996316Y-32572415D01*
X26958800Y-32712425D01*
X7912503Y-32712425D01*
X7916985Y-32697161D01*
X7969789Y-32651406D01*
X8021300Y-32640200D01*
X8118972Y-32640200D01*
X8118975Y-32640200D01*
X8258985Y-32602684D01*
X8384515Y-32530209D01*
X8487009Y-32427715D01*
X8559484Y-32302185D01*
X8597000Y-32162175D01*
X8597000Y-32017225D01*
X8559484Y-31877215D01*
X8508194Y-31788379D01*
X8487011Y-31751688D01*
X8487006Y-31751682D01*
X8384517Y-31649193D01*
X8384511Y-31649188D01*
X8258988Y-31576717D01*
X8258989Y-31576717D01*
X8247506Y-31573640D01*
X8118975Y-31539200D01*
X7974025Y-31539200D01*
X7845493Y-31573640D01*
X7834011Y-31576717D01*
X7708488Y-31649188D01*
X7708482Y-31649193D01*
X7605993Y-31751682D01*
X7605988Y-31751688D01*
X7533517Y-31877211D01*
X7533516Y-31877215D01*
X7502135Y-31994331D01*
X7497491Y-32011661D01*
X7461125Y-32071321D01*
X7398278Y-32101850D01*
X7353525Y-32101184D01*
X7310873Y-32092700D01*
X7310869Y-32092700D01*
X7182731Y-32092700D01*
X7182729Y-32092700D01*
X7057061Y-32117697D01*
X7057055Y-32117699D01*
X6938675Y-32166733D01*
X6938666Y-32166738D01*
X6832131Y-32237923D01*
X6832127Y-32237926D01*
X6741526Y-32328527D01*
X6741523Y-32328531D01*
X6670338Y-32435066D01*
X6670333Y-32435075D01*
X6621299Y-32553455D01*
X6621297Y-32553461D01*
X6596300Y-32679128D01*
X6596300Y-32679131D01*
X6596300Y-32807269D01*
X6596300Y-32807271D01*
X6596299Y-32807271D01*
X500500Y-32807271D01*
X500500Y-29421925D01*
X7392900Y-29421925D01*
X7392900Y-29566875D01*
X7430416Y-29706885D01*
X7430417Y-29706888D01*
X7502888Y-29832411D01*
X7502890Y-29832413D01*
X7502891Y-29832415D01*
X7605385Y-29934909D01*
X7605386Y-29934910D01*
X7605388Y-29934911D01*
X7730911Y-30007382D01*
X7730912Y-30007382D01*
X7730915Y-30007384D01*
X7870925Y-30044900D01*
X7870928Y-30044900D01*
X8015872Y-30044900D01*
X8015875Y-30044900D01*
X8155885Y-30007384D01*
X8281415Y-29934909D01*
X8383909Y-29832415D01*
X8456384Y-29706885D01*
X8493900Y-29566875D01*
X8493900Y-29421925D01*
X8456384Y-29281915D01*
X8399500Y-29183389D01*
X37279500Y-29183389D01*
X37279500Y-29356611D01*
X37306598Y-29527701D01*
X37360127Y-29692445D01*
X37438768Y-29846788D01*
X37540586Y-29986928D01*
X37663072Y-30109414D01*
X37803212Y-30211232D01*
X37957555Y-30289873D01*
X38122299Y-30343402D01*
X38293389Y-30370500D01*
X38293390Y-30370500D01*
X38466610Y-30370500D01*
X38466611Y-30370500D01*
X38637701Y-30343402D01*
X38802445Y-30289873D01*
X38956788Y-30211232D01*
X39096928Y-30109414D01*
X39219414Y-29986928D01*
X39262864Y-29927125D01*
X50552500Y-29927125D01*
X50552500Y-30072075D01*
X50590016Y-30212085D01*
X50590017Y-30212088D01*
X50662488Y-30337611D01*
X50662490Y-30337613D01*
X50662491Y-30337615D01*
X50764985Y-30440109D01*
X50764986Y-30440110D01*
X50764988Y-30440111D01*
X50890511Y-30512582D01*
X50890512Y-30512582D01*
X50890515Y-30512584D01*
X51030525Y-30550100D01*
X51030528Y-30550100D01*
X51175472Y-30550100D01*
X51175475Y-30550100D01*
X51315485Y-30512584D01*
X51412582Y-30456525D01*
X59686500Y-30456525D01*
X59686500Y-30601475D01*
X59702048Y-30659500D01*
X59724017Y-30741488D01*
X59796488Y-30867011D01*
X59796490Y-30867013D01*
X59796491Y-30867015D01*
X59898985Y-30969509D01*
X59898986Y-30969510D01*
X59898988Y-30969511D01*
X60024511Y-31041982D01*
X60024512Y-31041982D01*
X60024515Y-31041984D01*
X60164525Y-31079500D01*
X60164528Y-31079500D01*
X60309472Y-31079500D01*
X60309475Y-31079500D01*
X60449485Y-31041984D01*
X60575015Y-30969509D01*
X60677509Y-30867015D01*
X60749984Y-30741485D01*
X60787500Y-30601475D01*
X60787500Y-30456525D01*
X60749984Y-30316515D01*
X60697436Y-30225500D01*
X60677511Y-30190988D01*
X60677506Y-30190982D01*
X60575017Y-30088493D01*
X60575011Y-30088488D01*
X60449488Y-30016017D01*
X60449489Y-30016017D01*
X60417270Y-30007384D01*
X60309475Y-29978500D01*
X60164525Y-29978500D01*
X60056730Y-30007384D01*
X60024511Y-30016017D01*
X59898988Y-30088488D01*
X59898982Y-30088493D01*
X59796493Y-30190982D01*
X59796488Y-30190988D01*
X59724017Y-30316511D01*
X59724016Y-30316515D01*
X59686500Y-30456525D01*
X51412582Y-30456525D01*
X51441015Y-30440109D01*
X51543509Y-30337615D01*
X51615984Y-30212085D01*
X51653500Y-30072075D01*
X51653500Y-29927125D01*
X51615984Y-29787115D01*
X51572393Y-29711614D01*
X51543511Y-29661588D01*
X51543506Y-29661582D01*
X51441017Y-29559093D01*
X51441011Y-29559088D01*
X51315488Y-29486617D01*
X51315489Y-29486617D01*
X51304006Y-29483540D01*
X51175475Y-29449100D01*
X51030525Y-29449100D01*
X50901993Y-29483540D01*
X50890511Y-29486617D01*
X50764988Y-29559088D01*
X50764982Y-29559093D01*
X50662493Y-29661582D01*
X50662488Y-29661588D01*
X50590017Y-29787111D01*
X50590016Y-29787115D01*
X50552500Y-29927125D01*
X39262864Y-29927125D01*
X39321232Y-29846788D01*
X39399873Y-29692445D01*
X39453402Y-29527701D01*
X39480500Y-29356611D01*
X39480500Y-29183389D01*
X52519500Y-29183389D01*
X52519500Y-29356611D01*
X52546598Y-29527701D01*
X52600127Y-29692445D01*
X52678768Y-29846788D01*
X52780586Y-29986928D01*
X52903072Y-30109414D01*
X53043212Y-30211232D01*
X53197555Y-30289873D01*
X53362299Y-30343402D01*
X53533389Y-30370500D01*
X53533390Y-30370500D01*
X53706610Y-30370500D01*
X53706611Y-30370500D01*
X53877701Y-30343402D01*
X54042445Y-30289873D01*
X54196788Y-30211232D01*
X54336928Y-30109414D01*
X54459414Y-29986928D01*
X54561232Y-29846788D01*
X54639873Y-29692445D01*
X54679185Y-29571457D01*
X61424499Y-29571457D01*
X61452379Y-29711614D01*
X61452381Y-29711620D01*
X61507069Y-29843650D01*
X61507074Y-29843659D01*
X61586467Y-29962478D01*
X61586470Y-29962482D01*
X61687517Y-30063529D01*
X61687521Y-30063532D01*
X61806340Y-30142925D01*
X61806346Y-30142928D01*
X61806347Y-30142929D01*
X61938380Y-30197619D01*
X61938384Y-30197619D01*
X61938385Y-30197620D01*
X62078542Y-30225500D01*
X62078545Y-30225500D01*
X62221457Y-30225500D01*
X62315751Y-30206742D01*
X62361620Y-30197619D01*
X62493653Y-30142929D01*
X62612479Y-30063532D01*
X62713532Y-29962479D01*
X62792929Y-29843653D01*
X62847619Y-29711620D01*
X62875500Y-29571455D01*
X62875500Y-29428545D01*
X62875500Y-29428542D01*
X62847620Y-29288385D01*
X62847619Y-29288384D01*
X62847619Y-29288380D01*
X62792945Y-29156385D01*
X62792930Y-29156349D01*
X62792925Y-29156340D01*
X62713532Y-29037521D01*
X62713529Y-29037517D01*
X62612482Y-28936470D01*
X62612478Y-28936467D01*
X62493659Y-28857074D01*
X62493650Y-28857069D01*
X62361620Y-28802381D01*
X62361614Y-28802379D01*
X62221457Y-28774500D01*
X62221455Y-28774500D01*
X62078545Y-28774500D01*
X62078543Y-28774500D01*
X61938385Y-28802379D01*
X61938379Y-28802381D01*
X61806349Y-28857069D01*
X61806340Y-28857074D01*
X61687521Y-28936467D01*
X61687517Y-28936470D01*
X61586470Y-29037517D01*
X61586467Y-29037521D01*
X61507074Y-29156340D01*
X61507069Y-29156349D01*
X61452381Y-29288379D01*
X61452379Y-29288385D01*
X61424500Y-29428542D01*
X61424500Y-29428545D01*
X61424500Y-29571455D01*
X61424500Y-29571457D01*
X61424499Y-29571457D01*
X54679185Y-29571457D01*
X54693402Y-29527701D01*
X54720500Y-29356611D01*
X54720500Y-29183389D01*
X54693402Y-29012299D01*
X54639873Y-28847555D01*
X54561232Y-28693212D01*
X54459414Y-28553072D01*
X54336928Y-28430586D01*
X54196788Y-28328768D01*
X54042445Y-28250127D01*
X53877701Y-28196598D01*
X53877699Y-28196597D01*
X53877698Y-28196597D01*
X53746271Y-28175781D01*
X53706611Y-28169500D01*
X53533389Y-28169500D01*
X53493728Y-28175781D01*
X53362302Y-28196597D01*
X53197552Y-28250128D01*
X53043211Y-28328768D01*
X52963256Y-28386859D01*
X52903072Y-28430586D01*
X52903070Y-28430588D01*
X52903069Y-28430588D01*
X52780588Y-28553069D01*
X52780588Y-28553070D01*
X52780586Y-28553072D01*
X52736859Y-28613256D01*
X52678768Y-28693211D01*
X52600128Y-28847552D01*
X52546597Y-29012302D01*
X52519500Y-29183389D01*
X39480500Y-29183389D01*
X39453402Y-29012299D01*
X39399873Y-28847555D01*
X39321232Y-28693212D01*
X39219414Y-28553072D01*
X39096928Y-28430586D01*
X38956788Y-28328768D01*
X38802445Y-28250127D01*
X38637701Y-28196598D01*
X38637699Y-28196597D01*
X38637698Y-28196597D01*
X38506271Y-28175781D01*
X38466611Y-28169500D01*
X38293389Y-28169500D01*
X38253728Y-28175781D01*
X38122302Y-28196597D01*
X37957552Y-28250128D01*
X37803211Y-28328768D01*
X37723256Y-28386859D01*
X37663072Y-28430586D01*
X37663070Y-28430588D01*
X37663069Y-28430588D01*
X37540588Y-28553069D01*
X37540588Y-28553070D01*
X37540586Y-28553072D01*
X37496859Y-28613256D01*
X37438768Y-28693211D01*
X37360128Y-28847552D01*
X37306597Y-29012302D01*
X37279500Y-29183389D01*
X8399500Y-29183389D01*
X8383909Y-29156385D01*
X8281415Y-29053891D01*
X8281413Y-29053890D01*
X8281411Y-29053888D01*
X8155888Y-28981417D01*
X8155889Y-28981417D01*
X8144406Y-28978340D01*
X8015875Y-28943900D01*
X7870925Y-28943900D01*
X7742393Y-28978340D01*
X7730911Y-28981417D01*
X7605388Y-29053888D01*
X7605382Y-29053893D01*
X7502893Y-29156382D01*
X7502888Y-29156388D01*
X7430417Y-29281911D01*
X7430416Y-29281915D01*
X7392900Y-29421925D01*
X500500Y-29421925D01*
X500500Y-27196971D01*
X6798299Y-27196971D01*
X6823297Y-27322638D01*
X6823299Y-27322644D01*
X6872333Y-27441024D01*
X6872338Y-27441033D01*
X6943523Y-27547568D01*
X6943526Y-27547572D01*
X7034127Y-27638173D01*
X7034131Y-27638176D01*
X7140666Y-27709361D01*
X7140672Y-27709364D01*
X7140673Y-27709365D01*
X7259056Y-27758401D01*
X7259060Y-27758401D01*
X7259061Y-27758402D01*
X7384728Y-27783400D01*
X7384731Y-27783400D01*
X7512871Y-27783400D01*
X7597415Y-27766582D01*
X7638544Y-27758401D01*
X7756927Y-27709365D01*
X7863469Y-27638176D01*
X7954076Y-27547569D01*
X8025265Y-27441027D01*
X8074301Y-27322644D01*
X8079198Y-27298025D01*
X33432100Y-27298025D01*
X33432100Y-27442975D01*
X33460127Y-27547572D01*
X33469617Y-27582988D01*
X33542088Y-27708511D01*
X33542090Y-27708513D01*
X33542091Y-27708515D01*
X33644585Y-27811009D01*
X33644586Y-27811010D01*
X33644588Y-27811011D01*
X33770111Y-27883482D01*
X33770112Y-27883482D01*
X33770115Y-27883484D01*
X33910125Y-27921000D01*
X33910128Y-27921000D01*
X34055072Y-27921000D01*
X34055075Y-27921000D01*
X34195085Y-27883484D01*
X34320615Y-27811009D01*
X34423109Y-27708515D01*
X34495584Y-27582985D01*
X34533100Y-27442975D01*
X34533100Y-27298025D01*
X34495584Y-27158015D01*
X34492369Y-27152447D01*
X34423111Y-27032488D01*
X34423106Y-27032482D01*
X34320617Y-26929993D01*
X34320611Y-26929988D01*
X34195088Y-26857517D01*
X34195089Y-26857517D01*
X34183606Y-26854440D01*
X34055075Y-26820000D01*
X33910125Y-26820000D01*
X33781593Y-26854440D01*
X33770111Y-26857517D01*
X33644588Y-26929988D01*
X33644582Y-26929993D01*
X33542093Y-27032482D01*
X33542088Y-27032488D01*
X33469617Y-27158011D01*
X33469616Y-27158015D01*
X33432100Y-27298025D01*
X8079198Y-27298025D01*
X8099300Y-27196969D01*
X8099300Y-27068831D01*
X8099300Y-27068828D01*
X8074302Y-26943161D01*
X8074301Y-26943160D01*
X8074301Y-26943156D01*
X8025265Y-26824773D01*
X8025264Y-26824772D01*
X8025261Y-26824766D01*
X7954074Y-26718228D01*
X7879235Y-26643389D01*
X37279500Y-26643389D01*
X37279500Y-26816610D01*
X37299543Y-26943161D01*
X37306598Y-26987701D01*
X37360127Y-27152445D01*
X37438768Y-27306788D01*
X37540586Y-27446928D01*
X37663072Y-27569414D01*
X37803212Y-27671232D01*
X37957555Y-27749873D01*
X38122299Y-27803402D01*
X38293389Y-27830500D01*
X38293390Y-27830500D01*
X38466610Y-27830500D01*
X38466611Y-27830500D01*
X38637701Y-27803402D01*
X38802445Y-27749873D01*
X38956788Y-27671232D01*
X39096928Y-27569414D01*
X39219414Y-27446928D01*
X39321232Y-27306788D01*
X39399873Y-27152445D01*
X39453402Y-26987701D01*
X39480500Y-26816611D01*
X39480500Y-26643389D01*
X39453402Y-26472299D01*
X39399873Y-26307555D01*
X39321232Y-26153212D01*
X39219414Y-26013072D01*
X39096928Y-25890586D01*
X38956788Y-25788768D01*
X38802445Y-25710127D01*
X38637701Y-25656598D01*
X38637699Y-25656597D01*
X38637698Y-25656597D01*
X38506271Y-25635781D01*
X38466611Y-25629500D01*
X38293389Y-25629500D01*
X38253728Y-25635781D01*
X38122302Y-25656597D01*
X37957552Y-25710128D01*
X37803211Y-25788768D01*
X37723256Y-25846859D01*
X37663072Y-25890586D01*
X37663070Y-25890588D01*
X37663069Y-25890588D01*
X37540588Y-26013069D01*
X37540588Y-26013070D01*
X37540586Y-26013072D01*
X37501794Y-26066465D01*
X37438768Y-26153211D01*
X37360128Y-26307552D01*
X37306597Y-26472302D01*
X37279500Y-26643389D01*
X7879235Y-26643389D01*
X7863472Y-26627626D01*
X7863468Y-26627623D01*
X7756933Y-26556438D01*
X7756924Y-26556433D01*
X7638544Y-26507399D01*
X7638538Y-26507397D01*
X7512871Y-26482400D01*
X7512869Y-26482400D01*
X7384731Y-26482400D01*
X7384729Y-26482400D01*
X7259061Y-26507397D01*
X7259055Y-26507399D01*
X7140675Y-26556433D01*
X7140666Y-26556438D01*
X7034131Y-26627623D01*
X7034127Y-26627626D01*
X6943526Y-26718227D01*
X6943523Y-26718231D01*
X6872338Y-26824766D01*
X6872333Y-26824775D01*
X6823299Y-26943155D01*
X6823297Y-26943161D01*
X6798300Y-27068828D01*
X6798300Y-27068831D01*
X6798300Y-27196969D01*
X6798300Y-27196971D01*
X6798299Y-27196971D01*
X500500Y-27196971D01*
X500500Y-25554071D01*
X30324799Y-25554071D01*
X30349797Y-25679738D01*
X30349799Y-25679744D01*
X30398833Y-25798124D01*
X30398838Y-25798133D01*
X30470023Y-25904668D01*
X30470026Y-25904672D01*
X30560627Y-25995273D01*
X30560631Y-25995276D01*
X30667166Y-26066461D01*
X30667172Y-26066464D01*
X30667173Y-26066465D01*
X30785556Y-26115501D01*
X30785560Y-26115501D01*
X30785561Y-26115502D01*
X30911228Y-26140500D01*
X30911231Y-26140500D01*
X31039371Y-26140500D01*
X31123915Y-26123682D01*
X31165044Y-26115501D01*
X31283427Y-26066465D01*
X31389969Y-25995276D01*
X31480576Y-25904669D01*
X31551765Y-25798127D01*
X31600801Y-25679744D01*
X31620150Y-25582473D01*
X31625800Y-25554071D01*
X31625800Y-25425928D01*
X31600802Y-25300261D01*
X31600801Y-25300260D01*
X31600801Y-25300256D01*
X31551765Y-25181873D01*
X31551764Y-25181872D01*
X31551761Y-25181866D01*
X31480576Y-25075331D01*
X31480573Y-25075327D01*
X31389972Y-24984726D01*
X31389968Y-24984723D01*
X31283433Y-24913538D01*
X31283424Y-24913533D01*
X31165044Y-24864499D01*
X31165038Y-24864497D01*
X31039371Y-24839500D01*
X31039369Y-24839500D01*
X30911231Y-24839500D01*
X30911229Y-24839500D01*
X30785561Y-24864497D01*
X30785555Y-24864499D01*
X30667175Y-24913533D01*
X30667166Y-24913538D01*
X30560631Y-24984723D01*
X30560627Y-24984726D01*
X30470026Y-25075327D01*
X30470023Y-25075331D01*
X30398838Y-25181866D01*
X30398833Y-25181875D01*
X30349799Y-25300255D01*
X30349797Y-25300261D01*
X30324800Y-25425928D01*
X30324800Y-25425931D01*
X30324800Y-25554069D01*
X30324800Y-25554071D01*
X30324799Y-25554071D01*
X500500Y-25554071D01*
X500500Y-24330271D01*
X4901699Y-24330271D01*
X4926697Y-24455938D01*
X4926699Y-24455944D01*
X4975733Y-24574324D01*
X4975738Y-24574333D01*
X5046923Y-24680868D01*
X5046926Y-24680872D01*
X5137527Y-24771473D01*
X5137531Y-24771476D01*
X5244066Y-24842661D01*
X5244072Y-24842664D01*
X5244073Y-24842665D01*
X5362456Y-24891701D01*
X5362460Y-24891701D01*
X5362461Y-24891702D01*
X5488128Y-24916700D01*
X5488131Y-24916700D01*
X5616271Y-24916700D01*
X5700815Y-24899882D01*
X5741944Y-24891701D01*
X5860327Y-24842665D01*
X5966869Y-24771476D01*
X6057476Y-24680869D01*
X6128665Y-24574327D01*
X6177701Y-24455944D01*
X6202700Y-24330269D01*
X6202700Y-24202131D01*
X6202700Y-24202128D01*
X6186902Y-24122709D01*
X6183059Y-24103389D01*
X37279500Y-24103389D01*
X37279500Y-24276611D01*
X37306598Y-24447701D01*
X37360127Y-24612445D01*
X37438768Y-24766788D01*
X37540586Y-24906928D01*
X37663072Y-25029414D01*
X37803212Y-25131232D01*
X37957555Y-25209873D01*
X38122299Y-25263402D01*
X38293389Y-25290500D01*
X38293390Y-25290500D01*
X38466610Y-25290500D01*
X38466611Y-25290500D01*
X38637701Y-25263402D01*
X38802445Y-25209873D01*
X38956788Y-25131232D01*
X39096928Y-25029414D01*
X39219414Y-24906928D01*
X39321232Y-24766788D01*
X39399873Y-24612445D01*
X39453402Y-24447701D01*
X39480500Y-24276611D01*
X39480500Y-24103389D01*
X39479876Y-24099448D01*
X52469500Y-24099448D01*
X52469500Y-24280551D01*
X52497829Y-24459410D01*
X52553787Y-24631636D01*
X52553788Y-24631639D01*
X52609664Y-24741300D01*
X52625038Y-24771473D01*
X52636006Y-24792997D01*
X52742441Y-24939494D01*
X52742445Y-24939499D01*
X52870500Y-25067554D01*
X52870505Y-25067558D01*
X52958146Y-25131232D01*
X53017006Y-25173996D01*
X53122484Y-25227740D01*
X53178360Y-25256211D01*
X53178363Y-25256212D01*
X53264476Y-25284191D01*
X53350591Y-25312171D01*
X53423639Y-25323740D01*
X53510678Y-25337527D01*
X53573813Y-25367456D01*
X53610744Y-25426768D01*
X53609746Y-25496631D01*
X53571136Y-25554863D01*
X53510678Y-25582473D01*
X53350589Y-25607829D01*
X53178363Y-25663787D01*
X53178360Y-25663788D01*
X53017002Y-25746006D01*
X52870505Y-25852441D01*
X52870500Y-25852445D01*
X52742445Y-25980500D01*
X52742441Y-25980505D01*
X52636006Y-26127002D01*
X52553788Y-26288360D01*
X52553787Y-26288363D01*
X52497829Y-26460589D01*
X52469500Y-26639448D01*
X52469500Y-26820551D01*
X52497829Y-26999410D01*
X52553787Y-27171636D01*
X52553788Y-27171639D01*
X52566696Y-27196971D01*
X52630730Y-27322644D01*
X52636006Y-27332997D01*
X52742441Y-27479494D01*
X52742445Y-27479499D01*
X52870500Y-27607554D01*
X52870505Y-27607558D01*
X52958146Y-27671232D01*
X53017006Y-27713996D01*
X53104155Y-27758401D01*
X53178360Y-27796211D01*
X53178363Y-27796212D01*
X53223896Y-27811006D01*
X53350591Y-27852171D01*
X53433429Y-27865291D01*
X53529449Y-27880500D01*
X53529454Y-27880500D01*
X53710551Y-27880500D01*
X53797259Y-27866765D01*
X53889409Y-27852171D01*
X54061639Y-27796211D01*
X54222994Y-27713996D01*
X54369501Y-27607553D01*
X54497553Y-27479501D01*
X54603996Y-27332994D01*
X54686211Y-27171639D01*
X54742171Y-26999409D01*
X54756765Y-26907259D01*
X54770500Y-26820551D01*
X54770500Y-26639448D01*
X54754019Y-26535397D01*
X54742171Y-26460591D01*
X54714191Y-26374476D01*
X54686212Y-26288363D01*
X54686211Y-26288360D01*
X54657740Y-26232484D01*
X54603996Y-26127006D01*
X54590396Y-26108287D01*
X54497558Y-25980505D01*
X54497554Y-25980500D01*
X54369499Y-25852445D01*
X54369494Y-25852441D01*
X54222997Y-25746006D01*
X54222996Y-25746005D01*
X54222994Y-25746004D01*
X54152582Y-25710127D01*
X54061639Y-25663788D01*
X54061636Y-25663787D01*
X53889410Y-25607829D01*
X53729321Y-25582473D01*
X53666186Y-25552544D01*
X53629255Y-25493232D01*
X53630253Y-25423370D01*
X53668863Y-25365137D01*
X53729321Y-25337527D01*
X53799425Y-25326422D01*
X53889409Y-25312171D01*
X54061639Y-25256211D01*
X54222994Y-25173996D01*
X54369501Y-25067553D01*
X54497553Y-24939501D01*
X54603996Y-24792994D01*
X54686211Y-24631639D01*
X54742171Y-24459409D01*
X54756765Y-24367259D01*
X54770500Y-24280551D01*
X54770500Y-24099448D01*
X54748108Y-23958075D01*
X54742171Y-23920591D01*
X54714191Y-23834476D01*
X54686212Y-23748363D01*
X54686211Y-23748360D01*
X54618616Y-23615700D01*
X54603996Y-23587006D01*
X54564747Y-23532984D01*
X54497558Y-23440505D01*
X54497554Y-23440500D01*
X54369499Y-23312445D01*
X54369494Y-23312441D01*
X54222997Y-23206006D01*
X54222996Y-23206005D01*
X54222994Y-23206004D01*
X54152582Y-23170127D01*
X54061639Y-23123788D01*
X54061636Y-23123787D01*
X53889410Y-23067829D01*
X53710551Y-23039500D01*
X53710546Y-23039500D01*
X53529454Y-23039500D01*
X53529449Y-23039500D01*
X53350589Y-23067829D01*
X53178363Y-23123787D01*
X53178360Y-23123788D01*
X53017002Y-23206006D01*
X52870505Y-23312441D01*
X52870500Y-23312445D01*
X52742445Y-23440500D01*
X52742441Y-23440505D01*
X52636006Y-23587002D01*
X52553788Y-23748360D01*
X52553787Y-23748363D01*
X52497829Y-23920589D01*
X52469500Y-24099448D01*
X39479876Y-24099448D01*
X39453402Y-23932299D01*
X39399873Y-23767555D01*
X39321232Y-23613212D01*
X39219414Y-23473072D01*
X39096928Y-23350586D01*
X38956788Y-23248768D01*
X38802445Y-23170127D01*
X38637701Y-23116598D01*
X38637699Y-23116597D01*
X38637698Y-23116597D01*
X38485375Y-23092472D01*
X38466611Y-23089500D01*
X38293389Y-23089500D01*
X38274625Y-23092472D01*
X38122302Y-23116597D01*
X37957552Y-23170128D01*
X37803211Y-23248768D01*
X37723256Y-23306859D01*
X37663072Y-23350586D01*
X37663070Y-23350588D01*
X37663069Y-23350588D01*
X37540588Y-23473069D01*
X37540588Y-23473070D01*
X37540586Y-23473072D01*
X37497059Y-23532982D01*
X37438768Y-23613211D01*
X37360128Y-23767552D01*
X37306597Y-23932302D01*
X37302515Y-23958075D01*
X37279500Y-24103389D01*
X6183059Y-24103389D01*
X6177702Y-24076461D01*
X6177701Y-24076460D01*
X6177701Y-24076456D01*
X6128665Y-23958073D01*
X6128664Y-23958072D01*
X6128661Y-23958066D01*
X6057476Y-23851531D01*
X6057473Y-23851527D01*
X5966872Y-23760926D01*
X5966868Y-23760923D01*
X5860333Y-23689738D01*
X5860324Y-23689733D01*
X5741944Y-23640699D01*
X5741938Y-23640697D01*
X5616271Y-23615700D01*
X5616269Y-23615700D01*
X5488131Y-23615700D01*
X5488129Y-23615700D01*
X5362461Y-23640697D01*
X5362455Y-23640699D01*
X5244075Y-23689733D01*
X5244066Y-23689738D01*
X5137531Y-23760923D01*
X5137527Y-23760926D01*
X5046926Y-23851527D01*
X5046923Y-23851531D01*
X4975738Y-23958066D01*
X4975733Y-23958075D01*
X4926699Y-24076455D01*
X4926697Y-24076461D01*
X4901700Y-24202128D01*
X4901700Y-24202131D01*
X4901700Y-24330269D01*
X4901700Y-24330271D01*
X4901699Y-24330271D01*
X500500Y-24330271D01*
X500500Y-22573920D01*
X749499Y-22573920D01*
X778340Y-22718907D01*
X778343Y-22718917D01*
X834912Y-22855488D01*
X834919Y-22855501D01*
X917048Y-22978415D01*
X917051Y-22978419D01*
X1021580Y-23082948D01*
X1021584Y-23082951D01*
X1144498Y-23165080D01*
X1144511Y-23165087D01*
X1281082Y-23221656D01*
X1281087Y-23221658D01*
X1281091Y-23221658D01*
X1281092Y-23221659D01*
X1426079Y-23250500D01*
X1426082Y-23250500D01*
X1573920Y-23250500D01*
X1671462Y-23231096D01*
X1718913Y-23221658D01*
X1855495Y-23165084D01*
X1978416Y-23082951D01*
X2082951Y-22978416D01*
X2103591Y-22947525D01*
X28549500Y-22947525D01*
X28549500Y-23092475D01*
X28584115Y-23221658D01*
X28587017Y-23232488D01*
X28659488Y-23358011D01*
X28659490Y-23358013D01*
X28659491Y-23358015D01*
X28761985Y-23460509D01*
X28761986Y-23460510D01*
X28761988Y-23460511D01*
X28887511Y-23532982D01*
X28887512Y-23532982D01*
X28887515Y-23532984D01*
X29027525Y-23570500D01*
X29027528Y-23570500D01*
X29172472Y-23570500D01*
X29172475Y-23570500D01*
X29312485Y-23532984D01*
X29438015Y-23460509D01*
X29540509Y-23358015D01*
X29612984Y-23232485D01*
X29650500Y-23092475D01*
X29650500Y-22947525D01*
X29612984Y-22807515D01*
X29580066Y-22750500D01*
X29540511Y-22681988D01*
X29540506Y-22681982D01*
X29438017Y-22579493D01*
X29438011Y-22579488D01*
X29312488Y-22507017D01*
X29312489Y-22507017D01*
X29301006Y-22503940D01*
X29172475Y-22469500D01*
X29027525Y-22469500D01*
X28898993Y-22503940D01*
X28887511Y-22507017D01*
X28761988Y-22579488D01*
X28761982Y-22579493D01*
X28659493Y-22681982D01*
X28659488Y-22681988D01*
X28587017Y-22807511D01*
X28587016Y-22807515D01*
X28549500Y-22947525D01*
X2103591Y-22947525D01*
X2118820Y-22924733D01*
X2155054Y-22870507D01*
X2165080Y-22855501D01*
X2165080Y-22855500D01*
X2165084Y-22855495D01*
X2221658Y-22718913D01*
X2231413Y-22669871D01*
X2250500Y-22573920D01*
X2250500Y-22426079D01*
X2221659Y-22281092D01*
X2221658Y-22281091D01*
X2221658Y-22281087D01*
X2199167Y-22226788D01*
X2165087Y-22144511D01*
X2165080Y-22144498D01*
X2082951Y-22021584D01*
X2082948Y-22021580D01*
X2032493Y-21971125D01*
X21553700Y-21971125D01*
X21553700Y-22116075D01*
X21583366Y-22226788D01*
X21591217Y-22256088D01*
X21663688Y-22381611D01*
X21663690Y-22381613D01*
X21663691Y-22381615D01*
X21766185Y-22484109D01*
X21766186Y-22484110D01*
X21766188Y-22484111D01*
X21891711Y-22556582D01*
X21891712Y-22556582D01*
X21891715Y-22556584D01*
X22031725Y-22594100D01*
X22031728Y-22594100D01*
X22176672Y-22594100D01*
X22176675Y-22594100D01*
X22316685Y-22556584D01*
X22442215Y-22484109D01*
X22544709Y-22381615D01*
X22617184Y-22256085D01*
X22654700Y-22116075D01*
X22654700Y-21971125D01*
X22617184Y-21831115D01*
X22617040Y-21830866D01*
X22544711Y-21705588D01*
X22544706Y-21705582D01*
X22442217Y-21603093D01*
X22442211Y-21603088D01*
X22316688Y-21530617D01*
X22316689Y-21530617D01*
X22305206Y-21527540D01*
X22176675Y-21493100D01*
X22031725Y-21493100D01*
X21903193Y-21527540D01*
X21891711Y-21530617D01*
X21766188Y-21603088D01*
X21766182Y-21603093D01*
X21663693Y-21705582D01*
X21663688Y-21705588D01*
X21591217Y-21831111D01*
X21590197Y-21834919D01*
X21553700Y-21971125D01*
X2032493Y-21971125D01*
X1978419Y-21917051D01*
X1978415Y-21917048D01*
X1855501Y-21834919D01*
X1855488Y-21834912D01*
X1718917Y-21778343D01*
X1718907Y-21778340D01*
X1573920Y-21749500D01*
X1573918Y-21749500D01*
X1426082Y-21749500D01*
X1426080Y-21749500D01*
X1281092Y-21778340D01*
X1281082Y-21778343D01*
X1144511Y-21834912D01*
X1144498Y-21834919D01*
X1021584Y-21917048D01*
X1021580Y-21917051D01*
X917051Y-22021580D01*
X917048Y-22021584D01*
X834919Y-22144498D01*
X834912Y-22144511D01*
X778343Y-22281082D01*
X778340Y-22281092D01*
X749500Y-22426079D01*
X749500Y-22426082D01*
X749500Y-22573918D01*
X749500Y-22573920D01*
X749499Y-22573920D01*
X500500Y-22573920D01*
X500500Y-21318471D01*
X7702699Y-21318471D01*
X7727697Y-21444138D01*
X7727699Y-21444144D01*
X7776733Y-21562524D01*
X7776738Y-21562533D01*
X7847923Y-21669068D01*
X7847926Y-21669072D01*
X7938527Y-21759673D01*
X7938531Y-21759676D01*
X8045066Y-21830861D01*
X8045075Y-21830866D01*
X8054843Y-21834912D01*
X8163456Y-21879901D01*
X8163460Y-21879901D01*
X8163461Y-21879902D01*
X8289128Y-21904900D01*
X8289131Y-21904900D01*
X8417271Y-21904900D01*
X8501815Y-21888082D01*
X8542944Y-21879901D01*
X8661327Y-21830865D01*
X8767869Y-21759676D01*
X8858476Y-21669069D01*
X8929665Y-21562527D01*
X8978701Y-21444144D01*
X9003700Y-21318469D01*
X9003700Y-21190331D01*
X9003700Y-21190328D01*
X8978702Y-21064661D01*
X8978701Y-21064660D01*
X8978701Y-21064656D01*
X8952939Y-21002461D01*
X8944930Y-20983125D01*
X27718000Y-20983125D01*
X27718000Y-21128075D01*
X27719161Y-21132406D01*
X27755517Y-21268088D01*
X27827988Y-21393611D01*
X27827990Y-21393613D01*
X27827991Y-21393615D01*
X27930485Y-21496109D01*
X27930486Y-21496110D01*
X27930488Y-21496111D01*
X28056011Y-21568582D01*
X28056012Y-21568582D01*
X28056015Y-21568584D01*
X28196025Y-21606100D01*
X28196028Y-21606100D01*
X28340972Y-21606100D01*
X28340975Y-21606100D01*
X28480985Y-21568584D01*
X28489983Y-21563389D01*
X37279500Y-21563389D01*
X37279500Y-21736611D01*
X37283153Y-21759673D01*
X37302194Y-21879900D01*
X37306598Y-21907701D01*
X37360127Y-22072445D01*
X37438768Y-22226788D01*
X37540586Y-22366928D01*
X37663072Y-22489414D01*
X37803212Y-22591232D01*
X37957555Y-22669873D01*
X38122299Y-22723402D01*
X38293389Y-22750500D01*
X38293390Y-22750500D01*
X38466610Y-22750500D01*
X38466611Y-22750500D01*
X38637701Y-22723402D01*
X38802445Y-22669873D01*
X38956788Y-22591232D01*
X39096928Y-22489414D01*
X39219414Y-22366928D01*
X39321232Y-22226788D01*
X39399873Y-22072445D01*
X39453402Y-21907701D01*
X39480500Y-21736611D01*
X39480500Y-21563389D01*
X52519500Y-21563389D01*
X52519500Y-21736611D01*
X52523153Y-21759673D01*
X52542194Y-21879900D01*
X52546598Y-21907701D01*
X52600127Y-22072445D01*
X52678768Y-22226788D01*
X52780586Y-22366928D01*
X52903072Y-22489414D01*
X53043212Y-22591232D01*
X53197555Y-22669873D01*
X53362299Y-22723402D01*
X53533389Y-22750500D01*
X53533390Y-22750500D01*
X53706610Y-22750500D01*
X53706611Y-22750500D01*
X53877701Y-22723402D01*
X54042445Y-22669873D01*
X54196788Y-22591232D01*
X54336928Y-22489414D01*
X54459414Y-22366928D01*
X54561232Y-22226788D01*
X54639873Y-22072445D01*
X54693402Y-21907701D01*
X54720500Y-21736611D01*
X54720500Y-21563389D01*
X54693402Y-21392299D01*
X54639873Y-21227555D01*
X54561232Y-21073212D01*
X54459414Y-20933072D01*
X54336928Y-20810586D01*
X54196788Y-20708768D01*
X54042445Y-20630127D01*
X53877701Y-20576598D01*
X53877699Y-20576597D01*
X53877698Y-20576597D01*
X53746271Y-20555781D01*
X53706611Y-20549500D01*
X53533389Y-20549500D01*
X53493728Y-20555781D01*
X53362302Y-20576597D01*
X53197552Y-20630128D01*
X53043211Y-20708768D01*
X53031076Y-20717585D01*
X52903072Y-20810586D01*
X52903070Y-20810588D01*
X52903069Y-20810588D01*
X52780588Y-20933069D01*
X52780588Y-20933070D01*
X52780586Y-20933072D01*
X52744220Y-20983125D01*
X52678768Y-21073211D01*
X52600128Y-21227552D01*
X52546597Y-21392302D01*
X52519637Y-21562524D01*
X52519500Y-21563389D01*
X39480500Y-21563389D01*
X39453402Y-21392299D01*
X39399873Y-21227555D01*
X39321232Y-21073212D01*
X39219414Y-20933072D01*
X39096928Y-20810586D01*
X38956788Y-20708768D01*
X38802445Y-20630127D01*
X38637701Y-20576598D01*
X38637699Y-20576597D01*
X38637698Y-20576597D01*
X38506271Y-20555781D01*
X38466611Y-20549500D01*
X38293389Y-20549500D01*
X38253728Y-20555781D01*
X38122302Y-20576597D01*
X37957552Y-20630128D01*
X37803211Y-20708768D01*
X37791076Y-20717585D01*
X37663072Y-20810586D01*
X37663070Y-20810588D01*
X37663069Y-20810588D01*
X37540588Y-20933069D01*
X37540588Y-20933070D01*
X37540586Y-20933072D01*
X37504220Y-20983125D01*
X37438768Y-21073211D01*
X37360128Y-21227552D01*
X37306597Y-21392302D01*
X37279637Y-21562524D01*
X37279500Y-21563389D01*
X28489983Y-21563389D01*
X28606515Y-21496109D01*
X28709009Y-21393615D01*
X28781484Y-21268085D01*
X28817839Y-21132404D01*
X28854204Y-21072746D01*
X28917051Y-21042217D01*
X28937614Y-21040500D01*
X29072472Y-21040500D01*
X29072475Y-21040500D01*
X29212485Y-21002984D01*
X29338015Y-20930509D01*
X29440509Y-20828015D01*
X29512984Y-20702485D01*
X29550500Y-20562475D01*
X29550500Y-20417525D01*
X29512984Y-20277515D01*
X29440509Y-20151985D01*
X29338015Y-20049491D01*
X29338013Y-20049490D01*
X29338011Y-20049488D01*
X29212488Y-19977017D01*
X29212489Y-19977017D01*
X29201006Y-19973940D01*
X29072475Y-19939500D01*
X28927525Y-19939500D01*
X28798993Y-19973940D01*
X28787511Y-19977017D01*
X28661988Y-20049488D01*
X28661982Y-20049493D01*
X28559493Y-20151982D01*
X28559488Y-20151988D01*
X28487017Y-20277511D01*
X28450661Y-20413194D01*
X28414296Y-20472854D01*
X28351449Y-20503383D01*
X28330886Y-20505100D01*
X28196025Y-20505100D01*
X28087502Y-20534179D01*
X28056011Y-20542617D01*
X27930488Y-20615088D01*
X27930482Y-20615093D01*
X27827993Y-20717582D01*
X27827988Y-20717588D01*
X27755517Y-20843111D01*
X27755516Y-20843115D01*
X27718000Y-20983125D01*
X8944930Y-20983125D01*
X8929666Y-20946275D01*
X8929661Y-20946266D01*
X8858476Y-20839731D01*
X8858473Y-20839727D01*
X8767872Y-20749126D01*
X8767868Y-20749123D01*
X8661333Y-20677938D01*
X8661324Y-20677933D01*
X8542944Y-20628899D01*
X8542938Y-20628897D01*
X8417271Y-20603900D01*
X8417269Y-20603900D01*
X8289131Y-20603900D01*
X8289129Y-20603900D01*
X8163461Y-20628897D01*
X8163455Y-20628899D01*
X8045075Y-20677933D01*
X8045066Y-20677938D01*
X7938531Y-20749123D01*
X7938527Y-20749126D01*
X7847926Y-20839727D01*
X7847923Y-20839731D01*
X7776738Y-20946266D01*
X7776733Y-20946275D01*
X7727699Y-21064655D01*
X7727697Y-21064661D01*
X7702700Y-21190328D01*
X7702700Y-21190331D01*
X7702700Y-21318469D01*
X7702700Y-21318471D01*
X7702699Y-21318471D01*
X500500Y-21318471D01*
X500500Y-18235321D01*
X37279500Y-18235321D01*
X37279500Y-19984678D01*
X37294032Y-20057735D01*
X37294033Y-20057739D01*
X37294034Y-20057740D01*
X37349399Y-20140601D01*
X37432260Y-20195966D01*
X37432264Y-20195967D01*
X37505321Y-20210499D01*
X37505324Y-20210500D01*
X37505326Y-20210500D01*
X39254676Y-20210500D01*
X39254677Y-20210499D01*
X39327740Y-20195966D01*
X39410601Y-20140601D01*
X39465966Y-20057740D01*
X39480500Y-19984674D01*
X39480500Y-18235326D01*
X39480500Y-18235323D01*
X39480499Y-18235321D01*
X39465967Y-18162264D01*
X39465966Y-18162260D01*
X39410601Y-18079399D01*
X39327740Y-18024034D01*
X39327739Y-18024033D01*
X39327735Y-18024032D01*
X39254677Y-18009500D01*
X39254674Y-18009500D01*
X37505326Y-18009500D01*
X37505323Y-18009500D01*
X37432264Y-18024032D01*
X37432260Y-18024033D01*
X37349399Y-18079399D01*
X37294033Y-18162260D01*
X37294032Y-18162264D01*
X37279500Y-18235321D01*
X500500Y-18235321D01*
X500500Y-16923615D01*
X61374500Y-16923615D01*
X61374500Y-17076384D01*
X61404300Y-17226197D01*
X61404302Y-17226205D01*
X61462759Y-17367334D01*
X61462764Y-17367343D01*
X61547629Y-17494351D01*
X61547632Y-17494355D01*
X61655644Y-17602367D01*
X61655648Y-17602370D01*
X61782656Y-17687235D01*
X61782662Y-17687238D01*
X61782663Y-17687239D01*
X61923795Y-17745698D01*
X62073615Y-17775499D01*
X62073619Y-17775500D01*
X62073620Y-17775500D01*
X62226381Y-17775500D01*
X62226382Y-17775499D01*
X62376205Y-17745698D01*
X62517337Y-17687239D01*
X62644352Y-17602370D01*
X62752370Y-17494352D01*
X62837239Y-17367337D01*
X62895698Y-17226205D01*
X62925500Y-17076380D01*
X62925500Y-16923620D01*
X62895698Y-16773795D01*
X62837239Y-16632663D01*
X62837238Y-16632662D01*
X62837235Y-16632656D01*
X62752370Y-16505648D01*
X62752367Y-16505644D01*
X62644355Y-16397632D01*
X62644351Y-16397629D01*
X62517343Y-16312764D01*
X62517334Y-16312759D01*
X62376205Y-16254302D01*
X62376197Y-16254300D01*
X62226384Y-16224500D01*
X62226380Y-16224500D01*
X62073620Y-16224500D01*
X62073615Y-16224500D01*
X61923802Y-16254300D01*
X61923794Y-16254302D01*
X61782665Y-16312759D01*
X61782656Y-16312764D01*
X61655648Y-16397629D01*
X61655644Y-16397632D01*
X61547632Y-16505644D01*
X61547629Y-16505648D01*
X61462764Y-16632656D01*
X61462759Y-16632665D01*
X61404302Y-16773794D01*
X61404300Y-16773802D01*
X61374500Y-16923615D01*
X500500Y-16923615D01*
X500500Y-14423615D01*
X61374500Y-14423615D01*
X61374500Y-14576384D01*
X61404300Y-14726197D01*
X61404302Y-14726205D01*
X61462759Y-14867334D01*
X61462764Y-14867343D01*
X61547629Y-14994351D01*
X61547632Y-14994355D01*
X61655644Y-15102367D01*
X61655648Y-15102370D01*
X61782656Y-15187235D01*
X61782662Y-15187238D01*
X61782663Y-15187239D01*
X61923795Y-15245698D01*
X62073615Y-15275499D01*
X62073619Y-15275500D01*
X62073620Y-15275500D01*
X62226381Y-15275500D01*
X62226382Y-15275499D01*
X62376205Y-15245698D01*
X62517337Y-15187239D01*
X62644352Y-15102370D01*
X62752370Y-14994352D01*
X62837239Y-14867337D01*
X62895698Y-14726205D01*
X62925500Y-14576380D01*
X62925500Y-14423620D01*
X62895698Y-14273795D01*
X62837239Y-14132663D01*
X62837238Y-14132662D01*
X62837235Y-14132656D01*
X62752370Y-14005648D01*
X62752367Y-14005644D01*
X62644355Y-13897632D01*
X62644351Y-13897629D01*
X62517343Y-13812764D01*
X62517334Y-13812759D01*
X62376205Y-13754302D01*
X62376197Y-13754300D01*
X62226384Y-13724500D01*
X62226380Y-13724500D01*
X62073620Y-13724500D01*
X62073615Y-13724500D01*
X61923802Y-13754300D01*
X61923794Y-13754302D01*
X61782665Y-13812759D01*
X61782656Y-13812764D01*
X61655648Y-13897629D01*
X61655644Y-13897632D01*
X61547632Y-14005644D01*
X61547629Y-14005648D01*
X61462764Y-14132656D01*
X61462759Y-14132665D01*
X61404302Y-14273794D01*
X61404300Y-14273802D01*
X61374500Y-14423615D01*
X500500Y-14423615D01*
X500500Y-10878711D01*
X2149500Y-10878711D01*
X2149500Y-11121288D01*
X2181161Y-11361785D01*
X2243947Y-11596104D01*
X2323590Y-11788379D01*
X2336776Y-11820212D01*
X2458064Y-12030289D01*
X2458066Y-12030292D01*
X2458067Y-12030293D01*
X2605733Y-12222736D01*
X2605739Y-12222743D01*
X2777256Y-12394260D01*
X2777262Y-12394265D01*
X2969711Y-12541936D01*
X3179788Y-12663224D01*
X3403900Y-12756054D01*
X3638211Y-12818838D01*
X3818586Y-12842584D01*
X3878711Y-12850500D01*
X3878712Y-12850500D01*
X4121289Y-12850500D01*
X4169388Y-12844167D01*
X4361789Y-12818838D01*
X4596100Y-12756054D01*
X4820212Y-12663224D01*
X5030289Y-12541936D01*
X5222738Y-12394265D01*
X5394265Y-12222738D01*
X5541936Y-12030289D01*
X5663224Y-11820212D01*
X5756054Y-11596100D01*
X5818838Y-11361789D01*
X5850500Y-11121288D01*
X5850500Y-10878712D01*
X5850500Y-10878711D01*
X53149500Y-10878711D01*
X53149500Y-11121288D01*
X53181161Y-11361785D01*
X53243947Y-11596104D01*
X53323590Y-11788379D01*
X53336776Y-11820212D01*
X53458064Y-12030289D01*
X53458066Y-12030292D01*
X53458067Y-12030293D01*
X53605733Y-12222736D01*
X53605739Y-12222743D01*
X53777256Y-12394260D01*
X53777262Y-12394265D01*
X53969711Y-12541936D01*
X54179788Y-12663224D01*
X54403900Y-12756054D01*
X54638211Y-12818838D01*
X54818586Y-12842584D01*
X54878711Y-12850500D01*
X54878712Y-12850500D01*
X55121289Y-12850500D01*
X55169388Y-12844167D01*
X55361789Y-12818838D01*
X55596100Y-12756054D01*
X55820212Y-12663224D01*
X56030289Y-12541936D01*
X56222738Y-12394265D01*
X56394265Y-12222738D01*
X56510347Y-12071457D01*
X61424499Y-12071457D01*
X61452379Y-12211614D01*
X61452381Y-12211620D01*
X61507069Y-12343650D01*
X61507074Y-12343659D01*
X61586467Y-12462478D01*
X61586470Y-12462482D01*
X61687517Y-12563529D01*
X61687521Y-12563532D01*
X61806340Y-12642925D01*
X61806346Y-12642928D01*
X61806347Y-12642929D01*
X61938380Y-12697619D01*
X61938384Y-12697619D01*
X61938385Y-12697620D01*
X62078542Y-12725500D01*
X62078545Y-12725500D01*
X62221457Y-12725500D01*
X62315751Y-12706742D01*
X62361620Y-12697619D01*
X62493653Y-12642929D01*
X62612479Y-12563532D01*
X62713532Y-12462479D01*
X62792929Y-12343653D01*
X62847619Y-12211620D01*
X62875500Y-12071455D01*
X62875500Y-11928545D01*
X62875500Y-11928542D01*
X62847620Y-11788385D01*
X62847619Y-11788384D01*
X62847619Y-11788380D01*
X62792929Y-11656347D01*
X62792928Y-11656346D01*
X62792925Y-11656340D01*
X62713532Y-11537521D01*
X62713529Y-11537517D01*
X62612482Y-11436470D01*
X62612478Y-11436467D01*
X62493659Y-11357074D01*
X62493650Y-11357069D01*
X62361620Y-11302381D01*
X62361614Y-11302379D01*
X62221457Y-11274500D01*
X62221455Y-11274500D01*
X62078545Y-11274500D01*
X62078543Y-11274500D01*
X61938385Y-11302379D01*
X61938379Y-11302381D01*
X61806349Y-11357069D01*
X61806340Y-11357074D01*
X61687521Y-11436467D01*
X61687517Y-11436470D01*
X61586470Y-11537517D01*
X61586467Y-11537521D01*
X61507074Y-11656340D01*
X61507069Y-11656349D01*
X61452381Y-11788379D01*
X61452379Y-11788385D01*
X61424500Y-11928542D01*
X61424500Y-11928545D01*
X61424500Y-12071455D01*
X61424500Y-12071457D01*
X61424499Y-12071457D01*
X56510347Y-12071457D01*
X56541936Y-12030289D01*
X56663224Y-11820212D01*
X56756054Y-11596100D01*
X56818838Y-11361789D01*
X56850500Y-11121288D01*
X56850500Y-10878712D01*
X56818838Y-10638211D01*
X56756054Y-10403900D01*
X56663224Y-10179788D01*
X56541936Y-9969711D01*
X56445213Y-9843659D01*
X56394266Y-9777263D01*
X56394260Y-9777256D01*
X56222743Y-9605739D01*
X56222736Y-9605733D01*
X56178067Y-9571457D01*
X61424499Y-9571457D01*
X61452379Y-9711614D01*
X61452381Y-9711620D01*
X61507069Y-9843650D01*
X61507074Y-9843659D01*
X61586467Y-9962478D01*
X61586470Y-9962482D01*
X61687517Y-10063529D01*
X61687521Y-10063532D01*
X61806340Y-10142925D01*
X61806349Y-10142930D01*
X61836258Y-10155318D01*
X61938380Y-10197619D01*
X61938384Y-10197619D01*
X61938385Y-10197620D01*
X62078542Y-10225500D01*
X62078545Y-10225500D01*
X62221457Y-10225500D01*
X62315751Y-10206742D01*
X62361620Y-10197619D01*
X62493653Y-10142929D01*
X62612479Y-10063532D01*
X62713532Y-9962479D01*
X62792929Y-9843653D01*
X62847619Y-9711620D01*
X62856742Y-9665751D01*
X62875500Y-9571457D01*
X62875500Y-9428542D01*
X62847620Y-9288385D01*
X62847619Y-9288384D01*
X62847619Y-9288380D01*
X62792929Y-9156347D01*
X62792928Y-9156346D01*
X62792925Y-9156340D01*
X62713532Y-9037521D01*
X62713529Y-9037517D01*
X62612482Y-8936470D01*
X62612478Y-8936467D01*
X62493659Y-8857074D01*
X62493650Y-8857069D01*
X62361620Y-8802381D01*
X62361614Y-8802379D01*
X62221457Y-8774500D01*
X62221455Y-8774500D01*
X62078545Y-8774500D01*
X62078543Y-8774500D01*
X61938385Y-8802379D01*
X61938379Y-8802381D01*
X61806349Y-8857069D01*
X61806340Y-8857074D01*
X61687521Y-8936467D01*
X61687517Y-8936470D01*
X61586470Y-9037517D01*
X61586467Y-9037521D01*
X61507074Y-9156340D01*
X61507069Y-9156349D01*
X61452381Y-9288379D01*
X61452379Y-9288385D01*
X61424500Y-9428542D01*
X61424500Y-9428545D01*
X61424500Y-9571455D01*
X61424500Y-9571457D01*
X61424499Y-9571457D01*
X56178067Y-9571457D01*
X56112087Y-9520829D01*
X56030293Y-9458067D01*
X56030292Y-9458066D01*
X56030289Y-9458064D01*
X55820212Y-9336776D01*
X55703386Y-9288385D01*
X55596104Y-9243947D01*
X55361785Y-9181161D01*
X55121289Y-9149500D01*
X55121288Y-9149500D01*
X54878712Y-9149500D01*
X54878711Y-9149500D01*
X54638214Y-9181161D01*
X54403895Y-9243947D01*
X54179794Y-9336773D01*
X54179785Y-9336777D01*
X53969706Y-9458067D01*
X53777263Y-9605733D01*
X53777256Y-9605739D01*
X53605739Y-9777256D01*
X53605733Y-9777263D01*
X53458067Y-9969706D01*
X53336777Y-10179785D01*
X53336773Y-10179794D01*
X53243947Y-10403895D01*
X53181161Y-10638214D01*
X53149500Y-10878711D01*
X5850500Y-10878711D01*
X5818838Y-10638211D01*
X5756054Y-10403900D01*
X5663224Y-10179788D01*
X5541936Y-9969711D01*
X5457925Y-9860225D01*
X27504700Y-9860225D01*
X27504700Y-10005175D01*
X27541612Y-10142930D01*
X27542217Y-10145188D01*
X27614688Y-10270711D01*
X27614690Y-10270713D01*
X27614691Y-10270715D01*
X27717185Y-10373209D01*
X27717186Y-10373210D01*
X27717188Y-10373211D01*
X27842711Y-10445682D01*
X27842712Y-10445682D01*
X27842715Y-10445684D01*
X27982725Y-10483200D01*
X27982728Y-10483200D01*
X28127672Y-10483200D01*
X28127675Y-10483200D01*
X28267685Y-10445684D01*
X28393215Y-10373209D01*
X28495709Y-10270715D01*
X28568184Y-10145185D01*
X28605700Y-10005175D01*
X28605700Y-9860225D01*
X28568184Y-9720215D01*
X28563218Y-9711614D01*
X28495711Y-9594688D01*
X28495706Y-9594682D01*
X28393217Y-9492193D01*
X28393211Y-9492188D01*
X28267688Y-9419717D01*
X28267689Y-9419717D01*
X28256206Y-9416640D01*
X28127675Y-9382200D01*
X27982725Y-9382200D01*
X27854193Y-9416640D01*
X27842711Y-9419717D01*
X27717188Y-9492188D01*
X27717182Y-9492193D01*
X27614693Y-9594682D01*
X27614688Y-9594688D01*
X27542217Y-9720211D01*
X27542216Y-9720215D01*
X27504700Y-9860225D01*
X5457925Y-9860225D01*
X5445213Y-9843659D01*
X5394266Y-9777263D01*
X5394260Y-9777256D01*
X5222743Y-9605739D01*
X5222736Y-9605733D01*
X5030293Y-9458067D01*
X5030292Y-9458066D01*
X5030289Y-9458064D01*
X4820212Y-9336776D01*
X4703386Y-9288385D01*
X4596104Y-9243947D01*
X4361785Y-9181161D01*
X4121289Y-9149500D01*
X4121288Y-9149500D01*
X3878712Y-9149500D01*
X3878711Y-9149500D01*
X3638214Y-9181161D01*
X3403895Y-9243947D01*
X3179794Y-9336773D01*
X3179785Y-9336777D01*
X2969706Y-9458067D01*
X2777263Y-9605733D01*
X2777256Y-9605739D01*
X2605739Y-9777256D01*
X2605733Y-9777263D01*
X2458067Y-9969706D01*
X2336777Y-10179785D01*
X2336773Y-10179794D01*
X2243947Y-10403895D01*
X2181161Y-10638214D01*
X2149500Y-10878711D01*
X500500Y-10878711D01*
X500500Y-7071457D01*
X61424499Y-7071457D01*
X61452379Y-7211614D01*
X61452381Y-7211620D01*
X61507069Y-7343650D01*
X61507074Y-7343659D01*
X61586467Y-7462478D01*
X61586470Y-7462482D01*
X61687517Y-7563529D01*
X61687521Y-7563532D01*
X61806340Y-7642925D01*
X61806346Y-7642928D01*
X61806347Y-7642929D01*
X61938380Y-7697619D01*
X61938384Y-7697619D01*
X61938385Y-7697620D01*
X62078542Y-7725500D01*
X62078545Y-7725500D01*
X62221457Y-7725500D01*
X62315751Y-7706742D01*
X62361620Y-7697619D01*
X62493653Y-7642929D01*
X62612479Y-7563532D01*
X62713532Y-7462479D01*
X62792929Y-7343653D01*
X62847619Y-7211620D01*
X62875500Y-7071455D01*
X62875500Y-6928545D01*
X62875500Y-6928542D01*
X62847620Y-6788385D01*
X62847619Y-6788384D01*
X62847619Y-6788380D01*
X62792929Y-6656347D01*
X62792928Y-6656346D01*
X62792925Y-6656340D01*
X62713532Y-6537521D01*
X62713529Y-6537517D01*
X62612482Y-6436470D01*
X62612478Y-6436467D01*
X62493659Y-6357074D01*
X62493650Y-6357069D01*
X62361620Y-6302381D01*
X62361614Y-6302379D01*
X62221457Y-6274500D01*
X62221455Y-6274500D01*
X62078545Y-6274500D01*
X62078543Y-6274500D01*
X61938385Y-6302379D01*
X61938379Y-6302381D01*
X61806349Y-6357069D01*
X61806340Y-6357074D01*
X61687521Y-6436467D01*
X61687517Y-6436470D01*
X61586470Y-6537517D01*
X61586467Y-6537521D01*
X61507074Y-6656340D01*
X61507069Y-6656349D01*
X61452381Y-6788379D01*
X61452379Y-6788385D01*
X61424500Y-6928542D01*
X61424500Y-6928545D01*
X61424500Y-7071455D01*
X61424500Y-7071457D01*
X61424499Y-7071457D01*
X500500Y-7071457D01*
X500500Y-4571457D01*
X61424499Y-4571457D01*
X61452379Y-4711614D01*
X61452381Y-4711620D01*
X61507069Y-4843650D01*
X61507074Y-4843659D01*
X61586467Y-4962478D01*
X61586470Y-4962482D01*
X61687517Y-5063529D01*
X61687521Y-5063532D01*
X61806340Y-5142925D01*
X61806346Y-5142928D01*
X61806347Y-5142929D01*
X61938380Y-5197619D01*
X61938384Y-5197619D01*
X61938385Y-5197620D01*
X62078542Y-5225500D01*
X62078545Y-5225500D01*
X62221457Y-5225500D01*
X62315751Y-5206742D01*
X62361620Y-5197619D01*
X62493653Y-5142929D01*
X62612479Y-5063532D01*
X62713532Y-4962479D01*
X62792929Y-4843653D01*
X62847619Y-4711620D01*
X62875500Y-4571455D01*
X62875500Y-4428545D01*
X62875500Y-4428542D01*
X62847620Y-4288385D01*
X62847619Y-4288384D01*
X62847619Y-4288380D01*
X62792929Y-4156347D01*
X62792928Y-4156346D01*
X62792925Y-4156340D01*
X62713532Y-4037521D01*
X62713529Y-4037517D01*
X62612482Y-3936470D01*
X62612478Y-3936467D01*
X62493659Y-3857074D01*
X62493650Y-3857069D01*
X62361620Y-3802381D01*
X62361614Y-3802379D01*
X62221457Y-3774500D01*
X62221455Y-3774500D01*
X62078545Y-3774500D01*
X62078543Y-3774500D01*
X61938385Y-3802379D01*
X61938379Y-3802381D01*
X61806349Y-3857069D01*
X61806340Y-3857074D01*
X61687521Y-3936467D01*
X61687517Y-3936470D01*
X61586470Y-4037517D01*
X61586467Y-4037521D01*
X61507074Y-4156340D01*
X61507069Y-4156349D01*
X61452381Y-4288379D01*
X61452379Y-4288385D01*
X61424500Y-4428542D01*
X61424500Y-4428545D01*
X61424500Y-4571455D01*
X61424500Y-4571457D01*
X61424499Y-4571457D01*
X500500Y-4571457D01*
X500500Y-3071457D01*
X4274499Y-3071457D01*
X4302379Y-3211614D01*
X4302381Y-3211620D01*
X4357069Y-3343650D01*
X4357074Y-3343659D01*
X4436467Y-3462478D01*
X4436470Y-3462482D01*
X4537517Y-3563529D01*
X4537521Y-3563532D01*
X4656340Y-3642925D01*
X4656346Y-3642928D01*
X4656347Y-3642929D01*
X4788380Y-3697619D01*
X4788384Y-3697619D01*
X4788385Y-3697620D01*
X4928542Y-3725500D01*
X4928545Y-3725500D01*
X5071457Y-3725500D01*
X5165751Y-3706742D01*
X5211620Y-3697619D01*
X5343653Y-3642929D01*
X5462479Y-3563532D01*
X5563532Y-3462479D01*
X5642929Y-3343653D01*
X5697619Y-3211620D01*
X5725500Y-3071457D01*
X6774499Y-3071457D01*
X6802379Y-3211614D01*
X6802381Y-3211620D01*
X6857069Y-3343650D01*
X6857074Y-3343659D01*
X6936467Y-3462478D01*
X6936470Y-3462482D01*
X7037517Y-3563529D01*
X7037521Y-3563532D01*
X7156340Y-3642925D01*
X7156346Y-3642928D01*
X7156347Y-3642929D01*
X7288380Y-3697619D01*
X7288384Y-3697619D01*
X7288385Y-3697620D01*
X7428542Y-3725500D01*
X7428545Y-3725500D01*
X7571457Y-3725500D01*
X7665751Y-3706742D01*
X7711620Y-3697619D01*
X7843653Y-3642929D01*
X7962479Y-3563532D01*
X8063532Y-3462479D01*
X8142929Y-3343653D01*
X8197619Y-3211620D01*
X8225500Y-3071457D01*
X9274499Y-3071457D01*
X9302379Y-3211614D01*
X9302381Y-3211620D01*
X9357069Y-3343650D01*
X9357074Y-3343659D01*
X9436467Y-3462478D01*
X9436470Y-3462482D01*
X9537517Y-3563529D01*
X9537521Y-3563532D01*
X9656340Y-3642925D01*
X9656346Y-3642928D01*
X9656347Y-3642929D01*
X9788380Y-3697619D01*
X9788384Y-3697619D01*
X9788385Y-3697620D01*
X9928542Y-3725500D01*
X9928545Y-3725500D01*
X10071457Y-3725500D01*
X10165751Y-3706742D01*
X10211620Y-3697619D01*
X10343653Y-3642929D01*
X10462479Y-3563532D01*
X10563532Y-3462479D01*
X10642929Y-3343653D01*
X10697619Y-3211620D01*
X10725500Y-3071457D01*
X11774499Y-3071457D01*
X11802379Y-3211614D01*
X11802381Y-3211620D01*
X11857069Y-3343650D01*
X11857074Y-3343659D01*
X11936467Y-3462478D01*
X11936470Y-3462482D01*
X12037517Y-3563529D01*
X12037521Y-3563532D01*
X12156340Y-3642925D01*
X12156346Y-3642928D01*
X12156347Y-3642929D01*
X12288380Y-3697619D01*
X12288384Y-3697619D01*
X12288385Y-3697620D01*
X12428542Y-3725500D01*
X12428545Y-3725500D01*
X12571457Y-3725500D01*
X12665751Y-3706742D01*
X12711620Y-3697619D01*
X12843653Y-3642929D01*
X12962479Y-3563532D01*
X13063532Y-3462479D01*
X13142929Y-3343653D01*
X13197619Y-3211620D01*
X13225010Y-3073920D01*
X21249499Y-3073920D01*
X21278340Y-3218907D01*
X21278343Y-3218917D01*
X21334912Y-3355488D01*
X21334919Y-3355501D01*
X21417048Y-3478415D01*
X21417051Y-3478419D01*
X21521580Y-3582948D01*
X21521584Y-3582951D01*
X21644498Y-3665080D01*
X21644511Y-3665087D01*
X21781082Y-3721656D01*
X21781087Y-3721658D01*
X21781091Y-3721658D01*
X21781092Y-3721659D01*
X21926079Y-3750500D01*
X21926082Y-3750500D01*
X22073920Y-3750500D01*
X22199598Y-3725500D01*
X22218913Y-3721658D01*
X22355495Y-3665084D01*
X22478416Y-3582951D01*
X22582951Y-3478416D01*
X22665084Y-3355495D01*
X22721658Y-3218913D01*
X22750500Y-3073920D01*
X23749499Y-3073920D01*
X23778340Y-3218907D01*
X23778343Y-3218917D01*
X23834912Y-3355488D01*
X23834919Y-3355501D01*
X23917048Y-3478415D01*
X23917051Y-3478419D01*
X24021580Y-3582948D01*
X24021584Y-3582951D01*
X24144498Y-3665080D01*
X24144511Y-3665087D01*
X24281082Y-3721656D01*
X24281087Y-3721658D01*
X24281091Y-3721658D01*
X24281092Y-3721659D01*
X24426079Y-3750500D01*
X24426082Y-3750500D01*
X24573920Y-3750500D01*
X24699598Y-3725500D01*
X24718913Y-3721658D01*
X24855495Y-3665084D01*
X24978416Y-3582951D01*
X25082951Y-3478416D01*
X25165084Y-3355495D01*
X25221658Y-3218913D01*
X25250500Y-3073918D01*
X25250500Y-2926082D01*
X25250500Y-2926079D01*
X25221659Y-2781092D01*
X25221658Y-2781091D01*
X25221658Y-2781087D01*
X25169990Y-2656349D01*
X25165087Y-2644511D01*
X25165080Y-2644498D01*
X25082951Y-2521584D01*
X25082948Y-2521580D01*
X24978419Y-2417051D01*
X24978415Y-2417048D01*
X24855501Y-2334919D01*
X24855488Y-2334912D01*
X24718917Y-2278343D01*
X24718907Y-2278340D01*
X24573920Y-2249500D01*
X24573918Y-2249500D01*
X24426082Y-2249500D01*
X24426080Y-2249500D01*
X24281092Y-2278340D01*
X24281082Y-2278343D01*
X24144511Y-2334912D01*
X24144498Y-2334919D01*
X24021584Y-2417048D01*
X24021580Y-2417051D01*
X23917051Y-2521580D01*
X23917048Y-2521584D01*
X23834919Y-2644498D01*
X23834912Y-2644511D01*
X23778343Y-2781082D01*
X23778340Y-2781092D01*
X23749500Y-2926079D01*
X23749500Y-2926082D01*
X23749500Y-3073918D01*
X23749500Y-3073920D01*
X23749499Y-3073920D01*
X22750500Y-3073920D01*
X22750500Y-3073918D01*
X22750500Y-2926082D01*
X22750500Y-2926079D01*
X22721659Y-2781092D01*
X22721658Y-2781091D01*
X22721658Y-2781087D01*
X22669990Y-2656349D01*
X22665087Y-2644511D01*
X22665080Y-2644498D01*
X22582951Y-2521584D01*
X22582948Y-2521580D01*
X22478419Y-2417051D01*
X22478415Y-2417048D01*
X22355501Y-2334919D01*
X22355488Y-2334912D01*
X22218917Y-2278343D01*
X22218907Y-2278340D01*
X22073920Y-2249500D01*
X22073918Y-2249500D01*
X21926082Y-2249500D01*
X21926080Y-2249500D01*
X21781092Y-2278340D01*
X21781082Y-2278343D01*
X21644511Y-2334912D01*
X21644498Y-2334919D01*
X21521584Y-2417048D01*
X21521580Y-2417051D01*
X21417051Y-2521580D01*
X21417048Y-2521584D01*
X21334919Y-2644498D01*
X21334912Y-2644511D01*
X21278343Y-2781082D01*
X21278340Y-2781092D01*
X21249500Y-2926079D01*
X21249500Y-2926082D01*
X21249500Y-3073918D01*
X21249500Y-3073920D01*
X21249499Y-3073920D01*
X13225010Y-3073920D01*
X13225500Y-3071455D01*
X13225500Y-2928545D01*
X13197619Y-2788380D01*
X13142929Y-2656347D01*
X13142928Y-2656346D01*
X13142925Y-2656340D01*
X13063532Y-2537521D01*
X13063529Y-2537517D01*
X12962482Y-2436470D01*
X12962478Y-2436467D01*
X12843659Y-2357074D01*
X12843650Y-2357069D01*
X12711620Y-2302381D01*
X12711614Y-2302379D01*
X12571457Y-2274500D01*
X12571455Y-2274500D01*
X12428545Y-2274500D01*
X12428543Y-2274500D01*
X12288385Y-2302379D01*
X12288379Y-2302381D01*
X12156349Y-2357069D01*
X12156340Y-2357074D01*
X12037521Y-2436467D01*
X12037517Y-2436470D01*
X11936470Y-2537517D01*
X11936467Y-2537521D01*
X11857074Y-2656340D01*
X11857069Y-2656349D01*
X11802381Y-2788379D01*
X11802379Y-2788385D01*
X11774500Y-2928542D01*
X11774500Y-2928545D01*
X11774500Y-3071455D01*
X11774500Y-3071457D01*
X11774499Y-3071457D01*
X10725500Y-3071457D01*
X10725500Y-3071455D01*
X10725500Y-2928545D01*
X10725500Y-2928542D01*
X10697620Y-2788385D01*
X10697619Y-2788384D01*
X10697619Y-2788380D01*
X10642929Y-2656347D01*
X10642928Y-2656346D01*
X10642925Y-2656340D01*
X10563532Y-2537521D01*
X10563529Y-2537517D01*
X10462482Y-2436470D01*
X10462478Y-2436467D01*
X10343659Y-2357074D01*
X10343650Y-2357069D01*
X10211620Y-2302381D01*
X10211614Y-2302379D01*
X10071457Y-2274500D01*
X10071455Y-2274500D01*
X9928545Y-2274500D01*
X9928543Y-2274500D01*
X9788385Y-2302379D01*
X9788379Y-2302381D01*
X9656349Y-2357069D01*
X9656340Y-2357074D01*
X9537521Y-2436467D01*
X9537517Y-2436470D01*
X9436470Y-2537517D01*
X9436467Y-2537521D01*
X9357074Y-2656340D01*
X9357069Y-2656349D01*
X9302381Y-2788379D01*
X9302379Y-2788385D01*
X9274500Y-2928542D01*
X9274500Y-2928545D01*
X9274500Y-3071455D01*
X9274500Y-3071457D01*
X9274499Y-3071457D01*
X8225500Y-3071457D01*
X8225500Y-3071455D01*
X8225500Y-2928545D01*
X8225500Y-2928542D01*
X8197620Y-2788385D01*
X8197619Y-2788384D01*
X8197619Y-2788380D01*
X8142929Y-2656347D01*
X8142928Y-2656346D01*
X8142925Y-2656340D01*
X8063532Y-2537521D01*
X8063529Y-2537517D01*
X7962482Y-2436470D01*
X7962478Y-2436467D01*
X7843659Y-2357074D01*
X7843650Y-2357069D01*
X7711620Y-2302381D01*
X7711614Y-2302379D01*
X7571457Y-2274500D01*
X7571455Y-2274500D01*
X7428545Y-2274500D01*
X7428543Y-2274500D01*
X7288385Y-2302379D01*
X7288379Y-2302381D01*
X7156349Y-2357069D01*
X7156340Y-2357074D01*
X7037521Y-2436467D01*
X7037517Y-2436470D01*
X6936470Y-2537517D01*
X6936467Y-2537521D01*
X6857074Y-2656340D01*
X6857069Y-2656349D01*
X6802381Y-2788379D01*
X6802379Y-2788385D01*
X6774500Y-2928542D01*
X6774500Y-2928545D01*
X6774500Y-3071455D01*
X6774500Y-3071457D01*
X6774499Y-3071457D01*
X5725500Y-3071457D01*
X5725500Y-3071455D01*
X5725500Y-2928545D01*
X5725500Y-2928542D01*
X5697620Y-2788385D01*
X5697619Y-2788384D01*
X5697619Y-2788380D01*
X5642929Y-2656347D01*
X5642928Y-2656346D01*
X5642925Y-2656340D01*
X5563532Y-2537521D01*
X5563529Y-2537517D01*
X5462482Y-2436470D01*
X5462478Y-2436467D01*
X5343659Y-2357074D01*
X5343650Y-2357069D01*
X5211620Y-2302381D01*
X5211614Y-2302379D01*
X5071457Y-2274500D01*
X5071455Y-2274500D01*
X4928545Y-2274500D01*
X4928543Y-2274500D01*
X4788385Y-2302379D01*
X4788379Y-2302381D01*
X4656349Y-2357069D01*
X4656340Y-2357074D01*
X4537521Y-2436467D01*
X4537517Y-2436470D01*
X4436470Y-2537517D01*
X4436467Y-2537521D01*
X4357074Y-2656340D01*
X4357069Y-2656349D01*
X4302381Y-2788379D01*
X4302379Y-2788385D01*
X4274500Y-2928542D01*
X4274500Y-2928545D01*
X4274500Y-3071455D01*
X4274500Y-3071457D01*
X4274499Y-3071457D01*
X500500Y-3071457D01*
X500500Y-624500D01*
X520185Y-557461D01*
X572989Y-511706D01*
X624500Y-500500D01*
X64375500Y-500500D01*
X64442539Y-520185D01*
G37*
%TD.AperFunction*%
%TD*%
M02*
