M48
; DRILL file KiCad 10.0.4-10.0.4~ubuntu24.04.1 date 2026-06-30T16:25:03
; FORMAT={-:-/ absolute / metric / decimal}
; #@! TF.CreationDate,2026-06-30T16:25:03-06:00
; #@! TF.GenerationSoftware,Kicad,Pcbnew,10.0.4-10.0.4~ubuntu24.04.1
; #@! TF.FileFunction,MixedPlating,1,4
FMAT,2
METRIC
; #@! TA.AperFunction,Plated,PTH,ViaDrill
T1C0.300
; #@! TA.AperFunction,Plated,PTH,ViaDrill
T2C0.400
; #@! TA.AperFunction,Plated,PTH,ComponentDrill
T3C0.800
; #@! TA.AperFunction,Plated,PTH,ComponentDrill
T4C0.950
; #@! TA.AperFunction,Plated,PTH,ComponentDrill
T5C1.000
; #@! TA.AperFunction,NonPlated,NPTH,ComponentDrill
T6C3.200
%
G90
G05
T1
X7.943Y-29.494
X8.046Y-32.09
X13.239Y-17.864
X14.495Y-20.496
X15.417Y-44.333
X16.2Y-35.398
X16.241Y-56.467
X19.164Y-35.733
X19.164Y-55.8
X20.203Y-35.742
X22.104Y-22.044
X27.509Y-32.785
X28.055Y-9.933
X28.055Y-50.055
X29.0Y-20.49
X29.128Y-36.654
X33.983Y-27.37
X33.983Y-33.08
X33.983Y-36.651
X37.522Y-32.893
X51.103Y-30.0
X60.237Y-30.529
T2
X5.552Y-24.266
X6.303Y-15.666
X7.247Y-32.743
X7.449Y-27.133
X8.353Y-21.254
X10.535Y-58.29
X26.537Y-47.379
X26.953Y-44.141
X27.146Y-52.49
X27.618Y-41.466
X29.063Y-41.02
X29.1Y-23.02
X30.975Y-25.49
X30.978Y-32.409
X30.979Y-38.02
X30.985Y-35.091
X31.386Y-21.338
X32.273Y-50.793
X54.271Y-16.749
T3
X38.0Y-50.0
X40.0Y-50.0
T4
X1.5Y-34.0
X1.5Y-36.5
X1.5Y-39.0
X1.5Y-41.5
X35.0Y-57.0
X37.5Y-57.0
X40.0Y-57.0
X62.15Y-4.5
X62.15Y-7.0
X62.15Y-9.5
X62.15Y-12.0
X62.15Y-14.5
X62.15Y-17.0
X62.15Y-29.5
X62.15Y-32.0
X62.15Y-34.5
X62.15Y-37.0
X62.15Y-39.5
X62.15Y-42.0
T5
X1.5Y-20.0
X1.5Y-22.5
X5.0Y-3.0
X7.54Y-3.0
X10.08Y-3.0
X12.62Y-3.0
X22.0Y-3.0
X24.5Y-3.0
X25.0Y-57.0
X27.5Y-57.0
X38.38Y-19.11
X38.38Y-21.65
X38.38Y-24.19
X38.38Y-26.73
X38.38Y-29.27
X38.38Y-31.81
X38.38Y-34.35
X38.38Y-36.89
X46.0Y-50.0
X51.0Y-50.0
X53.62Y-19.11
X53.62Y-21.65
X53.62Y-24.19
X53.62Y-26.73
X53.62Y-29.27
X53.62Y-31.81
X53.62Y-34.35
X53.62Y-36.89
T6
X4.0Y-11.0
X4.0Y-56.0
X55.0Y-11.0
X55.0Y-56.0
M30
