%TF.GenerationSoftware,KiCad,Pcbnew,10.0.4-10.0.4~ubuntu24.04.1*%
%TF.CreationDate,2026-06-26T14:02:44-06:00*%
%TF.ProjectId,robot-buddy-reflex,726f626f-742d-4627-9564-64792d726566,rev?*%
%TF.SameCoordinates,Original*%
%TF.FileFunction,Copper,L1,Top*%
%TF.FilePolarity,Positive*%
%FSLAX46Y46*%
G04 Gerber Fmt 4.6, Leading zero omitted, Abs format (unit mm)*
G04 Created by KiCad (PCBNEW 10.0.4-10.0.4~ubuntu24.04.1) date 2026-06-26 14:02:44*
%MOMM*%
%LPD*%
G01*
G04 APERTURE LIST*
G04 Aperture macros list*
%AMRoundRect*
0 Rectangle with rounded corners*
0 $1 Rounding radius*
0 $2 $3 $4 $5 $6 $7 $8 $9 X,Y pos of 4 corners*
0 Add a 4 corners polygon primitive as box body*
4,1,4,$2,$3,$4,$5,$6,$7,$8,$9,$2,$3,0*
0 Add four circle primitives for the rounded corners*
1,1,$1+$1,$2,$3*
1,1,$1+$1,$4,$5*
1,1,$1+$1,$6,$7*
1,1,$1+$1,$8,$9*
0 Add four rect primitives between the rounded corners*
20,1,$1+$1,$2,$3,$4,$5,0*
20,1,$1+$1,$4,$5,$6,$7,0*
20,1,$1+$1,$6,$7,$8,$9,0*
20,1,$1+$1,$8,$9,$2,$3,0*%
G04 Aperture macros list end*
%TA.AperFunction,ComponentPad*%
%ADD10RoundRect,0.250000X-0.600000X-0.725000X0.600000X-0.725000X0.600000X0.725000X-0.600000X0.725000X0*%
%TD*%
%TA.AperFunction,SMDPad,CuDef*%
%ADD11RoundRect,0.135000X-0.135000X-0.185000X0.135000X-0.185000X0.135000X0.185000X-0.135000X0.185000X0*%
%TD*%
%TA.AperFunction,ComponentPad*%
%ADD12O,1.700000X1.950000*%
%TD*%
%TA.AperFunction,SMDPad,CuDef*%
%ADD13R,2.760000X1.500000*%
%TD*%
%TA.AperFunction,SMDPad,CuDef*%
%ADD14R,1.300000X1.300000*%
%TD*%
%TA.AperFunction,SMDPad,CuDef*%
%ADD15RoundRect,0.140000X-0.140000X-0.170000X0.140000X-0.170000X0.140000X0.170000X-0.140000X0.170000X0*%
%TD*%
%TA.AperFunction,ComponentPad*%
%ADD16R,1.700000X1.700000*%
%TD*%
%TA.AperFunction,ComponentPad*%
%ADD17C,1.700000*%
%TD*%
%TA.AperFunction,ComponentPad*%
%ADD18RoundRect,0.250000X-0.600000X-0.750000X0.600000X-0.750000X0.600000X0.750000X-0.600000X0.750000X0*%
%TD*%
%TA.AperFunction,SMDPad,CuDef*%
%ADD19RoundRect,0.150000X-0.150000X-0.625000X0.150000X-0.625000X0.150000X0.625000X-0.150000X0.625000X0*%
%TD*%
%TA.AperFunction,SMDPad,CuDef*%
%ADD20RoundRect,0.250000X-0.350000X-0.650000X0.350000X-0.650000X0.350000X0.650000X-0.350000X0.650000X0*%
%TD*%
%TA.AperFunction,ViaPad*%
%ADD21C,0.600000*%
%TD*%
%TA.AperFunction,ViaPad*%
%ADD22C,0.800000*%
%TD*%
%TA.AperFunction,Conductor*%
%ADD23C,0.500000*%
%TD*%
%TA.AperFunction,Conductor*%
%ADD24C,0.250000*%
%TD*%
G04 APERTURE END LIST*
D10*
%TO.P,J6,1*%
%TO.N,+5V*%
X5000000Y-3000000D03*
%TD*%
D11*
%TO.P,R9,1*%
%TO.N,/BAT_SENSE*%
X6500000Y-25510000D03*
%TO.P,R9,2*%
%TO.N,GND*%
X6500000Y-24490000D03*
%TD*%
%TO.P,R1,1*%
%TO.N,/PWMA*%
X30000000Y-33510000D03*
%TO.P,R1,2*%
%TO.N,GND*%
X30000000Y-32490000D03*
%TD*%
D12*
%TO.P,J2,2*%
%TO.N,/BO2*%
X62150000Y-39500000D03*
%TO.P,J2,6*%
%TO.N,/ENC_RB*%
X62150000Y-29500000D03*
%TD*%
D13*
%TO.P,U1,1*%
%TO.N,+5V*%
X10380000Y-17590000D03*
%TO.P,U1,2*%
%TO.N,GND*%
X10380000Y-20130000D03*
%TO.P,U1,3*%
%TO.N,+3V3*%
X10380000Y-22670000D03*
%TO.P,U1,4*%
%TO.N,/BAT_SENSE*%
X10380000Y-25210000D03*
%TO.P,U1,5*%
%TO.N,/ECHO_DIV*%
X10380000Y-27750000D03*
%TO.P,U1,6*%
%TO.N,/TRIG*%
X10380000Y-30290000D03*
%TO.P,U1,7*%
%TO.N,/PWMA*%
X10380000Y-32830000D03*
%TO.P,U1,8*%
%TO.N,/PWMB*%
X10380000Y-35370000D03*
%TO.P,U1,9*%
%TO.N,/AIN1*%
X10380000Y-37910000D03*
D14*
%TO.P,U1,10*%
%TO.N,unconnected-(U1-GPIO45-Pad10)*%
X13870000Y-30840000D03*
%TO.P,U1,11*%
%TO.N,unconnected-(U1-GPIO42-Pad11)*%
X13870000Y-32430000D03*
%TO.P,U1,12*%
%TO.N,unconnected-(U1-GPIO41-Pad12)*%
X13870000Y-34020000D03*
%TO.P,U1,13*%
%TO.N,unconnected-(U1-GPIO40-Pad13)*%
X13870000Y-35610000D03*
%TO.P,U1,14*%
%TO.N,/BIN2*%
X22220000Y-30840000D03*
%TO.P,U1,15*%
%TO.N,/BIN1*%
X22220000Y-32430000D03*
%TO.P,U1,16*%
%TO.N,/SCL*%
X22220000Y-34020000D03*
%TO.P,U1,17*%
%TO.N,/SDA*%
X22220000Y-35610000D03*
D13*
%TO.P,U1,18*%
%TO.N,/UART_TX*%
X25620000Y-17590000D03*
%TO.P,U1,19*%
%TO.N,/UART_RX*%
X25620000Y-20130000D03*
%TO.P,U1,20*%
%TO.N,/ESTOP*%
X25620000Y-22670000D03*
%TO.P,U1,21*%
%TO.N,/ENC_RB*%
X25620000Y-25210000D03*
%TO.P,U1,22*%
%TO.N,/ENC_RA*%
X25620000Y-27750000D03*
%TO.P,U1,23*%
%TO.N,/ENC_LB*%
X25620000Y-30290000D03*
%TO.P,U1,24*%
%TO.N,/ENC_LA*%
X25620000Y-32830000D03*
%TO.P,U1,25*%
%TO.N,/STBY*%
X25620000Y-35370000D03*
%TO.P,U1,26*%
%TO.N,/AIN2*%
X25620000Y-37910000D03*
%TD*%
D15*
%TO.P,C1,1*%
%TO.N,/ESTOP*%
X30000000Y-23980000D03*
%TO.P,C1,2*%
%TO.N,GND*%
X30000000Y-23020000D03*
%TD*%
D11*
%TO.P,R3,1*%
%TO.N,/STBY*%
X30000000Y-26510000D03*
%TO.P,R3,2*%
%TO.N,GND*%
X30000000Y-25490000D03*
%TD*%
D16*
%TO.P,U2,1*%
%TO.N,/PWMA*%
X38380000Y-19110000D03*
D17*
%TO.P,U2,2*%
%TO.N,/AIN2*%
X38380000Y-21650000D03*
%TO.P,U2,3*%
%TO.N,/AIN1*%
X38380000Y-24190000D03*
%TO.P,U2,4*%
%TO.N,/STBY*%
X38380000Y-26730000D03*
%TO.P,U2,5*%
%TO.N,/BIN1*%
X38380000Y-29270000D03*
%TO.P,U2,6*%
%TO.N,/BIN2*%
X38380000Y-31810000D03*
%TO.P,U2,7*%
%TO.N,/PWMB*%
X38380000Y-34350000D03*
%TO.P,U2,8*%
%TO.N,GND*%
X38380000Y-36890000D03*
%TO.P,U2,9*%
%TO.N,+BATT*%
X53620000Y-19110000D03*
%TO.P,U2,10*%
%TO.N,+3V3*%
X53620000Y-21650000D03*
%TO.P,U2,11*%
%TO.N,/AO1*%
X53620000Y-24190000D03*
%TO.P,U2,12*%
%TO.N,/AO2*%
X53620000Y-26730000D03*
%TO.P,U2,13*%
%TO.N,GND*%
X53620000Y-29270000D03*
%TO.P,U2,14*%
%TO.N,/BO2*%
X53620000Y-31810000D03*
%TO.P,U2,15*%
%TO.N,/BO1*%
X53620000Y-34350000D03*
%TO.P,U2,16*%
%TO.N,+BATT*%
X53620000Y-36890000D03*
%TD*%
D11*
%TO.P,R4,1*%
%TO.N,+3V3*%
X30000000Y-21510000D03*
%TO.P,R4,2*%
%TO.N,/ESTOP*%
X30000000Y-20490000D03*
%TD*%
D18*
%TO.P,J8,1*%
%TO.N,+BATT*%
X1500000Y-20000000D03*
%TD*%
D15*
%TO.P,C4,1*%
%TO.N,+BATT*%
X30000000Y-39080000D03*
%TO.P,C4,2*%
%TO.N,GND*%
X30000000Y-38120000D03*
%TD*%
D11*
%TO.P,R7,1*%
%TO.N,/ECHO_MID*%
X6500000Y-37510000D03*
%TO.P,R7,2*%
%TO.N,/ECHO_DIV*%
X6500000Y-36490000D03*
%TD*%
D19*
%TO.P,J5,1*%
%TO.N,GND*%
X11500000Y-57325000D03*
%TO.P,J5,2*%
%TO.N,+3V3*%
X12500000Y-57325000D03*
%TO.P,J5,3*%
%TO.N,/SDA*%
X13500000Y-57325000D03*
%TO.P,J5,4*%
%TO.N,/SCL*%
X14500000Y-57325000D03*
D20*
%TO.P,J5,MP*%
%TO.N,N/C*%
X10200000Y-54800000D03*
X15800000Y-54800000D03*
%TD*%
D11*
%TO.P,R2,1*%
%TO.N,/PWMB*%
X30000000Y-36010000D03*
%TO.P,R2,2*%
%TO.N,GND*%
X30000000Y-34990000D03*
%TD*%
D10*
%TO.P,J1,1*%
%TO.N,/AO1*%
X62150000Y-17000000D03*
D12*
%TO.P,J1,3*%
%TO.N,+5V*%
X62150000Y-12000000D03*
%TO.P,J1,5*%
%TO.N,/ENC_LA*%
X62150000Y-7000000D03*
%TD*%
D15*
%TO.P,C5,1*%
%TO.N,+3V3*%
X30000000Y-41980000D03*
%TO.P,C5,2*%
%TO.N,GND*%
X30000000Y-41020000D03*
%TD*%
D11*
%TO.P,R8,1*%
%TO.N,+BATT*%
X6500000Y-22510000D03*
%TO.P,R8,2*%
%TO.N,/BAT_SENSE*%
X6500000Y-21490000D03*
%TD*%
%TO.P,R5,1*%
%TO.N,/ECHO_IN*%
X6500000Y-31510000D03*
%TO.P,R5,2*%
%TO.N,/ECHO_MID*%
X6500000Y-30490000D03*
%TD*%
D15*
%TO.P,C2,1*%
%TO.N,/BAT_SENSE*%
X6500000Y-28480000D03*
%TO.P,C2,2*%
%TO.N,GND*%
X6500000Y-27520000D03*
%TD*%
D11*
%TO.P,R6,1*%
%TO.N,/ECHO_MID*%
X6600000Y-34510000D03*
%TO.P,R6,2*%
%TO.N,GND*%
X6600000Y-33490000D03*
%TD*%
D21*
%TO.N,/TRIG*%
X7943400Y-29494400D03*
%TO.N,/ECHO_IN*%
X8046500Y-32089700D03*
D22*
%TO.N,GND*%
X30984600Y-35090700D03*
X30978500Y-38020000D03*
D21*
X29100000Y-23020000D03*
D22*
X30977900Y-32409000D03*
X10535100Y-58289900D03*
X8353200Y-21254400D03*
X29063500Y-41020000D03*
X30975300Y-25490000D03*
X5552200Y-24266200D03*
X7246800Y-32743200D03*
X7448800Y-27132900D03*
D21*
%TO.N,/ESTOP*%
X29000000Y-20490000D03*
X22104200Y-22043600D03*
D22*
%TO.N,+BATT*%
X54271300Y-16749100D03*
D21*
%TO.N,/PWMA*%
X33982600Y-27370500D03*
X33982600Y-33080400D03*
%TO.N,/ENC_RA*%
X60237000Y-30529000D03*
%TO.N,+3V3*%
X28268500Y-21055600D03*
D22*
X28632700Y-38833800D03*
D21*
%TO.N,/AIN1*%
X33982600Y-36650700D03*
%TO.N,/SCL*%
X16241400Y-56467100D03*
X19164100Y-35733000D03*
%TO.N,/SDA*%
X20202700Y-35742400D03*
X19164100Y-55799900D03*
%TO.N,/ENC_LB*%
X51103000Y-29999600D03*
%TO.N,/ENC_LA*%
X27509300Y-32784900D03*
X28055200Y-9932700D03*
%TO.N,/STBY*%
X37521900Y-32893200D03*
%TO.N,/AIN2*%
X29128100Y-36653700D03*
%TD*%
%TO.N,+5V*%
D23*
X10380000Y-17590000D02*
X8498300Y-17590000D01*
X8498300Y-17590000D02*
X8498300Y-13344300D01*
X8498300Y-13344300D02*
X59454000Y-13344300D01*
X8498300Y-6498300D02*
X5000000Y-3000000D01*
X8498300Y-13344300D02*
X8498300Y-6498300D01*
X62150000Y-12000000D02*
X60798300Y-12000000D01*
X59454000Y-13344300D02*
X60798300Y-12000000D01*
%TO.N,/TRIG*%
D24*
X12100000Y-33907000D02*
X12100000Y-31626000D01*
X7943400Y-31084400D02*
X8673300Y-31814300D01*
X8673300Y-33715400D02*
X8864600Y-33906700D01*
X7943400Y-29494400D02*
X7943400Y-31084400D01*
X11500000Y-31600000D02*
X11500000Y-30915000D01*
X8673300Y-31814300D02*
X8673300Y-33715400D01*
X11500000Y-30915000D02*
X11005000Y-30915000D01*
X12100000Y-31626000D02*
X11500000Y-31600000D01*
X11005000Y-30915000D02*
X10380000Y-30290000D01*
X8865000Y-33907000D02*
X12100000Y-33907000D01*
%TO.N,/ECHO_IN*%
X7466800Y-31510000D02*
X8046500Y-32089700D01*
X6500000Y-31510000D02*
X7466800Y-31510000D01*
%TO.N,GND*%
X6600000Y-33490000D02*
X7247000Y-32743000D01*
D23*
X10380000Y-20130000D02*
X8498300Y-20130000D01*
X7448800Y-27132900D02*
X6887100Y-27132900D01*
X30000000Y-25490000D02*
X30975300Y-25490000D01*
X8498300Y-21109300D02*
X8498300Y-20130000D01*
X10535100Y-58289900D02*
X11500000Y-57325000D01*
X29063500Y-41020000D02*
X30000000Y-41020000D01*
X6887100Y-27132900D02*
X6500000Y-27520000D01*
X6276200Y-24266200D02*
X6500000Y-24490000D01*
X30977900Y-32409000D02*
X30081000Y-32409000D01*
X30100700Y-35090700D02*
X30984600Y-35090700D01*
X5552200Y-24266200D02*
X6276200Y-24266200D01*
X30000000Y-34990000D02*
X30100700Y-35090700D01*
D24*
X30000000Y-38120000D02*
X30979000Y-38020000D01*
D23*
X30081000Y-32409000D02*
X30000000Y-32490000D01*
X8353200Y-21254400D02*
X8498300Y-21109300D01*
D24*
X30000000Y-23020000D02*
X29100000Y-23020000D01*
%TO.N,/ESTOP*%
X27326700Y-22670000D02*
X28636700Y-23980000D01*
X22730600Y-22670000D02*
X22104200Y-22043600D01*
X25620000Y-22670000D02*
X26473400Y-22670000D01*
X26798500Y-22670000D02*
X27326700Y-22670000D01*
X28636700Y-23980000D02*
X30000000Y-23980000D01*
X25620000Y-22670000D02*
X22730600Y-22670000D01*
X26473400Y-22670000D02*
X26798500Y-22670000D01*
X30000000Y-20490000D02*
X29000000Y-20490000D01*
%TO.N,+BATT*%
X30000000Y-38980000D02*
X30000000Y-39080000D01*
D23*
X29476100Y-16749100D02*
X54271300Y-16749100D01*
X51530000Y-38980000D02*
X30000000Y-38980000D01*
X1500000Y-20000000D02*
X2621700Y-18878300D01*
X2621700Y-18878300D02*
X27346900Y-18878300D01*
X4010000Y-22510000D02*
X1500000Y-20000000D01*
X53620000Y-36890000D02*
X51530000Y-38980000D01*
X6500000Y-22510000D02*
X4010000Y-22510000D01*
X27346900Y-18878300D02*
X29476100Y-16749100D01*
%TO.N,/BAT_SENSE*%
D24*
X7154000Y-21490000D02*
X7154000Y-25210000D01*
X5500000Y-26386000D02*
X6500000Y-25386000D01*
X5500000Y-27594000D02*
X5500000Y-26386000D01*
X7154100Y-25210000D02*
X6800000Y-25210000D01*
X6800000Y-25210000D02*
X6500000Y-25510000D01*
X6386000Y-28480000D02*
X5500000Y-27594000D01*
X6500000Y-21490000D02*
X7154000Y-21490000D01*
X6500000Y-28480000D02*
X6386000Y-28480000D01*
X10380000Y-25210000D02*
X7154100Y-25210000D01*
%TO.N,/PWMA*%
X11895400Y-29213300D02*
X12086700Y-29404600D01*
X12768800Y-30129000D02*
X16294100Y-26603700D01*
X10380000Y-32830000D02*
X10327900Y-32830000D01*
X29073900Y-27370500D02*
X33982600Y-27370500D01*
X10327900Y-32830000D02*
X8673300Y-31175400D01*
X12769000Y-31175000D02*
X12769000Y-31292000D01*
X8673300Y-29404600D02*
X8864600Y-29213300D01*
X12768800Y-31292100D02*
X12768800Y-30129000D01*
X33982600Y-33080400D02*
X33553000Y-33510000D01*
X33553000Y-33510000D02*
X30000000Y-33510000D01*
X28307100Y-26603700D02*
X29073900Y-27370500D01*
X12086700Y-29404600D02*
X12086700Y-31175400D01*
X16294100Y-26603700D02*
X28307100Y-26603700D01*
X12087000Y-31175000D02*
X12769000Y-31175000D01*
X8673300Y-31175400D02*
X8673300Y-29404600D01*
X8864600Y-29213300D02*
X11895400Y-29213300D01*
%TO.N,/BO2*%
D23*
X53620000Y-31810000D02*
X60598300Y-38788300D01*
X60598300Y-38788300D02*
X60598300Y-39500000D01*
X62150000Y-39500000D02*
X60598300Y-39500000D01*
%TO.N,/ENC_RA*%
D24*
X40685000Y-28000100D02*
X27576800Y-28000100D01*
X41575100Y-28890200D02*
X40685000Y-28000100D01*
X51328300Y-28890200D02*
X41575100Y-28890200D01*
X52967100Y-30529000D02*
X51328300Y-28890200D01*
X27576800Y-28000100D02*
X27326700Y-27750000D01*
X25620000Y-27750000D02*
X27326700Y-27750000D01*
X60237000Y-30529000D02*
X52967100Y-30529000D01*
%TO.N,/ENC_RB*%
X31500000Y-24732000D02*
X35860000Y-24732000D01*
X25620000Y-25210000D02*
X27326700Y-25210000D01*
X59487600Y-28014300D02*
X44077200Y-28014300D01*
X60973300Y-29500000D02*
X59487600Y-28014300D01*
X31500000Y-24670000D02*
X31500000Y-24732000D01*
X30400000Y-24670000D02*
X31500000Y-24670000D01*
X35860000Y-24732000D02*
X36588000Y-25460000D01*
X41522900Y-25460000D02*
X36588000Y-25460000D01*
X62150000Y-29500000D02*
X60973300Y-29500000D01*
X30400000Y-24732000D02*
X30400000Y-24670000D01*
X44077200Y-28014300D02*
X41522900Y-25460000D01*
X27805000Y-24732000D02*
X27327000Y-25210000D01*
X27805000Y-24732000D02*
X30400000Y-24732000D01*
%TO.N,+3V3*%
X27200000Y-21300000D02*
X28500000Y-19700000D01*
X12500000Y-41980000D02*
X12500000Y-56089000D01*
X28268000Y-19500000D02*
X31617000Y-19500000D01*
X30700000Y-19700000D02*
X30700000Y-20380000D01*
D23*
X30000000Y-41980000D02*
X28103300Y-41980000D01*
D24*
X28268000Y-21056000D02*
X28268000Y-19500000D01*
D23*
X28103300Y-41980000D02*
X28103300Y-39363200D01*
X28103300Y-41980000D02*
X26609200Y-41980000D01*
D24*
X28500000Y-19700000D02*
X30700000Y-19700000D01*
X26609000Y-41980000D02*
X12500000Y-41980000D01*
X30700000Y-20380000D02*
X55007000Y-20380000D01*
D23*
X31617100Y-17707000D02*
X54207000Y-17707000D01*
X28103300Y-39363200D02*
X28632700Y-38833800D01*
D24*
X31617000Y-19500000D02*
X31617000Y-17707000D01*
D23*
X55006900Y-20263100D02*
X53620000Y-21650000D01*
D24*
X30700000Y-20380000D02*
X30700000Y-21510000D01*
X30000000Y-21750000D02*
X28268000Y-21750000D01*
X30000000Y-21510000D02*
X30000000Y-21750000D01*
X10380000Y-22670000D02*
X13300000Y-24270000D01*
X28268000Y-21750000D02*
X28268000Y-21056000D01*
D23*
X12500000Y-56089200D02*
X12500000Y-57325000D01*
D24*
X13300000Y-21300000D02*
X27200000Y-21300000D01*
X55007000Y-18507000D02*
X55007000Y-20380000D01*
X13300000Y-24270000D02*
X13300000Y-21300000D01*
D23*
X54207000Y-17707000D02*
X55006900Y-18506900D01*
D24*
X30700000Y-21510000D02*
X30000000Y-21510000D01*
%TO.N,/ECHO_DIV*%
X6500000Y-36490000D02*
X5360000Y-35350000D01*
X6551500Y-29397200D02*
X7026100Y-29397200D01*
X5360000Y-35350000D02*
X5360000Y-30588700D01*
X5360000Y-30588700D02*
X6551500Y-29397200D01*
X10380000Y-27750000D02*
X8673300Y-27750000D01*
X7026100Y-29397200D02*
X8673300Y-27750000D01*
%TO.N,/PWMB*%
X27572100Y-36010000D02*
X26960800Y-36621300D01*
X12086700Y-35639200D02*
X12086700Y-35370000D01*
X30000000Y-36010000D02*
X27572100Y-36010000D01*
X10380000Y-35370000D02*
X12086700Y-35370000D01*
X13068800Y-36621300D02*
X12086700Y-35639200D01*
X26960800Y-36621300D02*
X13068800Y-36621300D01*
X38380000Y-34350000D02*
X36720000Y-36010000D01*
X36720000Y-36010000D02*
X30000000Y-36010000D01*
%TO.N,/AIN1*%
X27135000Y-38987000D02*
X28749000Y-37373000D01*
X13163400Y-38986700D02*
X27135400Y-38986700D01*
X30654100Y-36650700D02*
X33982600Y-36650700D01*
X28749000Y-37373000D02*
X29932000Y-37373000D01*
X12086700Y-37910000D02*
X13163400Y-38986700D01*
X29932000Y-37373000D02*
X30654000Y-36651000D01*
X10380000Y-37910000D02*
X12086700Y-37910000D01*
%TO.N,/BIN2*%
X38380000Y-31810000D02*
X38023300Y-31453300D01*
X22220000Y-30840000D02*
X23196700Y-30840000D01*
X23810000Y-31453300D02*
X23196700Y-30840000D01*
X38023300Y-31453300D02*
X23810000Y-31453300D01*
%TO.N,/BIN1*%
X21243300Y-32430000D02*
X21243300Y-29991600D01*
X22021600Y-29213300D02*
X38323300Y-29213300D01*
X38323300Y-29213300D02*
X38380000Y-29270000D01*
X22220000Y-32430000D02*
X21243300Y-32430000D01*
X21243300Y-29991600D02*
X22021600Y-29213300D01*
%TO.N,/SCL*%
X20877100Y-34020000D02*
X19164100Y-35733000D01*
X14500000Y-57325000D02*
X15357900Y-56467100D01*
X15357900Y-56467100D02*
X16241400Y-56467100D01*
X22220000Y-34020000D02*
X20877100Y-34020000D01*
%TO.N,/SDA*%
X22220000Y-35610000D02*
X20335100Y-35610000D01*
X16486100Y-58477900D02*
X19164100Y-55799900D01*
X13500000Y-57875400D02*
X14102500Y-58477900D01*
X14102500Y-58477900D02*
X16486100Y-58477900D01*
X13500000Y-57325000D02*
X13500000Y-57875400D01*
X20335100Y-35610000D02*
X20202700Y-35742400D01*
%TO.N,/ENC_LB*%
X27514200Y-30477500D02*
X27326700Y-30290000D01*
X50625100Y-30477500D02*
X27514200Y-30477500D01*
X25620000Y-30290000D02*
X27326700Y-30290000D01*
X51103000Y-29999600D02*
X50625100Y-30477500D01*
%TO.N,/ENC_LA*%
X27464200Y-32830000D02*
X27509300Y-32784900D01*
X30987900Y-7000000D02*
X62150000Y-7000000D01*
X25620000Y-32830000D02*
X27464200Y-32830000D01*
X28055200Y-9932700D02*
X30987900Y-7000000D01*
%TO.N,/STBY*%
X30220000Y-26730000D02*
X30000000Y-26510000D01*
X36121800Y-34293300D02*
X28403400Y-34293300D01*
X37521900Y-32893200D02*
X36121800Y-34293300D01*
X38380000Y-26730000D02*
X30220000Y-26730000D01*
X25620000Y-35370000D02*
X27326700Y-35370000D01*
X28403400Y-34293300D02*
X27326700Y-35370000D01*
%TO.N,/AIN2*%
X29128100Y-36653700D02*
X28583000Y-36653700D01*
X28583000Y-36653700D02*
X27326700Y-37910000D01*
X25620000Y-37910000D02*
X27326700Y-37910000D01*
%TO.N,/AO1*%
D23*
X53620000Y-24190000D02*
X54960000Y-24190000D01*
X54960000Y-24190000D02*
X62150000Y-17000000D01*
%TO.N,/ECHO_MID*%
D24*
X6500000Y-30490000D02*
X5864000Y-31126000D01*
X7117100Y-35127100D02*
X7117100Y-36892900D01*
X5864000Y-31126000D02*
X5864000Y-33874000D01*
X7117100Y-36892900D02*
X6500000Y-37510000D01*
X6600000Y-34510000D02*
X7117000Y-35127000D01*
X5864000Y-33874000D02*
X6600000Y-34510000D01*
%TD*%
M02*
