%TF.GenerationSoftware,KiCad,Pcbnew,10.0.4-10.0.4~ubuntu24.04.1*%
%TF.CreationDate,2026-06-30T16:25:02-06:00*%
%TF.ProjectId,robot-buddy-reflex,726f626f-742d-4627-9564-64792d726566,rev?*%
%TF.SameCoordinates,Original*%
%TF.FileFunction,Copper,L2,Inr*%
%TF.FilePolarity,Positive*%
%FSLAX46Y46*%
G04 Gerber Fmt 4.6, Leading zero omitted, Abs format (unit mm)*
G04 Created by KiCad (PCBNEW 10.0.4-10.0.4~ubuntu24.04.1) date 2026-06-30 16:25:02*
%MOMM*%
%LPD*%
G01*
G04 APERTURE LIST*
%TA.AperFunction,ComponentPad*%
%ADD10O,1.700000X1.950000*%
%TD*%
%TA.AperFunction,ComponentPad*%
%ADD11C,1.700000*%
%TD*%
%TA.AperFunction,ComponentPad*%
%ADD12C,1.600000*%
%TD*%
%TA.AperFunction,ComponentPad*%
%ADD13O,1.700000X2.000000*%
%TD*%
%TA.AperFunction,ComponentPad*%
%ADD14R,1.700000X1.700000*%
%TD*%
%TA.AperFunction,ComponentPad*%
%ADD15C,2.000000*%
%TD*%
%TA.AperFunction,ViaPad*%
%ADD16C,0.600000*%
%TD*%
%TA.AperFunction,ViaPad*%
%ADD17C,0.800000*%
%TD*%
G04 APERTURE END LIST*
D10*
%TO.N,GND*%
%TO.C,J1*%
X62150000Y-9500000D03*
%TD*%
D11*
%TO.N,GND*%
%TO.C,J6*%
X12620000Y-3000000D03*
%TD*%
D12*
%TO.N,GND*%
%TO.C,C6*%
X40000000Y-50000000D03*
%TD*%
D13*
%TO.N,GND*%
%TO.C,J10*%
X27500000Y-57000000D03*
%TD*%
D14*
%TO.N,/PWMA*%
%TO.C,U2*%
X38380000Y-19110000D03*
D11*
%TO.N,/AIN2*%
X38380000Y-21650000D03*
%TO.N,/AIN1*%
X38380000Y-24190000D03*
%TO.N,/STBY*%
X38380000Y-26730000D03*
%TO.N,/BIN1*%
X38380000Y-29270000D03*
%TO.N,/BIN2*%
X38380000Y-31810000D03*
%TO.N,/PWMB*%
X38380000Y-34350000D03*
%TO.N,GND*%
X38380000Y-36890000D03*
%TO.N,+BATT*%
X53620000Y-19110000D03*
%TO.N,+3V3*%
X53620000Y-21650000D03*
%TO.N,/AO1*%
X53620000Y-24190000D03*
%TO.N,/AO2*%
X53620000Y-26730000D03*
%TO.N,GND*%
X53620000Y-29270000D03*
%TO.N,/BO2*%
X53620000Y-31810000D03*
%TO.N,/BO1*%
X53620000Y-34350000D03*
%TO.N,+BATT*%
X53620000Y-36890000D03*
%TD*%
D13*
%TO.N,GND*%
%TO.C,J8*%
X1500000Y-22500000D03*
%TD*%
%TO.N,GND*%
%TO.C,J7*%
X24500000Y-3000000D03*
%TD*%
D15*
%TO.N,GND*%
%TO.C,C3*%
X51000000Y-50000000D03*
%TD*%
D10*
%TO.N,GND*%
%TO.C,J2*%
X62150000Y-34500000D03*
%TD*%
%TO.N,GND*%
%TO.C,J11*%
X40000000Y-57000000D03*
%TD*%
%TO.N,GND*%
%TO.C,J9*%
X1500000Y-36500000D03*
%TD*%
D16*
%TO.N,/ESTOP*%
X22104200Y-22043600D03*
X29000000Y-20490000D03*
D17*
%TO.N,GND*%
X7448800Y-27132900D03*
X30975300Y-25490000D03*
X8353200Y-21254400D03*
X30978500Y-38020000D03*
X5552200Y-24266200D03*
X7246800Y-32743200D03*
X10535100Y-58289900D03*
D16*
X29100000Y-23020000D03*
D17*
X26536900Y-47379100D03*
X30977900Y-32409000D03*
X32273300Y-50793300D03*
X29063500Y-41020000D03*
X30984600Y-35090700D03*
X26953100Y-44140600D03*
D16*
%TO.N,+5V*%
X27146400Y-52490200D03*
D17*
X6303200Y-15666100D03*
D16*
%TO.N,/ENC_LA*%
X28055200Y-9932700D03*
X27509300Y-32784900D03*
%TO.N,/ENC_LB*%
X51103000Y-29999600D03*
D17*
%TO.N,+BATT*%
X54271300Y-16749100D03*
D16*
%TO.N,/TRIG*%
X7943400Y-29494400D03*
%TO.N,/ECHO_IN*%
X8046500Y-32089700D03*
%TO.N,/PWMA*%
X33982600Y-27370500D03*
X33982600Y-33080400D03*
%TO.N,/AIN2*%
X29128100Y-36653700D03*
%TO.N,/AIN1*%
X33982600Y-36650700D03*
%TO.N,/STBY*%
X37521900Y-32893200D03*
D17*
%TO.N,+3V3*%
X27618400Y-41466400D03*
X31385600Y-21337800D03*
D16*
%TO.N,/SDA*%
X19164100Y-55799900D03*
X20202700Y-35742400D03*
%TO.N,/SCL*%
X16241400Y-56467100D03*
X19164100Y-35733000D03*
%TO.N,/NEO_DIN*%
X28055200Y-50055200D03*
%TO.N,/NEO_DATA*%
X15417500Y-44333100D03*
X16200400Y-35398000D03*
%TO.N,/UART_TX*%
X13239300Y-17863900D03*
%TO.N,/UART_RX*%
X14495000Y-20495600D03*
%TO.N,/ENC_RA*%
X60237000Y-30529000D03*
%TD*%
%TA.AperFunction,Conductor*%
%TO.N,GND*%
G36*
X64442539Y-520185D02*
G01*
X64488294Y-572989D01*
X64499500Y-624500D01*
X64499500Y-59375500D01*
X64479815Y-59442539D01*
X64427011Y-59488294D01*
X64375500Y-59499500D01*
X624500Y-59499500D01*
X557461Y-59479815D01*
X511706Y-59427011D01*
X500500Y-59375500D01*
X500500Y-55878711D01*
X2149500Y-55878711D01*
X2149500Y-56121288D01*
X2180540Y-56357071D01*
X2181162Y-56361789D01*
X2189961Y-56394627D01*
X2243947Y-56596104D01*
X2330523Y-56805117D01*
X2336776Y-56820212D01*
X2458064Y-57030289D01*
X2458066Y-57030292D01*
X2458067Y-57030293D01*
X2605733Y-57222736D01*
X2605739Y-57222743D01*
X2777256Y-57394260D01*
X2777262Y-57394265D01*
X2969711Y-57541936D01*
X3179788Y-57663224D01*
X3403900Y-57756054D01*
X3638211Y-57818838D01*
X3818586Y-57842584D01*
X3878711Y-57850500D01*
X3878712Y-57850500D01*
X4121289Y-57850500D01*
X4169388Y-57844167D01*
X4361789Y-57818838D01*
X4596100Y-57756054D01*
X4820212Y-57663224D01*
X5030289Y-57541936D01*
X5222738Y-57394265D01*
X5394265Y-57222738D01*
X5508457Y-57073920D01*
X24249499Y-57073920D01*
X24278340Y-57218907D01*
X24278343Y-57218917D01*
X24334912Y-57355488D01*
X24334919Y-57355501D01*
X24417048Y-57478415D01*
X24417051Y-57478419D01*
X24521580Y-57582948D01*
X24521584Y-57582951D01*
X24644498Y-57665080D01*
X24644511Y-57665087D01*
X24781082Y-57721656D01*
X24781087Y-57721658D01*
X24781091Y-57721658D01*
X24781092Y-57721659D01*
X24926079Y-57750500D01*
X24926082Y-57750500D01*
X25073920Y-57750500D01*
X25199598Y-57725500D01*
X25218913Y-57721658D01*
X25355495Y-57665084D01*
X25478416Y-57582951D01*
X25582951Y-57478416D01*
X25665084Y-57355495D01*
X25721658Y-57218913D01*
X25750500Y-57073918D01*
X25750500Y-57071457D01*
X34274499Y-57071457D01*
X34302379Y-57211614D01*
X34302381Y-57211620D01*
X34357069Y-57343650D01*
X34357074Y-57343659D01*
X34436467Y-57462478D01*
X34436470Y-57462482D01*
X34537517Y-57563529D01*
X34537521Y-57563532D01*
X34656340Y-57642925D01*
X34656346Y-57642928D01*
X34656347Y-57642929D01*
X34788380Y-57697619D01*
X34788384Y-57697619D01*
X34788385Y-57697620D01*
X34928542Y-57725500D01*
X34928545Y-57725500D01*
X35071457Y-57725500D01*
X35165751Y-57706742D01*
X35211620Y-57697619D01*
X35343653Y-57642929D01*
X35462479Y-57563532D01*
X35563532Y-57462479D01*
X35642929Y-57343653D01*
X35697619Y-57211620D01*
X35725500Y-57071457D01*
X36774499Y-57071457D01*
X36802379Y-57211614D01*
X36802381Y-57211620D01*
X36857069Y-57343650D01*
X36857074Y-57343659D01*
X36936467Y-57462478D01*
X36936470Y-57462482D01*
X37037517Y-57563529D01*
X37037521Y-57563532D01*
X37156340Y-57642925D01*
X37156346Y-57642928D01*
X37156347Y-57642929D01*
X37288380Y-57697619D01*
X37288384Y-57697619D01*
X37288385Y-57697620D01*
X37428542Y-57725500D01*
X37428545Y-57725500D01*
X37571457Y-57725500D01*
X37665751Y-57706742D01*
X37711620Y-57697619D01*
X37843653Y-57642929D01*
X37962479Y-57563532D01*
X38063532Y-57462479D01*
X38142929Y-57343653D01*
X38197619Y-57211620D01*
X38225500Y-57071455D01*
X38225500Y-56928545D01*
X38225500Y-56928542D01*
X38197620Y-56788385D01*
X38197619Y-56788384D01*
X38197619Y-56788380D01*
X38142929Y-56656347D01*
X38142928Y-56656346D01*
X38142925Y-56656340D01*
X38063532Y-56537521D01*
X38063529Y-56537517D01*
X37962482Y-56436470D01*
X37962478Y-56436467D01*
X37843659Y-56357074D01*
X37843650Y-56357069D01*
X37711620Y-56302381D01*
X37711614Y-56302379D01*
X37571457Y-56274500D01*
X37571455Y-56274500D01*
X37428545Y-56274500D01*
X37428543Y-56274500D01*
X37288385Y-56302379D01*
X37288379Y-56302381D01*
X37156349Y-56357069D01*
X37156340Y-56357074D01*
X37037521Y-56436467D01*
X37037517Y-56436470D01*
X36936470Y-56537517D01*
X36936467Y-56537521D01*
X36857074Y-56656340D01*
X36857069Y-56656349D01*
X36802381Y-56788379D01*
X36802379Y-56788385D01*
X36774500Y-56928542D01*
X36774500Y-56928545D01*
X36774500Y-57071455D01*
X36774500Y-57071457D01*
X36774499Y-57071457D01*
X35725500Y-57071457D01*
X35725500Y-57071455D01*
X35725500Y-56928545D01*
X35725500Y-56928542D01*
X35697620Y-56788385D01*
X35697619Y-56788384D01*
X35697619Y-56788380D01*
X35642929Y-56656347D01*
X35642928Y-56656346D01*
X35642925Y-56656340D01*
X35563532Y-56537521D01*
X35563529Y-56537517D01*
X35462482Y-56436470D01*
X35462478Y-56436467D01*
X35343659Y-56357074D01*
X35343650Y-56357069D01*
X35211620Y-56302381D01*
X35211614Y-56302379D01*
X35071457Y-56274500D01*
X35071455Y-56274500D01*
X34928545Y-56274500D01*
X34928543Y-56274500D01*
X34788385Y-56302379D01*
X34788379Y-56302381D01*
X34656349Y-56357069D01*
X34656340Y-56357074D01*
X34537521Y-56436467D01*
X34537517Y-56436470D01*
X34436470Y-56537517D01*
X34436467Y-56537521D01*
X34357074Y-56656340D01*
X34357069Y-56656349D01*
X34302381Y-56788379D01*
X34302379Y-56788385D01*
X34274500Y-56928542D01*
X34274500Y-56928545D01*
X34274500Y-57071455D01*
X34274500Y-57071457D01*
X34274499Y-57071457D01*
X25750500Y-57071457D01*
X25750500Y-56926082D01*
X25750500Y-56926079D01*
X25721659Y-56781092D01*
X25721658Y-56781091D01*
X25721658Y-56781087D01*
X25669990Y-56656349D01*
X25665087Y-56644511D01*
X25665080Y-56644498D01*
X25582951Y-56521584D01*
X25582948Y-56521580D01*
X25478419Y-56417051D01*
X25478415Y-56417048D01*
X25355501Y-56334919D01*
X25355488Y-56334912D01*
X25218917Y-56278343D01*
X25218907Y-56278340D01*
X25073920Y-56249500D01*
X25073918Y-56249500D01*
X24926082Y-56249500D01*
X24926080Y-56249500D01*
X24781092Y-56278340D01*
X24781082Y-56278343D01*
X24644511Y-56334912D01*
X24644498Y-56334919D01*
X24521584Y-56417048D01*
X24521580Y-56417051D01*
X24417051Y-56521580D01*
X24417048Y-56521584D01*
X24334919Y-56644498D01*
X24334912Y-56644511D01*
X24278343Y-56781082D01*
X24278340Y-56781092D01*
X24249500Y-56926079D01*
X24249500Y-56926082D01*
X24249500Y-57073918D01*
X24249500Y-57073920D01*
X24249499Y-57073920D01*
X5508457Y-57073920D01*
X5541936Y-57030289D01*
X5663224Y-56820212D01*
X5756054Y-56596100D01*
X5810040Y-56394625D01*
X15690900Y-56394625D01*
X15690900Y-56539575D01*
X15722190Y-56656349D01*
X15728417Y-56679588D01*
X15800888Y-56805111D01*
X15800890Y-56805113D01*
X15800891Y-56805115D01*
X15903385Y-56907609D01*
X15903386Y-56907610D01*
X15903388Y-56907611D01*
X16028911Y-56980082D01*
X16028912Y-56980082D01*
X16028915Y-56980084D01*
X16168925Y-57017600D01*
X16168928Y-57017600D01*
X16313872Y-57017600D01*
X16313875Y-57017600D01*
X16453885Y-56980084D01*
X16579415Y-56907609D01*
X16681909Y-56805115D01*
X16754384Y-56679585D01*
X16791900Y-56539575D01*
X16791900Y-56394625D01*
X16754384Y-56254615D01*
X16746183Y-56240411D01*
X16681911Y-56129088D01*
X16681906Y-56129082D01*
X16579417Y-56026593D01*
X16579411Y-56026588D01*
X16453888Y-55954117D01*
X16453889Y-55954117D01*
X16442406Y-55951040D01*
X16313875Y-55916600D01*
X16168925Y-55916600D01*
X16040393Y-55951040D01*
X16028911Y-55954117D01*
X15903388Y-56026588D01*
X15903382Y-56026593D01*
X15800893Y-56129082D01*
X15800888Y-56129088D01*
X15728417Y-56254611D01*
X15728416Y-56254615D01*
X15690900Y-56394625D01*
X5810040Y-56394625D01*
X5818838Y-56361789D01*
X5850500Y-56121288D01*
X5850500Y-55878712D01*
X5830583Y-55727425D01*
X18613600Y-55727425D01*
X18613600Y-55872375D01*
X18635503Y-55954116D01*
X18651117Y-56012388D01*
X18723588Y-56137911D01*
X18723590Y-56137913D01*
X18723591Y-56137915D01*
X18826085Y-56240409D01*
X18826086Y-56240410D01*
X18826088Y-56240411D01*
X18951611Y-56312882D01*
X18951612Y-56312882D01*
X18951615Y-56312884D01*
X19091625Y-56350400D01*
X19091628Y-56350400D01*
X19236572Y-56350400D01*
X19236575Y-56350400D01*
X19376585Y-56312884D01*
X19502115Y-56240409D01*
X19604609Y-56137915D01*
X19677084Y-56012385D01*
X19712902Y-55878711D01*
X53149500Y-55878711D01*
X53149500Y-56121288D01*
X53180540Y-56357071D01*
X53181162Y-56361789D01*
X53189961Y-56394627D01*
X53243947Y-56596104D01*
X53330523Y-56805117D01*
X53336776Y-56820212D01*
X53458064Y-57030289D01*
X53458066Y-57030292D01*
X53458067Y-57030293D01*
X53605733Y-57222736D01*
X53605739Y-57222743D01*
X53777256Y-57394260D01*
X53777262Y-57394265D01*
X53969711Y-57541936D01*
X54179788Y-57663224D01*
X54403900Y-57756054D01*
X54638211Y-57818838D01*
X54818586Y-57842584D01*
X54878711Y-57850500D01*
X54878712Y-57850500D01*
X55121289Y-57850500D01*
X55169388Y-57844167D01*
X55361789Y-57818838D01*
X55596100Y-57756054D01*
X55820212Y-57663224D01*
X56030289Y-57541936D01*
X56222738Y-57394265D01*
X56394265Y-57222738D01*
X56541936Y-57030289D01*
X56663224Y-56820212D01*
X56756054Y-56596100D01*
X56818838Y-56361789D01*
X56850500Y-56121288D01*
X56850500Y-55878712D01*
X56818838Y-55638211D01*
X56756054Y-55403900D01*
X56663224Y-55179788D01*
X56541936Y-54969711D01*
X56394265Y-54777262D01*
X56394260Y-54777256D01*
X56222743Y-54605739D01*
X56222736Y-54605733D01*
X56030293Y-54458067D01*
X56030292Y-54458066D01*
X56030289Y-54458064D01*
X55820212Y-54336776D01*
X55820205Y-54336773D01*
X55596104Y-54243947D01*
X55361785Y-54181161D01*
X55121289Y-54149500D01*
X55121288Y-54149500D01*
X54878712Y-54149500D01*
X54878711Y-54149500D01*
X54638214Y-54181161D01*
X54403895Y-54243947D01*
X54179794Y-54336773D01*
X54179785Y-54336777D01*
X53969706Y-54458067D01*
X53777263Y-54605733D01*
X53777256Y-54605739D01*
X53605739Y-54777256D01*
X53605733Y-54777263D01*
X53458067Y-54969706D01*
X53336777Y-55179785D01*
X53336773Y-55179794D01*
X53243947Y-55403895D01*
X53181161Y-55638214D01*
X53149500Y-55878711D01*
X19712902Y-55878711D01*
X19714600Y-55872375D01*
X19714600Y-55727425D01*
X19677084Y-55587415D01*
X19604609Y-55461885D01*
X19502115Y-55359391D01*
X19502113Y-55359390D01*
X19502111Y-55359388D01*
X19376588Y-55286917D01*
X19376589Y-55286917D01*
X19365106Y-55283840D01*
X19236575Y-55249400D01*
X19091625Y-55249400D01*
X18963093Y-55283840D01*
X18951611Y-55286917D01*
X18826088Y-55359388D01*
X18826082Y-55359393D01*
X18723593Y-55461882D01*
X18723588Y-55461888D01*
X18651117Y-55587411D01*
X18651116Y-55587415D01*
X18613600Y-55727425D01*
X5830583Y-55727425D01*
X5818838Y-55638211D01*
X5756054Y-55403900D01*
X5663224Y-55179788D01*
X5541936Y-54969711D01*
X5394265Y-54777262D01*
X5394260Y-54777256D01*
X5222743Y-54605739D01*
X5222736Y-54605733D01*
X5030293Y-54458067D01*
X5030292Y-54458066D01*
X5030289Y-54458064D01*
X4820212Y-54336776D01*
X4820205Y-54336773D01*
X4596104Y-54243947D01*
X4361785Y-54181161D01*
X4121289Y-54149500D01*
X4121288Y-54149500D01*
X3878712Y-54149500D01*
X3878711Y-54149500D01*
X3638214Y-54181161D01*
X3403895Y-54243947D01*
X3179794Y-54336773D01*
X3179785Y-54336777D01*
X2969706Y-54458067D01*
X2777263Y-54605733D01*
X2777256Y-54605739D01*
X2605739Y-54777256D01*
X2605733Y-54777263D01*
X2458067Y-54969706D01*
X2336777Y-55179785D01*
X2336773Y-55179794D01*
X2243947Y-55403895D01*
X2181161Y-55638214D01*
X2149500Y-55878711D01*
X500500Y-55878711D01*
X500500Y-52417725D01*
X26595900Y-52417725D01*
X26595900Y-52562675D01*
X26633416Y-52702685D01*
X26633417Y-52702688D01*
X26705888Y-52828211D01*
X26705890Y-52828213D01*
X26705891Y-52828215D01*
X26808385Y-52930709D01*
X26808386Y-52930710D01*
X26808388Y-52930711D01*
X26933911Y-53003182D01*
X26933912Y-53003182D01*
X26933915Y-53003184D01*
X27073925Y-53040700D01*
X27073928Y-53040700D01*
X27218872Y-53040700D01*
X27218875Y-53040700D01*
X27358885Y-53003184D01*
X27484415Y-52930709D01*
X27586909Y-52828215D01*
X27659384Y-52702685D01*
X27696900Y-52562675D01*
X27696900Y-52417725D01*
X27659384Y-52277715D01*
X27586909Y-52152185D01*
X27484415Y-52049691D01*
X27484413Y-52049690D01*
X27484411Y-52049688D01*
X27358888Y-51977217D01*
X27358889Y-51977217D01*
X27347406Y-51974140D01*
X27218875Y-51939700D01*
X27073925Y-51939700D01*
X26945393Y-51974140D01*
X26933911Y-51977217D01*
X26808388Y-52049688D01*
X26808382Y-52049693D01*
X26705893Y-52152182D01*
X26705888Y-52152188D01*
X26633417Y-52277711D01*
X26633416Y-52277715D01*
X26595900Y-52417725D01*
X500500Y-52417725D01*
X500500Y-49982725D01*
X27504700Y-49982725D01*
X27504700Y-50127675D01*
X27529149Y-50218917D01*
X27542217Y-50267688D01*
X27614688Y-50393211D01*
X27614690Y-50393213D01*
X27614691Y-50393215D01*
X27717185Y-50495709D01*
X27717186Y-50495710D01*
X27717188Y-50495711D01*
X27842711Y-50568182D01*
X27842712Y-50568182D01*
X27842715Y-50568184D01*
X27982725Y-50605700D01*
X27982728Y-50605700D01*
X28127672Y-50605700D01*
X28127675Y-50605700D01*
X28267685Y-50568184D01*
X28393215Y-50495709D01*
X28495709Y-50393215D01*
X28568184Y-50267685D01*
X28605700Y-50127675D01*
X28605700Y-50064071D01*
X37349499Y-50064071D01*
X37374497Y-50189738D01*
X37374499Y-50189744D01*
X37423533Y-50308124D01*
X37423538Y-50308133D01*
X37494723Y-50414668D01*
X37494726Y-50414672D01*
X37585327Y-50505273D01*
X37585331Y-50505276D01*
X37691866Y-50576461D01*
X37691875Y-50576466D01*
X37718692Y-50587574D01*
X37810256Y-50625501D01*
X37810260Y-50625501D01*
X37810261Y-50625502D01*
X37935928Y-50650500D01*
X37935931Y-50650500D01*
X38064071Y-50650500D01*
X38148615Y-50633682D01*
X38189744Y-50625501D01*
X38308127Y-50576465D01*
X38414669Y-50505276D01*
X38505276Y-50414669D01*
X38576465Y-50308127D01*
X38625501Y-50189744D01*
X38637848Y-50127672D01*
X38648541Y-50073920D01*
X45249499Y-50073920D01*
X45278340Y-50218907D01*
X45278343Y-50218917D01*
X45334912Y-50355488D01*
X45334919Y-50355501D01*
X45417048Y-50478415D01*
X45417051Y-50478419D01*
X45521580Y-50582948D01*
X45521584Y-50582951D01*
X45644498Y-50665080D01*
X45644511Y-50665087D01*
X45781082Y-50721656D01*
X45781087Y-50721658D01*
X45781091Y-50721658D01*
X45781092Y-50721659D01*
X45926079Y-50750500D01*
X45926082Y-50750500D01*
X46073920Y-50750500D01*
X46171462Y-50731096D01*
X46218913Y-50721658D01*
X46355495Y-50665084D01*
X46478416Y-50582951D01*
X46582951Y-50478416D01*
X46665084Y-50355495D01*
X46721658Y-50218913D01*
X46739807Y-50127675D01*
X46750500Y-50073920D01*
X46750500Y-49926079D01*
X46721659Y-49781092D01*
X46721658Y-49781091D01*
X46721658Y-49781087D01*
X46721656Y-49781082D01*
X46665087Y-49644511D01*
X46665080Y-49644498D01*
X46582951Y-49521584D01*
X46582948Y-49521580D01*
X46478419Y-49417051D01*
X46478415Y-49417048D01*
X46355501Y-49334919D01*
X46355488Y-49334912D01*
X46218917Y-49278343D01*
X46218907Y-49278340D01*
X46073920Y-49249500D01*
X46073918Y-49249500D01*
X45926082Y-49249500D01*
X45926080Y-49249500D01*
X45781092Y-49278340D01*
X45781082Y-49278343D01*
X45644511Y-49334912D01*
X45644498Y-49334919D01*
X45521584Y-49417048D01*
X45521580Y-49417051D01*
X45417051Y-49521580D01*
X45417048Y-49521584D01*
X45334919Y-49644498D01*
X45334912Y-49644511D01*
X45278343Y-49781082D01*
X45278340Y-49781092D01*
X45249500Y-49926079D01*
X45249500Y-49926082D01*
X45249500Y-50073918D01*
X45249500Y-50073920D01*
X45249499Y-50073920D01*
X38648541Y-50073920D01*
X38650500Y-50064071D01*
X38650500Y-49935931D01*
X38650499Y-49935926D01*
X38625502Y-49810261D01*
X38625501Y-49810260D01*
X38625501Y-49810256D01*
X38576465Y-49691873D01*
X38576464Y-49691872D01*
X38576461Y-49691866D01*
X38505276Y-49585331D01*
X38505273Y-49585327D01*
X38414672Y-49494726D01*
X38414668Y-49494723D01*
X38308133Y-49423538D01*
X38308124Y-49423533D01*
X38189744Y-49374499D01*
X38189738Y-49374497D01*
X38064071Y-49349500D01*
X38064069Y-49349500D01*
X37935931Y-49349500D01*
X37935929Y-49349500D01*
X37810261Y-49374497D01*
X37810255Y-49374499D01*
X37691875Y-49423533D01*
X37691866Y-49423538D01*
X37585331Y-49494723D01*
X37585327Y-49494726D01*
X37494726Y-49585327D01*
X37494723Y-49585331D01*
X37423538Y-49691866D01*
X37423533Y-49691875D01*
X37374499Y-49810255D01*
X37374497Y-49810261D01*
X37349500Y-49935928D01*
X37349500Y-49935931D01*
X37349500Y-50064069D01*
X37349500Y-50064071D01*
X37349499Y-50064071D01*
X28605700Y-50064071D01*
X28605700Y-49982725D01*
X28568184Y-49842715D01*
X28495709Y-49717185D01*
X28393215Y-49614691D01*
X28393213Y-49614690D01*
X28393211Y-49614688D01*
X28267688Y-49542217D01*
X28267689Y-49542217D01*
X28256206Y-49539140D01*
X28127675Y-49504700D01*
X27982725Y-49504700D01*
X27854193Y-49539140D01*
X27842711Y-49542217D01*
X27717188Y-49614688D01*
X27717182Y-49614693D01*
X27614693Y-49717182D01*
X27614688Y-49717188D01*
X27542217Y-49842711D01*
X27542216Y-49842715D01*
X27504700Y-49982725D01*
X500500Y-49982725D01*
X500500Y-44260625D01*
X14867000Y-44260625D01*
X14867000Y-44405575D01*
X14904516Y-44545585D01*
X14904517Y-44545588D01*
X14976988Y-44671111D01*
X14976990Y-44671113D01*
X14976991Y-44671115D01*
X15079485Y-44773609D01*
X15079486Y-44773610D01*
X15079488Y-44773611D01*
X15205011Y-44846082D01*
X15205012Y-44846082D01*
X15205015Y-44846084D01*
X15345025Y-44883600D01*
X15345028Y-44883600D01*
X15489972Y-44883600D01*
X15489975Y-44883600D01*
X15629985Y-44846084D01*
X15755515Y-44773609D01*
X15858009Y-44671115D01*
X15930484Y-44545585D01*
X15968000Y-44405575D01*
X15968000Y-44260625D01*
X15930484Y-44120615D01*
X15858009Y-43995085D01*
X15755515Y-43892591D01*
X15755513Y-43892590D01*
X15755511Y-43892588D01*
X15629988Y-43820117D01*
X15629989Y-43820117D01*
X15618506Y-43817040D01*
X15489975Y-43782600D01*
X15345025Y-43782600D01*
X15216493Y-43817040D01*
X15205011Y-43820117D01*
X15079488Y-43892588D01*
X15079482Y-43892593D01*
X14976993Y-43995082D01*
X14976988Y-43995088D01*
X14904517Y-44120611D01*
X14904516Y-44120615D01*
X14867000Y-44260625D01*
X500500Y-44260625D01*
X500500Y-41571457D01*
X774499Y-41571457D01*
X802379Y-41711614D01*
X802381Y-41711620D01*
X857069Y-41843650D01*
X857074Y-41843659D01*
X936467Y-41962478D01*
X936470Y-41962482D01*
X1037517Y-42063529D01*
X1037521Y-42063532D01*
X1156340Y-42142925D01*
X1156346Y-42142928D01*
X1156347Y-42142929D01*
X1288380Y-42197619D01*
X1288384Y-42197619D01*
X1288385Y-42197620D01*
X1428542Y-42225500D01*
X1428545Y-42225500D01*
X1571457Y-42225500D01*
X1665751Y-42206742D01*
X1711620Y-42197619D01*
X1843653Y-42142929D01*
X1962479Y-42063532D01*
X2063532Y-41962479D01*
X2142929Y-41843653D01*
X2197619Y-41711620D01*
X2208655Y-41656138D01*
X2225500Y-41571457D01*
X2225500Y-41530471D01*
X26967899Y-41530471D01*
X26992897Y-41656138D01*
X26992899Y-41656144D01*
X27041933Y-41774524D01*
X27041938Y-41774533D01*
X27113123Y-41881068D01*
X27113126Y-41881072D01*
X27203727Y-41971673D01*
X27203731Y-41971676D01*
X27310266Y-42042861D01*
X27310272Y-42042864D01*
X27310273Y-42042865D01*
X27428656Y-42091901D01*
X27428660Y-42091901D01*
X27428661Y-42091902D01*
X27554328Y-42116900D01*
X27554331Y-42116900D01*
X27682471Y-42116900D01*
X27767015Y-42100082D01*
X27808144Y-42091901D01*
X27926527Y-42042865D01*
X28033069Y-41971676D01*
X28081130Y-41923615D01*
X61374500Y-41923615D01*
X61374500Y-42076384D01*
X61404300Y-42226197D01*
X61404302Y-42226205D01*
X61462759Y-42367334D01*
X61462764Y-42367343D01*
X61547629Y-42494351D01*
X61547632Y-42494355D01*
X61655644Y-42602367D01*
X61655648Y-42602370D01*
X61782656Y-42687235D01*
X61782662Y-42687238D01*
X61782663Y-42687239D01*
X61923795Y-42745698D01*
X62073615Y-42775499D01*
X62073619Y-42775500D01*
X62073620Y-42775500D01*
X62226381Y-42775500D01*
X62226382Y-42775499D01*
X62376205Y-42745698D01*
X62517337Y-42687239D01*
X62644352Y-42602370D01*
X62752370Y-42494352D01*
X62837239Y-42367337D01*
X62895698Y-42226205D01*
X62925500Y-42076380D01*
X62925500Y-41923620D01*
X62895698Y-41773795D01*
X62837239Y-41632663D01*
X62837238Y-41632662D01*
X62837235Y-41632656D01*
X62752370Y-41505648D01*
X62752367Y-41505644D01*
X62644355Y-41397632D01*
X62644351Y-41397629D01*
X62517343Y-41312764D01*
X62517334Y-41312759D01*
X62376205Y-41254302D01*
X62376197Y-41254300D01*
X62226384Y-41224500D01*
X62226380Y-41224500D01*
X62073620Y-41224500D01*
X62073615Y-41224500D01*
X61923802Y-41254300D01*
X61923794Y-41254302D01*
X61782665Y-41312759D01*
X61782656Y-41312764D01*
X61655648Y-41397629D01*
X61655644Y-41397632D01*
X61547632Y-41505644D01*
X61547629Y-41505648D01*
X61462764Y-41632656D01*
X61462759Y-41632665D01*
X61404302Y-41773794D01*
X61404300Y-41773802D01*
X61374500Y-41923615D01*
X28081130Y-41923615D01*
X28123676Y-41881069D01*
X28134600Y-41864719D01*
X28145347Y-41848637D01*
X28194861Y-41774533D01*
X28194861Y-41774532D01*
X28194865Y-41774527D01*
X28243901Y-41656144D01*
X28268900Y-41530469D01*
X28268900Y-41402331D01*
X28268900Y-41402328D01*
X28243902Y-41276661D01*
X28243901Y-41276660D01*
X28243901Y-41276656D01*
X28194865Y-41158273D01*
X28194864Y-41158272D01*
X28194861Y-41158266D01*
X28123676Y-41051731D01*
X28123673Y-41051727D01*
X28033072Y-40961126D01*
X28033068Y-40961123D01*
X27926533Y-40889938D01*
X27926524Y-40889933D01*
X27808144Y-40840899D01*
X27808138Y-40840897D01*
X27682471Y-40815900D01*
X27682469Y-40815900D01*
X27554331Y-40815900D01*
X27554329Y-40815900D01*
X27428661Y-40840897D01*
X27428655Y-40840899D01*
X27310275Y-40889933D01*
X27310266Y-40889938D01*
X27203731Y-40961123D01*
X27203727Y-40961126D01*
X27113126Y-41051727D01*
X27113123Y-41051731D01*
X27041938Y-41158266D01*
X27041933Y-41158275D01*
X26992899Y-41276655D01*
X26992897Y-41276661D01*
X26967900Y-41402328D01*
X26967900Y-41402331D01*
X26967900Y-41530469D01*
X26967900Y-41530471D01*
X26967899Y-41530471D01*
X2225500Y-41530471D01*
X2225500Y-41428547D01*
X2225499Y-41428542D01*
X2197619Y-41288380D01*
X2142929Y-41156347D01*
X2142928Y-41156346D01*
X2142925Y-41156340D01*
X2063532Y-41037521D01*
X2063529Y-41037517D01*
X1962482Y-40936470D01*
X1962478Y-40936467D01*
X1843659Y-40857074D01*
X1843650Y-40857069D01*
X1711620Y-40802381D01*
X1711614Y-40802379D01*
X1571457Y-40774500D01*
X1571455Y-40774500D01*
X1428545Y-40774500D01*
X1428543Y-40774500D01*
X1288385Y-40802379D01*
X1288379Y-40802381D01*
X1156349Y-40857069D01*
X1156340Y-40857074D01*
X1037521Y-40936467D01*
X1037517Y-40936470D01*
X936470Y-41037517D01*
X936467Y-41037521D01*
X857074Y-41156340D01*
X857069Y-41156349D01*
X802381Y-41288379D01*
X802379Y-41288385D01*
X774500Y-41428542D01*
X774500Y-41428545D01*
X774500Y-41571455D01*
X774500Y-41571457D01*
X774499Y-41571457D01*
X500500Y-41571457D01*
X500500Y-39071457D01*
X774499Y-39071457D01*
X802379Y-39211614D01*
X802381Y-39211620D01*
X857069Y-39343650D01*
X857074Y-39343659D01*
X936467Y-39462478D01*
X936470Y-39462482D01*
X1037517Y-39563529D01*
X1037521Y-39563532D01*
X1156340Y-39642925D01*
X1156346Y-39642928D01*
X1156347Y-39642929D01*
X1288380Y-39697619D01*
X1288384Y-39697619D01*
X1288385Y-39697620D01*
X1428542Y-39725500D01*
X1428545Y-39725500D01*
X1571457Y-39725500D01*
X1665751Y-39706742D01*
X1711620Y-39697619D01*
X1843653Y-39642929D01*
X1962479Y-39563532D01*
X2063532Y-39462479D01*
X2089500Y-39423615D01*
X61374500Y-39423615D01*
X61374500Y-39576384D01*
X61404300Y-39726197D01*
X61404302Y-39726205D01*
X61462759Y-39867334D01*
X61462764Y-39867343D01*
X61547629Y-39994351D01*
X61547632Y-39994355D01*
X61655644Y-40102367D01*
X61655648Y-40102370D01*
X61782656Y-40187235D01*
X61782662Y-40187238D01*
X61782663Y-40187239D01*
X61923795Y-40245698D01*
X62073615Y-40275499D01*
X62073619Y-40275500D01*
X62073620Y-40275500D01*
X62226381Y-40275500D01*
X62226382Y-40275499D01*
X62376205Y-40245698D01*
X62517337Y-40187239D01*
X62644352Y-40102370D01*
X62752370Y-39994352D01*
X62837239Y-39867337D01*
X62895698Y-39726205D01*
X62925500Y-39576380D01*
X62925500Y-39423620D01*
X62895698Y-39273795D01*
X62837239Y-39132663D01*
X62837238Y-39132662D01*
X62837235Y-39132656D01*
X62752370Y-39005648D01*
X62752367Y-39005644D01*
X62644355Y-38897632D01*
X62644351Y-38897629D01*
X62517343Y-38812764D01*
X62517334Y-38812759D01*
X62376205Y-38754302D01*
X62376197Y-38754300D01*
X62226384Y-38724500D01*
X62226380Y-38724500D01*
X62073620Y-38724500D01*
X62073615Y-38724500D01*
X61923802Y-38754300D01*
X61923794Y-38754302D01*
X61782665Y-38812759D01*
X61782656Y-38812764D01*
X61655648Y-38897629D01*
X61655644Y-38897632D01*
X61547632Y-39005644D01*
X61547629Y-39005648D01*
X61462764Y-39132656D01*
X61462759Y-39132665D01*
X61404302Y-39273794D01*
X61404300Y-39273802D01*
X61374500Y-39423615D01*
X2089500Y-39423615D01*
X2142929Y-39343653D01*
X2197619Y-39211620D01*
X2206742Y-39165751D01*
X2225500Y-39071457D01*
X2225500Y-38928542D01*
X2197620Y-38788385D01*
X2197619Y-38788384D01*
X2197619Y-38788380D01*
X2142929Y-38656347D01*
X2142928Y-38656346D01*
X2142925Y-38656340D01*
X2063532Y-38537521D01*
X2063529Y-38537517D01*
X1962482Y-38436470D01*
X1962478Y-38436467D01*
X1843659Y-38357074D01*
X1843650Y-38357069D01*
X1711620Y-38302381D01*
X1711614Y-38302379D01*
X1571457Y-38274500D01*
X1571455Y-38274500D01*
X1428545Y-38274500D01*
X1428543Y-38274500D01*
X1288385Y-38302379D01*
X1288379Y-38302381D01*
X1156349Y-38357069D01*
X1156340Y-38357074D01*
X1037521Y-38436467D01*
X1037517Y-38436470D01*
X936470Y-38537517D01*
X936467Y-38537521D01*
X857074Y-38656340D01*
X857069Y-38656349D01*
X802381Y-38788379D01*
X802379Y-38788385D01*
X774500Y-38928542D01*
X774500Y-38928545D01*
X774500Y-39071455D01*
X774500Y-39071457D01*
X774499Y-39071457D01*
X500500Y-39071457D01*
X500500Y-36581225D01*
X28577600Y-36581225D01*
X28577600Y-36726175D01*
X28598290Y-36803389D01*
X28615117Y-36866188D01*
X28687588Y-36991711D01*
X28687590Y-36991713D01*
X28687591Y-36991715D01*
X28790085Y-37094209D01*
X28790086Y-37094210D01*
X28790088Y-37094211D01*
X28915611Y-37166682D01*
X28915612Y-37166682D01*
X28915615Y-37166684D01*
X29055625Y-37204200D01*
X29055628Y-37204200D01*
X29200572Y-37204200D01*
X29200575Y-37204200D01*
X29340585Y-37166684D01*
X29466115Y-37094209D01*
X29568609Y-36991715D01*
X29641084Y-36866185D01*
X29678600Y-36726175D01*
X29678600Y-36581225D01*
X29677796Y-36578225D01*
X33432100Y-36578225D01*
X33432100Y-36723175D01*
X33453594Y-36803389D01*
X33469617Y-36863188D01*
X33542088Y-36988711D01*
X33542090Y-36988713D01*
X33542091Y-36988715D01*
X33644585Y-37091209D01*
X33644586Y-37091210D01*
X33644588Y-37091211D01*
X33770111Y-37163682D01*
X33770112Y-37163682D01*
X33770115Y-37163684D01*
X33910125Y-37201200D01*
X33910128Y-37201200D01*
X34055072Y-37201200D01*
X34055075Y-37201200D01*
X34195085Y-37163684D01*
X34320615Y-37091209D01*
X34423109Y-36988715D01*
X34495584Y-36863185D01*
X34511606Y-36803389D01*
X52519500Y-36803389D01*
X52519500Y-36976611D01*
X52521892Y-36991711D01*
X52538125Y-37094209D01*
X52546598Y-37147701D01*
X52600127Y-37312445D01*
X52678768Y-37466788D01*
X52780586Y-37606928D01*
X52903072Y-37729414D01*
X53043212Y-37831232D01*
X53197555Y-37909873D01*
X53362299Y-37963402D01*
X53533389Y-37990500D01*
X53533390Y-37990500D01*
X53706610Y-37990500D01*
X53706611Y-37990500D01*
X53877701Y-37963402D01*
X54042445Y-37909873D01*
X54196788Y-37831232D01*
X54336928Y-37729414D01*
X54459414Y-37606928D01*
X54561232Y-37466788D01*
X54639873Y-37312445D01*
X54693402Y-37147701D01*
X54705478Y-37071457D01*
X61424499Y-37071457D01*
X61452379Y-37211614D01*
X61452381Y-37211620D01*
X61507069Y-37343650D01*
X61507074Y-37343659D01*
X61586467Y-37462478D01*
X61586470Y-37462482D01*
X61687517Y-37563529D01*
X61687521Y-37563532D01*
X61806340Y-37642925D01*
X61806346Y-37642928D01*
X61806347Y-37642929D01*
X61938380Y-37697619D01*
X61938384Y-37697619D01*
X61938385Y-37697620D01*
X62078542Y-37725500D01*
X62078545Y-37725500D01*
X62221457Y-37725500D01*
X62315751Y-37706742D01*
X62361620Y-37697619D01*
X62493653Y-37642929D01*
X62612479Y-37563532D01*
X62713532Y-37462479D01*
X62792929Y-37343653D01*
X62847619Y-37211620D01*
X62857155Y-37163682D01*
X62875500Y-37071457D01*
X62875500Y-36928542D01*
X62847620Y-36788385D01*
X62847619Y-36788384D01*
X62847619Y-36788380D01*
X62792929Y-36656347D01*
X62792928Y-36656346D01*
X62792925Y-36656340D01*
X62713532Y-36537521D01*
X62713529Y-36537517D01*
X62612482Y-36436470D01*
X62612478Y-36436467D01*
X62493659Y-36357074D01*
X62493650Y-36357069D01*
X62361620Y-36302381D01*
X62361614Y-36302379D01*
X62221457Y-36274500D01*
X62221455Y-36274500D01*
X62078545Y-36274500D01*
X62078543Y-36274500D01*
X61938385Y-36302379D01*
X61938379Y-36302381D01*
X61806349Y-36357069D01*
X61806340Y-36357074D01*
X61687521Y-36436467D01*
X61687517Y-36436470D01*
X61586470Y-36537517D01*
X61586467Y-36537521D01*
X61507074Y-36656340D01*
X61507069Y-36656349D01*
X61452381Y-36788379D01*
X61452379Y-36788385D01*
X61424500Y-36928542D01*
X61424500Y-36928545D01*
X61424500Y-37071455D01*
X61424500Y-37071457D01*
X61424499Y-37071457D01*
X54705478Y-37071457D01*
X54720500Y-36976611D01*
X54720500Y-36803389D01*
X54693402Y-36632299D01*
X54639873Y-36467555D01*
X54561232Y-36313212D01*
X54459414Y-36173072D01*
X54336928Y-36050586D01*
X54196788Y-35948768D01*
X54042445Y-35870127D01*
X53877701Y-35816598D01*
X53877699Y-35816597D01*
X53877698Y-35816597D01*
X53746271Y-35795781D01*
X53706611Y-35789500D01*
X53533389Y-35789500D01*
X53493728Y-35795781D01*
X53362302Y-35816597D01*
X53197552Y-35870128D01*
X53043211Y-35948768D01*
X52963256Y-36006859D01*
X52903072Y-36050586D01*
X52903070Y-36050588D01*
X52903069Y-36050588D01*
X52780588Y-36173069D01*
X52780588Y-36173070D01*
X52780586Y-36173072D01*
X52753616Y-36210193D01*
X52678768Y-36313211D01*
X52600128Y-36467552D01*
X52546597Y-36632302D01*
X52531730Y-36726172D01*
X52519500Y-36803389D01*
X34511606Y-36803389D01*
X34533100Y-36723175D01*
X34533100Y-36578225D01*
X34495584Y-36438215D01*
X34494575Y-36436468D01*
X34423111Y-36312688D01*
X34423106Y-36312682D01*
X34320617Y-36210193D01*
X34320611Y-36210188D01*
X34195088Y-36137717D01*
X34195089Y-36137717D01*
X34183606Y-36134640D01*
X34055075Y-36100200D01*
X33910125Y-36100200D01*
X33781593Y-36134640D01*
X33770111Y-36137717D01*
X33644588Y-36210188D01*
X33644582Y-36210193D01*
X33542093Y-36312682D01*
X33542088Y-36312688D01*
X33469617Y-36438211D01*
X33469616Y-36438215D01*
X33432100Y-36578225D01*
X29677796Y-36578225D01*
X29641084Y-36441215D01*
X29638344Y-36436470D01*
X29568611Y-36315688D01*
X29568606Y-36315682D01*
X29466117Y-36213193D01*
X29466111Y-36213188D01*
X29340588Y-36140717D01*
X29340589Y-36140717D01*
X29329106Y-36137640D01*
X29200575Y-36103200D01*
X29055625Y-36103200D01*
X28927093Y-36137640D01*
X28915611Y-36140717D01*
X28790088Y-36213188D01*
X28790082Y-36213193D01*
X28687593Y-36315682D01*
X28687588Y-36315688D01*
X28615117Y-36441211D01*
X28615116Y-36441215D01*
X28577600Y-36581225D01*
X500500Y-36581225D01*
X500500Y-35325525D01*
X15649900Y-35325525D01*
X15649900Y-35470475D01*
X15670884Y-35548786D01*
X15687417Y-35610488D01*
X15759888Y-35736011D01*
X15759890Y-35736013D01*
X15759891Y-35736015D01*
X15862385Y-35838509D01*
X15862386Y-35838510D01*
X15862388Y-35838511D01*
X15987911Y-35910982D01*
X15987912Y-35910982D01*
X15987915Y-35910984D01*
X16127925Y-35948500D01*
X16127928Y-35948500D01*
X16272872Y-35948500D01*
X16272875Y-35948500D01*
X16412885Y-35910984D01*
X16538415Y-35838509D01*
X16640909Y-35736015D01*
X16684493Y-35660525D01*
X18613600Y-35660525D01*
X18613600Y-35805475D01*
X18646059Y-35926613D01*
X18651117Y-35945488D01*
X18723588Y-36071011D01*
X18723590Y-36071013D01*
X18723591Y-36071015D01*
X18826085Y-36173509D01*
X18826086Y-36173510D01*
X18826088Y-36173511D01*
X18951611Y-36245982D01*
X18951612Y-36245982D01*
X18951615Y-36245984D01*
X19091625Y-36283500D01*
X19091628Y-36283500D01*
X19236572Y-36283500D01*
X19236575Y-36283500D01*
X19376585Y-36245984D01*
X19502115Y-36173509D01*
X19591019Y-36084605D01*
X19652342Y-36051120D01*
X19722034Y-36056104D01*
X19766381Y-36084605D01*
X19864685Y-36182909D01*
X19864686Y-36182910D01*
X19864688Y-36182911D01*
X19990211Y-36255382D01*
X19990212Y-36255382D01*
X19990215Y-36255384D01*
X20130225Y-36292900D01*
X20130228Y-36292900D01*
X20275172Y-36292900D01*
X20275175Y-36292900D01*
X20415185Y-36255384D01*
X20540715Y-36182909D01*
X20643209Y-36080415D01*
X20715684Y-35954885D01*
X20753200Y-35814875D01*
X20753200Y-35669925D01*
X20715684Y-35529915D01*
X20682345Y-35472171D01*
X20643211Y-35404388D01*
X20643206Y-35404382D01*
X20540717Y-35301893D01*
X20540711Y-35301888D01*
X20415188Y-35229417D01*
X20415189Y-35229417D01*
X20403706Y-35226340D01*
X20275175Y-35191900D01*
X20130225Y-35191900D01*
X20001693Y-35226340D01*
X19990211Y-35229417D01*
X19864688Y-35301888D01*
X19864682Y-35301893D01*
X19775781Y-35390795D01*
X19714458Y-35424280D01*
X19644766Y-35419296D01*
X19600419Y-35390795D01*
X19502117Y-35292493D01*
X19502111Y-35292488D01*
X19376588Y-35220017D01*
X19376589Y-35220017D01*
X19365106Y-35216940D01*
X19236575Y-35182500D01*
X19091625Y-35182500D01*
X18963093Y-35216940D01*
X18951611Y-35220017D01*
X18826088Y-35292488D01*
X18826082Y-35292493D01*
X18723593Y-35394982D01*
X18723588Y-35394988D01*
X18651117Y-35520511D01*
X18651116Y-35520515D01*
X18613600Y-35660525D01*
X16684493Y-35660525D01*
X16713384Y-35610485D01*
X16750900Y-35470475D01*
X16750900Y-35325525D01*
X16713384Y-35185515D01*
X16711643Y-35182500D01*
X16640911Y-35059988D01*
X16640906Y-35059982D01*
X16538417Y-34957493D01*
X16538411Y-34957488D01*
X16412888Y-34885017D01*
X16412889Y-34885017D01*
X16401406Y-34881940D01*
X16272875Y-34847500D01*
X16127925Y-34847500D01*
X15999393Y-34881940D01*
X15987911Y-34885017D01*
X15862388Y-34957488D01*
X15862382Y-34957493D01*
X15759893Y-35059982D01*
X15759888Y-35059988D01*
X15687417Y-35185511D01*
X15687416Y-35185515D01*
X15649900Y-35325525D01*
X500500Y-35325525D01*
X500500Y-34071457D01*
X774499Y-34071457D01*
X802379Y-34211614D01*
X802381Y-34211620D01*
X857069Y-34343650D01*
X857074Y-34343659D01*
X936467Y-34462478D01*
X936470Y-34462482D01*
X1037517Y-34563529D01*
X1037521Y-34563532D01*
X1156340Y-34642925D01*
X1156346Y-34642928D01*
X1156347Y-34642929D01*
X1288380Y-34697619D01*
X1288384Y-34697619D01*
X1288385Y-34697620D01*
X1428542Y-34725500D01*
X1428545Y-34725500D01*
X1571457Y-34725500D01*
X1665751Y-34706742D01*
X1711620Y-34697619D01*
X1843653Y-34642929D01*
X1962479Y-34563532D01*
X2063532Y-34462479D01*
X2142929Y-34343653D01*
X2197619Y-34211620D01*
X2206742Y-34165751D01*
X2225500Y-34071457D01*
X2225500Y-33928542D01*
X2197620Y-33788385D01*
X2197619Y-33788384D01*
X2197619Y-33788380D01*
X2142929Y-33656347D01*
X2142928Y-33656346D01*
X2142925Y-33656340D01*
X2063532Y-33537521D01*
X2063529Y-33537517D01*
X1962482Y-33436470D01*
X1962478Y-33436467D01*
X1843659Y-33357074D01*
X1843650Y-33357069D01*
X1711620Y-33302381D01*
X1711614Y-33302379D01*
X1571457Y-33274500D01*
X1571455Y-33274500D01*
X1428545Y-33274500D01*
X1428543Y-33274500D01*
X1288385Y-33302379D01*
X1288379Y-33302381D01*
X1156349Y-33357069D01*
X1156340Y-33357074D01*
X1037521Y-33436467D01*
X1037517Y-33436470D01*
X936470Y-33537517D01*
X936467Y-33537521D01*
X857074Y-33656340D01*
X857069Y-33656349D01*
X802381Y-33788379D01*
X802379Y-33788385D01*
X774500Y-33928542D01*
X774500Y-33928545D01*
X774500Y-34071455D01*
X774500Y-34071457D01*
X774499Y-34071457D01*
X500500Y-34071457D01*
X500500Y-32712425D01*
X26958800Y-32712425D01*
X26958800Y-32857375D01*
X26993656Y-32987456D01*
X26996317Y-32997388D01*
X27068788Y-33122911D01*
X27068790Y-33122913D01*
X27068791Y-33122915D01*
X27171285Y-33225409D01*
X27171286Y-33225410D01*
X27171288Y-33225411D01*
X27296811Y-33297882D01*
X27296812Y-33297882D01*
X27296815Y-33297884D01*
X27436825Y-33335400D01*
X27436828Y-33335400D01*
X27581772Y-33335400D01*
X27581775Y-33335400D01*
X27721785Y-33297884D01*
X27847315Y-33225409D01*
X27949809Y-33122915D01*
X28016199Y-33007925D01*
X33432100Y-33007925D01*
X33432100Y-33152875D01*
X33467179Y-33283789D01*
X33469617Y-33292888D01*
X33542088Y-33418411D01*
X33542090Y-33418413D01*
X33542091Y-33418415D01*
X33644585Y-33520909D01*
X33644586Y-33520910D01*
X33644588Y-33520911D01*
X33770111Y-33593382D01*
X33770112Y-33593382D01*
X33770115Y-33593384D01*
X33910125Y-33630900D01*
X33910128Y-33630900D01*
X34055072Y-33630900D01*
X34055075Y-33630900D01*
X34195085Y-33593384D01*
X34320615Y-33520909D01*
X34423109Y-33418415D01*
X34495584Y-33292885D01*
X34533100Y-33152875D01*
X34533100Y-33007925D01*
X34495584Y-32867915D01*
X34495164Y-32867188D01*
X34468339Y-32820725D01*
X36971400Y-32820725D01*
X36971400Y-32965675D01*
X37008916Y-33105685D01*
X37008917Y-33105688D01*
X37081388Y-33231211D01*
X37081390Y-33231213D01*
X37081391Y-33231215D01*
X37183885Y-33333709D01*
X37183886Y-33333710D01*
X37183888Y-33333711D01*
X37309411Y-33406182D01*
X37309412Y-33406182D01*
X37309415Y-33406184D01*
X37449425Y-33443700D01*
X37449428Y-33443700D01*
X37451561Y-33443981D01*
X37453227Y-33444718D01*
X37457276Y-33445803D01*
X37457106Y-33446434D01*
X37515457Y-33472248D01*
X37553928Y-33530573D01*
X37554759Y-33600437D01*
X37535693Y-33639805D01*
X37438770Y-33773208D01*
X37360128Y-33927552D01*
X37306597Y-34092302D01*
X37287700Y-34211614D01*
X37279500Y-34263389D01*
X37279500Y-34436611D01*
X37306598Y-34607701D01*
X37360127Y-34772445D01*
X37438768Y-34926788D01*
X37540586Y-35066928D01*
X37663072Y-35189414D01*
X37803212Y-35291232D01*
X37957555Y-35369873D01*
X38122299Y-35423402D01*
X38293389Y-35450500D01*
X38293390Y-35450500D01*
X38466610Y-35450500D01*
X38466611Y-35450500D01*
X38637701Y-35423402D01*
X38802445Y-35369873D01*
X38956788Y-35291232D01*
X39096928Y-35189414D01*
X39219414Y-35066928D01*
X39321232Y-34926788D01*
X39399873Y-34772445D01*
X39453402Y-34607701D01*
X39480500Y-34436611D01*
X39480500Y-34263389D01*
X39453402Y-34092299D01*
X39399873Y-33927555D01*
X39321232Y-33773212D01*
X39219414Y-33633072D01*
X39096928Y-33510586D01*
X38956788Y-33408768D01*
X38802445Y-33330127D01*
X38637701Y-33276598D01*
X38637699Y-33276597D01*
X38637698Y-33276597D01*
X38506271Y-33255781D01*
X38466611Y-33249500D01*
X38293389Y-33249500D01*
X38181478Y-33267224D01*
X38171672Y-33268778D01*
X38137529Y-33264365D01*
X38103380Y-33260257D01*
X38102941Y-33259894D01*
X38102379Y-33259822D01*
X38076054Y-33237661D01*
X38049534Y-33215732D01*
X38049361Y-33215190D01*
X38048927Y-33214825D01*
X38038763Y-33181952D01*
X38028308Y-33149165D01*
X38028427Y-33148525D01*
X38028288Y-33148074D01*
X38032524Y-33114124D01*
X38034711Y-33105983D01*
X38034884Y-33105685D01*
X38066705Y-32986927D01*
X38084655Y-32957527D01*
X38103046Y-32927354D01*
X38103089Y-32927333D01*
X38103113Y-32927294D01*
X38134107Y-32912265D01*
X38165893Y-32896825D01*
X38165951Y-32896824D01*
X38165982Y-32896810D01*
X38166098Y-32896824D01*
X38205849Y-32896635D01*
X38293389Y-32910500D01*
X38293391Y-32910500D01*
X38466610Y-32910500D01*
X38466611Y-32910500D01*
X38637701Y-32883402D01*
X38802445Y-32829873D01*
X38956788Y-32751232D01*
X39096928Y-32649414D01*
X39219414Y-32526928D01*
X39321232Y-32386788D01*
X39399873Y-32232445D01*
X39453402Y-32067701D01*
X39480500Y-31896611D01*
X39480500Y-31723389D01*
X39479876Y-31719448D01*
X52469500Y-31719448D01*
X52469500Y-31900551D01*
X52497829Y-32079410D01*
X52553787Y-32251636D01*
X52553788Y-32251639D01*
X52609664Y-32361300D01*
X52622651Y-32386788D01*
X52636006Y-32412997D01*
X52742441Y-32559494D01*
X52742445Y-32559499D01*
X52870500Y-32687554D01*
X52870505Y-32687558D01*
X52958146Y-32751232D01*
X53017006Y-32793996D01*
X53122484Y-32847740D01*
X53178360Y-32876211D01*
X53178363Y-32876212D01*
X53241759Y-32896810D01*
X53350591Y-32932171D01*
X53423639Y-32943740D01*
X53510678Y-32957527D01*
X53573813Y-32987456D01*
X53610744Y-33046768D01*
X53609746Y-33116631D01*
X53571136Y-33174863D01*
X53510678Y-33202473D01*
X53350589Y-33227829D01*
X53178363Y-33283787D01*
X53178360Y-33283788D01*
X53017002Y-33366006D01*
X52870505Y-33472441D01*
X52870500Y-33472445D01*
X52742445Y-33600500D01*
X52742441Y-33600505D01*
X52636006Y-33747002D01*
X52553788Y-33908360D01*
X52553787Y-33908363D01*
X52497829Y-34080589D01*
X52469500Y-34259448D01*
X52469500Y-34440551D01*
X52497829Y-34619410D01*
X52553787Y-34791636D01*
X52553788Y-34791639D01*
X52601367Y-34885016D01*
X52622651Y-34926788D01*
X52636006Y-34952997D01*
X52742441Y-35099494D01*
X52742445Y-35099499D01*
X52870500Y-35227554D01*
X52870505Y-35227558D01*
X52972813Y-35301888D01*
X53017006Y-35333996D01*
X53122484Y-35387740D01*
X53178360Y-35416211D01*
X53178363Y-35416212D01*
X53264476Y-35444191D01*
X53350591Y-35472171D01*
X53433429Y-35485291D01*
X53529449Y-35500500D01*
X53529454Y-35500500D01*
X53710551Y-35500500D01*
X53797259Y-35486765D01*
X53889409Y-35472171D01*
X54061639Y-35416211D01*
X54222994Y-35333996D01*
X54369501Y-35227553D01*
X54497553Y-35099501D01*
X54603996Y-34952994D01*
X54686211Y-34791639D01*
X54742171Y-34619409D01*
X54767026Y-34462482D01*
X54770500Y-34440551D01*
X54770500Y-34259448D01*
X54754019Y-34155397D01*
X54742171Y-34080591D01*
X54692768Y-33928542D01*
X54686212Y-33908363D01*
X54686211Y-33908360D01*
X54657740Y-33852484D01*
X54603996Y-33747006D01*
X54590396Y-33728287D01*
X54497558Y-33600505D01*
X54497554Y-33600500D01*
X54369499Y-33472445D01*
X54369494Y-33472441D01*
X54222997Y-33366006D01*
X54222996Y-33366005D01*
X54222994Y-33366004D01*
X54152582Y-33330127D01*
X54061639Y-33283788D01*
X54061636Y-33283787D01*
X53889410Y-33227829D01*
X53729321Y-33202473D01*
X53666186Y-33172544D01*
X53629255Y-33113232D01*
X53630253Y-33043370D01*
X53668863Y-32985137D01*
X53729321Y-32957527D01*
X53799425Y-32946422D01*
X53889409Y-32932171D01*
X54061639Y-32876211D01*
X54222994Y-32793996D01*
X54369501Y-32687553D01*
X54497553Y-32559501D01*
X54603996Y-32412994D01*
X54686211Y-32251639D01*
X54742171Y-32079409D01*
X54743430Y-32071457D01*
X61424499Y-32071457D01*
X61452379Y-32211614D01*
X61452381Y-32211620D01*
X61507069Y-32343650D01*
X61507074Y-32343659D01*
X61586467Y-32462478D01*
X61586470Y-32462482D01*
X61687517Y-32563529D01*
X61687521Y-32563532D01*
X61806340Y-32642925D01*
X61806346Y-32642928D01*
X61806347Y-32642929D01*
X61938380Y-32697619D01*
X61938384Y-32697619D01*
X61938385Y-32697620D01*
X62078542Y-32725500D01*
X62078545Y-32725500D01*
X62221457Y-32725500D01*
X62315751Y-32706742D01*
X62361620Y-32697619D01*
X62493653Y-32642929D01*
X62612479Y-32563532D01*
X62713532Y-32462479D01*
X62792929Y-32343653D01*
X62847619Y-32211620D01*
X62875500Y-32071455D01*
X62875500Y-31928545D01*
X62875500Y-31928542D01*
X62847620Y-31788385D01*
X62847619Y-31788384D01*
X62847619Y-31788380D01*
X62792929Y-31656347D01*
X62792928Y-31656346D01*
X62792925Y-31656340D01*
X62713532Y-31537521D01*
X62713529Y-31537517D01*
X62612482Y-31436470D01*
X62612478Y-31436467D01*
X62493659Y-31357074D01*
X62493650Y-31357069D01*
X62361620Y-31302381D01*
X62361614Y-31302379D01*
X62221457Y-31274500D01*
X62221455Y-31274500D01*
X62078545Y-31274500D01*
X62078543Y-31274500D01*
X61938385Y-31302379D01*
X61938379Y-31302381D01*
X61806349Y-31357069D01*
X61806340Y-31357074D01*
X61687521Y-31436467D01*
X61687517Y-31436470D01*
X61586470Y-31537517D01*
X61586467Y-31537521D01*
X61507074Y-31656340D01*
X61507069Y-31656349D01*
X61452381Y-31788379D01*
X61452379Y-31788385D01*
X61424500Y-31928542D01*
X61424500Y-31928545D01*
X61424500Y-32071455D01*
X61424500Y-32071457D01*
X61424499Y-32071457D01*
X54743430Y-32071457D01*
X54761336Y-31958401D01*
X54770103Y-31903055D01*
X54770104Y-31903047D01*
X54770500Y-31900547D01*
X54770500Y-31719448D01*
X54754019Y-31615397D01*
X54742171Y-31540591D01*
X54708340Y-31436467D01*
X54686212Y-31368363D01*
X54686211Y-31368360D01*
X54638386Y-31274500D01*
X54603996Y-31207006D01*
X54521219Y-31093072D01*
X54497558Y-31060505D01*
X54497554Y-31060500D01*
X54369499Y-30932445D01*
X54369494Y-30932441D01*
X54222997Y-30826006D01*
X54222996Y-30826005D01*
X54222994Y-30826004D01*
X54152582Y-30790127D01*
X54061639Y-30743788D01*
X54061636Y-30743787D01*
X53889410Y-30687829D01*
X53710551Y-30659500D01*
X53710546Y-30659500D01*
X53529454Y-30659500D01*
X53529449Y-30659500D01*
X53350589Y-30687829D01*
X53178363Y-30743787D01*
X53178360Y-30743788D01*
X53017002Y-30826006D01*
X52870505Y-30932441D01*
X52870500Y-30932445D01*
X52742445Y-31060500D01*
X52742441Y-31060505D01*
X52636006Y-31207002D01*
X52553788Y-31368360D01*
X52553787Y-31368363D01*
X52497829Y-31540589D01*
X52469500Y-31719448D01*
X39479876Y-31719448D01*
X39453402Y-31552299D01*
X39399873Y-31387555D01*
X39321232Y-31233212D01*
X39219414Y-31093072D01*
X39096928Y-30970586D01*
X38956788Y-30868768D01*
X38802445Y-30790127D01*
X38637701Y-30736598D01*
X38637699Y-30736597D01*
X38637698Y-30736597D01*
X38506271Y-30715781D01*
X38466611Y-30709500D01*
X38293389Y-30709500D01*
X38253728Y-30715781D01*
X38122302Y-30736597D01*
X37957552Y-30790128D01*
X37803211Y-30868768D01*
X37723256Y-30926859D01*
X37663072Y-30970586D01*
X37663070Y-30970588D01*
X37663069Y-30970588D01*
X37540588Y-31093069D01*
X37540588Y-31093070D01*
X37540586Y-31093072D01*
X37496859Y-31153256D01*
X37438768Y-31233211D01*
X37360128Y-31387552D01*
X37306597Y-31552302D01*
X37290118Y-31656347D01*
X37279500Y-31723389D01*
X37279500Y-31896611D01*
X37280124Y-31900551D01*
X37306597Y-32067698D01*
X37361516Y-32236721D01*
X37363511Y-32306562D01*
X37327431Y-32366395D01*
X37305586Y-32382426D01*
X37183885Y-32452691D01*
X37183882Y-32452693D01*
X37081393Y-32555182D01*
X37081388Y-32555188D01*
X37008917Y-32680711D01*
X37008916Y-32680715D01*
X36971400Y-32820725D01*
X34468339Y-32820725D01*
X34423111Y-32742388D01*
X34423106Y-32742382D01*
X34320617Y-32639893D01*
X34320611Y-32639888D01*
X34195088Y-32567417D01*
X34195089Y-32567417D01*
X34165546Y-32559501D01*
X34055075Y-32529900D01*
X33910125Y-32529900D01*
X33799654Y-32559501D01*
X33770111Y-32567417D01*
X33644588Y-32639888D01*
X33644582Y-32639893D01*
X33542093Y-32742382D01*
X33542088Y-32742388D01*
X33469617Y-32867911D01*
X33469616Y-32867915D01*
X33432100Y-33007925D01*
X28016199Y-33007925D01*
X28022284Y-32997385D01*
X28059800Y-32857375D01*
X28059800Y-32712425D01*
X28022284Y-32572415D01*
X28019398Y-32567417D01*
X27949811Y-32446888D01*
X27949806Y-32446882D01*
X27847317Y-32344393D01*
X27847311Y-32344388D01*
X27721788Y-32271917D01*
X27721789Y-32271917D01*
X27710306Y-32268840D01*
X27581775Y-32234400D01*
X27436825Y-32234400D01*
X27308293Y-32268840D01*
X27296811Y-32271917D01*
X27171288Y-32344388D01*
X27171282Y-32344393D01*
X27068793Y-32446882D01*
X27068788Y-32446888D01*
X26996317Y-32572411D01*
X26996316Y-32572415D01*
X26958800Y-32712425D01*
X500500Y-32712425D01*
X500500Y-32017225D01*
X7496000Y-32017225D01*
X7496000Y-32162175D01*
X7525406Y-32271917D01*
X7533517Y-32302188D01*
X7605988Y-32427711D01*
X7605990Y-32427713D01*
X7605991Y-32427715D01*
X7708485Y-32530209D01*
X7708486Y-32530210D01*
X7708488Y-32530211D01*
X7834011Y-32602682D01*
X7834012Y-32602682D01*
X7834015Y-32602684D01*
X7974025Y-32640200D01*
X7974028Y-32640200D01*
X8118972Y-32640200D01*
X8118975Y-32640200D01*
X8258985Y-32602684D01*
X8384515Y-32530209D01*
X8487009Y-32427715D01*
X8559484Y-32302185D01*
X8597000Y-32162175D01*
X8597000Y-32017225D01*
X8559484Y-31877215D01*
X8508194Y-31788379D01*
X8487011Y-31751688D01*
X8487006Y-31751682D01*
X8384517Y-31649193D01*
X8384511Y-31649188D01*
X8258988Y-31576717D01*
X8258989Y-31576717D01*
X8247506Y-31573640D01*
X8118975Y-31539200D01*
X7974025Y-31539200D01*
X7845493Y-31573640D01*
X7834011Y-31576717D01*
X7708488Y-31649188D01*
X7708482Y-31649193D01*
X7605993Y-31751682D01*
X7605988Y-31751688D01*
X7533517Y-31877211D01*
X7533516Y-31877215D01*
X7496000Y-32017225D01*
X500500Y-32017225D01*
X500500Y-29421925D01*
X7392900Y-29421925D01*
X7392900Y-29566875D01*
X7430416Y-29706885D01*
X7430417Y-29706888D01*
X7502888Y-29832411D01*
X7502890Y-29832413D01*
X7502891Y-29832415D01*
X7605385Y-29934909D01*
X7605386Y-29934910D01*
X7605388Y-29934911D01*
X7730911Y-30007382D01*
X7730912Y-30007382D01*
X7730915Y-30007384D01*
X7870925Y-30044900D01*
X7870928Y-30044900D01*
X8015872Y-30044900D01*
X8015875Y-30044900D01*
X8155885Y-30007384D01*
X8281415Y-29934909D01*
X8383909Y-29832415D01*
X8456384Y-29706885D01*
X8493900Y-29566875D01*
X8493900Y-29421925D01*
X8456384Y-29281915D01*
X8399500Y-29183389D01*
X37279500Y-29183389D01*
X37279500Y-29356611D01*
X37306598Y-29527701D01*
X37360127Y-29692445D01*
X37438768Y-29846788D01*
X37540586Y-29986928D01*
X37663072Y-30109414D01*
X37803212Y-30211232D01*
X37957555Y-30289873D01*
X38122299Y-30343402D01*
X38293389Y-30370500D01*
X38293390Y-30370500D01*
X38466610Y-30370500D01*
X38466611Y-30370500D01*
X38637701Y-30343402D01*
X38802445Y-30289873D01*
X38956788Y-30211232D01*
X39096928Y-30109414D01*
X39219414Y-29986928D01*
X39262864Y-29927125D01*
X50552500Y-29927125D01*
X50552500Y-30072075D01*
X50590016Y-30212085D01*
X50590017Y-30212088D01*
X50662488Y-30337611D01*
X50662490Y-30337613D01*
X50662491Y-30337615D01*
X50764985Y-30440109D01*
X50764986Y-30440110D01*
X50764988Y-30440111D01*
X50890511Y-30512582D01*
X50890512Y-30512582D01*
X50890515Y-30512584D01*
X51030525Y-30550100D01*
X51030528Y-30550100D01*
X51175472Y-30550100D01*
X51175475Y-30550100D01*
X51315485Y-30512584D01*
X51412582Y-30456525D01*
X59686500Y-30456525D01*
X59686500Y-30601475D01*
X59702048Y-30659500D01*
X59724017Y-30741488D01*
X59796488Y-30867011D01*
X59796490Y-30867013D01*
X59796491Y-30867015D01*
X59898985Y-30969509D01*
X59898986Y-30969510D01*
X59898988Y-30969511D01*
X60024511Y-31041982D01*
X60024512Y-31041982D01*
X60024515Y-31041984D01*
X60164525Y-31079500D01*
X60164528Y-31079500D01*
X60309472Y-31079500D01*
X60309475Y-31079500D01*
X60449485Y-31041984D01*
X60575015Y-30969509D01*
X60677509Y-30867015D01*
X60749984Y-30741485D01*
X60787500Y-30601475D01*
X60787500Y-30456525D01*
X60749984Y-30316515D01*
X60697436Y-30225500D01*
X60677511Y-30190988D01*
X60677506Y-30190982D01*
X60575017Y-30088493D01*
X60575011Y-30088488D01*
X60449488Y-30016017D01*
X60449489Y-30016017D01*
X60417270Y-30007384D01*
X60309475Y-29978500D01*
X60164525Y-29978500D01*
X60056730Y-30007384D01*
X60024511Y-30016017D01*
X59898988Y-30088488D01*
X59898982Y-30088493D01*
X59796493Y-30190982D01*
X59796488Y-30190988D01*
X59724017Y-30316511D01*
X59724016Y-30316515D01*
X59686500Y-30456525D01*
X51412582Y-30456525D01*
X51441015Y-30440109D01*
X51543509Y-30337615D01*
X51615984Y-30212085D01*
X51653500Y-30072075D01*
X51653500Y-29927125D01*
X51615984Y-29787115D01*
X51572393Y-29711614D01*
X51543511Y-29661588D01*
X51543506Y-29661582D01*
X51453381Y-29571457D01*
X61424499Y-29571457D01*
X61452379Y-29711614D01*
X61452381Y-29711620D01*
X61507069Y-29843650D01*
X61507074Y-29843659D01*
X61586467Y-29962478D01*
X61586470Y-29962482D01*
X61687517Y-30063529D01*
X61687521Y-30063532D01*
X61806340Y-30142925D01*
X61806346Y-30142928D01*
X61806347Y-30142929D01*
X61938380Y-30197619D01*
X61938384Y-30197619D01*
X61938385Y-30197620D01*
X62078542Y-30225500D01*
X62078545Y-30225500D01*
X62221457Y-30225500D01*
X62315751Y-30206742D01*
X62361620Y-30197619D01*
X62493653Y-30142929D01*
X62612479Y-30063532D01*
X62713532Y-29962479D01*
X62792929Y-29843653D01*
X62847619Y-29711620D01*
X62875500Y-29571455D01*
X62875500Y-29428545D01*
X62875500Y-29428542D01*
X62847620Y-29288385D01*
X62847619Y-29288384D01*
X62847619Y-29288380D01*
X62792945Y-29156385D01*
X62792930Y-29156349D01*
X62792925Y-29156340D01*
X62713532Y-29037521D01*
X62713529Y-29037517D01*
X62612482Y-28936470D01*
X62612478Y-28936467D01*
X62493659Y-28857074D01*
X62493650Y-28857069D01*
X62361620Y-28802381D01*
X62361614Y-28802379D01*
X62221457Y-28774500D01*
X62221455Y-28774500D01*
X62078545Y-28774500D01*
X62078543Y-28774500D01*
X61938385Y-28802379D01*
X61938379Y-28802381D01*
X61806349Y-28857069D01*
X61806340Y-28857074D01*
X61687521Y-28936467D01*
X61687517Y-28936470D01*
X61586470Y-29037517D01*
X61586467Y-29037521D01*
X61507074Y-29156340D01*
X61507069Y-29156349D01*
X61452381Y-29288379D01*
X61452379Y-29288385D01*
X61424500Y-29428542D01*
X61424500Y-29428545D01*
X61424500Y-29571455D01*
X61424500Y-29571457D01*
X61424499Y-29571457D01*
X51453381Y-29571457D01*
X51441017Y-29559093D01*
X51441015Y-29559091D01*
X51315485Y-29486616D01*
X51175475Y-29449100D01*
X51030525Y-29449100D01*
X50901993Y-29483540D01*
X50890511Y-29486617D01*
X50764988Y-29559088D01*
X50764982Y-29559093D01*
X50662493Y-29661582D01*
X50662488Y-29661588D01*
X50590017Y-29787111D01*
X50590016Y-29787115D01*
X50552500Y-29927125D01*
X39262864Y-29927125D01*
X39321232Y-29846788D01*
X39399873Y-29692445D01*
X39453402Y-29527701D01*
X39480500Y-29356611D01*
X39480500Y-29183389D01*
X39453402Y-29012299D01*
X39399873Y-28847555D01*
X39321232Y-28693212D01*
X39219414Y-28553072D01*
X39096928Y-28430586D01*
X38956788Y-28328768D01*
X38802445Y-28250127D01*
X38637701Y-28196598D01*
X38637699Y-28196597D01*
X38637698Y-28196597D01*
X38506271Y-28175781D01*
X38466611Y-28169500D01*
X38293389Y-28169500D01*
X38253728Y-28175781D01*
X38122302Y-28196597D01*
X37957552Y-28250128D01*
X37803211Y-28328768D01*
X37723256Y-28386859D01*
X37663072Y-28430586D01*
X37663070Y-28430588D01*
X37663069Y-28430588D01*
X37540588Y-28553069D01*
X37540588Y-28553070D01*
X37540586Y-28553072D01*
X37496859Y-28613256D01*
X37438768Y-28693211D01*
X37360128Y-28847552D01*
X37306597Y-29012302D01*
X37279500Y-29183389D01*
X8399500Y-29183389D01*
X8383909Y-29156385D01*
X8281415Y-29053891D01*
X8281413Y-29053890D01*
X8281411Y-29053888D01*
X8155888Y-28981417D01*
X8155889Y-28981417D01*
X8144406Y-28978340D01*
X8015875Y-28943900D01*
X7870925Y-28943900D01*
X7742393Y-28978340D01*
X7730911Y-28981417D01*
X7605388Y-29053888D01*
X7605382Y-29053893D01*
X7502893Y-29156382D01*
X7502888Y-29156388D01*
X7430417Y-29281911D01*
X7430416Y-29281915D01*
X7392900Y-29421925D01*
X500500Y-29421925D01*
X500500Y-27298025D01*
X33432100Y-27298025D01*
X33432100Y-27442975D01*
X33465979Y-27569411D01*
X33469617Y-27582988D01*
X33542088Y-27708511D01*
X33542090Y-27708513D01*
X33542091Y-27708515D01*
X33644585Y-27811009D01*
X33644586Y-27811010D01*
X33644588Y-27811011D01*
X33770111Y-27883482D01*
X33770112Y-27883482D01*
X33770115Y-27883484D01*
X33910125Y-27921000D01*
X33910128Y-27921000D01*
X34055072Y-27921000D01*
X34055075Y-27921000D01*
X34195085Y-27883484D01*
X34320615Y-27811009D01*
X34423109Y-27708515D01*
X34495584Y-27582985D01*
X34533100Y-27442975D01*
X34533100Y-27298025D01*
X34495584Y-27158015D01*
X34492369Y-27152447D01*
X34423111Y-27032488D01*
X34423106Y-27032482D01*
X34320617Y-26929993D01*
X34320611Y-26929988D01*
X34195088Y-26857517D01*
X34195089Y-26857517D01*
X34183606Y-26854440D01*
X34055075Y-26820000D01*
X33910125Y-26820000D01*
X33781593Y-26854440D01*
X33770111Y-26857517D01*
X33644588Y-26929988D01*
X33644582Y-26929993D01*
X33542093Y-27032482D01*
X33542088Y-27032488D01*
X33469617Y-27158011D01*
X33469616Y-27158015D01*
X33432100Y-27298025D01*
X500500Y-27298025D01*
X500500Y-26643389D01*
X37279500Y-26643389D01*
X37279500Y-26816610D01*
X37297457Y-26929991D01*
X37306598Y-26987701D01*
X37360127Y-27152445D01*
X37438768Y-27306788D01*
X37540586Y-27446928D01*
X37663072Y-27569414D01*
X37803212Y-27671232D01*
X37957555Y-27749873D01*
X38122299Y-27803402D01*
X38293389Y-27830500D01*
X38293390Y-27830500D01*
X38466610Y-27830500D01*
X38466611Y-27830500D01*
X38637701Y-27803402D01*
X38802445Y-27749873D01*
X38956788Y-27671232D01*
X39096928Y-27569414D01*
X39219414Y-27446928D01*
X39321232Y-27306788D01*
X39399873Y-27152445D01*
X39453402Y-26987701D01*
X39480500Y-26816611D01*
X39480500Y-26643389D01*
X39453402Y-26472299D01*
X39399873Y-26307555D01*
X39321232Y-26153212D01*
X39219414Y-26013072D01*
X39096928Y-25890586D01*
X38956788Y-25788768D01*
X38802445Y-25710127D01*
X38637701Y-25656598D01*
X38637699Y-25656597D01*
X38637698Y-25656597D01*
X38506271Y-25635781D01*
X38466611Y-25629500D01*
X38293389Y-25629500D01*
X38253728Y-25635781D01*
X38122302Y-25656597D01*
X37957552Y-25710128D01*
X37803211Y-25788768D01*
X37723256Y-25846859D01*
X37663072Y-25890586D01*
X37663070Y-25890588D01*
X37663069Y-25890588D01*
X37540588Y-26013069D01*
X37540588Y-26013070D01*
X37540586Y-26013072D01*
X37496859Y-26073256D01*
X37438768Y-26153211D01*
X37360128Y-26307552D01*
X37306597Y-26472302D01*
X37279500Y-26643389D01*
X500500Y-26643389D01*
X500500Y-24103389D01*
X37279500Y-24103389D01*
X37279500Y-24276611D01*
X37306598Y-24447701D01*
X37360127Y-24612445D01*
X37438768Y-24766788D01*
X37540586Y-24906928D01*
X37663072Y-25029414D01*
X37803212Y-25131232D01*
X37957555Y-25209873D01*
X38122299Y-25263402D01*
X38293389Y-25290500D01*
X38293390Y-25290500D01*
X38466610Y-25290500D01*
X38466611Y-25290500D01*
X38637701Y-25263402D01*
X38802445Y-25209873D01*
X38956788Y-25131232D01*
X39096928Y-25029414D01*
X39219414Y-24906928D01*
X39321232Y-24766788D01*
X39399873Y-24612445D01*
X39453402Y-24447701D01*
X39480500Y-24276611D01*
X39480500Y-24103389D01*
X39479876Y-24099448D01*
X52469500Y-24099448D01*
X52469500Y-24280551D01*
X52497829Y-24459410D01*
X52553787Y-24631636D01*
X52553788Y-24631639D01*
X52609664Y-24741300D01*
X52622651Y-24766788D01*
X52636006Y-24792997D01*
X52742441Y-24939494D01*
X52742445Y-24939499D01*
X52870500Y-25067554D01*
X52870505Y-25067558D01*
X52958146Y-25131232D01*
X53017006Y-25173996D01*
X53122484Y-25227740D01*
X53178360Y-25256211D01*
X53178363Y-25256212D01*
X53264476Y-25284191D01*
X53350591Y-25312171D01*
X53423639Y-25323740D01*
X53510678Y-25337527D01*
X53573813Y-25367456D01*
X53610744Y-25426768D01*
X53609746Y-25496631D01*
X53571136Y-25554863D01*
X53510678Y-25582473D01*
X53350589Y-25607829D01*
X53178363Y-25663787D01*
X53178360Y-25663788D01*
X53017002Y-25746006D01*
X52870505Y-25852441D01*
X52870500Y-25852445D01*
X52742445Y-25980500D01*
X52742441Y-25980505D01*
X52636006Y-26127002D01*
X52553788Y-26288360D01*
X52553787Y-26288363D01*
X52497829Y-26460589D01*
X52469500Y-26639448D01*
X52469500Y-26820551D01*
X52497829Y-26999410D01*
X52553787Y-27171636D01*
X52553788Y-27171639D01*
X52609664Y-27281300D01*
X52622651Y-27306788D01*
X52636006Y-27332997D01*
X52742441Y-27479494D01*
X52742445Y-27479499D01*
X52870500Y-27607554D01*
X52870505Y-27607558D01*
X52958146Y-27671232D01*
X53017006Y-27713996D01*
X53122484Y-27767740D01*
X53178360Y-27796211D01*
X53178363Y-27796212D01*
X53223896Y-27811006D01*
X53350591Y-27852171D01*
X53433429Y-27865291D01*
X53529449Y-27880500D01*
X53529454Y-27880500D01*
X53710551Y-27880500D01*
X53797259Y-27866765D01*
X53889409Y-27852171D01*
X54061639Y-27796211D01*
X54222994Y-27713996D01*
X54369501Y-27607553D01*
X54497553Y-27479501D01*
X54603996Y-27332994D01*
X54686211Y-27171639D01*
X54742171Y-26999409D01*
X54756765Y-26907259D01*
X54770500Y-26820551D01*
X54770500Y-26639448D01*
X54754019Y-26535397D01*
X54742171Y-26460591D01*
X54714191Y-26374476D01*
X54686212Y-26288363D01*
X54686211Y-26288360D01*
X54657740Y-26232484D01*
X54603996Y-26127006D01*
X54521219Y-26013072D01*
X54497558Y-25980505D01*
X54497554Y-25980500D01*
X54369499Y-25852445D01*
X54369494Y-25852441D01*
X54222997Y-25746006D01*
X54222996Y-25746005D01*
X54222994Y-25746004D01*
X54152582Y-25710127D01*
X54061639Y-25663788D01*
X54061636Y-25663787D01*
X53889410Y-25607829D01*
X53729321Y-25582473D01*
X53666186Y-25552544D01*
X53629255Y-25493232D01*
X53630253Y-25423370D01*
X53668863Y-25365137D01*
X53729321Y-25337527D01*
X53799425Y-25326422D01*
X53889409Y-25312171D01*
X54061639Y-25256211D01*
X54222994Y-25173996D01*
X54369501Y-25067553D01*
X54497553Y-24939501D01*
X54603996Y-24792994D01*
X54686211Y-24631639D01*
X54742171Y-24459409D01*
X54756765Y-24367259D01*
X54770500Y-24280551D01*
X54770500Y-24099448D01*
X54754019Y-23995397D01*
X54742171Y-23920591D01*
X54714191Y-23834476D01*
X54686212Y-23748363D01*
X54686211Y-23748360D01*
X54657740Y-23692484D01*
X54603996Y-23587006D01*
X54521219Y-23473072D01*
X54497558Y-23440505D01*
X54497554Y-23440500D01*
X54369499Y-23312445D01*
X54369494Y-23312441D01*
X54222997Y-23206006D01*
X54222996Y-23206005D01*
X54222994Y-23206004D01*
X54152582Y-23170127D01*
X54061639Y-23123788D01*
X54061636Y-23123787D01*
X53889410Y-23067829D01*
X53710551Y-23039500D01*
X53710546Y-23039500D01*
X53529454Y-23039500D01*
X53529449Y-23039500D01*
X53350589Y-23067829D01*
X53178363Y-23123787D01*
X53178360Y-23123788D01*
X53017002Y-23206006D01*
X52870505Y-23312441D01*
X52870500Y-23312445D01*
X52742445Y-23440500D01*
X52742441Y-23440505D01*
X52636006Y-23587002D01*
X52553788Y-23748360D01*
X52553787Y-23748363D01*
X52497829Y-23920589D01*
X52469500Y-24099448D01*
X39479876Y-24099448D01*
X39453402Y-23932299D01*
X39399873Y-23767555D01*
X39321232Y-23613212D01*
X39219414Y-23473072D01*
X39096928Y-23350586D01*
X38956788Y-23248768D01*
X38802445Y-23170127D01*
X38637701Y-23116598D01*
X38637699Y-23116597D01*
X38637698Y-23116597D01*
X38506271Y-23095781D01*
X38466611Y-23089500D01*
X38293389Y-23089500D01*
X38253728Y-23095781D01*
X38122302Y-23116597D01*
X37957552Y-23170128D01*
X37803211Y-23248768D01*
X37723256Y-23306859D01*
X37663072Y-23350586D01*
X37663070Y-23350588D01*
X37663069Y-23350588D01*
X37540588Y-23473069D01*
X37540588Y-23473070D01*
X37540586Y-23473072D01*
X37496859Y-23533256D01*
X37438768Y-23613211D01*
X37360128Y-23767552D01*
X37306597Y-23932302D01*
X37280124Y-24099448D01*
X37279500Y-24103389D01*
X500500Y-24103389D01*
X500500Y-21971125D01*
X21553700Y-21971125D01*
X21553700Y-22116075D01*
X21583366Y-22226788D01*
X21591217Y-22256088D01*
X21663688Y-22381611D01*
X21663690Y-22381613D01*
X21663691Y-22381615D01*
X21766185Y-22484109D01*
X21766186Y-22484110D01*
X21766188Y-22484111D01*
X21891711Y-22556582D01*
X21891712Y-22556582D01*
X21891715Y-22556584D01*
X22031725Y-22594100D01*
X22031728Y-22594100D01*
X22176672Y-22594100D01*
X22176675Y-22594100D01*
X22316685Y-22556584D01*
X22442215Y-22484109D01*
X22544709Y-22381615D01*
X22617184Y-22256085D01*
X22654700Y-22116075D01*
X22654700Y-21971125D01*
X22617184Y-21831115D01*
X22571779Y-21752472D01*
X22544711Y-21705588D01*
X22544706Y-21705582D01*
X22442217Y-21603093D01*
X22442211Y-21603088D01*
X22316688Y-21530617D01*
X22316689Y-21530617D01*
X22305198Y-21527538D01*
X22176675Y-21493100D01*
X22031725Y-21493100D01*
X21903202Y-21527538D01*
X21891711Y-21530617D01*
X21766188Y-21603088D01*
X21766182Y-21603093D01*
X21663693Y-21705582D01*
X21663688Y-21705588D01*
X21591217Y-21831111D01*
X21591216Y-21831115D01*
X21553700Y-21971125D01*
X500500Y-21971125D01*
X500500Y-21401871D01*
X30735099Y-21401871D01*
X30760097Y-21527538D01*
X30760099Y-21527544D01*
X30809133Y-21645924D01*
X30809138Y-21645933D01*
X30880323Y-21752468D01*
X30880326Y-21752472D01*
X30970927Y-21843073D01*
X30970931Y-21843076D01*
X31077466Y-21914261D01*
X31077472Y-21914264D01*
X31077473Y-21914265D01*
X31195856Y-21963301D01*
X31195860Y-21963301D01*
X31195861Y-21963302D01*
X31321528Y-21988300D01*
X31321531Y-21988300D01*
X31449671Y-21988300D01*
X31536011Y-21971125D01*
X31575344Y-21963301D01*
X31693727Y-21914265D01*
X31800269Y-21843076D01*
X31890876Y-21752469D01*
X31962065Y-21645927D01*
X31996253Y-21563389D01*
X37279500Y-21563389D01*
X37279500Y-21736611D01*
X37306598Y-21907701D01*
X37360127Y-22072445D01*
X37438768Y-22226788D01*
X37540586Y-22366928D01*
X37663072Y-22489414D01*
X37803212Y-22591232D01*
X37957555Y-22669873D01*
X38122299Y-22723402D01*
X38293389Y-22750500D01*
X38293390Y-22750500D01*
X38466610Y-22750500D01*
X38466611Y-22750500D01*
X38637701Y-22723402D01*
X38802445Y-22669873D01*
X38956788Y-22591232D01*
X39096928Y-22489414D01*
X39219414Y-22366928D01*
X39321232Y-22226788D01*
X39399873Y-22072445D01*
X39453402Y-21907701D01*
X39480500Y-21736611D01*
X39480500Y-21563389D01*
X52519500Y-21563389D01*
X52519500Y-21736611D01*
X52546598Y-21907701D01*
X52600127Y-22072445D01*
X52678768Y-22226788D01*
X52780586Y-22366928D01*
X52903072Y-22489414D01*
X53043212Y-22591232D01*
X53197555Y-22669873D01*
X53362299Y-22723402D01*
X53533389Y-22750500D01*
X53533390Y-22750500D01*
X53706610Y-22750500D01*
X53706611Y-22750500D01*
X53877701Y-22723402D01*
X54042445Y-22669873D01*
X54196788Y-22591232D01*
X54336928Y-22489414D01*
X54459414Y-22366928D01*
X54561232Y-22226788D01*
X54639873Y-22072445D01*
X54693402Y-21907701D01*
X54720500Y-21736611D01*
X54720500Y-21563389D01*
X54693402Y-21392299D01*
X54639873Y-21227555D01*
X54561232Y-21073212D01*
X54459414Y-20933072D01*
X54336928Y-20810586D01*
X54196788Y-20708768D01*
X54042445Y-20630127D01*
X53877701Y-20576598D01*
X53877699Y-20576597D01*
X53877698Y-20576597D01*
X53746271Y-20555781D01*
X53706611Y-20549500D01*
X53533389Y-20549500D01*
X53493728Y-20555781D01*
X53362302Y-20576597D01*
X53197552Y-20630128D01*
X53043211Y-20708768D01*
X52985773Y-20750500D01*
X52903072Y-20810586D01*
X52903070Y-20810588D01*
X52903069Y-20810588D01*
X52780588Y-20933069D01*
X52780588Y-20933070D01*
X52780586Y-20933072D01*
X52736859Y-20993256D01*
X52678768Y-21073211D01*
X52600128Y-21227552D01*
X52546597Y-21392302D01*
X52519500Y-21563389D01*
X39480500Y-21563389D01*
X39453402Y-21392299D01*
X39399873Y-21227555D01*
X39321232Y-21073212D01*
X39219414Y-20933072D01*
X39096928Y-20810586D01*
X38956788Y-20708768D01*
X38802445Y-20630127D01*
X38637701Y-20576598D01*
X38637699Y-20576597D01*
X38637698Y-20576597D01*
X38506271Y-20555781D01*
X38466611Y-20549500D01*
X38293389Y-20549500D01*
X38253728Y-20555781D01*
X38122302Y-20576597D01*
X37957552Y-20630128D01*
X37803211Y-20708768D01*
X37745773Y-20750500D01*
X37663072Y-20810586D01*
X37663070Y-20810588D01*
X37663069Y-20810588D01*
X37540588Y-20933069D01*
X37540588Y-20933070D01*
X37540586Y-20933072D01*
X37496859Y-20993256D01*
X37438768Y-21073211D01*
X37360128Y-21227552D01*
X37306597Y-21392302D01*
X37279500Y-21563389D01*
X31996253Y-21563389D01*
X32011101Y-21527544D01*
X32036100Y-21401869D01*
X32036100Y-21273731D01*
X32036100Y-21273728D01*
X32011102Y-21148061D01*
X32011101Y-21148060D01*
X32011101Y-21148056D01*
X31962065Y-21029673D01*
X31962064Y-21029672D01*
X31962061Y-21029666D01*
X31890876Y-20923131D01*
X31890873Y-20923127D01*
X31800272Y-20832526D01*
X31800268Y-20832523D01*
X31693733Y-20761338D01*
X31693724Y-20761333D01*
X31575344Y-20712299D01*
X31575338Y-20712297D01*
X31449671Y-20687300D01*
X31449669Y-20687300D01*
X31321531Y-20687300D01*
X31321529Y-20687300D01*
X31195861Y-20712297D01*
X31195855Y-20712299D01*
X31077475Y-20761333D01*
X31077466Y-20761338D01*
X30970931Y-20832523D01*
X30970927Y-20832526D01*
X30880326Y-20923127D01*
X30880323Y-20923131D01*
X30809138Y-21029666D01*
X30809133Y-21029675D01*
X30760099Y-21148055D01*
X30760097Y-21148061D01*
X30735100Y-21273728D01*
X30735100Y-21273731D01*
X30735100Y-21401869D01*
X30735100Y-21401871D01*
X30735099Y-21401871D01*
X500500Y-21401871D01*
X500500Y-20073920D01*
X749499Y-20073920D01*
X778340Y-20218907D01*
X778343Y-20218917D01*
X834912Y-20355488D01*
X834919Y-20355501D01*
X917048Y-20478415D01*
X917051Y-20478419D01*
X1021580Y-20582948D01*
X1021584Y-20582951D01*
X1144498Y-20665080D01*
X1144511Y-20665087D01*
X1258492Y-20712299D01*
X1281087Y-20721658D01*
X1281091Y-20721658D01*
X1281092Y-20721659D01*
X1426079Y-20750500D01*
X1426082Y-20750500D01*
X1573920Y-20750500D01*
X1671462Y-20731096D01*
X1718913Y-20721658D01*
X1855495Y-20665084D01*
X1978416Y-20582951D01*
X2082951Y-20478416D01*
X2119895Y-20423125D01*
X13944500Y-20423125D01*
X13944500Y-20568075D01*
X13980516Y-20702488D01*
X13982017Y-20708088D01*
X14054488Y-20833611D01*
X14054490Y-20833613D01*
X14054491Y-20833615D01*
X14156985Y-20936109D01*
X14156986Y-20936110D01*
X14156988Y-20936111D01*
X14282511Y-21008582D01*
X14282512Y-21008582D01*
X14282515Y-21008584D01*
X14422525Y-21046100D01*
X14422528Y-21046100D01*
X14567472Y-21046100D01*
X14567475Y-21046100D01*
X14707485Y-21008584D01*
X14833015Y-20936109D01*
X14935509Y-20833615D01*
X15007984Y-20708085D01*
X15045500Y-20568075D01*
X15045500Y-20423125D01*
X15043999Y-20417525D01*
X28449500Y-20417525D01*
X28449500Y-20562475D01*
X28476995Y-20665087D01*
X28487017Y-20702488D01*
X28559488Y-20828011D01*
X28559490Y-20828013D01*
X28559491Y-20828015D01*
X28661985Y-20930509D01*
X28661986Y-20930510D01*
X28661988Y-20930511D01*
X28787511Y-21002982D01*
X28787512Y-21002982D01*
X28787515Y-21002984D01*
X28927525Y-21040500D01*
X28927528Y-21040500D01*
X29072472Y-21040500D01*
X29072475Y-21040500D01*
X29212485Y-21002984D01*
X29338015Y-20930509D01*
X29440509Y-20828015D01*
X29512984Y-20702485D01*
X29550500Y-20562475D01*
X29550500Y-20417525D01*
X29512984Y-20277515D01*
X29479152Y-20218917D01*
X29440511Y-20151988D01*
X29440506Y-20151982D01*
X29338017Y-20049493D01*
X29338011Y-20049488D01*
X29212488Y-19977017D01*
X29212489Y-19977017D01*
X29201006Y-19973940D01*
X29072475Y-19939500D01*
X28927525Y-19939500D01*
X28798993Y-19973940D01*
X28787511Y-19977017D01*
X28661988Y-20049488D01*
X28661982Y-20049493D01*
X28559493Y-20151982D01*
X28559488Y-20151988D01*
X28487017Y-20277511D01*
X28485515Y-20283115D01*
X28449500Y-20417525D01*
X15043999Y-20417525D01*
X15007984Y-20283115D01*
X14970913Y-20218907D01*
X14935511Y-20157588D01*
X14935506Y-20157582D01*
X14833017Y-20055093D01*
X14833011Y-20055088D01*
X14707488Y-19982617D01*
X14707489Y-19982617D01*
X14686586Y-19977016D01*
X14567475Y-19945100D01*
X14422525Y-19945100D01*
X14303414Y-19977016D01*
X14282511Y-19982617D01*
X14156988Y-20055088D01*
X14156982Y-20055093D01*
X14054493Y-20157582D01*
X14054488Y-20157588D01*
X13982017Y-20283111D01*
X13982016Y-20283115D01*
X13944500Y-20423125D01*
X2119895Y-20423125D01*
X2165084Y-20355495D01*
X2221658Y-20218913D01*
X2250500Y-20073918D01*
X2250500Y-19926082D01*
X2250500Y-19926079D01*
X2221659Y-19781092D01*
X2221658Y-19781091D01*
X2221658Y-19781087D01*
X2221656Y-19781082D01*
X2165087Y-19644511D01*
X2165080Y-19644498D01*
X2082951Y-19521584D01*
X2082948Y-19521580D01*
X1978419Y-19417051D01*
X1978415Y-19417048D01*
X1855501Y-19334919D01*
X1855488Y-19334912D01*
X1718917Y-19278343D01*
X1718907Y-19278340D01*
X1573920Y-19249500D01*
X1573918Y-19249500D01*
X1426082Y-19249500D01*
X1426080Y-19249500D01*
X1281092Y-19278340D01*
X1281082Y-19278343D01*
X1144511Y-19334912D01*
X1144498Y-19334919D01*
X1021584Y-19417048D01*
X1021580Y-19417051D01*
X917051Y-19521580D01*
X917048Y-19521584D01*
X834919Y-19644498D01*
X834912Y-19644511D01*
X778343Y-19781082D01*
X778340Y-19781092D01*
X749500Y-19926079D01*
X749500Y-19926082D01*
X749500Y-20073918D01*
X749500Y-20073920D01*
X749499Y-20073920D01*
X500500Y-20073920D01*
X500500Y-17791425D01*
X12688800Y-17791425D01*
X12688800Y-17936375D01*
X12715655Y-18036597D01*
X12726317Y-18076388D01*
X12798788Y-18201911D01*
X12798790Y-18201913D01*
X12798791Y-18201915D01*
X12901285Y-18304409D01*
X12901286Y-18304410D01*
X12901288Y-18304411D01*
X13026811Y-18376882D01*
X13026812Y-18376882D01*
X13026815Y-18376884D01*
X13166825Y-18414400D01*
X13166828Y-18414400D01*
X13311772Y-18414400D01*
X13311775Y-18414400D01*
X13451785Y-18376884D01*
X13577315Y-18304409D01*
X13646403Y-18235321D01*
X37279500Y-18235321D01*
X37279500Y-19984678D01*
X37294032Y-20057735D01*
X37294033Y-20057739D01*
X37304845Y-20073920D01*
X37349399Y-20140601D01*
X37432260Y-20195966D01*
X37432264Y-20195967D01*
X37505321Y-20210499D01*
X37505324Y-20210500D01*
X37505326Y-20210500D01*
X39254676Y-20210500D01*
X39254677Y-20210499D01*
X39327740Y-20195966D01*
X39410601Y-20140601D01*
X39465966Y-20057740D01*
X39480500Y-19984674D01*
X39480500Y-19023389D01*
X52519500Y-19023389D01*
X52519500Y-19196610D01*
X52541404Y-19334912D01*
X52546598Y-19367701D01*
X52600127Y-19532445D01*
X52678768Y-19686788D01*
X52780586Y-19826928D01*
X52903072Y-19949414D01*
X53043212Y-20051232D01*
X53197555Y-20129873D01*
X53362299Y-20183402D01*
X53533389Y-20210500D01*
X53533390Y-20210500D01*
X53706610Y-20210500D01*
X53706611Y-20210500D01*
X53877701Y-20183402D01*
X54042445Y-20129873D01*
X54196788Y-20051232D01*
X54336928Y-19949414D01*
X54459414Y-19826928D01*
X54561232Y-19686788D01*
X54639873Y-19532445D01*
X54693402Y-19367701D01*
X54720500Y-19196611D01*
X54720500Y-19023389D01*
X54693402Y-18852299D01*
X54639873Y-18687555D01*
X54561232Y-18533212D01*
X54459414Y-18393072D01*
X54336928Y-18270586D01*
X54196788Y-18168768D01*
X54042445Y-18090127D01*
X53877701Y-18036598D01*
X53877699Y-18036597D01*
X53877698Y-18036597D01*
X53746271Y-18015781D01*
X53706611Y-18009500D01*
X53533389Y-18009500D01*
X53493728Y-18015781D01*
X53362302Y-18036597D01*
X53197552Y-18090128D01*
X53043211Y-18168768D01*
X52997589Y-18201915D01*
X52903072Y-18270586D01*
X52903070Y-18270588D01*
X52903069Y-18270588D01*
X52780588Y-18393069D01*
X52780588Y-18393070D01*
X52780586Y-18393072D01*
X52736859Y-18453256D01*
X52678768Y-18533211D01*
X52600128Y-18687552D01*
X52546597Y-18852302D01*
X52519500Y-19023389D01*
X39480500Y-19023389D01*
X39480500Y-18235326D01*
X39480500Y-18235323D01*
X39480499Y-18235321D01*
X39465967Y-18162264D01*
X39465966Y-18162260D01*
X39410601Y-18079399D01*
X39327740Y-18024034D01*
X39327739Y-18024033D01*
X39327735Y-18024032D01*
X39254677Y-18009500D01*
X39254674Y-18009500D01*
X37505326Y-18009500D01*
X37505323Y-18009500D01*
X37432264Y-18024032D01*
X37432260Y-18024033D01*
X37349399Y-18079399D01*
X37294033Y-18162260D01*
X37294032Y-18162264D01*
X37279500Y-18235321D01*
X13646403Y-18235321D01*
X13679809Y-18201915D01*
X13752284Y-18076385D01*
X13789800Y-17936375D01*
X13789800Y-17791425D01*
X13752284Y-17651415D01*
X13679809Y-17525885D01*
X13577315Y-17423391D01*
X13577313Y-17423390D01*
X13577311Y-17423388D01*
X13451788Y-17350917D01*
X13451789Y-17350917D01*
X13440306Y-17347840D01*
X13311775Y-17313400D01*
X13166825Y-17313400D01*
X13038293Y-17347840D01*
X13026811Y-17350917D01*
X12901288Y-17423388D01*
X12901282Y-17423393D01*
X12798793Y-17525882D01*
X12798788Y-17525888D01*
X12726317Y-17651411D01*
X12726316Y-17651415D01*
X12688800Y-17791425D01*
X500500Y-17791425D01*
X500500Y-16813171D01*
X53620799Y-16813171D01*
X53645797Y-16938838D01*
X53645799Y-16938844D01*
X53694833Y-17057224D01*
X53694838Y-17057233D01*
X53766023Y-17163768D01*
X53766026Y-17163772D01*
X53856627Y-17254373D01*
X53856631Y-17254376D01*
X53963166Y-17325561D01*
X53963172Y-17325564D01*
X53963173Y-17325565D01*
X54081556Y-17374601D01*
X54081560Y-17374601D01*
X54081561Y-17374602D01*
X54207228Y-17399600D01*
X54207231Y-17399600D01*
X54335371Y-17399600D01*
X54419915Y-17382782D01*
X54461044Y-17374601D01*
X54579427Y-17325565D01*
X54685969Y-17254376D01*
X54776576Y-17163769D01*
X54847765Y-17057227D01*
X54896801Y-16938844D01*
X54899830Y-16923615D01*
X61374500Y-16923615D01*
X61374500Y-17076384D01*
X61404300Y-17226197D01*
X61404302Y-17226205D01*
X61462759Y-17367334D01*
X61462764Y-17367343D01*
X61547629Y-17494351D01*
X61547632Y-17494355D01*
X61655644Y-17602367D01*
X61655648Y-17602370D01*
X61782656Y-17687235D01*
X61782662Y-17687238D01*
X61782663Y-17687239D01*
X61923795Y-17745698D01*
X62073615Y-17775499D01*
X62073619Y-17775500D01*
X62073620Y-17775500D01*
X62226381Y-17775500D01*
X62226382Y-17775499D01*
X62376205Y-17745698D01*
X62517337Y-17687239D01*
X62644352Y-17602370D01*
X62752370Y-17494352D01*
X62837239Y-17367337D01*
X62895698Y-17226205D01*
X62925500Y-17076380D01*
X62925500Y-16923620D01*
X62895698Y-16773795D01*
X62837239Y-16632663D01*
X62837238Y-16632662D01*
X62837235Y-16632656D01*
X62752370Y-16505648D01*
X62752367Y-16505644D01*
X62644355Y-16397632D01*
X62644351Y-16397629D01*
X62517343Y-16312764D01*
X62517334Y-16312759D01*
X62376205Y-16254302D01*
X62376197Y-16254300D01*
X62226384Y-16224500D01*
X62226380Y-16224500D01*
X62073620Y-16224500D01*
X62073615Y-16224500D01*
X61923802Y-16254300D01*
X61923794Y-16254302D01*
X61782665Y-16312759D01*
X61782656Y-16312764D01*
X61655648Y-16397629D01*
X61655644Y-16397632D01*
X61547632Y-16505644D01*
X61547629Y-16505648D01*
X61462764Y-16632656D01*
X61462759Y-16632665D01*
X61404302Y-16773794D01*
X61404300Y-16773802D01*
X61374500Y-16923615D01*
X54899830Y-16923615D01*
X54921800Y-16813169D01*
X54921800Y-16685031D01*
X54921800Y-16685028D01*
X54896802Y-16559361D01*
X54896801Y-16559360D01*
X54896801Y-16559356D01*
X54847765Y-16440973D01*
X54847764Y-16440972D01*
X54847761Y-16440966D01*
X54776576Y-16334431D01*
X54776573Y-16334427D01*
X54685972Y-16243826D01*
X54685968Y-16243823D01*
X54579433Y-16172638D01*
X54579424Y-16172633D01*
X54461044Y-16123599D01*
X54461038Y-16123597D01*
X54335371Y-16098600D01*
X54335369Y-16098600D01*
X54207231Y-16098600D01*
X54207229Y-16098600D01*
X54081561Y-16123597D01*
X54081555Y-16123599D01*
X53963175Y-16172633D01*
X53963166Y-16172638D01*
X53856631Y-16243823D01*
X53856627Y-16243826D01*
X53766026Y-16334427D01*
X53766023Y-16334431D01*
X53694838Y-16440966D01*
X53694833Y-16440975D01*
X53645799Y-16559355D01*
X53645797Y-16559361D01*
X53620800Y-16685028D01*
X53620800Y-16685031D01*
X53620800Y-16813169D01*
X53620800Y-16813171D01*
X53620799Y-16813171D01*
X500500Y-16813171D01*
X500500Y-15730171D01*
X5652699Y-15730171D01*
X5677697Y-15855838D01*
X5677699Y-15855844D01*
X5726733Y-15974224D01*
X5726738Y-15974233D01*
X5797923Y-16080768D01*
X5797926Y-16080772D01*
X5888527Y-16171373D01*
X5888531Y-16171376D01*
X5995066Y-16242561D01*
X5995072Y-16242564D01*
X5995073Y-16242565D01*
X6113456Y-16291601D01*
X6113460Y-16291601D01*
X6113461Y-16291602D01*
X6239128Y-16316600D01*
X6239131Y-16316600D01*
X6367271Y-16316600D01*
X6451815Y-16299782D01*
X6492944Y-16291601D01*
X6611327Y-16242565D01*
X6717869Y-16171376D01*
X6808476Y-16080769D01*
X6879665Y-15974227D01*
X6928701Y-15855844D01*
X6953700Y-15730169D01*
X6953700Y-15602031D01*
X6953700Y-15602028D01*
X6928702Y-15476361D01*
X6928701Y-15476360D01*
X6928701Y-15476356D01*
X6879665Y-15357973D01*
X6879664Y-15357972D01*
X6879661Y-15357966D01*
X6808476Y-15251431D01*
X6808473Y-15251427D01*
X6717872Y-15160826D01*
X6717868Y-15160823D01*
X6611333Y-15089638D01*
X6611324Y-15089633D01*
X6492944Y-15040599D01*
X6492938Y-15040597D01*
X6367271Y-15015600D01*
X6367269Y-15015600D01*
X6239131Y-15015600D01*
X6239129Y-15015600D01*
X6113461Y-15040597D01*
X6113455Y-15040599D01*
X5995075Y-15089633D01*
X5995066Y-15089638D01*
X5888531Y-15160823D01*
X5888527Y-15160826D01*
X5797926Y-15251427D01*
X5797923Y-15251431D01*
X5726738Y-15357966D01*
X5726733Y-15357975D01*
X5677699Y-15476355D01*
X5677697Y-15476361D01*
X5652700Y-15602028D01*
X5652700Y-15602031D01*
X5652700Y-15730169D01*
X5652700Y-15730171D01*
X5652699Y-15730171D01*
X500500Y-15730171D01*
X500500Y-14423615D01*
X61374500Y-14423615D01*
X61374500Y-14576384D01*
X61404300Y-14726197D01*
X61404302Y-14726205D01*
X61462759Y-14867334D01*
X61462764Y-14867343D01*
X61547629Y-14994351D01*
X61547632Y-14994355D01*
X61655644Y-15102367D01*
X61655648Y-15102370D01*
X61782656Y-15187235D01*
X61782662Y-15187238D01*
X61782663Y-15187239D01*
X61923795Y-15245698D01*
X62073615Y-15275499D01*
X62073619Y-15275500D01*
X62073620Y-15275500D01*
X62226381Y-15275500D01*
X62226382Y-15275499D01*
X62376205Y-15245698D01*
X62517337Y-15187239D01*
X62644352Y-15102370D01*
X62752370Y-14994352D01*
X62837239Y-14867337D01*
X62895698Y-14726205D01*
X62925500Y-14576380D01*
X62925500Y-14423620D01*
X62895698Y-14273795D01*
X62837239Y-14132663D01*
X62837238Y-14132662D01*
X62837235Y-14132656D01*
X62752370Y-14005648D01*
X62752367Y-14005644D01*
X62644355Y-13897632D01*
X62644351Y-13897629D01*
X62517343Y-13812764D01*
X62517334Y-13812759D01*
X62376205Y-13754302D01*
X62376197Y-13754300D01*
X62226384Y-13724500D01*
X62226380Y-13724500D01*
X62073620Y-13724500D01*
X62073615Y-13724500D01*
X61923802Y-13754300D01*
X61923794Y-13754302D01*
X61782665Y-13812759D01*
X61782656Y-13812764D01*
X61655648Y-13897629D01*
X61655644Y-13897632D01*
X61547632Y-14005644D01*
X61547629Y-14005648D01*
X61462764Y-14132656D01*
X61462759Y-14132665D01*
X61404302Y-14273794D01*
X61404300Y-14273802D01*
X61374500Y-14423615D01*
X500500Y-14423615D01*
X500500Y-10878711D01*
X2149500Y-10878711D01*
X2149500Y-11121288D01*
X2181161Y-11361785D01*
X2243947Y-11596104D01*
X2323590Y-11788379D01*
X2336776Y-11820212D01*
X2458064Y-12030289D01*
X2458066Y-12030292D01*
X2458067Y-12030293D01*
X2605733Y-12222736D01*
X2605739Y-12222743D01*
X2777256Y-12394260D01*
X2777262Y-12394265D01*
X2969711Y-12541936D01*
X3179788Y-12663224D01*
X3403900Y-12756054D01*
X3638211Y-12818838D01*
X3818586Y-12842584D01*
X3878711Y-12850500D01*
X3878712Y-12850500D01*
X4121289Y-12850500D01*
X4169388Y-12844167D01*
X4361789Y-12818838D01*
X4596100Y-12756054D01*
X4820212Y-12663224D01*
X5030289Y-12541936D01*
X5222738Y-12394265D01*
X5394265Y-12222738D01*
X5541936Y-12030289D01*
X5663224Y-11820212D01*
X5756054Y-11596100D01*
X5818838Y-11361789D01*
X5850500Y-11121288D01*
X5850500Y-10878712D01*
X5850500Y-10878711D01*
X53149500Y-10878711D01*
X53149500Y-11121288D01*
X53181161Y-11361785D01*
X53243947Y-11596104D01*
X53323590Y-11788379D01*
X53336776Y-11820212D01*
X53458064Y-12030289D01*
X53458066Y-12030292D01*
X53458067Y-12030293D01*
X53605733Y-12222736D01*
X53605739Y-12222743D01*
X53777256Y-12394260D01*
X53777262Y-12394265D01*
X53969711Y-12541936D01*
X54179788Y-12663224D01*
X54403900Y-12756054D01*
X54638211Y-12818838D01*
X54818586Y-12842584D01*
X54878711Y-12850500D01*
X54878712Y-12850500D01*
X55121289Y-12850500D01*
X55169388Y-12844167D01*
X55361789Y-12818838D01*
X55596100Y-12756054D01*
X55820212Y-12663224D01*
X56030289Y-12541936D01*
X56222738Y-12394265D01*
X56394265Y-12222738D01*
X56510347Y-12071457D01*
X61424499Y-12071457D01*
X61452379Y-12211614D01*
X61452381Y-12211620D01*
X61507069Y-12343650D01*
X61507074Y-12343659D01*
X61586467Y-12462478D01*
X61586470Y-12462482D01*
X61687517Y-12563529D01*
X61687521Y-12563532D01*
X61806340Y-12642925D01*
X61806346Y-12642928D01*
X61806347Y-12642929D01*
X61938380Y-12697619D01*
X61938384Y-12697619D01*
X61938385Y-12697620D01*
X62078542Y-12725500D01*
X62078545Y-12725500D01*
X62221457Y-12725500D01*
X62315751Y-12706742D01*
X62361620Y-12697619D01*
X62493653Y-12642929D01*
X62612479Y-12563532D01*
X62713532Y-12462479D01*
X62792929Y-12343653D01*
X62847619Y-12211620D01*
X62875500Y-12071455D01*
X62875500Y-11928545D01*
X62875500Y-11928542D01*
X62847620Y-11788385D01*
X62847619Y-11788384D01*
X62847619Y-11788380D01*
X62792929Y-11656347D01*
X62792928Y-11656346D01*
X62792925Y-11656340D01*
X62713532Y-11537521D01*
X62713529Y-11537517D01*
X62612482Y-11436470D01*
X62612478Y-11436467D01*
X62493659Y-11357074D01*
X62493650Y-11357069D01*
X62361620Y-11302381D01*
X62361614Y-11302379D01*
X62221457Y-11274500D01*
X62221455Y-11274500D01*
X62078545Y-11274500D01*
X62078543Y-11274500D01*
X61938385Y-11302379D01*
X61938379Y-11302381D01*
X61806349Y-11357069D01*
X61806340Y-11357074D01*
X61687521Y-11436467D01*
X61687517Y-11436470D01*
X61586470Y-11537517D01*
X61586467Y-11537521D01*
X61507074Y-11656340D01*
X61507069Y-11656349D01*
X61452381Y-11788379D01*
X61452379Y-11788385D01*
X61424500Y-11928542D01*
X61424500Y-11928545D01*
X61424500Y-12071455D01*
X61424500Y-12071457D01*
X61424499Y-12071457D01*
X56510347Y-12071457D01*
X56541936Y-12030289D01*
X56663224Y-11820212D01*
X56756054Y-11596100D01*
X56818838Y-11361789D01*
X56850500Y-11121288D01*
X56850500Y-10878712D01*
X56818838Y-10638211D01*
X56756054Y-10403900D01*
X56663224Y-10179788D01*
X56541936Y-9969711D01*
X56394265Y-9777262D01*
X56394260Y-9777256D01*
X56222743Y-9605739D01*
X56222736Y-9605733D01*
X56030293Y-9458067D01*
X56030292Y-9458066D01*
X56030289Y-9458064D01*
X55820212Y-9336776D01*
X55820205Y-9336773D01*
X55596104Y-9243947D01*
X55361785Y-9181161D01*
X55121289Y-9149500D01*
X55121288Y-9149500D01*
X54878712Y-9149500D01*
X54878711Y-9149500D01*
X54638214Y-9181161D01*
X54403895Y-9243947D01*
X54179794Y-9336773D01*
X54179785Y-9336777D01*
X53969706Y-9458067D01*
X53777263Y-9605733D01*
X53777256Y-9605739D01*
X53605739Y-9777256D01*
X53605733Y-9777263D01*
X53458067Y-9969706D01*
X53336777Y-10179785D01*
X53336773Y-10179794D01*
X53243947Y-10403895D01*
X53181161Y-10638214D01*
X53149500Y-10878711D01*
X5850500Y-10878711D01*
X5818838Y-10638211D01*
X5756054Y-10403900D01*
X5663224Y-10179788D01*
X5541936Y-9969711D01*
X5457925Y-9860225D01*
X27504700Y-9860225D01*
X27504700Y-10005175D01*
X27542216Y-10145185D01*
X27542217Y-10145188D01*
X27614688Y-10270711D01*
X27614690Y-10270713D01*
X27614691Y-10270715D01*
X27717185Y-10373209D01*
X27717186Y-10373210D01*
X27717188Y-10373211D01*
X27842711Y-10445682D01*
X27842712Y-10445682D01*
X27842715Y-10445684D01*
X27982725Y-10483200D01*
X27982728Y-10483200D01*
X28127672Y-10483200D01*
X28127675Y-10483200D01*
X28267685Y-10445684D01*
X28393215Y-10373209D01*
X28495709Y-10270715D01*
X28568184Y-10145185D01*
X28605700Y-10005175D01*
X28605700Y-9860225D01*
X28568184Y-9720215D01*
X28495709Y-9594685D01*
X28393215Y-9492191D01*
X28393213Y-9492190D01*
X28393211Y-9492188D01*
X28267688Y-9419717D01*
X28267689Y-9419717D01*
X28256206Y-9416640D01*
X28127675Y-9382200D01*
X27982725Y-9382200D01*
X27854193Y-9416640D01*
X27842711Y-9419717D01*
X27717188Y-9492188D01*
X27717182Y-9492193D01*
X27614693Y-9594682D01*
X27614688Y-9594688D01*
X27542217Y-9720211D01*
X27542216Y-9720215D01*
X27504700Y-9860225D01*
X5457925Y-9860225D01*
X5394265Y-9777262D01*
X5394260Y-9777256D01*
X5222743Y-9605739D01*
X5222736Y-9605733D01*
X5030293Y-9458067D01*
X5030292Y-9458066D01*
X5030289Y-9458064D01*
X4820212Y-9336776D01*
X4820205Y-9336773D01*
X4596104Y-9243947D01*
X4361785Y-9181161D01*
X4121289Y-9149500D01*
X4121288Y-9149500D01*
X3878712Y-9149500D01*
X3878711Y-9149500D01*
X3638214Y-9181161D01*
X3403895Y-9243947D01*
X3179794Y-9336773D01*
X3179785Y-9336777D01*
X2969706Y-9458067D01*
X2777263Y-9605733D01*
X2777256Y-9605739D01*
X2605739Y-9777256D01*
X2605733Y-9777263D01*
X2458067Y-9969706D01*
X2336777Y-10179785D01*
X2336773Y-10179794D01*
X2243947Y-10403895D01*
X2181161Y-10638214D01*
X2149500Y-10878711D01*
X500500Y-10878711D01*
X500500Y-7071457D01*
X61424499Y-7071457D01*
X61452379Y-7211614D01*
X61452381Y-7211620D01*
X61507069Y-7343650D01*
X61507074Y-7343659D01*
X61586467Y-7462478D01*
X61586470Y-7462482D01*
X61687517Y-7563529D01*
X61687521Y-7563532D01*
X61806340Y-7642925D01*
X61806346Y-7642928D01*
X61806347Y-7642929D01*
X61938380Y-7697619D01*
X61938384Y-7697619D01*
X61938385Y-7697620D01*
X62078542Y-7725500D01*
X62078545Y-7725500D01*
X62221457Y-7725500D01*
X62315751Y-7706742D01*
X62361620Y-7697619D01*
X62493653Y-7642929D01*
X62612479Y-7563532D01*
X62713532Y-7462479D01*
X62792929Y-7343653D01*
X62847619Y-7211620D01*
X62875500Y-7071455D01*
X62875500Y-6928545D01*
X62875500Y-6928542D01*
X62847620Y-6788385D01*
X62847619Y-6788384D01*
X62847619Y-6788380D01*
X62792929Y-6656347D01*
X62792928Y-6656346D01*
X62792925Y-6656340D01*
X62713532Y-6537521D01*
X62713529Y-6537517D01*
X62612482Y-6436470D01*
X62612478Y-6436467D01*
X62493659Y-6357074D01*
X62493650Y-6357069D01*
X62361620Y-6302381D01*
X62361614Y-6302379D01*
X62221457Y-6274500D01*
X62221455Y-6274500D01*
X62078545Y-6274500D01*
X62078543Y-6274500D01*
X61938385Y-6302379D01*
X61938379Y-6302381D01*
X61806349Y-6357069D01*
X61806340Y-6357074D01*
X61687521Y-6436467D01*
X61687517Y-6436470D01*
X61586470Y-6537517D01*
X61586467Y-6537521D01*
X61507074Y-6656340D01*
X61507069Y-6656349D01*
X61452381Y-6788379D01*
X61452379Y-6788385D01*
X61424500Y-6928542D01*
X61424500Y-6928545D01*
X61424500Y-7071455D01*
X61424500Y-7071457D01*
X61424499Y-7071457D01*
X500500Y-7071457D01*
X500500Y-4571457D01*
X61424499Y-4571457D01*
X61452379Y-4711614D01*
X61452381Y-4711620D01*
X61507069Y-4843650D01*
X61507074Y-4843659D01*
X61586467Y-4962478D01*
X61586470Y-4962482D01*
X61687517Y-5063529D01*
X61687521Y-5063532D01*
X61806340Y-5142925D01*
X61806346Y-5142928D01*
X61806347Y-5142929D01*
X61938380Y-5197619D01*
X61938384Y-5197619D01*
X61938385Y-5197620D01*
X62078542Y-5225500D01*
X62078545Y-5225500D01*
X62221457Y-5225500D01*
X62315751Y-5206742D01*
X62361620Y-5197619D01*
X62493653Y-5142929D01*
X62612479Y-5063532D01*
X62713532Y-4962479D01*
X62792929Y-4843653D01*
X62847619Y-4711620D01*
X62875500Y-4571455D01*
X62875500Y-4428545D01*
X62875500Y-4428542D01*
X62847620Y-4288385D01*
X62847619Y-4288384D01*
X62847619Y-4288380D01*
X62792929Y-4156347D01*
X62792928Y-4156346D01*
X62792925Y-4156340D01*
X62713532Y-4037521D01*
X62713529Y-4037517D01*
X62612482Y-3936470D01*
X62612478Y-3936467D01*
X62493659Y-3857074D01*
X62493650Y-3857069D01*
X62361620Y-3802381D01*
X62361614Y-3802379D01*
X62221457Y-3774500D01*
X62221455Y-3774500D01*
X62078545Y-3774500D01*
X62078543Y-3774500D01*
X61938385Y-3802379D01*
X61938379Y-3802381D01*
X61806349Y-3857069D01*
X61806340Y-3857074D01*
X61687521Y-3936467D01*
X61687517Y-3936470D01*
X61586470Y-4037517D01*
X61586467Y-4037521D01*
X61507074Y-4156340D01*
X61507069Y-4156349D01*
X61452381Y-4288379D01*
X61452379Y-4288385D01*
X61424500Y-4428542D01*
X61424500Y-4428545D01*
X61424500Y-4571455D01*
X61424500Y-4571457D01*
X61424499Y-4571457D01*
X500500Y-4571457D01*
X500500Y-3073920D01*
X4249499Y-3073920D01*
X4278340Y-3218907D01*
X4278343Y-3218917D01*
X4334912Y-3355488D01*
X4334919Y-3355501D01*
X4417048Y-3478415D01*
X4417051Y-3478419D01*
X4521580Y-3582948D01*
X4521584Y-3582951D01*
X4644498Y-3665080D01*
X4644511Y-3665087D01*
X4781082Y-3721656D01*
X4781087Y-3721658D01*
X4781091Y-3721658D01*
X4781092Y-3721659D01*
X4926079Y-3750500D01*
X4926082Y-3750500D01*
X5073920Y-3750500D01*
X5171462Y-3731096D01*
X5218913Y-3721658D01*
X5355495Y-3665084D01*
X5478416Y-3582951D01*
X5582951Y-3478416D01*
X5665084Y-3355495D01*
X5721658Y-3218913D01*
X5750500Y-3073920D01*
X6789499Y-3073920D01*
X6818340Y-3218907D01*
X6818343Y-3218917D01*
X6874912Y-3355488D01*
X6874919Y-3355501D01*
X6957048Y-3478415D01*
X6957051Y-3478419D01*
X7061580Y-3582948D01*
X7061584Y-3582951D01*
X7184498Y-3665080D01*
X7184511Y-3665087D01*
X7321082Y-3721656D01*
X7321087Y-3721658D01*
X7321091Y-3721658D01*
X7321092Y-3721659D01*
X7466079Y-3750500D01*
X7466082Y-3750500D01*
X7613920Y-3750500D01*
X7711462Y-3731096D01*
X7758913Y-3721658D01*
X7895495Y-3665084D01*
X8018416Y-3582951D01*
X8122951Y-3478416D01*
X8205084Y-3355495D01*
X8261658Y-3218913D01*
X8290500Y-3073920D01*
X9329499Y-3073920D01*
X9358340Y-3218907D01*
X9358343Y-3218917D01*
X9414912Y-3355488D01*
X9414919Y-3355501D01*
X9497048Y-3478415D01*
X9497051Y-3478419D01*
X9601580Y-3582948D01*
X9601584Y-3582951D01*
X9724498Y-3665080D01*
X9724511Y-3665087D01*
X9861082Y-3721656D01*
X9861087Y-3721658D01*
X9861091Y-3721658D01*
X9861092Y-3721659D01*
X10006079Y-3750500D01*
X10006082Y-3750500D01*
X10153920Y-3750500D01*
X10251462Y-3731096D01*
X10298913Y-3721658D01*
X10435495Y-3665084D01*
X10558416Y-3582951D01*
X10662951Y-3478416D01*
X10745084Y-3355495D01*
X10801658Y-3218913D01*
X10830500Y-3073920D01*
X21249499Y-3073920D01*
X21278340Y-3218907D01*
X21278343Y-3218917D01*
X21334912Y-3355488D01*
X21334919Y-3355501D01*
X21417048Y-3478415D01*
X21417051Y-3478419D01*
X21521580Y-3582948D01*
X21521584Y-3582951D01*
X21644498Y-3665080D01*
X21644511Y-3665087D01*
X21781082Y-3721656D01*
X21781087Y-3721658D01*
X21781091Y-3721658D01*
X21781092Y-3721659D01*
X21926079Y-3750500D01*
X21926082Y-3750500D01*
X22073920Y-3750500D01*
X22171462Y-3731096D01*
X22218913Y-3721658D01*
X22355495Y-3665084D01*
X22478416Y-3582951D01*
X22582951Y-3478416D01*
X22665084Y-3355495D01*
X22721658Y-3218913D01*
X22750500Y-3073918D01*
X22750500Y-2926082D01*
X22750500Y-2926079D01*
X22721659Y-2781092D01*
X22721658Y-2781091D01*
X22721658Y-2781087D01*
X22721656Y-2781082D01*
X22665087Y-2644511D01*
X22665080Y-2644498D01*
X22582951Y-2521584D01*
X22582948Y-2521580D01*
X22478419Y-2417051D01*
X22478415Y-2417048D01*
X22355501Y-2334919D01*
X22355488Y-2334912D01*
X22218917Y-2278343D01*
X22218907Y-2278340D01*
X22073920Y-2249500D01*
X22073918Y-2249500D01*
X21926082Y-2249500D01*
X21926080Y-2249500D01*
X21781092Y-2278340D01*
X21781082Y-2278343D01*
X21644511Y-2334912D01*
X21644498Y-2334919D01*
X21521584Y-2417048D01*
X21521580Y-2417051D01*
X21417051Y-2521580D01*
X21417048Y-2521584D01*
X21334919Y-2644498D01*
X21334912Y-2644511D01*
X21278343Y-2781082D01*
X21278340Y-2781092D01*
X21249500Y-2926079D01*
X21249500Y-2926082D01*
X21249500Y-3073918D01*
X21249500Y-3073920D01*
X21249499Y-3073920D01*
X10830500Y-3073920D01*
X10830500Y-3073918D01*
X10830500Y-2926082D01*
X10830500Y-2926079D01*
X10801659Y-2781092D01*
X10801658Y-2781091D01*
X10801658Y-2781087D01*
X10801656Y-2781082D01*
X10745087Y-2644511D01*
X10745080Y-2644498D01*
X10662951Y-2521584D01*
X10662948Y-2521580D01*
X10558419Y-2417051D01*
X10558415Y-2417048D01*
X10435501Y-2334919D01*
X10435488Y-2334912D01*
X10298917Y-2278343D01*
X10298907Y-2278340D01*
X10153920Y-2249500D01*
X10153918Y-2249500D01*
X10006082Y-2249500D01*
X10006080Y-2249500D01*
X9861092Y-2278340D01*
X9861082Y-2278343D01*
X9724511Y-2334912D01*
X9724498Y-2334919D01*
X9601584Y-2417048D01*
X9601580Y-2417051D01*
X9497051Y-2521580D01*
X9497048Y-2521584D01*
X9414919Y-2644498D01*
X9414912Y-2644511D01*
X9358343Y-2781082D01*
X9358340Y-2781092D01*
X9329500Y-2926079D01*
X9329500Y-2926082D01*
X9329500Y-3073918D01*
X9329500Y-3073920D01*
X9329499Y-3073920D01*
X8290500Y-3073920D01*
X8290500Y-3073918D01*
X8290500Y-2926082D01*
X8290500Y-2926079D01*
X8261659Y-2781092D01*
X8261658Y-2781091D01*
X8261658Y-2781087D01*
X8261656Y-2781082D01*
X8205087Y-2644511D01*
X8205080Y-2644498D01*
X8122951Y-2521584D01*
X8122948Y-2521580D01*
X8018419Y-2417051D01*
X8018415Y-2417048D01*
X7895501Y-2334919D01*
X7895488Y-2334912D01*
X7758917Y-2278343D01*
X7758907Y-2278340D01*
X7613920Y-2249500D01*
X7613918Y-2249500D01*
X7466082Y-2249500D01*
X7466080Y-2249500D01*
X7321092Y-2278340D01*
X7321082Y-2278343D01*
X7184511Y-2334912D01*
X7184498Y-2334919D01*
X7061584Y-2417048D01*
X7061580Y-2417051D01*
X6957051Y-2521580D01*
X6957048Y-2521584D01*
X6874919Y-2644498D01*
X6874912Y-2644511D01*
X6818343Y-2781082D01*
X6818340Y-2781092D01*
X6789500Y-2926079D01*
X6789500Y-2926082D01*
X6789500Y-3073918D01*
X6789500Y-3073920D01*
X6789499Y-3073920D01*
X5750500Y-3073920D01*
X5750500Y-3073918D01*
X5750500Y-2926082D01*
X5750500Y-2926079D01*
X5721659Y-2781092D01*
X5721658Y-2781091D01*
X5721658Y-2781087D01*
X5721656Y-2781082D01*
X5665087Y-2644511D01*
X5665080Y-2644498D01*
X5582951Y-2521584D01*
X5582948Y-2521580D01*
X5478419Y-2417051D01*
X5478415Y-2417048D01*
X5355501Y-2334919D01*
X5355488Y-2334912D01*
X5218917Y-2278343D01*
X5218907Y-2278340D01*
X5073920Y-2249500D01*
X5073918Y-2249500D01*
X4926082Y-2249500D01*
X4926080Y-2249500D01*
X4781092Y-2278340D01*
X4781082Y-2278343D01*
X4644511Y-2334912D01*
X4644498Y-2334919D01*
X4521584Y-2417048D01*
X4521580Y-2417051D01*
X4417051Y-2521580D01*
X4417048Y-2521584D01*
X4334919Y-2644498D01*
X4334912Y-2644511D01*
X4278343Y-2781082D01*
X4278340Y-2781092D01*
X4249500Y-2926079D01*
X4249500Y-2926082D01*
X4249500Y-3073918D01*
X4249500Y-3073920D01*
X4249499Y-3073920D01*
X500500Y-3073920D01*
X500500Y-624500D01*
X520185Y-557461D01*
X572989Y-511706D01*
X624500Y-500500D01*
X64375500Y-500500D01*
X64442539Y-520185D01*
G37*
%TD.AperFunction*%
%TD*%
M02*
