%TF.GenerationSoftware,KiCad,Pcbnew,10.0.4-10.0.4~ubuntu24.04.1*%
%TF.CreationDate,2026-06-26T13:50:28-06:00*%
%TF.ProjectId,robot-buddy-reflex,726f626f-742d-4627-9564-64792d726566,rev?*%
%TF.SameCoordinates,Original*%
%TF.FileFunction,Copper,L4,Bot*%
%TF.FilePolarity,Positive*%
%FSLAX46Y46*%
G04 Gerber Fmt 4.6, Leading zero omitted, Abs format (unit mm)*
G04 Created by KiCad (PCBNEW 10.0.4-10.0.4~ubuntu24.04.1) date 2026-06-26 13:50:28*
%MOMM*%
%LPD*%
G01*
G04 APERTURE LIST*
G04 Aperture macros list*
%AMRoundRect*
0 Rectangle with rounded corners*
0 $1 Rounding radius*
0 $2 $3 $4 $5 $6 $7 $8 $9 X,Y pos of 4 corners*
0 Add a 4 corners polygon primitive as box body*
4,1,4,$2,$3,$4,$5,$6,$7,$8,$9,$2,$3,0*
0 Add four circle primitives for the rounded corners*
1,1,$1+$1,$2,$3*
1,1,$1+$1,$4,$5*
1,1,$1+$1,$6,$7*
1,1,$1+$1,$8,$9*
0 Add four rect primitives between the rounded corners*
20,1,$1+$1,$2,$3,$4,$5,0*
20,1,$1+$1,$4,$5,$6,$7,0*
20,1,$1+$1,$6,$7,$8,$9,0*
20,1,$1+$1,$8,$9,$2,$3,0*%
G04 Aperture macros list end*
%TA.AperFunction,ComponentPad*%
%ADD10O,1.700000X1.950000*%
%TD*%
%TA.AperFunction,ComponentPad*%
%ADD11RoundRect,0.250000X-0.600000X-0.750000X0.600000X-0.750000X0.600000X0.750000X-0.600000X0.750000X0*%
%TD*%
%TA.AperFunction,ComponentPad*%
%ADD12O,1.700000X2.000000*%
%TD*%
%TA.AperFunction,ComponentPad*%
%ADD13RoundRect,0.250000X-0.750000X-0.750000X0.750000X-0.750000X0.750000X0.750000X-0.750000X0.750000X0*%
%TD*%
%TA.AperFunction,ComponentPad*%
%ADD14C,2.000000*%
%TD*%
%TA.AperFunction,ComponentPad*%
%ADD15RoundRect,0.250000X-0.600000X-0.725000X0.600000X-0.725000X0.600000X0.725000X-0.600000X0.725000X0*%
%TD*%
%TA.AperFunction,ComponentPad*%
%ADD16R,1.700000X1.700000*%
%TD*%
%TA.AperFunction,ComponentPad*%
%ADD17C,1.700000*%
%TD*%
%TA.AperFunction,ViaPad*%
%ADD18C,0.600000*%
%TD*%
%TA.AperFunction,ViaPad*%
%ADD19C,0.800000*%
%TD*%
%TA.AperFunction,Conductor*%
%ADD20C,0.500000*%
%TD*%
%TA.AperFunction,Conductor*%
%ADD21C,0.250000*%
%TD*%
G04 APERTURE END LIST*
D10*
%TO.P,J6,2*%
%TO.N,/TRIG*%
X7500000Y-3000000D03*
%TO.P,J6,3*%
%TO.N,/ECHO_IN*%
X10000000Y-3000000D03*
%TO.P,J6,4*%
%TO.N,GND*%
X12500000Y-3000000D03*
%TD*%
D11*
%TO.P,J7,1*%
%TO.N,/ESTOP*%
X22000000Y-3000000D03*
D12*
%TO.P,J7,2*%
%TO.N,GND*%
X24500000Y-3000000D03*
%TD*%
D13*
%TO.P,C3,1*%
%TO.N,+BATT*%
X46000000Y-50000000D03*
D14*
%TO.P,C3,2*%
%TO.N,GND*%
X51000000Y-50000000D03*
%TD*%
D15*
%TO.P,J2,1*%
%TO.N,/BO1*%
X62150000Y-42000000D03*
D10*
%TO.P,J2,3*%
%TO.N,+5V*%
X62150000Y-37000000D03*
%TO.P,J2,4*%
%TO.N,GND*%
X62150000Y-34500000D03*
%TO.P,J2,5*%
%TO.N,/ENC_RA*%
X62150000Y-32000000D03*
%TD*%
D16*
%TO.P,U2,1*%
%TO.N,/PWMA*%
X38380000Y-19110000D03*
D17*
%TO.P,U2,2*%
%TO.N,/AIN2*%
X38380000Y-21650000D03*
%TO.P,U2,3*%
%TO.N,/AIN1*%
X38380000Y-24190000D03*
%TO.P,U2,4*%
%TO.N,/STBY*%
X38380000Y-26730000D03*
%TO.P,U2,5*%
%TO.N,/BIN1*%
X38380000Y-29270000D03*
%TO.P,U2,6*%
%TO.N,/BIN2*%
X38380000Y-31810000D03*
%TO.P,U2,7*%
%TO.N,/PWMB*%
X38380000Y-34350000D03*
%TO.P,U2,8*%
%TO.N,GND*%
X38380000Y-36890000D03*
%TO.P,U2,9*%
%TO.N,+BATT*%
X53620000Y-19110000D03*
%TO.P,U2,10*%
%TO.N,+3V3*%
X53620000Y-21650000D03*
%TO.P,U2,11*%
%TO.N,/AO1*%
X53620000Y-24190000D03*
%TO.P,U2,12*%
%TO.N,/AO2*%
X53620000Y-26730000D03*
%TO.P,U2,13*%
%TO.N,GND*%
X53620000Y-29270000D03*
%TO.P,U2,14*%
%TO.N,/BO2*%
X53620000Y-31810000D03*
%TO.P,U2,15*%
%TO.N,/BO1*%
X53620000Y-34350000D03*
%TO.P,U2,16*%
%TO.N,+BATT*%
X53620000Y-36890000D03*
%TD*%
D12*
%TO.P,J8,2*%
%TO.N,GND*%
X1500000Y-22500000D03*
%TD*%
D10*
%TO.P,J1,2*%
%TO.N,/AO2*%
X62150000Y-14500000D03*
%TO.P,J1,3*%
%TO.N,+5V*%
X62150000Y-12000000D03*
%TO.P,J1,4*%
%TO.N,GND*%
X62150000Y-9500000D03*
%TO.P,J1,6*%
%TO.N,/ENC_LB*%
X62150000Y-4500000D03*
%TD*%
D18*
%TO.N,/TRIG*%
X7943400Y-29494400D03*
%TO.N,/ECHO_IN*%
X8046500Y-32089700D03*
D19*
%TO.N,GND*%
X30984600Y-35090700D03*
X30978500Y-38020000D03*
D18*
X29100000Y-23020000D03*
D19*
X30977900Y-32409000D03*
X10535100Y-58289900D03*
X8353200Y-21254400D03*
X29063500Y-41020000D03*
X30975300Y-25490000D03*
X5552200Y-24266200D03*
X7246800Y-32743200D03*
X7448800Y-27132900D03*
D18*
%TO.N,/ESTOP*%
X29000000Y-20490000D03*
X22104200Y-22043600D03*
D19*
%TO.N,+BATT*%
X54271300Y-16749100D03*
D18*
%TO.N,/PWMA*%
X33982600Y-27370500D03*
X33982600Y-33080400D03*
%TO.N,/ENC_RA*%
X60237000Y-30529000D03*
%TO.N,+3V3*%
X28268500Y-21055600D03*
D19*
X28632700Y-38833800D03*
D18*
%TO.N,/AIN1*%
X33982600Y-36650700D03*
%TO.N,/SCL*%
X16241400Y-56467100D03*
X19164100Y-35733000D03*
%TO.N,/SDA*%
X20202700Y-35742400D03*
X19164100Y-55799900D03*
%TO.N,/ENC_LB*%
X51103000Y-29999600D03*
%TO.N,/ENC_LA*%
X27509300Y-32784900D03*
X28055200Y-9932700D03*
%TO.N,/STBY*%
X37521900Y-32893200D03*
%TO.N,/AIN2*%
X29128100Y-36653700D03*
%TD*%
%TO.N,+5V*%
D20*
X63572300Y-36929400D02*
X63501700Y-37000000D01*
X62150000Y-37000000D02*
X63501700Y-37000000D01*
X63501700Y-12000000D02*
X63572300Y-12070600D01*
X62150000Y-12000000D02*
X63501700Y-12000000D01*
X63572300Y-12070600D02*
X63572300Y-36929400D01*
%TO.N,/TRIG*%
D21*
X8676700Y-3000000D02*
X8676700Y-4176700D01*
X9150000Y-28312000D02*
X7943000Y-29494000D01*
X7500000Y-3000000D02*
X8676700Y-3000000D01*
X9150000Y-4625000D02*
X9150000Y-28312000D01*
X8677000Y-4176999D02*
X9150000Y-4625000D01*
%TO.N,/ECHO_IN*%
X10000000Y-30136200D02*
X8046500Y-32089700D01*
X10000000Y-3000000D02*
X10000000Y-30136200D01*
%TO.N,/ESTOP*%
X22104200Y-3104200D02*
X22104200Y-22043600D01*
X22000000Y-3000000D02*
X22104200Y-3104200D01*
X29000000Y-20490000D02*
X29000000Y-9000000D01*
X29000000Y-9000000D02*
X22104000Y-9000000D01*
%TO.N,+BATT*%
D20*
X52173000Y-36890000D02*
X52173000Y-43827000D01*
X53620000Y-17400400D02*
X54271300Y-16749100D01*
X52173000Y-36890000D02*
X53620000Y-36890000D01*
X52173000Y-43827000D02*
X46000000Y-50000000D01*
X53620000Y-19110000D02*
X53620000Y-17400400D01*
X52173000Y-20557000D02*
X52173000Y-36890000D01*
X53620000Y-19110000D02*
X52173000Y-20557000D01*
%TO.N,/PWMA*%
D21*
X33982600Y-33080400D02*
X33982600Y-27370500D01*
X33982600Y-24316400D02*
X33982600Y-27370500D01*
X38380000Y-20286700D02*
X38012300Y-20286700D01*
X38012300Y-20286700D02*
X33982600Y-24316400D01*
X38380000Y-19110000D02*
X38380000Y-20286700D01*
%TO.N,/BO1*%
D20*
X61270000Y-42000000D02*
X62150000Y-42000000D01*
X53620000Y-34350000D02*
X61270000Y-42000000D01*
%TO.N,/ENC_RA*%
D21*
X62150000Y-32000000D02*
X60973300Y-32000000D01*
X60973300Y-32000000D02*
X60973300Y-31265300D01*
X60973300Y-31265300D02*
X60237000Y-30529000D01*
%TO.N,+3V3*%
X28312000Y-33037999D02*
X28268000Y-33037999D01*
X28268000Y-21056000D02*
X28268000Y-32531999D01*
X28312000Y-32531999D02*
X28312000Y-33037999D01*
X28268000Y-38470000D02*
X28633000Y-38834000D01*
X28268000Y-32531999D02*
X28312000Y-32531999D01*
X28268000Y-33037999D02*
X28268000Y-38470000D01*
%TO.N,/AIN1*%
X36895200Y-33738100D02*
X33982600Y-36650700D01*
X36895200Y-25674800D02*
X36895200Y-33738100D01*
X38380000Y-24190000D02*
X36895200Y-25674800D01*
%TO.N,/SCL*%
X16241400Y-38655700D02*
X19164100Y-35733000D01*
X16241400Y-56467100D02*
X16241400Y-38655700D01*
%TO.N,/SDA*%
X20202700Y-54761300D02*
X20202700Y-35742400D01*
X19164100Y-55799900D02*
X20202700Y-54761300D01*
%TO.N,/ENC_LB*%
X51103000Y-18696400D02*
X51103000Y-29999600D01*
X60973300Y-8826100D02*
X51103000Y-18696400D01*
X62150000Y-4500000D02*
X60973300Y-4500000D01*
X60973300Y-4500000D02*
X60973300Y-8826100D01*
%TO.N,/ENC_LA*%
X27509300Y-32784900D02*
X27509300Y-10478600D01*
X27509300Y-10478600D02*
X28055200Y-9932700D01*
%TO.N,/STBY*%
X39565700Y-27915700D02*
X39565700Y-32326700D01*
X39565700Y-32326700D02*
X38812400Y-33080000D01*
X38812400Y-33080000D02*
X37708700Y-33080000D01*
X37708700Y-33080000D02*
X37521900Y-32893200D01*
X38380000Y-26730000D02*
X39565700Y-27915700D01*
%TO.N,/AIN2*%
X34723100Y-33232000D02*
X31301500Y-36653600D01*
X38380000Y-21650000D02*
X34723100Y-25306900D01*
X31301500Y-36653600D02*
X29128100Y-36653600D01*
X29128100Y-36653600D02*
X29128100Y-36653700D01*
X34723100Y-25306900D02*
X34723100Y-33232000D01*
%TO.N,/AO2*%
D20*
X58920200Y-21429800D02*
X58920200Y-16178100D01*
X53620000Y-26730000D02*
X58920200Y-21429800D01*
X62150000Y-14500000D02*
X60598300Y-14500000D01*
X58920200Y-16178100D02*
X60598300Y-14500000D01*
%TD*%
%TA.AperFunction,Conductor*%
%TO.N,GND*%
G36*
X64442539Y-520185D02*
G01*
X64488294Y-572989D01*
X64499500Y-624500D01*
X64499500Y-59375500D01*
X64479815Y-59442539D01*
X64427011Y-59488294D01*
X64375500Y-59499500D01*
X624500Y-59499500D01*
X557461Y-59479815D01*
X511706Y-59427011D01*
X500500Y-59375500D01*
X500500Y-55878711D01*
X2149500Y-55878711D01*
X2149500Y-56121288D01*
X2179662Y-56350400D01*
X2181162Y-56361789D01*
X2189961Y-56394627D01*
X2243947Y-56596104D01*
X2330523Y-56805117D01*
X2336776Y-56820212D01*
X2458064Y-57030289D01*
X2458066Y-57030292D01*
X2458067Y-57030293D01*
X2605733Y-57222736D01*
X2605739Y-57222743D01*
X2777256Y-57394260D01*
X2777262Y-57394265D01*
X2969711Y-57541936D01*
X3179788Y-57663224D01*
X3403900Y-57756054D01*
X3638211Y-57818838D01*
X3818586Y-57842584D01*
X3878711Y-57850500D01*
X3878712Y-57850500D01*
X4121289Y-57850500D01*
X4169388Y-57844167D01*
X4361789Y-57818838D01*
X4596100Y-57756054D01*
X4820212Y-57663224D01*
X5030289Y-57541936D01*
X5222738Y-57394265D01*
X5394265Y-57222738D01*
X5541936Y-57030289D01*
X5663224Y-56820212D01*
X5756054Y-56596100D01*
X5810040Y-56394625D01*
X15690900Y-56394625D01*
X15690900Y-56539575D01*
X15728416Y-56679585D01*
X15728417Y-56679588D01*
X15800888Y-56805111D01*
X15800890Y-56805113D01*
X15800891Y-56805115D01*
X15903385Y-56907609D01*
X15903386Y-56907610D01*
X15903388Y-56907611D01*
X16028911Y-56980082D01*
X16028912Y-56980082D01*
X16028915Y-56980084D01*
X16168925Y-57017600D01*
X16168928Y-57017600D01*
X16313872Y-57017600D01*
X16313875Y-57017600D01*
X16453885Y-56980084D01*
X16579415Y-56907609D01*
X16681909Y-56805115D01*
X16754384Y-56679585D01*
X16791900Y-56539575D01*
X16791900Y-56394625D01*
X16754384Y-56254615D01*
X16746183Y-56240411D01*
X16681911Y-56129088D01*
X16681906Y-56129082D01*
X16653219Y-56100395D01*
X16619734Y-56039072D01*
X16616900Y-56012714D01*
X16616900Y-38862599D01*
X16636585Y-38795560D01*
X16653219Y-38774918D01*
X19108318Y-36319819D01*
X19169641Y-36286334D01*
X19195999Y-36283500D01*
X19236572Y-36283500D01*
X19236575Y-36283500D01*
X19376585Y-36245984D01*
X19502115Y-36173509D01*
X19591019Y-36084605D01*
X19598964Y-36080266D01*
X19604390Y-36073019D01*
X19629149Y-36063784D01*
X19652342Y-36051120D01*
X19661371Y-36051765D01*
X19669854Y-36048602D01*
X19695674Y-36054218D01*
X19722034Y-36056104D01*
X19731087Y-36061922D01*
X19738127Y-36063454D01*
X19766381Y-36084605D01*
X19790881Y-36109105D01*
X19824366Y-36170428D01*
X19827200Y-36196786D01*
X19827200Y-54554401D01*
X19807515Y-54621440D01*
X19790881Y-54642082D01*
X19219882Y-55213081D01*
X19158559Y-55246566D01*
X19132201Y-55249400D01*
X19091625Y-55249400D01*
X18963093Y-55283840D01*
X18951611Y-55286917D01*
X18826088Y-55359388D01*
X18826082Y-55359393D01*
X18723593Y-55461882D01*
X18723588Y-55461888D01*
X18651117Y-55587411D01*
X18651116Y-55587415D01*
X18613600Y-55727425D01*
X18613600Y-55872375D01*
X18651116Y-56012385D01*
X18651117Y-56012388D01*
X18723588Y-56137911D01*
X18723590Y-56137913D01*
X18723591Y-56137915D01*
X18826085Y-56240409D01*
X18826086Y-56240410D01*
X18826088Y-56240411D01*
X18951611Y-56312882D01*
X18951612Y-56312882D01*
X18951615Y-56312884D01*
X19091625Y-56350400D01*
X19091628Y-56350400D01*
X19236572Y-56350400D01*
X19236575Y-56350400D01*
X19376585Y-56312884D01*
X19502115Y-56240409D01*
X19604609Y-56137915D01*
X19677084Y-56012385D01*
X19712902Y-55878711D01*
X53149500Y-55878711D01*
X53149500Y-56121288D01*
X53179662Y-56350400D01*
X53181162Y-56361789D01*
X53189961Y-56394627D01*
X53243947Y-56596104D01*
X53330523Y-56805117D01*
X53336776Y-56820212D01*
X53458064Y-57030289D01*
X53458066Y-57030292D01*
X53458067Y-57030293D01*
X53605733Y-57222736D01*
X53605739Y-57222743D01*
X53777256Y-57394260D01*
X53777262Y-57394265D01*
X53969711Y-57541936D01*
X54179788Y-57663224D01*
X54403900Y-57756054D01*
X54638211Y-57818838D01*
X54818586Y-57842584D01*
X54878711Y-57850500D01*
X54878712Y-57850500D01*
X55121289Y-57850500D01*
X55169388Y-57844167D01*
X55361789Y-57818838D01*
X55596100Y-57756054D01*
X55820212Y-57663224D01*
X56030289Y-57541936D01*
X56222738Y-57394265D01*
X56394265Y-57222738D01*
X56541936Y-57030289D01*
X56663224Y-56820212D01*
X56756054Y-56596100D01*
X56818838Y-56361789D01*
X56850500Y-56121288D01*
X56850500Y-55878712D01*
X56818838Y-55638211D01*
X56756054Y-55403900D01*
X56663224Y-55179788D01*
X56541936Y-54969711D01*
X56419950Y-54810735D01*
X56394266Y-54777263D01*
X56394260Y-54777256D01*
X56222743Y-54605739D01*
X56222736Y-54605733D01*
X56030293Y-54458067D01*
X56030292Y-54458066D01*
X56030289Y-54458064D01*
X55820212Y-54336776D01*
X55820205Y-54336773D01*
X55596104Y-54243947D01*
X55361785Y-54181161D01*
X55121289Y-54149500D01*
X55121288Y-54149500D01*
X54878712Y-54149500D01*
X54878711Y-54149500D01*
X54638214Y-54181161D01*
X54403895Y-54243947D01*
X54179794Y-54336773D01*
X54179785Y-54336777D01*
X53969706Y-54458067D01*
X53777263Y-54605733D01*
X53777256Y-54605739D01*
X53605739Y-54777256D01*
X53605733Y-54777263D01*
X53458067Y-54969706D01*
X53336777Y-55179785D01*
X53336773Y-55179794D01*
X53243947Y-55403895D01*
X53181161Y-55638214D01*
X53149500Y-55878711D01*
X19712902Y-55878711D01*
X19714600Y-55872375D01*
X19714600Y-55831799D01*
X19734285Y-55764760D01*
X19750919Y-55744118D01*
X20091142Y-55403895D01*
X20503174Y-54991863D01*
X20503175Y-54991862D01*
X20552610Y-54906238D01*
X20578200Y-54810735D01*
X20578200Y-49202135D01*
X44749500Y-49202135D01*
X44749500Y-50797870D01*
X44749501Y-50797876D01*
X44755908Y-50857483D01*
X44806202Y-50992328D01*
X44806206Y-50992335D01*
X44892452Y-51107544D01*
X44892455Y-51107547D01*
X45007664Y-51193793D01*
X45007671Y-51193797D01*
X45142517Y-51244091D01*
X45142516Y-51244091D01*
X45149444Y-51244835D01*
X45202127Y-51250500D01*
X46797872Y-51250499D01*
X46857483Y-51244091D01*
X46992331Y-51193796D01*
X47107546Y-51107546D01*
X47193796Y-50992331D01*
X47244091Y-50857483D01*
X47250500Y-50797873D01*
X47250499Y-49508674D01*
X47270184Y-49441636D01*
X47286813Y-49420999D01*
X52470104Y-44237707D01*
X52470109Y-44237704D01*
X52480312Y-44227500D01*
X52480314Y-44227500D01*
X52573500Y-44134314D01*
X52639392Y-44020186D01*
X52673500Y-43892892D01*
X52673500Y-37799204D01*
X52693185Y-37732165D01*
X52745989Y-37686410D01*
X52815147Y-37676466D01*
X52878703Y-37705491D01*
X52885181Y-37711523D01*
X52903072Y-37729414D01*
X53043212Y-37831232D01*
X53197555Y-37909873D01*
X53362299Y-37963402D01*
X53533389Y-37990500D01*
X53533390Y-37990500D01*
X53706610Y-37990500D01*
X53706611Y-37990500D01*
X53877701Y-37963402D01*
X54042445Y-37909873D01*
X54196788Y-37831232D01*
X54336928Y-37729414D01*
X54459414Y-37606928D01*
X54561232Y-37466788D01*
X54639873Y-37312445D01*
X54693402Y-37147701D01*
X54720500Y-36976611D01*
X54720500Y-36803389D01*
X54693402Y-36632299D01*
X54645865Y-36485999D01*
X54643871Y-36416162D01*
X54679951Y-36356329D01*
X54742652Y-36325500D01*
X54812066Y-36333464D01*
X54851478Y-36360003D01*
X60931985Y-42440510D01*
X60937497Y-42443692D01*
X60985714Y-42494258D01*
X60999500Y-42551081D01*
X60999500Y-42768102D01*
X61005126Y-42814954D01*
X61010122Y-42856561D01*
X61065639Y-42997343D01*
X61157077Y-43117922D01*
X61277656Y-43209360D01*
X61277657Y-43209360D01*
X61277658Y-43209361D01*
X61418436Y-43264877D01*
X61506898Y-43275500D01*
X61506903Y-43275500D01*
X62793097Y-43275500D01*
X62793102Y-43275500D01*
X62881564Y-43264877D01*
X63022342Y-43209361D01*
X63142922Y-43117922D01*
X63234361Y-42997342D01*
X63289877Y-42856564D01*
X63300500Y-42768102D01*
X63300500Y-41231898D01*
X63289877Y-41143436D01*
X63234361Y-41002658D01*
X63234360Y-41002657D01*
X63234360Y-41002656D01*
X63142922Y-40882077D01*
X63022343Y-40790639D01*
X62881561Y-40735122D01*
X62835926Y-40729642D01*
X62793102Y-40724500D01*
X61506898Y-40724500D01*
X61467853Y-40729188D01*
X61418438Y-40735122D01*
X61277656Y-40790639D01*
X61157078Y-40882077D01*
X61145331Y-40897568D01*
X61089138Y-40939090D01*
X61019416Y-40943641D01*
X60958847Y-40910322D01*
X59472140Y-39423615D01*
X61374500Y-39423615D01*
X61374500Y-39576384D01*
X61404300Y-39726197D01*
X61404302Y-39726205D01*
X61462759Y-39867334D01*
X61462764Y-39867343D01*
X61547629Y-39994351D01*
X61547632Y-39994355D01*
X61655644Y-40102367D01*
X61655648Y-40102370D01*
X61782656Y-40187235D01*
X61782662Y-40187238D01*
X61782663Y-40187239D01*
X61923795Y-40245698D01*
X62073615Y-40275499D01*
X62073619Y-40275500D01*
X62073620Y-40275500D01*
X62226381Y-40275500D01*
X62226382Y-40275499D01*
X62376205Y-40245698D01*
X62517337Y-40187239D01*
X62644352Y-40102370D01*
X62752370Y-39994352D01*
X62837239Y-39867337D01*
X62895698Y-39726205D01*
X62925500Y-39576380D01*
X62925500Y-39423620D01*
X62895698Y-39273795D01*
X62837239Y-39132663D01*
X62837238Y-39132662D01*
X62837235Y-39132656D01*
X62752370Y-39005648D01*
X62752367Y-39005644D01*
X62644355Y-38897632D01*
X62644351Y-38897629D01*
X62517343Y-38812764D01*
X62517334Y-38812759D01*
X62376205Y-38754302D01*
X62376197Y-38754300D01*
X62226384Y-38724500D01*
X62226380Y-38724500D01*
X62073620Y-38724500D01*
X62073615Y-38724500D01*
X61923802Y-38754300D01*
X61923794Y-38754302D01*
X61782665Y-38812759D01*
X61782656Y-38812764D01*
X61655648Y-38897629D01*
X61655644Y-38897632D01*
X61547632Y-39005644D01*
X61547629Y-39005648D01*
X61462764Y-39132656D01*
X61462759Y-39132665D01*
X61404302Y-39273794D01*
X61404300Y-39273802D01*
X61374500Y-39423615D01*
X59472140Y-39423615D01*
X54776696Y-34728171D01*
X54743211Y-34666848D01*
X54741904Y-34621091D01*
X54742169Y-34619412D01*
X54742171Y-34619409D01*
X54767026Y-34462482D01*
X54770500Y-34440550D01*
X54770500Y-34259448D01*
X54754019Y-34155397D01*
X54742171Y-34080591D01*
X54692768Y-33928542D01*
X54686212Y-33908363D01*
X54686211Y-33908360D01*
X54657740Y-33852484D01*
X54603996Y-33747006D01*
X54583495Y-33718788D01*
X54497558Y-33600505D01*
X54497554Y-33600500D01*
X54369499Y-33472445D01*
X54369494Y-33472441D01*
X54222997Y-33366006D01*
X54222996Y-33366005D01*
X54222994Y-33366004D01*
X54154170Y-33330936D01*
X54061639Y-33283788D01*
X54061636Y-33283787D01*
X53889410Y-33227829D01*
X53729321Y-33202473D01*
X53666186Y-33172544D01*
X53629255Y-33113232D01*
X53630253Y-33043370D01*
X53668863Y-32985137D01*
X53729321Y-32957527D01*
X53802178Y-32945987D01*
X53889409Y-32932171D01*
X54061639Y-32876211D01*
X54222994Y-32793996D01*
X54369501Y-32687553D01*
X54497553Y-32559501D01*
X54603996Y-32412994D01*
X54686211Y-32251639D01*
X54742171Y-32079409D01*
X54756765Y-31987259D01*
X54770500Y-31900551D01*
X54770500Y-31719448D01*
X54754019Y-31615397D01*
X54742171Y-31540591D01*
X54703261Y-31420837D01*
X54686212Y-31368363D01*
X54686211Y-31368360D01*
X54636840Y-31271466D01*
X54603996Y-31207006D01*
X54566786Y-31155791D01*
X54497558Y-31060505D01*
X54497554Y-31060500D01*
X54369499Y-30932445D01*
X54369494Y-30932441D01*
X54222997Y-30826006D01*
X54222996Y-30826005D01*
X54222994Y-30826004D01*
X54152582Y-30790127D01*
X54061639Y-30743788D01*
X54061636Y-30743787D01*
X53889410Y-30687829D01*
X53710551Y-30659500D01*
X53710546Y-30659500D01*
X53529454Y-30659500D01*
X53529449Y-30659500D01*
X53350589Y-30687829D01*
X53178363Y-30743787D01*
X53178360Y-30743788D01*
X53017006Y-30826003D01*
X52870385Y-30932529D01*
X52804578Y-30956008D01*
X52736524Y-30940182D01*
X52687830Y-30890076D01*
X52673500Y-30832210D01*
X52673500Y-27707789D01*
X52693185Y-27640750D01*
X52745989Y-27594995D01*
X52815147Y-27585051D01*
X52870385Y-27607471D01*
X52958146Y-27671232D01*
X53017006Y-27713996D01*
X53101547Y-27757072D01*
X53178360Y-27796211D01*
X53178363Y-27796212D01*
X53264476Y-27824191D01*
X53350591Y-27852171D01*
X53433429Y-27865291D01*
X53529449Y-27880500D01*
X53529454Y-27880500D01*
X53710551Y-27880500D01*
X53800410Y-27866267D01*
X53889409Y-27852171D01*
X54061639Y-27796211D01*
X54222994Y-27713996D01*
X54369501Y-27607553D01*
X54497553Y-27479501D01*
X54603996Y-27332994D01*
X54686211Y-27171639D01*
X54742171Y-26999409D01*
X54756765Y-26907259D01*
X54770500Y-26820551D01*
X54770500Y-26639448D01*
X54741904Y-26458906D01*
X54750858Y-26389613D01*
X54776693Y-26351830D01*
X59360710Y-21767815D01*
X59433184Y-21642285D01*
X59470700Y-21502274D01*
X59470700Y-21357326D01*
X59470700Y-16457487D01*
X59490385Y-16390448D01*
X59507019Y-16369806D01*
X60790006Y-15086819D01*
X60816933Y-15072115D01*
X60842752Y-15055523D01*
X60848952Y-15054631D01*
X60851329Y-15053334D01*
X60877687Y-15050500D01*
X60999579Y-15050500D01*
X61066618Y-15070185D01*
X61110062Y-15118203D01*
X61162880Y-15221864D01*
X61166006Y-15227998D01*
X61272441Y-15374494D01*
X61272445Y-15374499D01*
X61400500Y-15502554D01*
X61400505Y-15502558D01*
X61528287Y-15595396D01*
X61547006Y-15608996D01*
X61652484Y-15662740D01*
X61708360Y-15691211D01*
X61708363Y-15691212D01*
X61794476Y-15719191D01*
X61880591Y-15747171D01*
X61963429Y-15760291D01*
X62059449Y-15775500D01*
X62059454Y-15775500D01*
X62240551Y-15775500D01*
X62327259Y-15761765D01*
X62419409Y-15747171D01*
X62591639Y-15691211D01*
X62752994Y-15608996D01*
X62874915Y-15520416D01*
X62940721Y-15496936D01*
X63008775Y-15512762D01*
X63057470Y-15562867D01*
X63071800Y-15620734D01*
X63071800Y-16576459D01*
X63052115Y-16643498D01*
X62999311Y-16689253D01*
X62930153Y-16699197D01*
X62866597Y-16670172D01*
X62840667Y-16637698D01*
X62840624Y-16637728D01*
X62840282Y-16637217D01*
X62838442Y-16634912D01*
X62837240Y-16632664D01*
X62752370Y-16505648D01*
X62752367Y-16505644D01*
X62644355Y-16397632D01*
X62644351Y-16397629D01*
X62517343Y-16312764D01*
X62517334Y-16312759D01*
X62376205Y-16254302D01*
X62376197Y-16254300D01*
X62226384Y-16224500D01*
X62226380Y-16224500D01*
X62073620Y-16224500D01*
X62073615Y-16224500D01*
X61923802Y-16254300D01*
X61923794Y-16254302D01*
X61782665Y-16312759D01*
X61782656Y-16312764D01*
X61655648Y-16397629D01*
X61655644Y-16397632D01*
X61547632Y-16505644D01*
X61547629Y-16505648D01*
X61462764Y-16632656D01*
X61462759Y-16632665D01*
X61404302Y-16773794D01*
X61404300Y-16773802D01*
X61374500Y-16923615D01*
X61374500Y-17076384D01*
X61404300Y-17226197D01*
X61404302Y-17226205D01*
X61462759Y-17367334D01*
X61462764Y-17367343D01*
X61547629Y-17494351D01*
X61547632Y-17494355D01*
X61655644Y-17602367D01*
X61655648Y-17602370D01*
X61782656Y-17687235D01*
X61782662Y-17687238D01*
X61782663Y-17687239D01*
X61923795Y-17745698D01*
X62073615Y-17775499D01*
X62073619Y-17775500D01*
X62073620Y-17775500D01*
X62226381Y-17775500D01*
X62226382Y-17775499D01*
X62376205Y-17745698D01*
X62517337Y-17687239D01*
X62644352Y-17602370D01*
X62752370Y-17494352D01*
X62837239Y-17367337D01*
X62837241Y-17367330D01*
X62838438Y-17365093D01*
X62839379Y-17364134D01*
X62840624Y-17362272D01*
X62840977Y-17362507D01*
X62887398Y-17315246D01*
X62955535Y-17299781D01*
X63021216Y-17323609D01*
X63063588Y-17379164D01*
X63071800Y-17423540D01*
X63071800Y-29206210D01*
X63052115Y-29273249D01*
X62999311Y-29319004D01*
X62930153Y-29328948D01*
X62866597Y-29299923D01*
X62833239Y-29253663D01*
X62792946Y-29156388D01*
X62792929Y-29156347D01*
X62792927Y-29156344D01*
X62792925Y-29156340D01*
X62713532Y-29037521D01*
X62713529Y-29037517D01*
X62612482Y-28936470D01*
X62612478Y-28936467D01*
X62493659Y-28857074D01*
X62493650Y-28857069D01*
X62361620Y-28802381D01*
X62361614Y-28802379D01*
X62221457Y-28774500D01*
X62221455Y-28774500D01*
X62078545Y-28774500D01*
X62078543Y-28774500D01*
X61938385Y-28802379D01*
X61938379Y-28802381D01*
X61806349Y-28857069D01*
X61806340Y-28857074D01*
X61687521Y-28936467D01*
X61687517Y-28936470D01*
X61586470Y-29037517D01*
X61586467Y-29037521D01*
X61507074Y-29156340D01*
X61507069Y-29156349D01*
X61452381Y-29288379D01*
X61452379Y-29288385D01*
X61424500Y-29428542D01*
X61424500Y-29428545D01*
X61424500Y-29571455D01*
X61424500Y-29571457D01*
X61424499Y-29571457D01*
X61452379Y-29711614D01*
X61452381Y-29711620D01*
X61507069Y-29843650D01*
X61507074Y-29843659D01*
X61586467Y-29962478D01*
X61586470Y-29962482D01*
X61687517Y-30063529D01*
X61687521Y-30063532D01*
X61806340Y-30142925D01*
X61806346Y-30142928D01*
X61806347Y-30142929D01*
X61938380Y-30197619D01*
X61938384Y-30197619D01*
X61938385Y-30197620D01*
X62078542Y-30225500D01*
X62078545Y-30225500D01*
X62221457Y-30225500D01*
X62315751Y-30206742D01*
X62361620Y-30197619D01*
X62493653Y-30142929D01*
X62612479Y-30063532D01*
X62713532Y-29962479D01*
X62792929Y-29843653D01*
X62833239Y-29746335D01*
X62877080Y-29691933D01*
X62943374Y-29669868D01*
X63011073Y-29687147D01*
X63058684Y-29738284D01*
X63071800Y-29793789D01*
X63071800Y-30941586D01*
X63052115Y-31008625D01*
X62999311Y-31054380D01*
X62930153Y-31064324D01*
X62871383Y-31037741D01*
X62870869Y-31038450D01*
X62867436Y-31035956D01*
X62867279Y-31035885D01*
X62866938Y-31035594D01*
X62866930Y-31035588D01*
X62866928Y-31035586D01*
X62726788Y-30933768D01*
X62572445Y-30855127D01*
X62407701Y-30801598D01*
X62407699Y-30801597D01*
X62407698Y-30801597D01*
X62276271Y-30780781D01*
X62236611Y-30774500D01*
X62063389Y-30774500D01*
X62023728Y-30780781D01*
X61892302Y-30801597D01*
X61727552Y-30855128D01*
X61573211Y-30933768D01*
X61499135Y-30987587D01*
X61433072Y-31035586D01*
X61433069Y-31035588D01*
X61429131Y-31038450D01*
X61428157Y-31037110D01*
X61370955Y-31062710D01*
X61301874Y-31052242D01*
X61266560Y-31027523D01*
X60823819Y-30584782D01*
X60790334Y-30523459D01*
X60787500Y-30497101D01*
X60787500Y-30456527D01*
X60787500Y-30456525D01*
X60749984Y-30316515D01*
X60697436Y-30225500D01*
X60677511Y-30190988D01*
X60677506Y-30190982D01*
X60575017Y-30088493D01*
X60575011Y-30088488D01*
X60449488Y-30016017D01*
X60449489Y-30016017D01*
X60417270Y-30007384D01*
X60309475Y-29978500D01*
X60164525Y-29978500D01*
X60056730Y-30007384D01*
X60024511Y-30016017D01*
X59898988Y-30088488D01*
X59898982Y-30088493D01*
X59796493Y-30190982D01*
X59796488Y-30190988D01*
X59724017Y-30316511D01*
X59724016Y-30316515D01*
X59686500Y-30456525D01*
X59686500Y-30601475D01*
X59702048Y-30659500D01*
X59724017Y-30741488D01*
X59796488Y-30867011D01*
X59796490Y-30867013D01*
X59796491Y-30867015D01*
X59898985Y-30969509D01*
X59898986Y-30969510D01*
X59898988Y-30969511D01*
X60024511Y-31041982D01*
X60024512Y-31041982D01*
X60024515Y-31041984D01*
X60164525Y-31079500D01*
X60205101Y-31079500D01*
X60272140Y-31099185D01*
X60292782Y-31115819D01*
X60561481Y-31384518D01*
X60594966Y-31445841D01*
X60597800Y-31472199D01*
X60597800Y-32049435D01*
X60623390Y-32144938D01*
X60672825Y-32230562D01*
X60742738Y-32300475D01*
X60828362Y-32349910D01*
X60923865Y-32375500D01*
X60984167Y-32375500D01*
X61051206Y-32395185D01*
X61096961Y-32447989D01*
X61102098Y-32461181D01*
X61130128Y-32547449D01*
X61202790Y-32690056D01*
X61208768Y-32701788D01*
X61310586Y-32841928D01*
X61433072Y-32964414D01*
X61573212Y-33066232D01*
X61727555Y-33144873D01*
X61892299Y-33198402D01*
X62063389Y-33225500D01*
X62063390Y-33225500D01*
X62236610Y-33225500D01*
X62236611Y-33225500D01*
X62407701Y-33198402D01*
X62572445Y-33144873D01*
X62726788Y-33066232D01*
X62866928Y-32964414D01*
X62866937Y-32964404D01*
X62867265Y-32964125D01*
X62867421Y-32964055D01*
X62870869Y-32961550D01*
X62871395Y-32962274D01*
X62931025Y-32935553D01*
X63000112Y-32945987D01*
X63052589Y-32992116D01*
X63071800Y-33058413D01*
X63071800Y-35941586D01*
X63052115Y-36008625D01*
X62999311Y-36054380D01*
X62930153Y-36064324D01*
X62871383Y-36037741D01*
X62870869Y-36038450D01*
X62867436Y-36035956D01*
X62867279Y-36035885D01*
X62866938Y-36035594D01*
X62866930Y-36035588D01*
X62866928Y-36035586D01*
X62726788Y-35933768D01*
X62572445Y-35855127D01*
X62407701Y-35801598D01*
X62407699Y-35801597D01*
X62407698Y-35801597D01*
X62276271Y-35780781D01*
X62236611Y-35774500D01*
X62063389Y-35774500D01*
X62023728Y-35780781D01*
X61892302Y-35801597D01*
X61727552Y-35855128D01*
X61573211Y-35933768D01*
X61508484Y-35980796D01*
X61433072Y-36035586D01*
X61433070Y-36035588D01*
X61433069Y-36035588D01*
X61310588Y-36158069D01*
X61310588Y-36158070D01*
X61310586Y-36158072D01*
X61299369Y-36173511D01*
X61208768Y-36298211D01*
X61130128Y-36452552D01*
X61076597Y-36617302D01*
X61049500Y-36788389D01*
X61049500Y-37211610D01*
X61065470Y-37312445D01*
X61076598Y-37382701D01*
X61130127Y-37547445D01*
X61208768Y-37701788D01*
X61310586Y-37841928D01*
X61433072Y-37964414D01*
X61573212Y-38066232D01*
X61727555Y-38144873D01*
X61892299Y-38198402D01*
X62063389Y-38225500D01*
X62063390Y-38225500D01*
X62236610Y-38225500D01*
X62236611Y-38225500D01*
X62407701Y-38198402D01*
X62572445Y-38144873D01*
X62726788Y-38066232D01*
X62866928Y-37964414D01*
X62989414Y-37841928D01*
X63091232Y-37701788D01*
X63159295Y-37568206D01*
X63207269Y-37517409D01*
X63269780Y-37500500D01*
X63567590Y-37500500D01*
X63567592Y-37500500D01*
X63694886Y-37466392D01*
X63809014Y-37400500D01*
X63972799Y-37236715D01*
X63987294Y-37211610D01*
X63995373Y-37197618D01*
X64014965Y-37163682D01*
X64038692Y-37122586D01*
X64057820Y-37051200D01*
X64072800Y-36995293D01*
X64072800Y-36863508D01*
X64072800Y-12004708D01*
X64038692Y-11877414D01*
X63972800Y-11763286D01*
X63879614Y-11670100D01*
X63809014Y-11599500D01*
X63751950Y-11566554D01*
X63694887Y-11533608D01*
X63631239Y-11516554D01*
X63567592Y-11499500D01*
X63567591Y-11499500D01*
X63269780Y-11499500D01*
X63202741Y-11479815D01*
X63159295Y-11431794D01*
X63091233Y-11298213D01*
X63075937Y-11277160D01*
X62989414Y-11158072D01*
X62866928Y-11035586D01*
X62726788Y-10933768D01*
X62572445Y-10855127D01*
X62407701Y-10801598D01*
X62407699Y-10801597D01*
X62407698Y-10801597D01*
X62276271Y-10780781D01*
X62236611Y-10774500D01*
X62063389Y-10774500D01*
X62023728Y-10780781D01*
X61892302Y-10801597D01*
X61727552Y-10855128D01*
X61573211Y-10933768D01*
X61493256Y-10991859D01*
X61433072Y-11035586D01*
X61433070Y-11035588D01*
X61433069Y-11035588D01*
X61310588Y-11158069D01*
X61310588Y-11158070D01*
X61310586Y-11158072D01*
X61266859Y-11218256D01*
X61208768Y-11298211D01*
X61130128Y-11452552D01*
X61076597Y-11617302D01*
X61068235Y-11670100D01*
X61049500Y-11788389D01*
X61049500Y-12211611D01*
X61076598Y-12382701D01*
X61130127Y-12547445D01*
X61208768Y-12701788D01*
X61310586Y-12841928D01*
X61433072Y-12964414D01*
X61573212Y-13066232D01*
X61661970Y-13111456D01*
X61712766Y-13159430D01*
X61729561Y-13227251D01*
X61707024Y-13293386D01*
X61661971Y-13332425D01*
X61547004Y-13391004D01*
X61400505Y-13497441D01*
X61400500Y-13497445D01*
X61272445Y-13625500D01*
X61272441Y-13625505D01*
X61166006Y-13772001D01*
X61140299Y-13822453D01*
X61110062Y-13881796D01*
X61062090Y-13932591D01*
X60999579Y-13949500D01*
X60525825Y-13949500D01*
X60420817Y-13977637D01*
X60385814Y-13987016D01*
X60260286Y-14059489D01*
X60260283Y-14059491D01*
X58479691Y-15840083D01*
X58479689Y-15840086D01*
X58407216Y-15965614D01*
X58407216Y-15965615D01*
X58369700Y-16105625D01*
X58369700Y-16105627D01*
X58369700Y-21150412D01*
X58350015Y-21217451D01*
X58333381Y-21238093D01*
X54929358Y-24642116D01*
X54868035Y-24675601D01*
X54798343Y-24670617D01*
X54742410Y-24628745D01*
X54717993Y-24563281D01*
X54723746Y-24516117D01*
X54738100Y-24471937D01*
X54742171Y-24459409D01*
X54756765Y-24367259D01*
X54770500Y-24280551D01*
X54770500Y-24099448D01*
X54754019Y-23995397D01*
X54742171Y-23920591D01*
X54714191Y-23834476D01*
X54686212Y-23748363D01*
X54686211Y-23748360D01*
X54657740Y-23692484D01*
X54603996Y-23587006D01*
X54590396Y-23568287D01*
X54497558Y-23440505D01*
X54497554Y-23440500D01*
X54369499Y-23312445D01*
X54369494Y-23312441D01*
X54222997Y-23206006D01*
X54222996Y-23206005D01*
X54222994Y-23206004D01*
X54152582Y-23170127D01*
X54061639Y-23123788D01*
X54061636Y-23123787D01*
X53889410Y-23067829D01*
X53710551Y-23039500D01*
X53710546Y-23039500D01*
X53529454Y-23039500D01*
X53529449Y-23039500D01*
X53350589Y-23067829D01*
X53178363Y-23123787D01*
X53178360Y-23123788D01*
X53017006Y-23206003D01*
X52870385Y-23312529D01*
X52804578Y-23336008D01*
X52736524Y-23320182D01*
X52687830Y-23270076D01*
X52673500Y-23212210D01*
X52673500Y-22559204D01*
X52693185Y-22492165D01*
X52745989Y-22446410D01*
X52815147Y-22436466D01*
X52878703Y-22465491D01*
X52885181Y-22471523D01*
X52903072Y-22489414D01*
X53043212Y-22591232D01*
X53197555Y-22669873D01*
X53362299Y-22723402D01*
X53533389Y-22750500D01*
X53533390Y-22750500D01*
X53706610Y-22750500D01*
X53706611Y-22750500D01*
X53877701Y-22723402D01*
X54042445Y-22669873D01*
X54196788Y-22591232D01*
X54336928Y-22489414D01*
X54459414Y-22366928D01*
X54561232Y-22226788D01*
X54639873Y-22072445D01*
X54693402Y-21907701D01*
X54720500Y-21736611D01*
X54720500Y-21563389D01*
X54693402Y-21392299D01*
X54639873Y-21227555D01*
X54561232Y-21073212D01*
X54459414Y-20933072D01*
X54336928Y-20810586D01*
X54196788Y-20708768D01*
X54042445Y-20630127D01*
X53877701Y-20576598D01*
X53877699Y-20576597D01*
X53877698Y-20576597D01*
X53746271Y-20555781D01*
X53706611Y-20549500D01*
X53533389Y-20549500D01*
X53493728Y-20555781D01*
X53362302Y-20576597D01*
X53362299Y-20576598D01*
X53209500Y-20626246D01*
X53197549Y-20630129D01*
X53100248Y-20679706D01*
X53031579Y-20692602D01*
X52966839Y-20666325D01*
X52926582Y-20609219D01*
X52923590Y-20539413D01*
X52956272Y-20481541D01*
X53227138Y-20210674D01*
X53288461Y-20177190D01*
X53353136Y-20180424D01*
X53362299Y-20183402D01*
X53533389Y-20210500D01*
X53533390Y-20210500D01*
X53706610Y-20210500D01*
X53706611Y-20210500D01*
X53877701Y-20183402D01*
X54042445Y-20129873D01*
X54196788Y-20051232D01*
X54336928Y-19949414D01*
X54459414Y-19826928D01*
X54561232Y-19686788D01*
X54639873Y-19532445D01*
X54693402Y-19367701D01*
X54720500Y-19196611D01*
X54720500Y-19023389D01*
X54693402Y-18852299D01*
X54639873Y-18687555D01*
X54561232Y-18533212D01*
X54459414Y-18393072D01*
X54336928Y-18270586D01*
X54196788Y-18168768D01*
X54196789Y-18168768D01*
X54196787Y-18168767D01*
X54188199Y-18164391D01*
X54137406Y-18116414D01*
X54120500Y-18053909D01*
X54120500Y-17659075D01*
X54129145Y-17629632D01*
X54135668Y-17599649D01*
X54139422Y-17594633D01*
X54140185Y-17592036D01*
X54156813Y-17571399D01*
X54300340Y-17427872D01*
X54361659Y-17394390D01*
X54363805Y-17393943D01*
X54461044Y-17374601D01*
X54579427Y-17325565D01*
X54685969Y-17254376D01*
X54776576Y-17163769D01*
X54847765Y-17057227D01*
X54896801Y-16938844D01*
X54921800Y-16813169D01*
X54921800Y-16685031D01*
X54921800Y-16685028D01*
X54896802Y-16559361D01*
X54896801Y-16559360D01*
X54896801Y-16559356D01*
X54847765Y-16440973D01*
X54847764Y-16440972D01*
X54847761Y-16440966D01*
X54776576Y-16334431D01*
X54776573Y-16334427D01*
X54685972Y-16243826D01*
X54685968Y-16243823D01*
X54579433Y-16172638D01*
X54579424Y-16172633D01*
X54455416Y-16121268D01*
X54456191Y-16119394D01*
X54405514Y-16086163D01*
X54377076Y-16022343D01*
X54387656Y-15953279D01*
X54412287Y-15918149D01*
X61273774Y-9056663D01*
X61273775Y-9056662D01*
X61323210Y-8971038D01*
X61348800Y-8875535D01*
X61348800Y-7515557D01*
X61368485Y-7448518D01*
X61421289Y-7402763D01*
X61490447Y-7392819D01*
X61554003Y-7421844D01*
X61575903Y-7446667D01*
X61586469Y-7462481D01*
X61687517Y-7563529D01*
X61687521Y-7563532D01*
X61806340Y-7642925D01*
X61806346Y-7642928D01*
X61806347Y-7642929D01*
X61938380Y-7697619D01*
X61938384Y-7697619D01*
X61938385Y-7697620D01*
X62078542Y-7725500D01*
X62078545Y-7725500D01*
X62221457Y-7725500D01*
X62315751Y-7706742D01*
X62361620Y-7697619D01*
X62493653Y-7642929D01*
X62612479Y-7563532D01*
X62713532Y-7462479D01*
X62792929Y-7343653D01*
X62847619Y-7211620D01*
X62875500Y-7071455D01*
X62875500Y-6928545D01*
X62875500Y-6928542D01*
X62847620Y-6788385D01*
X62847619Y-6788384D01*
X62847619Y-6788380D01*
X62792929Y-6656347D01*
X62792928Y-6656346D01*
X62792925Y-6656340D01*
X62713532Y-6537521D01*
X62713529Y-6537517D01*
X62612482Y-6436470D01*
X62612478Y-6436467D01*
X62493659Y-6357074D01*
X62493650Y-6357069D01*
X62361620Y-6302381D01*
X62361614Y-6302379D01*
X62221457Y-6274500D01*
X62221455Y-6274500D01*
X62078545Y-6274500D01*
X62078543Y-6274500D01*
X61938385Y-6302379D01*
X61938379Y-6302381D01*
X61806349Y-6357069D01*
X61806340Y-6357074D01*
X61687521Y-6436467D01*
X61687517Y-6436470D01*
X61586470Y-6537517D01*
X61586465Y-6537523D01*
X61575901Y-6553334D01*
X61522288Y-6598139D01*
X61452963Y-6606845D01*
X61389936Y-6576689D01*
X61353218Y-6517246D01*
X61348800Y-6484442D01*
X61348800Y-5646550D01*
X61368485Y-5579511D01*
X61421289Y-5533756D01*
X61490447Y-5523812D01*
X61545686Y-5546233D01*
X61573212Y-5566232D01*
X61727555Y-5644873D01*
X61892299Y-5698402D01*
X62063389Y-5725500D01*
X62063390Y-5725500D01*
X62236610Y-5725500D01*
X62236611Y-5725500D01*
X62407701Y-5698402D01*
X62572445Y-5644873D01*
X62726788Y-5566232D01*
X62866928Y-5464414D01*
X62989414Y-5341928D01*
X63091232Y-5201788D01*
X63169873Y-5047445D01*
X63223402Y-4882701D01*
X63250500Y-4711611D01*
X63250500Y-4288389D01*
X63223402Y-4117299D01*
X63169873Y-3952555D01*
X63091232Y-3798212D01*
X62989414Y-3658072D01*
X62866928Y-3535586D01*
X62726788Y-3433768D01*
X62572447Y-3355128D01*
X62572446Y-3355127D01*
X62572445Y-3355127D01*
X62407701Y-3301598D01*
X62407699Y-3301597D01*
X62407698Y-3301597D01*
X62276271Y-3280781D01*
X62236611Y-3274500D01*
X62063389Y-3274500D01*
X62023728Y-3280781D01*
X61892302Y-3301597D01*
X61727552Y-3355128D01*
X61573211Y-3433768D01*
X61493256Y-3491859D01*
X61433072Y-3535586D01*
X61433070Y-3535588D01*
X61433069Y-3535588D01*
X61310588Y-3658069D01*
X61310588Y-3658070D01*
X61310586Y-3658072D01*
X61266859Y-3718256D01*
X61208768Y-3798211D01*
X61130128Y-3952550D01*
X61102098Y-4038819D01*
X61062660Y-4096494D01*
X60998301Y-4123692D01*
X60984167Y-4124500D01*
X60923865Y-4124500D01*
X60828362Y-4150090D01*
X60828360Y-4150091D01*
X60828359Y-4150091D01*
X60742736Y-4199526D01*
X60672826Y-4269436D01*
X60623391Y-4355059D01*
X60623391Y-4355060D01*
X60623390Y-4355062D01*
X60597800Y-4450565D01*
X60597800Y-4450567D01*
X60597800Y-8619201D01*
X60578115Y-8686240D01*
X60561481Y-8706882D01*
X50802527Y-18465835D01*
X50753091Y-18551460D01*
X50753090Y-18551463D01*
X50728405Y-18643591D01*
X50728399Y-18643612D01*
X50727500Y-18646963D01*
X50727500Y-29545214D01*
X50707815Y-29612253D01*
X50691181Y-29632895D01*
X50662493Y-29661582D01*
X50662488Y-29661588D01*
X50590017Y-29787111D01*
X50590016Y-29787115D01*
X50552500Y-29927125D01*
X50552500Y-30072075D01*
X50590016Y-30212085D01*
X50590017Y-30212088D01*
X50662488Y-30337611D01*
X50662490Y-30337613D01*
X50662491Y-30337615D01*
X50764985Y-30440109D01*
X50764986Y-30440110D01*
X50764988Y-30440111D01*
X50890511Y-30512582D01*
X50890512Y-30512582D01*
X50890515Y-30512584D01*
X51030525Y-30550100D01*
X51030528Y-30550100D01*
X51175472Y-30550100D01*
X51175475Y-30550100D01*
X51315485Y-30512584D01*
X51441015Y-30440109D01*
X51460819Y-30420305D01*
X51522142Y-30386820D01*
X51591834Y-30391804D01*
X51647767Y-30433676D01*
X51672184Y-30499140D01*
X51672500Y-30507986D01*
X51672500Y-43568323D01*
X51652815Y-43635362D01*
X51636181Y-43656004D01*
X46579003Y-48713181D01*
X46517680Y-48746666D01*
X46491322Y-48749500D01*
X45202129Y-48749500D01*
X45202123Y-48749501D01*
X45142516Y-48755908D01*
X45007671Y-48806202D01*
X45007664Y-48806206D01*
X44892455Y-48892452D01*
X44892452Y-48892455D01*
X44806206Y-49007664D01*
X44806202Y-49007671D01*
X44755908Y-49142517D01*
X44749501Y-49202116D01*
X44749500Y-49202135D01*
X20578200Y-49202135D01*
X20578200Y-36196786D01*
X20597885Y-36129747D01*
X20614519Y-36109105D01*
X20626646Y-36096978D01*
X20643209Y-36080415D01*
X20715684Y-35954885D01*
X20753200Y-35814875D01*
X20753200Y-35669925D01*
X20715684Y-35529915D01*
X20702278Y-35506696D01*
X20643211Y-35404388D01*
X20643206Y-35404382D01*
X20540717Y-35301893D01*
X20540711Y-35301888D01*
X20415188Y-35229417D01*
X20415189Y-35229417D01*
X20403706Y-35226340D01*
X20275175Y-35191900D01*
X20130225Y-35191900D01*
X20001693Y-35226340D01*
X19990211Y-35229417D01*
X19864688Y-35301888D01*
X19864682Y-35301893D01*
X19775781Y-35390795D01*
X19714458Y-35424280D01*
X19644766Y-35419296D01*
X19600419Y-35390795D01*
X19502117Y-35292493D01*
X19502111Y-35292488D01*
X19376588Y-35220017D01*
X19376589Y-35220017D01*
X19365106Y-35216940D01*
X19236575Y-35182500D01*
X19091625Y-35182500D01*
X18963093Y-35216940D01*
X18951611Y-35220017D01*
X18826088Y-35292488D01*
X18826082Y-35292493D01*
X18723593Y-35394982D01*
X18723588Y-35394988D01*
X18651117Y-35520511D01*
X18651116Y-35520515D01*
X18613600Y-35660525D01*
X18613600Y-35660527D01*
X18613600Y-35701101D01*
X18593915Y-35768140D01*
X18577281Y-35788782D01*
X15940926Y-38425136D01*
X15891491Y-38510759D01*
X15891491Y-38510760D01*
X15891490Y-38510762D01*
X15865900Y-38606265D01*
X15865900Y-38606267D01*
X15865900Y-56012714D01*
X15846215Y-56079753D01*
X15829581Y-56100395D01*
X15800893Y-56129082D01*
X15800888Y-56129088D01*
X15728417Y-56254611D01*
X15728416Y-56254615D01*
X15690900Y-56394625D01*
X5810040Y-56394625D01*
X5818838Y-56361789D01*
X5850500Y-56121288D01*
X5850500Y-55878712D01*
X5818838Y-55638211D01*
X5756054Y-55403900D01*
X5663224Y-55179788D01*
X5541936Y-54969711D01*
X5419950Y-54810735D01*
X5394266Y-54777263D01*
X5394260Y-54777256D01*
X5222743Y-54605739D01*
X5222736Y-54605733D01*
X5030293Y-54458067D01*
X5030292Y-54458066D01*
X5030289Y-54458064D01*
X4820212Y-54336776D01*
X4820205Y-54336773D01*
X4596104Y-54243947D01*
X4361785Y-54181161D01*
X4121289Y-54149500D01*
X4121288Y-54149500D01*
X3878712Y-54149500D01*
X3878711Y-54149500D01*
X3638214Y-54181161D01*
X3403895Y-54243947D01*
X3179794Y-54336773D01*
X3179785Y-54336777D01*
X2969706Y-54458067D01*
X2777263Y-54605733D01*
X2777256Y-54605739D01*
X2605739Y-54777256D01*
X2605733Y-54777263D01*
X2458067Y-54969706D01*
X2336777Y-55179785D01*
X2336773Y-55179794D01*
X2243947Y-55403895D01*
X2181161Y-55638214D01*
X2149500Y-55878711D01*
X500500Y-55878711D01*
X500500Y-41571457D01*
X774499Y-41571457D01*
X802379Y-41711614D01*
X802381Y-41711620D01*
X857069Y-41843650D01*
X857074Y-41843659D01*
X936467Y-41962478D01*
X936470Y-41962482D01*
X1037517Y-42063529D01*
X1037521Y-42063532D01*
X1156340Y-42142925D01*
X1156346Y-42142928D01*
X1156347Y-42142929D01*
X1288380Y-42197619D01*
X1288384Y-42197619D01*
X1288385Y-42197620D01*
X1428542Y-42225500D01*
X1428545Y-42225500D01*
X1571457Y-42225500D01*
X1665751Y-42206742D01*
X1711620Y-42197619D01*
X1843653Y-42142929D01*
X1962479Y-42063532D01*
X2063532Y-41962479D01*
X2142929Y-41843653D01*
X2197619Y-41711620D01*
X2225500Y-41571455D01*
X2225500Y-41428545D01*
X2225500Y-41428542D01*
X2197620Y-41288385D01*
X2197619Y-41288384D01*
X2197619Y-41288380D01*
X2142929Y-41156347D01*
X2142928Y-41156346D01*
X2142925Y-41156340D01*
X2063532Y-41037521D01*
X2063529Y-41037517D01*
X1962482Y-40936470D01*
X1962478Y-40936467D01*
X1843659Y-40857074D01*
X1843650Y-40857069D01*
X1711620Y-40802381D01*
X1711614Y-40802379D01*
X1571457Y-40774500D01*
X1571455Y-40774500D01*
X1428545Y-40774500D01*
X1428543Y-40774500D01*
X1288385Y-40802379D01*
X1288379Y-40802381D01*
X1156349Y-40857069D01*
X1156340Y-40857074D01*
X1037521Y-40936467D01*
X1037517Y-40936470D01*
X936470Y-41037517D01*
X936467Y-41037521D01*
X857074Y-41156340D01*
X857069Y-41156349D01*
X802381Y-41288379D01*
X802379Y-41288385D01*
X774500Y-41428542D01*
X774500Y-41428545D01*
X774500Y-41571455D01*
X774500Y-41571457D01*
X774499Y-41571457D01*
X500500Y-41571457D01*
X500500Y-39071457D01*
X774499Y-39071457D01*
X802379Y-39211614D01*
X802381Y-39211620D01*
X857069Y-39343650D01*
X857074Y-39343659D01*
X936467Y-39462478D01*
X936470Y-39462482D01*
X1037517Y-39563529D01*
X1037521Y-39563532D01*
X1156340Y-39642925D01*
X1156346Y-39642928D01*
X1156347Y-39642929D01*
X1288380Y-39697619D01*
X1288384Y-39697619D01*
X1288385Y-39697620D01*
X1428542Y-39725500D01*
X1428545Y-39725500D01*
X1571457Y-39725500D01*
X1665751Y-39706742D01*
X1711620Y-39697619D01*
X1843653Y-39642929D01*
X1962479Y-39563532D01*
X2063532Y-39462479D01*
X2142929Y-39343653D01*
X2197619Y-39211620D01*
X2211483Y-39141924D01*
X2225500Y-39071457D01*
X2225500Y-38928542D01*
X2197620Y-38788385D01*
X2197619Y-38788384D01*
X2197619Y-38788380D01*
X2143581Y-38657920D01*
X2142930Y-38656349D01*
X2142925Y-38656340D01*
X2063532Y-38537521D01*
X2063529Y-38537517D01*
X1962482Y-38436470D01*
X1962478Y-38436467D01*
X1843659Y-38357074D01*
X1843650Y-38357069D01*
X1711620Y-38302381D01*
X1711614Y-38302379D01*
X1571457Y-38274500D01*
X1571455Y-38274500D01*
X1428545Y-38274500D01*
X1428543Y-38274500D01*
X1288385Y-38302379D01*
X1288379Y-38302381D01*
X1156349Y-38357069D01*
X1156340Y-38357074D01*
X1037521Y-38436467D01*
X1037517Y-38436470D01*
X936470Y-38537517D01*
X936467Y-38537521D01*
X857074Y-38656340D01*
X857069Y-38656349D01*
X802381Y-38788379D01*
X802379Y-38788385D01*
X774500Y-38928542D01*
X774500Y-38928545D01*
X774500Y-39071455D01*
X774500Y-39071457D01*
X774499Y-39071457D01*
X500500Y-39071457D01*
X500500Y-36571457D01*
X774499Y-36571457D01*
X802379Y-36711614D01*
X802381Y-36711620D01*
X857069Y-36843650D01*
X857074Y-36843659D01*
X936467Y-36962478D01*
X936470Y-36962482D01*
X1037517Y-37063529D01*
X1037521Y-37063532D01*
X1156340Y-37142925D01*
X1156349Y-37142930D01*
X1186258Y-37155318D01*
X1288380Y-37197619D01*
X1288384Y-37197619D01*
X1288385Y-37197620D01*
X1428542Y-37225500D01*
X1428545Y-37225500D01*
X1571457Y-37225500D01*
X1665751Y-37206742D01*
X1711620Y-37197619D01*
X1843653Y-37142929D01*
X1962479Y-37063532D01*
X2063532Y-36962479D01*
X2142929Y-36843653D01*
X2197619Y-36711620D01*
X2213397Y-36632299D01*
X2225500Y-36571457D01*
X2225500Y-36428542D01*
X2197620Y-36288385D01*
X2197619Y-36288384D01*
X2197619Y-36288380D01*
X2142929Y-36156347D01*
X2142928Y-36156346D01*
X2142925Y-36156340D01*
X2063532Y-36037521D01*
X2063529Y-36037517D01*
X1962482Y-35936470D01*
X1962478Y-35936467D01*
X1843659Y-35857074D01*
X1843650Y-35857069D01*
X1711620Y-35802381D01*
X1711614Y-35802379D01*
X1571457Y-35774500D01*
X1571455Y-35774500D01*
X1428545Y-35774500D01*
X1428543Y-35774500D01*
X1288385Y-35802379D01*
X1288379Y-35802381D01*
X1156349Y-35857069D01*
X1156340Y-35857074D01*
X1037521Y-35936467D01*
X1037517Y-35936470D01*
X936470Y-36037517D01*
X936467Y-36037521D01*
X857074Y-36156340D01*
X857069Y-36156349D01*
X802381Y-36288379D01*
X802379Y-36288385D01*
X774500Y-36428542D01*
X774500Y-36428545D01*
X774500Y-36571455D01*
X774500Y-36571457D01*
X774499Y-36571457D01*
X500500Y-36571457D01*
X500500Y-34071457D01*
X774499Y-34071457D01*
X802379Y-34211614D01*
X802381Y-34211620D01*
X857069Y-34343650D01*
X857074Y-34343659D01*
X936467Y-34462478D01*
X936470Y-34462482D01*
X1037517Y-34563529D01*
X1037521Y-34563532D01*
X1156340Y-34642925D01*
X1156346Y-34642928D01*
X1156347Y-34642929D01*
X1288380Y-34697619D01*
X1288384Y-34697619D01*
X1288385Y-34697620D01*
X1428542Y-34725500D01*
X1428545Y-34725500D01*
X1571457Y-34725500D01*
X1665751Y-34706742D01*
X1711620Y-34697619D01*
X1843653Y-34642929D01*
X1962479Y-34563532D01*
X2063532Y-34462479D01*
X2142929Y-34343653D01*
X2197619Y-34211620D01*
X2220454Y-34096822D01*
X2225500Y-34071457D01*
X2225500Y-33928542D01*
X2197620Y-33788385D01*
X2197619Y-33788384D01*
X2197619Y-33788380D01*
X2142929Y-33656347D01*
X2142928Y-33656346D01*
X2142925Y-33656340D01*
X2063532Y-33537521D01*
X2063529Y-33537517D01*
X1962482Y-33436470D01*
X1962478Y-33436467D01*
X1843659Y-33357074D01*
X1843650Y-33357069D01*
X1711620Y-33302381D01*
X1711614Y-33302379D01*
X1571457Y-33274500D01*
X1571455Y-33274500D01*
X1428545Y-33274500D01*
X1428543Y-33274500D01*
X1288385Y-33302379D01*
X1288379Y-33302381D01*
X1156349Y-33357069D01*
X1156340Y-33357074D01*
X1037521Y-33436467D01*
X1037517Y-33436470D01*
X936470Y-33537517D01*
X936467Y-33537521D01*
X857074Y-33656340D01*
X857069Y-33656349D01*
X802381Y-33788379D01*
X802379Y-33788385D01*
X774500Y-33928542D01*
X774500Y-33928545D01*
X774500Y-34071455D01*
X774500Y-34071457D01*
X774499Y-34071457D01*
X500500Y-34071457D01*
X500500Y-20073920D01*
X749499Y-20073920D01*
X778340Y-20218907D01*
X778343Y-20218917D01*
X834912Y-20355488D01*
X834919Y-20355501D01*
X917048Y-20478415D01*
X917051Y-20478419D01*
X1021580Y-20582948D01*
X1021584Y-20582951D01*
X1144498Y-20665080D01*
X1144511Y-20665087D01*
X1281082Y-20721656D01*
X1281087Y-20721658D01*
X1281091Y-20721658D01*
X1281092Y-20721659D01*
X1426079Y-20750500D01*
X1426082Y-20750500D01*
X1573920Y-20750500D01*
X1671462Y-20731096D01*
X1718913Y-20721658D01*
X1855495Y-20665084D01*
X1978416Y-20582951D01*
X2082951Y-20478416D01*
X2165084Y-20355495D01*
X2165722Y-20353956D01*
X2208911Y-20249686D01*
X2221658Y-20218913D01*
X2250500Y-20073918D01*
X2250500Y-19926082D01*
X2250500Y-19926079D01*
X2221659Y-19781092D01*
X2221658Y-19781091D01*
X2221658Y-19781087D01*
X2221656Y-19781082D01*
X2165087Y-19644511D01*
X2165080Y-19644498D01*
X2082951Y-19521584D01*
X2082948Y-19521580D01*
X1978419Y-19417051D01*
X1978415Y-19417048D01*
X1855501Y-19334919D01*
X1855488Y-19334912D01*
X1718917Y-19278343D01*
X1718907Y-19278340D01*
X1573920Y-19249500D01*
X1573918Y-19249500D01*
X1426082Y-19249500D01*
X1426080Y-19249500D01*
X1281092Y-19278340D01*
X1281082Y-19278343D01*
X1144511Y-19334912D01*
X1144498Y-19334919D01*
X1021584Y-19417048D01*
X1021580Y-19417051D01*
X917051Y-19521580D01*
X917048Y-19521584D01*
X834919Y-19644498D01*
X834912Y-19644511D01*
X778343Y-19781082D01*
X778340Y-19781092D01*
X749500Y-19926079D01*
X749500Y-19926082D01*
X749500Y-20073918D01*
X749500Y-20073920D01*
X749499Y-20073920D01*
X500500Y-20073920D01*
X500500Y-10878711D01*
X2149500Y-10878711D01*
X2149500Y-11121288D01*
X2181161Y-11361785D01*
X2243947Y-11596104D01*
X2336773Y-11820205D01*
X2336776Y-11820212D01*
X2458064Y-12030289D01*
X2458066Y-12030292D01*
X2458067Y-12030293D01*
X2605733Y-12222736D01*
X2605739Y-12222743D01*
X2777256Y-12394260D01*
X2777262Y-12394265D01*
X2969711Y-12541936D01*
X3179788Y-12663224D01*
X3403900Y-12756054D01*
X3638211Y-12818838D01*
X3813600Y-12841928D01*
X3878711Y-12850500D01*
X3878712Y-12850500D01*
X4121289Y-12850500D01*
X4169388Y-12844167D01*
X4361789Y-12818838D01*
X4596100Y-12756054D01*
X4820212Y-12663224D01*
X5030289Y-12541936D01*
X5222738Y-12394265D01*
X5394265Y-12222738D01*
X5541936Y-12030289D01*
X5663224Y-11820212D01*
X5756054Y-11596100D01*
X5818838Y-11361789D01*
X5850500Y-11121288D01*
X5850500Y-10878712D01*
X5818838Y-10638211D01*
X5756054Y-10403900D01*
X5663224Y-10179788D01*
X5541936Y-9969711D01*
X5394265Y-9777262D01*
X5394260Y-9777256D01*
X5222743Y-9605739D01*
X5222736Y-9605733D01*
X5030293Y-9458067D01*
X5030292Y-9458066D01*
X5030289Y-9458064D01*
X4820212Y-9336776D01*
X4820205Y-9336773D01*
X4596104Y-9243947D01*
X4361785Y-9181161D01*
X4121289Y-9149500D01*
X4121288Y-9149500D01*
X3878712Y-9149500D01*
X3878711Y-9149500D01*
X3638214Y-9181161D01*
X3403895Y-9243947D01*
X3179794Y-9336773D01*
X3179785Y-9336777D01*
X2969706Y-9458067D01*
X2777263Y-9605733D01*
X2777256Y-9605739D01*
X2605739Y-9777256D01*
X2605733Y-9777263D01*
X2458067Y-9969706D01*
X2336777Y-10179785D01*
X2336773Y-10179794D01*
X2243947Y-10403895D01*
X2181161Y-10638214D01*
X2149500Y-10878711D01*
X500500Y-10878711D01*
X500500Y-3071457D01*
X4274499Y-3071457D01*
X4302379Y-3211614D01*
X4302381Y-3211620D01*
X4357069Y-3343650D01*
X4357074Y-3343659D01*
X4436467Y-3462478D01*
X4436470Y-3462482D01*
X4537517Y-3563529D01*
X4537521Y-3563532D01*
X4656340Y-3642925D01*
X4656346Y-3642928D01*
X4656347Y-3642929D01*
X4788380Y-3697619D01*
X4788384Y-3697619D01*
X4788385Y-3697620D01*
X4928542Y-3725500D01*
X4928545Y-3725500D01*
X5071457Y-3725500D01*
X5190661Y-3701788D01*
X5211620Y-3697619D01*
X5343653Y-3642929D01*
X5462479Y-3563532D01*
X5563532Y-3462479D01*
X5642929Y-3343653D01*
X5697619Y-3211620D01*
X5725500Y-3071455D01*
X5725500Y-2928545D01*
X5725500Y-2928542D01*
X5701464Y-2807709D01*
X5701464Y-2807708D01*
X5699624Y-2798463D01*
X5697621Y-2788389D01*
X6399500Y-2788389D01*
X6399500Y-3211611D01*
X6407677Y-3263239D01*
X6422230Y-3355127D01*
X6426598Y-3382701D01*
X6480127Y-3547445D01*
X6558768Y-3701788D01*
X6660586Y-3841928D01*
X6783072Y-3964414D01*
X6923212Y-4066232D01*
X7077555Y-4144873D01*
X7242299Y-4198402D01*
X7413389Y-4225500D01*
X7413390Y-4225500D01*
X7586610Y-4225500D01*
X7586611Y-4225500D01*
X7757701Y-4198402D01*
X7922445Y-4144873D01*
X8076788Y-4066232D01*
X8103616Y-4046739D01*
X8113895Y-4043072D01*
X8121946Y-4035704D01*
X8146221Y-4031537D01*
X8169423Y-4023259D01*
X8180053Y-4025730D01*
X8190809Y-4023885D01*
X8213483Y-4033504D01*
X8237477Y-4039084D01*
X8245083Y-4046910D01*
X8255130Y-4051173D01*
X8269004Y-4071524D01*
X8286172Y-4089189D01*
X8289373Y-4101401D01*
X8294487Y-4108903D01*
X8300457Y-4143688D01*
X8301154Y-4169336D01*
X8301200Y-4172705D01*
X8301200Y-4226135D01*
X8302864Y-4232346D01*
X8302980Y-4236605D01*
X8313382Y-4271602D01*
X8313819Y-4273233D01*
X8313818Y-4273235D01*
X8326788Y-4321633D01*
X8326789Y-4321635D01*
X8326790Y-4321638D01*
X8329811Y-4326872D01*
X8331151Y-4331377D01*
X8352217Y-4365680D01*
X8353076Y-4367168D01*
X8353081Y-4367175D01*
X8376225Y-4407262D01*
X8380184Y-4411221D01*
X8382892Y-4415630D01*
X8415057Y-4446095D01*
X8416274Y-4447312D01*
X8446132Y-4477170D01*
X8446136Y-4477173D01*
X8446138Y-4477175D01*
X8446140Y-4477176D01*
X8450150Y-4480253D01*
X8459937Y-4488603D01*
X8650676Y-4669261D01*
X8735770Y-4749857D01*
X8770906Y-4810249D01*
X8774500Y-4839885D01*
X8774500Y-28102030D01*
X8754815Y-28169069D01*
X8737259Y-28190624D01*
X8004208Y-28908494D01*
X7942538Y-28941335D01*
X7917449Y-28943900D01*
X7870925Y-28943900D01*
X7742393Y-28978340D01*
X7730911Y-28981417D01*
X7605388Y-29053888D01*
X7605382Y-29053893D01*
X7502893Y-29156382D01*
X7502888Y-29156388D01*
X7430417Y-29281911D01*
X7430416Y-29281915D01*
X7392900Y-29421925D01*
X7392900Y-29566875D01*
X7425127Y-29687147D01*
X7430417Y-29706888D01*
X7502888Y-29832411D01*
X7502890Y-29832413D01*
X7502891Y-29832415D01*
X7605385Y-29934909D01*
X7605386Y-29934910D01*
X7605388Y-29934911D01*
X7730911Y-30007382D01*
X7730912Y-30007382D01*
X7730915Y-30007384D01*
X7870925Y-30044900D01*
X7870928Y-30044900D01*
X8015872Y-30044900D01*
X8015875Y-30044900D01*
X8155885Y-30007384D01*
X8281415Y-29934909D01*
X8383909Y-29832415D01*
X8456384Y-29706885D01*
X8493900Y-29566875D01*
X8493900Y-29532201D01*
X8513585Y-29465162D01*
X8531141Y-29443607D01*
X8546525Y-29428542D01*
X9372973Y-28619210D01*
X9378839Y-28613468D01*
X9380562Y-28612475D01*
X9413243Y-28579792D01*
X9413762Y-28579285D01*
X9444028Y-28563176D01*
X9474140Y-28546733D01*
X9474829Y-28546782D01*
X9475439Y-28546458D01*
X9509639Y-28549271D01*
X9543832Y-28551717D01*
X9544384Y-28552130D01*
X9545074Y-28552187D01*
X9572313Y-28573037D01*
X9599766Y-28593587D01*
X9600007Y-28594235D01*
X9600556Y-28594655D01*
X9612197Y-28626914D01*
X9624184Y-28659051D01*
X9624226Y-28660250D01*
X9624272Y-28660376D01*
X9624236Y-28660529D01*
X9624500Y-28667899D01*
X9624500Y-29929301D01*
X9604815Y-29996340D01*
X9588181Y-30016982D01*
X8102282Y-31502881D01*
X8040959Y-31536366D01*
X8014601Y-31539200D01*
X7974025Y-31539200D01*
X7845493Y-31573640D01*
X7834011Y-31576717D01*
X7708488Y-31649188D01*
X7708482Y-31649193D01*
X7605993Y-31751682D01*
X7605988Y-31751688D01*
X7533517Y-31877211D01*
X7533516Y-31877215D01*
X7496000Y-32017225D01*
X7496000Y-32162175D01*
X7533057Y-32300473D01*
X7533517Y-32302188D01*
X7605988Y-32427711D01*
X7605990Y-32427713D01*
X7605991Y-32427715D01*
X7708485Y-32530209D01*
X7708486Y-32530210D01*
X7708488Y-32530211D01*
X7834011Y-32602682D01*
X7834012Y-32602682D01*
X7834015Y-32602684D01*
X7974025Y-32640200D01*
X7974028Y-32640200D01*
X8118972Y-32640200D01*
X8118975Y-32640200D01*
X8258985Y-32602684D01*
X8384515Y-32530209D01*
X8487009Y-32427715D01*
X8559484Y-32302185D01*
X8597000Y-32162175D01*
X8597000Y-32121599D01*
X8616685Y-32054560D01*
X8633319Y-32033918D01*
X9462802Y-31204435D01*
X10300474Y-30366763D01*
X10310435Y-30349510D01*
X10349910Y-30281138D01*
X10372289Y-30197619D01*
X10375500Y-30185636D01*
X10375500Y-30086764D01*
X10375500Y-4244780D01*
X10395185Y-4177741D01*
X10443206Y-4134295D01*
X10576786Y-4066233D01*
X10576785Y-4066233D01*
X10576788Y-4066232D01*
X10716928Y-3964414D01*
X10839414Y-3841928D01*
X10941232Y-3701788D01*
X11019873Y-3547445D01*
X11073402Y-3382701D01*
X11100500Y-3211611D01*
X11100500Y-2788389D01*
X11073402Y-2617299D01*
X11019873Y-2452555D01*
X10941232Y-2298212D01*
X10871428Y-2202135D01*
X20899500Y-2202135D01*
X20899500Y-3797870D01*
X20899501Y-3797876D01*
X20905908Y-3857483D01*
X20956202Y-3992328D01*
X20956206Y-3992335D01*
X21042452Y-4107544D01*
X21042455Y-4107547D01*
X21157664Y-4193793D01*
X21157671Y-4193797D01*
X21202618Y-4210561D01*
X21292517Y-4244091D01*
X21352127Y-4250500D01*
X21604701Y-4250499D01*
X21671739Y-4270183D01*
X21717494Y-4322987D01*
X21728700Y-4374499D01*
X21728700Y-8949818D01*
X21728500Y-8950565D01*
X21728500Y-9049435D01*
X21728700Y-9050181D01*
X21728700Y-21589214D01*
X21709015Y-21656253D01*
X21692381Y-21676895D01*
X21663693Y-21705582D01*
X21663688Y-21705588D01*
X21591217Y-21831111D01*
X21591216Y-21831115D01*
X21553700Y-21971125D01*
X21553700Y-22116075D01*
X21583366Y-22226788D01*
X21591217Y-22256088D01*
X21663688Y-22381611D01*
X21663690Y-22381613D01*
X21663691Y-22381615D01*
X21766185Y-22484109D01*
X21766186Y-22484110D01*
X21766188Y-22484111D01*
X21891711Y-22556582D01*
X21891712Y-22556582D01*
X21891715Y-22556584D01*
X22031725Y-22594100D01*
X22031728Y-22594100D01*
X22176672Y-22594100D01*
X22176675Y-22594100D01*
X22316685Y-22556584D01*
X22442215Y-22484109D01*
X22544709Y-22381615D01*
X22617184Y-22256085D01*
X22654700Y-22116075D01*
X22654700Y-21971125D01*
X22617184Y-21831115D01*
X22580636Y-21767813D01*
X22544711Y-21705588D01*
X22544706Y-21705582D01*
X22516019Y-21676895D01*
X22482534Y-21615572D01*
X22479700Y-21589214D01*
X22479700Y-9499500D01*
X22499385Y-9432461D01*
X22552189Y-9386706D01*
X22603700Y-9375500D01*
X27534514Y-9375500D01*
X27601553Y-9395185D01*
X27647308Y-9447989D01*
X27657252Y-9517147D01*
X27628227Y-9580703D01*
X27622195Y-9587181D01*
X27614693Y-9594682D01*
X27614688Y-9594688D01*
X27542217Y-9720211D01*
X27542216Y-9720215D01*
X27504700Y-9860225D01*
X27504700Y-9860227D01*
X27504700Y-9900801D01*
X27485015Y-9967840D01*
X27468381Y-9988482D01*
X27208826Y-10248036D01*
X27159391Y-10333659D01*
X27159391Y-10333660D01*
X27159390Y-10333662D01*
X27133800Y-10429165D01*
X27133800Y-10429167D01*
X27133800Y-32330514D01*
X27114115Y-32397553D01*
X27097481Y-32418195D01*
X27068793Y-32446882D01*
X27068788Y-32446888D01*
X26996317Y-32572411D01*
X26996316Y-32572415D01*
X26958800Y-32712425D01*
X26958800Y-32857375D01*
X26987482Y-32964416D01*
X26996317Y-32997388D01*
X27068788Y-33122911D01*
X27068790Y-33122913D01*
X27068791Y-33122915D01*
X27171285Y-33225409D01*
X27171286Y-33225410D01*
X27171288Y-33225411D01*
X27296811Y-33297882D01*
X27296812Y-33297882D01*
X27296815Y-33297884D01*
X27436825Y-33335400D01*
X27436828Y-33335400D01*
X27581772Y-33335400D01*
X27581775Y-33335400D01*
X27721785Y-33297884D01*
X27721786Y-33297882D01*
X27729635Y-33295780D01*
X27730022Y-33297225D01*
X27790511Y-33290719D01*
X27852992Y-33321991D01*
X27888647Y-33382079D01*
X27892500Y-33412750D01*
X27892500Y-38420827D01*
X27892433Y-38421079D01*
X27892500Y-38470148D01*
X27892500Y-38519450D01*
X27892526Y-38519644D01*
X27892566Y-38519945D01*
X27905392Y-38567550D01*
X27905435Y-38567712D01*
X27918089Y-38614935D01*
X27918265Y-38615359D01*
X27918269Y-38615369D01*
X27918286Y-38615412D01*
X27918289Y-38615417D01*
X27942906Y-38657920D01*
X27942907Y-38657921D01*
X27965961Y-38697854D01*
X27972424Y-38724500D01*
X27981918Y-38763639D01*
X27982200Y-38763639D01*
X27982200Y-38764800D01*
X27982431Y-38765753D01*
X27982200Y-38768923D01*
X27982200Y-38769731D01*
X27982200Y-38897869D01*
X27982200Y-38897871D01*
X27982199Y-38897871D01*
X28007197Y-39023538D01*
X28007199Y-39023544D01*
X28056233Y-39141924D01*
X28056238Y-39141933D01*
X28127423Y-39248468D01*
X28127426Y-39248472D01*
X28218027Y-39339073D01*
X28218031Y-39339076D01*
X28324566Y-39410261D01*
X28324572Y-39410264D01*
X28324573Y-39410265D01*
X28442956Y-39459301D01*
X28442960Y-39459301D01*
X28442961Y-39459302D01*
X28568628Y-39484300D01*
X28568631Y-39484300D01*
X28696771Y-39484300D01*
X28806452Y-39462482D01*
X28822444Y-39459301D01*
X28940827Y-39410265D01*
X29047369Y-39339076D01*
X29137976Y-39248469D01*
X29209165Y-39141927D01*
X29258201Y-39023544D01*
X29283200Y-38897869D01*
X29283200Y-38769731D01*
X29283200Y-38769728D01*
X29258202Y-38644061D01*
X29258201Y-38644060D01*
X29258201Y-38644056D01*
X29209165Y-38525673D01*
X29209164Y-38525672D01*
X29209161Y-38525666D01*
X29137976Y-38419131D01*
X29137973Y-38419127D01*
X29047372Y-38328526D01*
X29047368Y-38328523D01*
X28940833Y-38257338D01*
X28940824Y-38257333D01*
X28822444Y-38208299D01*
X28822438Y-38208297D01*
X28743308Y-38192557D01*
X28681397Y-38160172D01*
X28646823Y-38099456D01*
X28643500Y-38070940D01*
X28643500Y-37224352D01*
X28663185Y-37157313D01*
X28715989Y-37111558D01*
X28785147Y-37101614D01*
X28829497Y-37116963D01*
X28915615Y-37166684D01*
X29055625Y-37204200D01*
X29055628Y-37204200D01*
X29200572Y-37204200D01*
X29200575Y-37204200D01*
X29340585Y-37166684D01*
X29466115Y-37094209D01*
X29494905Y-37065419D01*
X29556228Y-37031934D01*
X29582586Y-37029100D01*
X31350935Y-37029100D01*
X31350936Y-37029100D01*
X31398686Y-37016305D01*
X31446438Y-37003510D01*
X31532062Y-36954075D01*
X31601975Y-36884162D01*
X31907912Y-36578225D01*
X33432100Y-36578225D01*
X33432100Y-36723175D01*
X33464384Y-36843659D01*
X33469617Y-36863188D01*
X33542088Y-36988711D01*
X33542090Y-36988713D01*
X33542091Y-36988715D01*
X33644585Y-37091209D01*
X33644586Y-37091210D01*
X33644588Y-37091211D01*
X33770111Y-37163682D01*
X33770112Y-37163682D01*
X33770115Y-37163684D01*
X33910125Y-37201200D01*
X33910128Y-37201200D01*
X34055072Y-37201200D01*
X34055075Y-37201200D01*
X34195085Y-37163684D01*
X34320615Y-37091209D01*
X34423109Y-36988715D01*
X34495584Y-36863185D01*
X34533100Y-36723175D01*
X34533100Y-36682599D01*
X34552785Y-36615560D01*
X34569419Y-36594918D01*
X35794466Y-35369871D01*
X37080887Y-34083449D01*
X37142208Y-34049966D01*
X37211900Y-34054950D01*
X37267833Y-34096822D01*
X37292250Y-34162286D01*
X37291040Y-34190528D01*
X37279500Y-34263389D01*
X37279500Y-34436611D01*
X37306598Y-34607701D01*
X37360127Y-34772445D01*
X37438768Y-34926788D01*
X37540586Y-35066928D01*
X37663072Y-35189414D01*
X37803212Y-35291232D01*
X37957555Y-35369873D01*
X38122299Y-35423402D01*
X38293389Y-35450500D01*
X38293390Y-35450500D01*
X38466610Y-35450500D01*
X38466611Y-35450500D01*
X38637701Y-35423402D01*
X38802445Y-35369873D01*
X38956788Y-35291232D01*
X39096928Y-35189414D01*
X39219414Y-35066928D01*
X39321232Y-34926788D01*
X39399873Y-34772445D01*
X39453402Y-34607701D01*
X39480500Y-34436611D01*
X39480500Y-34263389D01*
X39453402Y-34092299D01*
X39399873Y-33927555D01*
X39321232Y-33773212D01*
X39219414Y-33633072D01*
X39096928Y-33510586D01*
X39093483Y-33507141D01*
X39094937Y-33505686D01*
X39061460Y-33454421D01*
X39060950Y-33384553D01*
X39092498Y-33330938D01*
X39112875Y-33310562D01*
X39866174Y-32557263D01*
X39867374Y-32555185D01*
X39915610Y-32471638D01*
X39937438Y-32390174D01*
X39937599Y-32389576D01*
X39941200Y-32376136D01*
X39941200Y-27866267D01*
X39941200Y-27866265D01*
X39915610Y-27770762D01*
X39866175Y-27685138D01*
X39796262Y-27615225D01*
X39437322Y-27256285D01*
X39403837Y-27194962D01*
X39407071Y-27130289D01*
X39453402Y-26987701D01*
X39480500Y-26816611D01*
X39480500Y-26643389D01*
X39453402Y-26472299D01*
X39399873Y-26307555D01*
X39321232Y-26153212D01*
X39219414Y-26013072D01*
X39096928Y-25890586D01*
X38956788Y-25788768D01*
X38802445Y-25710127D01*
X38637701Y-25656598D01*
X38637699Y-25656597D01*
X38637698Y-25656597D01*
X38506271Y-25635781D01*
X38466611Y-25629500D01*
X38293389Y-25629500D01*
X38253728Y-25635781D01*
X38122302Y-25656597D01*
X37957552Y-25710128D01*
X37803211Y-25788768D01*
X37773884Y-25810076D01*
X37663072Y-25890586D01*
X37663070Y-25890588D01*
X37663069Y-25890588D01*
X37540587Y-26013070D01*
X37495018Y-26075791D01*
X37439687Y-26118456D01*
X37370074Y-26124435D01*
X37308279Y-26091829D01*
X37273922Y-26030990D01*
X37270700Y-26002905D01*
X37270700Y-25881698D01*
X37290385Y-25814659D01*
X37307015Y-25794021D01*
X37853715Y-25247320D01*
X37915036Y-25213837D01*
X37979710Y-25217071D01*
X38122299Y-25263402D01*
X38293389Y-25290500D01*
X38293390Y-25290500D01*
X38466610Y-25290500D01*
X38466611Y-25290500D01*
X38637701Y-25263402D01*
X38802445Y-25209873D01*
X38956788Y-25131232D01*
X39096928Y-25029414D01*
X39219414Y-24906928D01*
X39321232Y-24766788D01*
X39399873Y-24612445D01*
X39453402Y-24447701D01*
X39480500Y-24276611D01*
X39480500Y-24103389D01*
X39453402Y-23932299D01*
X39399873Y-23767555D01*
X39321232Y-23613212D01*
X39219414Y-23473072D01*
X39096928Y-23350586D01*
X38956788Y-23248768D01*
X38802445Y-23170127D01*
X38637701Y-23116598D01*
X38637699Y-23116597D01*
X38637698Y-23116597D01*
X38506271Y-23095781D01*
X38466611Y-23089500D01*
X38293389Y-23089500D01*
X38253728Y-23095781D01*
X38122302Y-23116597D01*
X37957552Y-23170128D01*
X37803211Y-23248768D01*
X37773884Y-23270076D01*
X37663072Y-23350586D01*
X37663070Y-23350588D01*
X37663069Y-23350588D01*
X37540588Y-23473069D01*
X37540588Y-23473070D01*
X37540586Y-23473072D01*
X37496859Y-23533256D01*
X37438768Y-23613211D01*
X37360128Y-23767552D01*
X37306597Y-23932302D01*
X37279500Y-24103389D01*
X37279500Y-24276610D01*
X37306597Y-24447697D01*
X37352927Y-24590285D01*
X37354922Y-24660126D01*
X37322677Y-24716284D01*
X36664638Y-25374325D01*
X36594726Y-25444236D01*
X36545291Y-25529859D01*
X36545291Y-25529860D01*
X36545290Y-25529862D01*
X36519700Y-25625365D01*
X36519700Y-25625367D01*
X36519700Y-33531201D01*
X36500015Y-33598240D01*
X36483381Y-33618882D01*
X34038382Y-36063881D01*
X33977059Y-36097366D01*
X33950701Y-36100200D01*
X33910125Y-36100200D01*
X33781593Y-36134640D01*
X33770111Y-36137717D01*
X33644588Y-36210188D01*
X33644582Y-36210193D01*
X33542093Y-36312682D01*
X33542088Y-36312688D01*
X33469617Y-36438211D01*
X33469616Y-36438215D01*
X33432100Y-36578225D01*
X31907912Y-36578225D01*
X35023574Y-33462563D01*
X35023575Y-33462559D01*
X35023578Y-33462557D01*
X35034464Y-33443702D01*
X35042331Y-33430076D01*
X35073010Y-33376938D01*
X35090795Y-33310563D01*
X35098600Y-33281436D01*
X35098600Y-33182564D01*
X35098600Y-25513798D01*
X35118285Y-25446759D01*
X35134914Y-25426122D01*
X37853715Y-22707320D01*
X37915036Y-22673837D01*
X37979710Y-22677071D01*
X38122299Y-22723402D01*
X38293389Y-22750500D01*
X38293390Y-22750500D01*
X38466610Y-22750500D01*
X38466611Y-22750500D01*
X38637701Y-22723402D01*
X38802445Y-22669873D01*
X38956788Y-22591232D01*
X39096928Y-22489414D01*
X39219414Y-22366928D01*
X39321232Y-22226788D01*
X39399873Y-22072445D01*
X39453402Y-21907701D01*
X39480500Y-21736611D01*
X39480500Y-21563389D01*
X39453402Y-21392299D01*
X39399873Y-21227555D01*
X39321232Y-21073212D01*
X39219414Y-20933072D01*
X39096928Y-20810586D01*
X38956788Y-20708768D01*
X38899750Y-20679706D01*
X38802446Y-20630127D01*
X38790501Y-20626246D01*
X38732826Y-20586807D01*
X38705630Y-20522448D01*
X38709779Y-20473608D01*
X38713962Y-20459260D01*
X38729910Y-20431638D01*
X38755500Y-20336135D01*
X38755500Y-20316793D01*
X38760457Y-20299792D01*
X38770129Y-20284677D01*
X38775185Y-20267461D01*
X38788570Y-20255862D01*
X38798119Y-20240942D01*
X38814428Y-20233455D01*
X38827989Y-20221706D01*
X38850875Y-20216727D01*
X38861619Y-20211796D01*
X38868836Y-20212819D01*
X38879500Y-20210500D01*
X39254676Y-20210500D01*
X39254677Y-20210499D01*
X39327740Y-20195966D01*
X39410601Y-20140601D01*
X39465966Y-20057740D01*
X39480500Y-19984674D01*
X39480500Y-18235326D01*
X39480500Y-18235323D01*
X39480499Y-18235321D01*
X39465967Y-18162264D01*
X39465966Y-18162260D01*
X39444342Y-18129897D01*
X39410601Y-18079399D01*
X39327740Y-18024034D01*
X39327739Y-18024033D01*
X39327735Y-18024032D01*
X39254677Y-18009500D01*
X39254674Y-18009500D01*
X37505326Y-18009500D01*
X37505323Y-18009500D01*
X37432264Y-18024032D01*
X37432260Y-18024033D01*
X37349399Y-18079399D01*
X37294033Y-18162260D01*
X37294032Y-18162264D01*
X37279500Y-18235321D01*
X37279500Y-19984678D01*
X37294032Y-20057735D01*
X37294033Y-20057739D01*
X37304844Y-20073918D01*
X37349399Y-20140601D01*
X37390394Y-20167993D01*
X37435200Y-20221603D01*
X37443909Y-20290928D01*
X37413755Y-20353956D01*
X37409186Y-20358776D01*
X33752038Y-24015925D01*
X33682126Y-24085836D01*
X33632691Y-24171459D01*
X33632691Y-24171460D01*
X33632690Y-24171462D01*
X33607100Y-24266965D01*
X33607100Y-24266967D01*
X33607100Y-26916114D01*
X33587415Y-26983153D01*
X33570781Y-27003795D01*
X33542093Y-27032482D01*
X33542088Y-27032488D01*
X33469617Y-27158011D01*
X33469616Y-27158015D01*
X33432100Y-27298025D01*
X33432100Y-27442975D01*
X33465979Y-27569411D01*
X33469617Y-27582988D01*
X33542088Y-27708511D01*
X33542093Y-27708517D01*
X33570781Y-27737205D01*
X33604266Y-27798528D01*
X33607100Y-27824886D01*
X33607100Y-32626014D01*
X33587415Y-32693053D01*
X33570781Y-32713695D01*
X33542093Y-32742382D01*
X33542088Y-32742388D01*
X33469617Y-32867911D01*
X33469616Y-32867915D01*
X33432100Y-33007925D01*
X33432100Y-33152875D01*
X33467179Y-33283789D01*
X33469617Y-33292888D01*
X33542088Y-33418411D01*
X33542090Y-33418413D01*
X33542091Y-33418415D01*
X33644585Y-33520909D01*
X33668562Y-33534752D01*
X33716776Y-33585317D01*
X33730000Y-33653923D01*
X33704033Y-33718788D01*
X33694242Y-33729819D01*
X31182282Y-36241781D01*
X31120959Y-36275266D01*
X31094601Y-36278100D01*
X29582386Y-36278100D01*
X29515347Y-36258415D01*
X29494705Y-36241781D01*
X29466117Y-36213193D01*
X29466111Y-36213188D01*
X29340588Y-36140717D01*
X29340589Y-36140717D01*
X29329106Y-36137640D01*
X29200575Y-36103200D01*
X29055625Y-36103200D01*
X28927093Y-36137640D01*
X28915611Y-36140717D01*
X28829500Y-36190434D01*
X28761600Y-36206907D01*
X28695573Y-36184054D01*
X28652382Y-36129133D01*
X28643500Y-36083047D01*
X28643500Y-33248050D01*
X28658920Y-33190501D01*
X28658798Y-33190451D01*
X28659183Y-33189521D01*
X28660114Y-33186047D01*
X28661910Y-33182937D01*
X28687500Y-33087434D01*
X28687500Y-32482564D01*
X28661910Y-32387061D01*
X28660109Y-32383941D01*
X28659179Y-32380470D01*
X28658800Y-32379555D01*
X28658920Y-32379505D01*
X28643500Y-32321948D01*
X28643500Y-21510486D01*
X28663185Y-21443447D01*
X28679819Y-21422805D01*
X28709009Y-21393615D01*
X28781484Y-21268085D01*
X28817839Y-21132404D01*
X28854204Y-21072746D01*
X28917051Y-21042217D01*
X28937614Y-21040500D01*
X29072472Y-21040500D01*
X29072475Y-21040500D01*
X29212485Y-21002984D01*
X29338015Y-20930509D01*
X29440509Y-20828015D01*
X29512984Y-20702485D01*
X29550500Y-20562475D01*
X29550500Y-20417525D01*
X29512984Y-20277515D01*
X29507179Y-20267461D01*
X29440511Y-20151988D01*
X29440506Y-20151982D01*
X29411819Y-20123295D01*
X29378334Y-20061972D01*
X29375500Y-20035614D01*
X29375500Y-10878711D01*
X53149500Y-10878711D01*
X53149500Y-11121288D01*
X53181161Y-11361785D01*
X53243947Y-11596104D01*
X53336773Y-11820205D01*
X53336776Y-11820212D01*
X53458064Y-12030289D01*
X53458066Y-12030292D01*
X53458067Y-12030293D01*
X53605733Y-12222736D01*
X53605739Y-12222743D01*
X53777256Y-12394260D01*
X53777262Y-12394265D01*
X53969711Y-12541936D01*
X54179788Y-12663224D01*
X54403900Y-12756054D01*
X54638211Y-12818838D01*
X54813600Y-12841928D01*
X54878711Y-12850500D01*
X54878712Y-12850500D01*
X55121289Y-12850500D01*
X55169388Y-12844167D01*
X55361789Y-12818838D01*
X55596100Y-12756054D01*
X55820212Y-12663224D01*
X56030289Y-12541936D01*
X56222738Y-12394265D01*
X56394265Y-12222738D01*
X56541936Y-12030289D01*
X56663224Y-11820212D01*
X56756054Y-11596100D01*
X56818838Y-11361789D01*
X56850500Y-11121288D01*
X56850500Y-10878712D01*
X56818838Y-10638211D01*
X56756054Y-10403900D01*
X56663224Y-10179788D01*
X56541936Y-9969711D01*
X56394265Y-9777262D01*
X56394260Y-9777256D01*
X56222743Y-9605739D01*
X56222736Y-9605733D01*
X56030293Y-9458067D01*
X56030292Y-9458066D01*
X56030289Y-9458064D01*
X55820212Y-9336776D01*
X55820205Y-9336773D01*
X55596104Y-9243947D01*
X55361785Y-9181161D01*
X55121289Y-9149500D01*
X55121288Y-9149500D01*
X54878712Y-9149500D01*
X54878711Y-9149500D01*
X54638214Y-9181161D01*
X54403895Y-9243947D01*
X54179794Y-9336773D01*
X54179785Y-9336777D01*
X53969706Y-9458067D01*
X53777263Y-9605733D01*
X53777256Y-9605739D01*
X53605739Y-9777256D01*
X53605733Y-9777263D01*
X53458067Y-9969706D01*
X53336777Y-10179785D01*
X53336773Y-10179794D01*
X53243947Y-10403895D01*
X53181161Y-10638214D01*
X53149500Y-10878711D01*
X29375500Y-10878711D01*
X29375500Y-8950567D01*
X29375500Y-8950565D01*
X29349910Y-8855062D01*
X29300475Y-8769438D01*
X29230562Y-8699525D01*
X29144938Y-8650090D01*
X29049435Y-8624500D01*
X29049433Y-8624500D01*
X22603700Y-8624500D01*
X22536661Y-8604815D01*
X22490906Y-8552011D01*
X22479700Y-8500500D01*
X22479700Y-4374499D01*
X22499385Y-4307460D01*
X22552189Y-4261705D01*
X22603700Y-4250499D01*
X22647871Y-4250499D01*
X22647872Y-4250499D01*
X22707483Y-4244091D01*
X22842331Y-4193796D01*
X22957546Y-4107546D01*
X23043796Y-3992331D01*
X23094091Y-3857483D01*
X23100500Y-3797873D01*
X23100499Y-2202128D01*
X23094091Y-2142517D01*
X23054208Y-2035586D01*
X23043797Y-2007671D01*
X23043793Y-2007664D01*
X22957547Y-1892455D01*
X22957544Y-1892452D01*
X22842335Y-1806206D01*
X22842328Y-1806202D01*
X22707482Y-1755908D01*
X22707483Y-1755908D01*
X22647883Y-1749501D01*
X22647881Y-1749500D01*
X22647873Y-1749500D01*
X22647864Y-1749500D01*
X21352129Y-1749500D01*
X21352123Y-1749501D01*
X21292516Y-1755908D01*
X21157671Y-1806202D01*
X21157664Y-1806206D01*
X21042455Y-1892452D01*
X21042452Y-1892455D01*
X20956206Y-2007664D01*
X20956202Y-2007671D01*
X20905908Y-2142517D01*
X20899501Y-2202116D01*
X20899501Y-2202123D01*
X20899500Y-2202135D01*
X10871428Y-2202135D01*
X10839414Y-2158072D01*
X10716928Y-2035586D01*
X10576788Y-1933768D01*
X10422445Y-1855127D01*
X10257701Y-1801598D01*
X10257699Y-1801597D01*
X10257698Y-1801597D01*
X10126271Y-1780781D01*
X10086611Y-1774500D01*
X9913389Y-1774500D01*
X9873728Y-1780781D01*
X9742302Y-1801597D01*
X9577552Y-1855128D01*
X9423211Y-1933768D01*
X9343256Y-1991859D01*
X9283072Y-2035586D01*
X9283070Y-2035588D01*
X9283069Y-2035588D01*
X9160588Y-2158069D01*
X9160588Y-2158070D01*
X9160586Y-2158072D01*
X9128586Y-2202116D01*
X9058768Y-2298211D01*
X8980128Y-2452550D01*
X8944753Y-2561424D01*
X8926101Y-2588700D01*
X8908333Y-2616550D01*
X8906471Y-2617407D01*
X8905315Y-2619099D01*
X8874885Y-2631958D01*
X8844874Y-2645784D01*
X8842495Y-2645646D01*
X8840956Y-2646297D01*
X8809580Y-2645900D01*
X8802060Y-2644844D01*
X8726135Y-2624500D01*
X8657173Y-2624500D01*
X8648591Y-2623295D01*
X8624338Y-2612315D01*
X8598794Y-2604815D01*
X8593000Y-2598129D01*
X8584940Y-2594480D01*
X8570471Y-2572129D01*
X8553039Y-2552011D01*
X8547902Y-2538819D01*
X8519871Y-2452550D01*
X8441231Y-2298211D01*
X8421964Y-2271692D01*
X8339414Y-2158072D01*
X8216928Y-2035586D01*
X8076788Y-1933768D01*
X7922445Y-1855127D01*
X7757701Y-1801598D01*
X7757699Y-1801597D01*
X7757698Y-1801597D01*
X7626271Y-1780781D01*
X7586611Y-1774500D01*
X7413389Y-1774500D01*
X7373728Y-1780781D01*
X7242302Y-1801597D01*
X7077552Y-1855128D01*
X6923211Y-1933768D01*
X6843256Y-1991859D01*
X6783072Y-2035586D01*
X6783070Y-2035588D01*
X6783069Y-2035588D01*
X6660588Y-2158069D01*
X6660588Y-2158070D01*
X6660586Y-2158072D01*
X6628586Y-2202116D01*
X6558768Y-2298211D01*
X6480128Y-2452552D01*
X6426597Y-2617302D01*
X6399502Y-2788379D01*
X6399500Y-2788389D01*
X5697621Y-2788389D01*
X5697619Y-2788380D01*
X5642929Y-2656347D01*
X5642928Y-2656346D01*
X5642925Y-2656340D01*
X5563532Y-2537521D01*
X5563529Y-2537517D01*
X5462482Y-2436470D01*
X5462478Y-2436467D01*
X5343659Y-2357074D01*
X5343650Y-2357069D01*
X5211620Y-2302381D01*
X5211614Y-2302379D01*
X5071457Y-2274500D01*
X5071455Y-2274500D01*
X4928545Y-2274500D01*
X4928543Y-2274500D01*
X4788385Y-2302379D01*
X4788379Y-2302381D01*
X4656349Y-2357069D01*
X4656340Y-2357074D01*
X4537521Y-2436467D01*
X4537517Y-2436470D01*
X4436470Y-2537517D01*
X4436467Y-2537521D01*
X4357074Y-2656340D01*
X4357069Y-2656349D01*
X4302381Y-2788379D01*
X4302379Y-2788385D01*
X4274500Y-2928542D01*
X4274500Y-2928545D01*
X4274500Y-3071455D01*
X4274500Y-3071457D01*
X4274499Y-3071457D01*
X500500Y-3071457D01*
X500500Y-624500D01*
X520185Y-557461D01*
X572989Y-511706D01*
X624500Y-500500D01*
X64375500Y-500500D01*
X64442539Y-520185D01*
G37*
%TD.AperFunction*%
%TD*%
M02*
