M48
; DRILL file KiCad 10.0.4-10.0.4~ubuntu24.04.1 date 2026-06-26T14:02:44
; FORMAT={-:-/ absolute / metric / decimal}
; #@! TF.CreationDate,2026-06-26T14:02:44-06:00
; #@! TF.GenerationSoftware,Kicad,Pcbnew,10.0.4-10.0.4~ubuntu24.04.1
; #@! TF.FileFunction,Plated,1,4,PTH
FMAT,2
METRIC
; #@! TA.AperFunction,Plated,PTH,ViaDrill
T1C0.300
; #@! TA.AperFunction,Plated,PTH,ViaDrill
T2C0.400
; #@! TA.AperFunction,Plated,PTH,ComponentDrill
T3C0.950
; #@! TA.AperFunction,Plated,PTH,ComponentDrill
T4C1.000
%
G90
G05
T1
X7.943Y-29.494
X8.046Y-32.09
X16.241Y-56.467
X19.164Y-35.733
X19.164Y-55.8
X20.203Y-35.742
X22.104Y-22.044
X27.509Y-32.785
X28.055Y-9.933
X29.0Y-20.49
X29.1Y-23.02
X29.128Y-36.654
X33.983Y-27.37
X33.983Y-33.08
X33.983Y-36.651
X37.522Y-32.893
X51.103Y-30.0
X60.237Y-30.529
T2
X5.552Y-24.266
X7.247Y-32.743
X7.449Y-27.133
X8.353Y-21.254
X10.535Y-58.29
X28.268Y-21.056
X28.633Y-38.834
X29.063Y-41.02
X30.975Y-25.49
X30.978Y-32.409
X30.979Y-38.02
X30.985Y-35.091
X54.271Y-16.749
T3
X1.5Y-34.0
X1.5Y-36.5
X1.5Y-39.0
X1.5Y-41.5
X5.0Y-3.0
X7.5Y-3.0
X10.0Y-3.0
X12.5Y-3.0
X62.15Y-4.5
X62.15Y-7.0
X62.15Y-9.5
X62.15Y-12.0
X62.15Y-14.5
X62.15Y-17.0
X62.15Y-29.5
X62.15Y-32.0
X62.15Y-34.5
X62.15Y-37.0
X62.15Y-39.5
X62.15Y-42.0
T4
X1.5Y-20.0
X1.5Y-22.5
X22.0Y-3.0
X24.5Y-3.0
X38.38Y-19.11
X38.38Y-21.65
X38.38Y-24.19
X38.38Y-26.73
X38.38Y-29.27
X38.38Y-31.81
X38.38Y-34.35
X38.38Y-36.89
X46.0Y-50.0
X51.0Y-50.0
X53.62Y-19.11
X53.62Y-21.65
X53.62Y-24.19
X53.62Y-26.73
X53.62Y-29.27
X53.62Y-31.81
X53.62Y-34.35
X53.62Y-36.89
M30
